# Blender 3.5.1
# www.blender.org
o budynek5.001
v 1.940170 0.000007 -1.986899
v 1.940170 5.855957 -1.986899
v 1.940170 0.000007 2.087589
v 1.940170 5.855957 2.087589
v -2.134319 0.000007 -1.986899
v -2.134319 5.855957 -1.986899
v -2.134319 0.000007 2.087589
v -2.134319 5.855957 2.087589
v 1.940170 1.975757 -1.986899
v 1.940170 5.306025 -1.986899
v -2.134319 5.306020 -1.986899
v -2.134319 1.975760 -1.986899
v -1.629213 5.306024 -1.986899
v -1.643218 1.975760 -1.986899
v 0.191540 5.306024 -1.986899
v 0.191540 1.975760 -1.986899
v 0.779782 5.306024 -1.986899
v 0.779782 1.975760 -1.986899
v -0.452728 5.306024 -1.986899
v -0.452728 1.975760 -1.986899
v -1.026963 5.306024 -1.986899
v -1.026963 1.975760 -1.986899
v 1.410043 5.306025 -1.986899
v 1.410043 1.975757 -1.986899
v 0.779782 5.306024 -1.592462
v 0.779782 1.975759 -1.592462
v 1.410043 5.306025 -1.592462
v 1.410043 1.975757 -1.592462
v 0.191540 5.306024 -1.636334
v 0.191540 1.975759 -1.636334
v -0.452728 5.306024 -1.636334
v -0.452728 1.975759 -1.636334
v -1.629213 5.306024 -1.648160
v -1.643218 1.975759 -1.648160
v -1.026963 5.306024 -1.648160
v -1.026963 1.975759 -1.648160
v 1.487512 5.167399 -1.575993
v 1.487512 6.222860 -1.575993
v 1.487512 5.167399 1.655651
v 1.487512 6.222860 1.655651
v -1.641843 5.167399 -1.575993
v -1.641843 6.222860 -1.575993
v -1.641843 5.167399 1.655651
v -1.641843 6.222860 1.655651
v -2.134319 5.362132 2.087589
v 1.940170 5.362132 2.087589
v -2.134319 2.100651 2.087589
v 1.940172 2.100651 2.087589
v 1.295322 5.855957 -1.986899
v 1.295322 5.855957 2.087589
v 1.295320 5.362132 2.087589
v 1.295322 2.100651 2.087589
v 1.295320 0.000007 2.087589
v 1.295322 0.000007 -1.986899
v 0.440392 5.855957 -1.986899
v 0.440392 5.855957 2.087589
v 0.440392 5.362132 2.087589
v 0.440392 2.100651 2.087589
v 0.440392 0.000007 2.087589
v 0.440392 0.000007 -1.986899
v -0.025568 5.855957 -1.986899
v -0.025568 5.855957 2.087589
v -0.025566 5.362132 2.087589
v -0.025566 2.100651 2.087589
v -0.025566 0.000007 2.087589
v -0.025568 0.000007 -1.986899
v -0.908086 5.855957 -1.986899
v -0.908086 5.855957 2.087589
v -0.908082 5.362132 2.087589
v -0.908082 2.100651 2.087589
v -0.908082 0.000007 2.087589
v -0.908086 0.000007 -1.986899
v -1.394607 5.855957 -1.986899
v -1.394607 5.855957 2.087589
v -1.394605 5.362132 2.087589
v -1.394605 2.100651 2.087589
v -1.394605 0.000007 2.087589
v -1.394607 0.000007 -1.986899
v -1.902924 5.855957 -1.986899
v -1.902924 5.855957 2.087589
v -1.902924 5.362132 2.087589
v -1.902924 2.100651 2.087589
v -1.902924 0.000007 2.087589
v -1.902924 0.000007 -1.986899
v 0.991363 6.104665 -1.053464
v 0.991363 6.812468 -1.053464
v 0.991363 6.104665 -0.819864
v 0.991363 6.812468 -0.819864
v -1.153320 6.104665 -1.053464
v -1.153320 6.812468 -1.053464
v -1.153320 6.104665 -0.819864
v -1.153320 6.812468 -0.819864
v 1.222662 6.165254 0.730865
v 1.222662 7.043293 0.730865
v 1.222662 6.165254 1.337944
v 1.222662 7.043293 1.337944
v 0.670035 6.165254 0.730865
v 0.670035 7.043293 0.730865
v 0.670035 6.165254 1.337944
v 0.670035 7.043293 1.337944
vn 1.0000 -0.0000 -0.0000
vn -0.0000 -0.0000 1.0000
vn -1.0000 -0.0000 -0.0000
vn -0.0000 -0.0000 -1.0000
vn -0.0000 -1.0000 -0.0000
vn -0.0000 1.0000 -0.0000
vn 1.0000 -0.0042 -0.0000
vt 0.878336 0.796476
vt 0.898870 0.887487
vt 0.847760 0.796476
vt 0.928792 0.895734
vt 0.847760 0.820907
vt 0.878336 0.820907
vt 0.868144 0.796476
vt 0.909062 0.887487
vt 0.847760 0.796476
vt 0.847760 0.820907
vt 0.938984 0.895734
vt 0.868144 0.820907
vt 0.898870 0.897679
vt 0.857952 0.796476
vt 0.857952 0.820907
vt 0.928792 0.885542
vt 0.909062 0.897679
vt 0.837567 0.796476
vt 0.868144 0.796476
vt 0.868144 0.820907
vt 0.837567 0.820907
vt 0.938984 0.885542
vt 0.847760 0.801418
vt 0.878336 0.801418
vt 0.847760 0.819531
vt 0.878336 0.819531
vt 0.857952 0.819531
vt 0.857952 0.801418
vt 0.968430 0.898899
vt 0.965790 0.843485
vt 0.856688 0.819531
vt 0.931490 0.929672
vt 0.965790 0.825372
vt 0.856723 0.801418
vt 0.938107 0.924039
vt 0.957478 0.929233
vt 0.852134 0.819531
vt 0.938107 0.905926
vt 0.934119 0.930835
vt 0.852134 0.801418
vt 0.965790 0.845382
vt 0.965011 0.863543
vt 0.850662 0.819531
vt 0.966363 0.876304
vt 0.965011 0.845430
vt 0.850662 0.801418
vt 0.965268 0.881656
vt 0.957478 0.930844
vt 0.853745 0.819531
vt 0.934119 0.929223
vt 0.965268 0.863543
vt 0.853745 0.801418
vt 0.968430 0.897393
vt 0.965011 0.863543
vt 0.855182 0.819531
vt 0.931490 0.931214
vt 0.965011 0.845430
vt 0.855182 0.801418
vt 0.965790 0.843805
vt 0.956242 0.892741
vt 0.849086 0.819531
vt 0.966363 0.877880
vt 0.956242 0.874628
vt 0.849086 0.801418
vt 0.081956 0.546614
vt 0.966777 0.845382
vt 0.964024 0.863543
vt 0.081956 0.560796
vt 0.967349 0.876304
vt 0.964024 0.845430
vt 0.083190 0.546614
vt 0.966777 0.843805
vt 0.957229 0.892741
vt 0.083190 0.560796
vt 0.967349 0.877880
vt 0.957229 0.874628
vt 0.938984 0.924039
vt 0.171628 0.573946
vt 0.958354 0.929233
vt 0.938984 0.905926
vt 0.171628 0.555833
vt 0.934996 0.930835
vt 0.173240 0.573946
vt 0.964391 0.881656
vt 0.958354 0.930844
vt 0.173240 0.555833
vt 0.934996 0.929223
vt 0.964391 0.863543
vt 0.969278 0.898899
vt 0.216585 0.551043
vt 0.964943 0.843485
vt 0.216550 0.569156
vt 0.932337 0.929672
vt 0.964943 0.825372
vt 0.969278 0.897393
vt 0.218092 0.551043
vt 0.965858 0.863543
vt 0.218092 0.569156
vt 0.932337 0.931214
vt 0.965858 0.845430
vt 0.947364 0.079541
vt 0.945368 0.067842
vt 0.944724 0.079541
vt 0.948008 0.067842
vt 0.941400 0.059727
vt 0.947364 0.071458
vt 0.875313 0.160537
vt 0.944724 0.071458
vt 0.877953 0.160537
vt 0.941400 0.051643
vt 0.947365 0.079541
vt 0.945368 0.060014
vt 0.944724 0.079541
vt 0.948008 0.060014
vt 0.933572 0.059727
vt 0.875313 0.168364
vt 0.947365 0.087625
vt 0.877953 0.168364
vt 0.944724 0.087625
vt 0.933572 0.051643
vt 0.837567 0.819672
vt 0.868144 0.819672
vt 0.847760 0.819672
vt 0.868144 0.819672
vt 0.837567 0.801731
vt 0.868144 0.801731
vt 0.847760 0.801731
vt 0.868144 0.801731
vt 0.928792 0.894121
vt 0.849373 0.820907
vt 0.846146 0.820907
vt 0.938984 0.894121
vt 0.846146 0.819672
vt 0.846146 0.801731
vt 0.909062 0.889100
vt 0.846146 0.796476
vt 0.898870 0.889100
vt 0.849373 0.796476
vt 0.928792 0.891982
vt 0.851511 0.820907
vt 0.844008 0.820907
vt 0.938984 0.891982
vt 0.844008 0.819672
vt 0.844008 0.801731
vt 0.909062 0.891238
vt 0.844008 0.796476
vt 0.898870 0.891238
vt 0.851511 0.796476
vt 0.928792 0.890817
vt 0.852677 0.820907
vt 0.842842 0.820907
vt 0.938984 0.890817
vt 0.842842 0.819672
vt 0.842842 0.801731
vt 0.909062 0.892404
vt 0.842842 0.796476
vt 0.898870 0.892404
vt 0.852677 0.796476
vt 0.928792 0.888609
vt 0.854884 0.820907
vt 0.840635 0.820907
vt 0.938984 0.888609
vt 0.840635 0.819672
vt 0.840635 0.801731
vt 0.909062 0.894612
vt 0.840635 0.796476
vt 0.898870 0.894612
vt 0.854884 0.796476
vt 0.928792 0.887392
vt 0.856101 0.820907
vt 0.839418 0.820907
vt 0.938984 0.887392
vt 0.839418 0.819672
vt 0.839418 0.801731
vt 0.909062 0.895829
vt 0.839418 0.796476
vt 0.898870 0.895829
vt 0.856101 0.796476
vt 0.928792 0.886121
vt 0.857373 0.820907
vt 0.838146 0.820907
vt 0.938984 0.886121
vt 0.838146 0.819672
vt 0.838146 0.801731
vt 0.909062 0.897100
vt 0.838146 0.796476
vt 0.898870 0.897100
vt 0.857373 0.796476
vt 0.707408 0.782757
vt 0.707408 0.842243
vt 0.692536 0.827371
vt 0.722279 0.782757
vt 0.722279 0.842243
vt 0.737151 0.827371
vt 0.707408 0.797629
vt 0.692536 0.812500
vt 0.722279 0.797629
vt 0.737151 0.812500
vt 0.707408 0.827371
vt 0.722279 0.827371
vt 0.707408 0.812500
vt 0.722279 0.812500
vt 0.207250 0.709861
vt 0.207250 0.723733
vt 0.203782 0.720265
vt 0.210718 0.709861
vt 0.210718 0.723733
vt 0.214187 0.720265
vt 0.207250 0.713329
vt 0.203782 0.716797
vt 0.210718 0.713329
vt 0.214187 0.716797
vt 0.207250 0.720265
vt 0.210718 0.720265
vt 0.207250 0.716797
vt 0.210718 0.716797
s 1
f 9/24/1 48/128/1 3/7/1 1/1/1
f 50/131/2 51/133/2 46/123/2 4/10/2
f 11/27/3 45/122/3 8/20/3 6/15/3
f 60/148/4 66/158/4 16/40/4 18/46/4
f 5/13/5 84/187/5 83/185/5 7/17/5
f 2/4/6 49/129/6 50/132/6 4/11/6
f 27/71/4 28/74/4 26/68/4 25/65/4
f 24/64/4 23/61/4 10/25/4 9/23/4
f 11/27/4 6/15/4 79/180/4 13/31/4
f 11/27/4 13/31/4 14/34/4 12/28/4
f 33/89/5 13/29/5 21/53/5 35/95/5
f 21/55/4 19/49/4 20/52/4 22/58/4
f 15/35/3 16/38/3 30/80/3 29/77/3
f 17/43/4 18/46/4 16/40/4 15/37/4
f 27/72/5 25/66/5 17/41/5 23/59/5
f 24/62/6 18/44/6 26/69/6 28/75/6
f 25/67/1 26/70/1 18/45/1 17/42/1
f 28/76/3 27/73/3 23/60/3 24/63/3
f 29/78/4 30/81/4 32/86/4 31/83/4
f 16/39/6 20/50/6 32/87/6 30/82/6
f 31/84/1 32/88/1 20/51/1 19/47/1
f 29/79/5 31/85/5 19/48/5 15/36/5
f 36/98/4 34/92/4 33/90/4 35/96/4
f 34/93/6 36/99/6 22/56/6 14/32/6
f 13/30/7 33/91/7 34/94/7 14/33/7
f 22/57/3 36/100/3 35/97/3 21/54/3
f 40/108/1 39/106/1 37/101/1 38/103/1
f 40/109/2 44/118/2 43/116/2 39/107/2
f 44/119/3 42/113/3 41/111/3 43/117/3
f 41/112/4 42/114/4 38/104/4 37/102/4
f 38/105/6 42/115/6 44/120/6 40/110/6
f 47/125/2 82/184/2 81/183/2 45/121/2
f 7/18/2 83/186/2 82/184/2 47/125/2
f 56/141/2 57/143/2 51/133/2 50/131/2
f 1/2/5 3/8/5 53/135/5 54/137/5
f 55/139/6 56/142/6 50/132/6 49/129/6
f 48/127/2 46/123/2 51/133/2 52/134/2
f 3/9/2 48/127/2 52/134/2 53/136/2
f 54/137/5 53/135/5 59/145/5 60/147/5
f 52/134/2 51/133/2 57/143/2 58/144/2
f 53/136/2 52/134/2 58/144/2 59/146/2
f 62/151/2 63/153/2 57/143/2 56/141/2
f 61/149/6 62/152/6 56/142/6 55/139/6
f 60/147/5 59/145/5 65/155/5 66/157/5
f 58/144/2 57/143/2 63/153/2 64/154/2
f 59/146/2 58/144/2 64/154/2 65/156/2
f 68/161/2 69/163/2 63/153/2 62/151/2
f 67/159/6 68/162/6 62/152/6 61/149/6
f 66/157/5 65/155/5 71/165/5 72/167/5
f 64/154/2 63/153/2 69/163/2 70/164/2
f 65/156/2 64/154/2 70/164/2 71/166/2
f 74/171/2 75/173/2 69/163/2 68/161/2
f 73/169/6 74/172/6 68/162/6 67/159/6
f 72/167/5 71/165/5 77/175/5 78/177/5
f 70/164/2 69/163/2 75/173/2 76/174/2
f 71/166/2 70/164/2 76/174/2 77/176/2
f 80/181/2 81/183/2 75/173/2 74/171/2
f 79/179/6 80/182/6 74/172/6 73/169/6
f 78/177/5 77/175/5 83/185/5 84/187/5
f 76/174/2 75/173/2 81/183/2 82/184/2
f 77/176/2 76/174/2 82/184/2 83/186/2
f 8/21/2 45/121/2 81/183/2 80/181/2
f 6/16/6 8/22/6 80/182/6 79/179/6
f 24/64/4 9/23/4 1/3/4 54/138/4
f 18/46/4 24/64/4 54/138/4 60/148/4
f 66/158/4 72/168/4 20/52/4 16/40/4
f 72/168/4 78/178/4 22/58/4 20/52/4
f 78/178/4 84/188/4 14/34/4 22/58/4
f 84/188/4 5/14/4 12/28/4 14/34/4
f 2/5/4 10/25/4 23/61/4 49/130/4
f 49/130/4 23/61/4 17/43/4 55/140/4
f 55/140/4 17/43/4 15/37/4 61/150/4
f 61/150/4 15/37/4 19/49/4 67/160/4
f 67/160/4 19/49/4 21/55/4 73/170/4
f 73/170/4 21/55/4 13/31/4 79/180/4
f 11/27/3 12/28/3 47/126/3 45/122/3
f 12/28/3 5/14/3 7/19/3 47/126/3
f 2/6/1 4/12/1 46/124/1 10/26/1
f 9/24/1 10/26/1 46/124/1 48/128/1
s 0
f 85/189/1 86/192/1 88/197/1 87/195/1
f 87/195/2 88/197/2 92/202/2 91/201/2
f 91/201/3 92/202/3 90/200/3 89/199/3
f 89/199/4 90/200/4 86/193/4 85/190/4
f 87/196/5 91/201/5 89/199/5 85/191/5
f 92/202/6 88/198/6 86/194/6 90/200/6
f 93/203/1 94/206/1 96/211/1 95/209/1
f 95/209/2 96/211/2 100/216/2 99/215/2
f 99/215/3 100/216/3 98/214/3 97/213/3
f 97/213/4 98/214/4 94/207/4 93/204/4
f 95/210/5 99/215/5 97/213/5 93/205/5
f 100/216/6 96/212/6 94/208/6 98/214/6
