# Blender 3.5.1
# www.blender.org
o budynek1.001
v 2.015881 -0.000027 -2.085516
v 2.015881 6.972331 -2.085515
v 2.015882 -0.000027 1.988972
v 2.015882 6.612673 1.988972
v -2.058606 -0.000027 -2.085516
v -2.058606 6.972331 -2.085516
v -2.058606 -0.000027 1.988972
v -2.058606 6.612673 1.988972
v 1.740098 6.612673 1.676923
v -1.756256 6.612673 1.676923
v -1.756256 6.972331 -1.782755
v 1.715648 6.972331 -1.782755
v 1.740098 6.308601 1.676923
v -1.756256 6.308601 1.676923
v -1.756256 6.308601 -1.782755
v 1.715648 6.308601 -1.782755
v 1.991876 1.164838 -2.764083
v 1.991876 1.420402 -2.764083
v -2.034503 1.420400 -2.764083
v -2.034503 1.164838 -2.764083
v -0.443266 6.146843 0.520998
v -0.090682 7.015992 0.684389
v 1.337730 6.146843 0.466658
v 0.995763 7.015992 0.651241
v -0.416041 6.146843 1.413299
v -0.074074 7.015992 1.228712
v 1.364955 6.146843 1.358960
v 1.012371 7.015992 1.195564
v 2.015881 2.093343 -2.085516
v 2.015881 4.103135 -2.085515
v 2.015881 4.587245 -2.085515
v 2.015881 6.098256 -2.085515
v -2.058606 6.098259 -2.085516
v -2.058606 4.587245 -2.085516
v -2.058606 4.103135 -2.085516
v -2.058606 2.093343 -2.085516
v 0.628141 4.103135 -2.085515
v 0.628141 2.093343 -2.085516
v -0.624923 4.103135 -2.085515
v -0.624923 2.093343 -2.085516
v -1.658510 4.103135 -2.085516
v -1.658510 2.093343 -2.085516
v 1.637057 2.093343 -2.085516
v 1.637057 4.103135 -2.085515
v 0.361900 4.587245 -2.085515
v 0.361900 6.098256 -2.085515
v -0.360552 4.587245 -2.085515
v -0.360552 6.098256 -2.085515
v -0.947858 4.587245 -2.085516
v -0.947858 6.098256 -2.085516
v 0.915761 6.098256 -2.085515
v 0.915761 4.587245 -2.085515
v 1.628593 4.587245 -2.085515
v 1.628593 6.098256 -2.085515
v -1.650082 4.587245 -2.085516
v -1.650082 6.098259 -2.085516
v 1.628593 6.098256 -1.913120
v 0.915761 6.098256 -1.913120
v 1.628593 4.587245 -1.913120
v 0.915761 4.587245 -1.913120
v 0.361900 4.587245 -1.932482
v 0.361900 6.098256 -1.932482
v -0.360552 4.587245 -1.932482
v -0.360552 6.098256 -1.932482
v -0.947858 6.098256 -1.951820
v -0.947858 4.587245 -1.951820
v -1.650082 4.587245 -1.951820
v -1.650082 6.098259 -1.951819
v -0.624922 2.093343 -1.897651
v -0.624922 4.103135 -1.897651
v -1.658510 4.103135 -1.897651
v -1.658510 2.093343 -1.897651
v 1.637057 4.103135 -1.931698
v 0.628141 4.103135 -1.931698
v 1.637057 2.093343 -1.931698
v 0.628141 2.093343 -1.931698
v -2.034503 1.743598 -2.034036
v 1.991876 1.743599 -2.034036
v -2.034503 1.488035 -2.034036
v 1.991876 1.488035 -2.034036
v -2.058606 6.143687 1.988972
v 2.015882 6.143687 1.988972
v -2.058606 4.521124 1.988972
v 2.015882 4.521124 1.988972
v -2.058606 3.991674 1.988972
v 2.015882 3.991674 1.988972
v -2.058606 1.811070 1.988972
v 2.015882 1.811070 1.988972
v -1.014641 6.308602 0.174516
v -1.080382 7.858813 0.384056
v -1.014641 6.308602 1.310689
v -1.080382 7.858813 1.101149
v -1.371101 6.308602 0.174516
v -1.305361 7.858813 0.384056
v -1.371101 6.308602 1.310689
v -1.305361 7.858813 1.101149
v -0.289574 5.946976 -0.671071
v -0.510554 6.728055 -0.503682
v -0.289574 5.946976 0.004268
v -0.510554 6.728055 -0.163121
v -1.181129 5.946976 -0.671071
v -0.960149 6.728055 -0.503682
v -1.181129 5.946976 0.004268
v -0.960149 6.728055 -0.163121
v 1.367732 6.266274 -1.429743
v 1.367732 6.474154 -1.429743
v 1.367732 6.266274 -0.562436
v 1.367732 6.474154 -0.562436
v 0.804378 6.266274 -1.429743
v 0.804378 6.474154 -1.429743
v 0.804378 6.266274 -0.562436
v 0.804378 6.474154 -0.562436
v -0.652007 6.308601 0.160388
v -0.652007 7.185812 0.160388
v -0.652007 6.308601 0.448627
v -0.652007 7.185812 0.448627
v -0.907790 6.308601 0.160388
v -0.907790 7.185812 0.160388
v -0.907790 6.308601 0.448627
v -0.907790 7.185812 0.448627
v -0.782318 6.308601 1.285670
v -0.782318 8.745202 1.285670
v -0.782318 6.308601 1.463130
v -0.782318 8.745202 1.463130
v -0.944580 6.308601 1.285670
v -0.944580 8.745202 1.285670
v -0.944580 6.308601 1.463130
v -0.944580 8.745202 1.463130
vn 1.0000 -0.0000 -0.0000
vn -0.0000 -0.0000 1.0000
vn -1.0000 -0.0000 -0.0000
vn 0.0007 0.9989 0.0478
vn 0.0007 0.9989 0.0475
vn 0.0007 0.9989 0.0477
vn 0.0007 0.9989 0.0467
vn -0.0007 0.9990 0.0440
vn -0.0008 0.9988 0.0488
vn -0.0008 0.9989 0.0475
vn -0.0008 0.9989 0.0474
vn -0.0000 1.0000 -0.0000
vn -0.0000 -0.0000 -1.0000
vn -1.0000 -0.0000 0.0071
vn -0.0000 0.9144 -0.4048
vn -0.0000 -0.9144 0.4048
vn -0.0299 0.1964 -0.9801
vn 0.9281 0.3712 -0.0283
vn 0.0299 0.1964 0.9801
vn -0.9281 0.3712 0.0283
vn -0.0000 -1.0000 -0.0000
vn 0.9991 0.0424 -0.0000
vn -0.0000 0.1340 0.9910
vn -0.9991 0.0424 -0.0000
vn -0.0000 0.1340 -0.9910
vn 0.9622 0.2722 -0.0000
vn -0.0000 0.2095 0.9778
vn -0.9622 0.2722 -0.0000
vn -0.0000 0.2095 -0.9778
vt 0.925850 0.876950
vt 0.078316 0.596543
vt 0.058116 0.565025
vt 0.025987 0.598517
vt 0.049520 0.580224
vt 0.057224 0.550256
vt 0.925850 0.869402
vt 0.057961 0.580575
vt 0.050567 0.565024
vt 0.057069 0.565806
vt 0.025987 0.590968
vt 0.049675 0.550256
vt 0.034428 0.596125
vt 0.933398 0.876950
vt 0.085864 0.596543
vt 0.018438 0.598517
vt 0.057069 0.580224
vt 0.033536 0.581356
vt 0.041977 0.596125
vt 0.933398 0.869402
vt 0.050412 0.580575
vt 0.049520 0.565806
vt 0.018438 0.590968
vt 0.041084 0.581356
vt 0.025476 0.591546
vt 0.101085 0.571144
vt 0.102085 0.557728
vt 0.018998 0.591546
vt 0.101085 0.577621
vt 0.101555 0.597330
vt 0.101136 0.532643
vt 0.018998 0.597956
vt 0.101555 0.603740
vt 0.101136 0.539075
vt 0.025431 0.597956
vt 0.102085 0.564138
vt 0.864452 0.935389
vt 0.101648 0.571144
vt 0.101522 0.557728
vt 0.864452 0.941866
vt 0.101648 0.577621
vt 0.102118 0.597330
vt 0.101699 0.532643
vt 0.870861 0.941866
vt 0.102118 0.603740
vt 0.101699 0.539075
vt 0.870861 0.935434
vt 0.101522 0.564138
vt 0.880575 0.350095
vt 0.883084 0.323265
vt 0.867619 0.301567
vt 0.881345 0.350095
vt 0.822615 0.339433
vt 0.867619 0.302337
vt 0.881345 0.342635
vt 0.822615 0.346892
vt 0.867619 0.302337
vt 0.880575 0.342635
vt 0.883084 0.315805
vt 0.867619 0.301567
vt 0.720413 0.865319
vt 0.673519 0.945930
vt 0.718345 0.865319
vt 0.673519 0.947999
vt 0.722067 0.862018
vt 0.720413 0.862018
vt 0.707276 0.873130
vt 0.718345 0.862018
vt 0.707276 0.875199
vt 0.722067 0.858717
vt 0.631962 0.942367
vt 0.675173 0.945930
vt 0.629893 0.942367
vt 0.675173 0.947999
vt 0.720413 0.862018
vt 0.705622 0.873130
vt 0.631962 0.945668
vt 0.705622 0.875199
vt 0.629893 0.945668
vt 0.720413 0.858717
vt 0.902100 0.905415
vt 0.078316 0.602588
vt 0.058116 0.571070
vt 0.909804 0.875447
vt 0.902100 0.909139
vt 0.081510 0.617408
vt 0.909804 0.879170
vt 0.089214 0.587440
vt 0.909804 0.880067
vt 0.902100 0.910035
vt 0.081510 0.618305
vt 0.089214 0.588337
vt 0.909804 0.882867
vt 0.902100 0.912835
vt 0.049520 0.579271
vt 0.057224 0.549303
vt 0.057069 0.579271
vt 0.909649 0.912835
vt 0.886116 0.913967
vt 0.033536 0.580403
vt 0.909649 0.910035
vt 0.089059 0.618305
vt 0.065526 0.619437
vt 0.886116 0.911168
vt 0.909649 0.909139
vt 0.089059 0.617408
vt 0.886116 0.910271
vt 0.065526 0.618540
vt 0.034428 0.602170
vt 0.909649 0.905415
vt 0.085864 0.602588
vt 0.886116 0.906547
vt 0.904671 0.909139
vt 0.938547 0.946277
vt 0.955532 0.935936
vt 0.084081 0.617408
vt 0.904671 0.905415
vt 0.938547 0.942554
vt 0.885818 0.952994
vt 0.080887 0.602588
vt 0.906993 0.909139
vt 0.952694 0.888815
vt 0.917868 0.948565
vt 0.086403 0.617408
vt 0.906993 0.905415
vt 0.952694 0.890730
vt 0.952694 0.885091
vt 0.083208 0.602588
vt 0.908908 0.909139
vt 0.863022 0.953632
vt 0.917868 0.950480
vt 0.088317 0.617408
vt 0.952694 0.888815
vt 0.908908 0.905415
vt 0.863022 0.949909
vt 0.085123 0.602588
vt 0.902802 0.905415
vt 0.901000 0.942267
vt 0.885818 0.954863
vt 0.079017 0.602588
vt 0.902802 0.909139
vt 0.955532 0.934067
vt 0.901000 0.945990
vt 0.082212 0.617408
vt 0.955554 0.925847
vt 0.905165 0.910035
vt 0.955322 0.911185
vt 0.084574 0.618305
vt 0.052584 0.579271
vt 0.905165 0.912835
vt 0.955554 0.925847
vt 0.955322 0.913985
vt 0.955554 0.924509
vt 0.906503 0.910035
vt 0.955588 0.944336
vt 0.085913 0.618305
vt 0.053923 0.579271
vt 0.906503 0.912835
vt 0.955554 0.927186
vt 0.955588 0.947136
vt 0.907591 0.910035
vt 0.955509 0.861647
vt 0.945760 0.953332
vt 0.087001 0.618305
vt 0.055011 0.579271
vt 0.907591 0.912835
vt 0.955509 0.864447
vt 0.870764 0.952996
vt 0.051558 0.579271
vt 0.904139 0.912835
vt 0.950574 0.926829
vt 0.862674 0.954953
vt 0.904139 0.910035
vt 0.951593 0.925582
vt 0.950574 0.924029
vt 0.083548 0.618305
vt 0.902818 0.910035
vt 0.952188 0.915323
vt 0.951593 0.926903
vt 0.082228 0.618305
vt 0.902818 0.912835
vt 0.050237 0.579271
vt 0.952188 0.918123
vt 0.862674 0.953632
vt 0.908892 0.910035
vt 0.938565 0.950390
vt 0.945760 0.952031
vt 0.088302 0.618305
vt 0.056312 0.579271
vt 0.908892 0.912835
vt 0.938565 0.953189
vt 0.870764 0.954297
vt 0.952507 0.918123
vt 0.559321 0.944764
vt 0.862993 0.953632
vt 0.560642 0.944764
vt 0.950254 0.926829
vt 0.862993 0.954953
vt 0.952507 0.915323
vt 0.559321 0.941964
vt 0.951912 0.926903
vt 0.560642 0.941964
vt 0.951912 0.925582
vt 0.950254 0.924029
vt 0.955837 0.925847
vt 0.704102 0.803906
vt 0.955606 0.911185
vt 0.704102 0.806705
vt 0.955837 0.925847
vt 0.955606 0.913985
vt 0.955837 0.924509
vt 0.705441 0.803906
vt 0.955304 0.944336
vt 0.705441 0.806705
vt 0.955837 0.927186
vt 0.955304 0.947136
vt 0.955757 0.864447
vt 0.617586 0.932525
vt 0.871011 0.952996
vt 0.955757 0.861647
vt 0.617586 0.929726
vt 0.946008 0.953332
vt 0.618887 0.929726
vt 0.938317 0.950390
vt 0.946008 0.952031
vt 0.618887 0.932525
vt 0.938317 0.953189
vt 0.871011 0.954297
vt 0.953042 0.890730
vt 0.713292 0.953775
vt 0.953042 0.885091
vt 0.713292 0.957499
vt 0.953042 0.888815
vt 0.918216 0.948565
vt 0.715207 0.957499
vt 0.862674 0.953632
vt 0.918216 0.950480
vt 0.953042 0.888815
vt 0.715207 0.953775
vt 0.862674 0.949909
vt 0.656832 0.921940
vt 0.955817 0.934067
vt 0.901285 0.945990
vt 0.938262 0.946277
vt 0.658701 0.921940
vt 0.955817 0.935936
vt 0.656832 0.918216
vt 0.901285 0.942267
vt 0.886103 0.954863
vt 0.938262 0.942554
vt 0.658701 0.918216
vt 0.886103 0.952994
vt 0.822118 0.346892
vt 0.868116 0.302337
vt 0.822118 0.339433
vt 0.867122 0.302337
vt 0.882587 0.315805
vt 0.868116 0.301567
vt 0.882587 0.323265
vt 0.867122 0.301567
vt 0.049520 0.564937
vt 0.902100 0.898501
vt 0.893665 0.914051
vt 0.041084 0.580487
vt 0.902256 0.882951
vt 0.057069 0.564937
vt 0.909649 0.898501
vt 0.049675 0.549387
vt 0.902100 0.895495
vt 0.081510 0.603764
vt 0.073075 0.619315
vt 0.893665 0.911045
vt 0.902256 0.879945
vt 0.909649 0.895495
vt 0.089059 0.603764
vt 0.081665 0.588214
vt 0.081510 0.602784
vt 0.902100 0.894514
vt 0.893665 0.910064
vt 0.073075 0.618334
vt 0.089059 0.602784
vt 0.909649 0.894514
vt 0.902256 0.878964
vt 0.081665 0.587233
vt 0.041977 0.601647
vt 0.902100 0.890474
vt 0.050412 0.586097
vt 0.893665 0.906024
vt 0.909649 0.890474
vt 0.057961 0.586097
vt 0.050567 0.570547
vt 0.902256 0.874924
vt 0.774501 0.441753
vt 0.774501 0.480122
vt 0.764908 0.470530
vt 0.784093 0.441753
vt 0.784093 0.480122
vt 0.793686 0.470530
vt 0.774501 0.451345
vt 0.764908 0.460938
vt 0.784093 0.451345
vt 0.793686 0.460938
vt 0.774501 0.470530
vt 0.784093 0.470530
vt 0.774501 0.460938
vt 0.784093 0.460938
vt 0.220934 0.670845
vt 0.220934 0.715873
vt 0.209677 0.704616
vt 0.232191 0.670845
vt 0.232191 0.715873
vt 0.243448 0.704616
vt 0.220934 0.682102
vt 0.209677 0.693359
vt 0.232191 0.682102
vt 0.243448 0.693359
vt 0.220934 0.704616
vt 0.232191 0.704616
vt 0.220934 0.693359
vt 0.232191 0.693359
vt 0.781076 0.272741
vt 0.781076 0.289759
vt 0.776821 0.285505
vt 0.785330 0.272741
vt 0.785330 0.289759
vt 0.789585 0.285505
vt 0.781076 0.276995
vt 0.776821 0.281250
vt 0.785330 0.276995
vt 0.789585 0.281250
vt 0.781076 0.285505
vt 0.785330 0.285505
vt 0.781076 0.281250
vt 0.785330 0.281250
vt 0.965828 0.543001
vt 0.965828 0.581999
vt 0.956079 0.572250
vt 0.975578 0.543001
vt 0.975578 0.581999
vt 0.985327 0.572250
vt 0.965828 0.552750
vt 0.956079 0.562500
vt 0.975578 0.552750
vt 0.985327 0.562500
vt 0.965828 0.572250
vt 0.975578 0.572250
vt 0.965828 0.562500
vt 0.975578 0.562500
vt 0.781692 0.027159
vt 0.781692 0.054872
vt 0.774764 0.047944
vt 0.788620 0.027159
vt 0.788620 0.054872
vt 0.795549 0.047944
vt 0.781692 0.034087
vt 0.774764 0.041016
vt 0.788620 0.034087
vt 0.795549 0.041016
vt 0.781692 0.047944
vt 0.788620 0.047944
vt 0.781692 0.041016
vt 0.788620 0.041016
s 1
f 32/93/1 82/265/1 84/273/1 31/89/1
f 4/10/2 8/22/2 81/261/2 82/266/2
f 7/19/3 87/285/3 36/109/3 5/13/3
f 10/28/4 11/32/5 6/16/6 8/23/7
f 4/11/8 9/25/9 10/28/4 8/23/7
f 11/31/2 15/43/2 16/46/2 12/34/2
f 11/32/5 12/35/10 2/4/11 6/16/6
f 12/35/10 9/25/9 4/11/8 2/4/11
f 16/47/12 15/44/12 14/40/12 13/37/12
f 9/26/13 13/38/13 14/41/13 10/29/13
f 12/36/14 16/48/14 13/39/14 9/27/14
f 10/30/1 14/42/1 15/45/1 11/33/1
f 20/58/13 19/55/13 18/52/13 17/49/13
f 78/255/15 18/53/15 19/56/15 77/253/15
f 79/257/16 20/59/16 17/50/16 80/259/16
f 77/254/3 19/57/3 20/60/3 79/258/3
f 80/260/1 17/51/1 18/54/1 78/256/1
f 22/63/17 24/68/17 23/66/17 21/61/17
f 24/69/18 28/78/18 27/76/18 23/67/18
f 28/79/19 26/73/19 25/71/19 27/77/19
f 26/74/20 22/64/20 21/62/20 25/72/20
f 24/70/12 22/65/12 26/75/12 28/80/12
f 43/137/13 44/141/13 30/85/13 29/81/13
f 41/132/13 55/188/13 49/164/13 39/124/13
f 53/177/13 54/181/13 32/94/13 31/90/13
f 56/189/13 33/97/13 6/17/13 2/5/13 32/95/13 54/182/13 51/169/13 46/149/13 48/157/13 50/165/13
f 38/117/13 40/125/13 39/121/13 37/113/13
f 42/133/12 72/238/12 69/229/12 40/126/12
f 42/134/13 36/110/13 35/105/13 41/129/13
f 37/114/1 74/244/1 76/250/1 38/118/1
f 47/153/12 63/211/12 61/205/12 45/145/12
f 47/154/13 49/161/13 50/166/13 48/158/13
f 49/162/3 66/220/3 65/217/3 50/167/3
f 52/173/13 45/146/13 46/150/13 51/170/13
f 53/178/3 59/199/3 57/193/3 54/183/3
f 55/185/13 34/101/13 33/98/13 56/190/13
f 59/200/13 60/202/13 58/196/13 57/194/13
f 52/174/12 60/203/12 59/201/12 53/179/12
f 51/171/1 58/197/1 60/204/1 52/175/1
f 54/184/21 57/195/21 58/198/21 51/172/21
f 61/206/13 63/212/13 64/214/13 62/208/13
f 46/151/21 62/209/21 64/215/21 48/159/21
f 45/147/3 61/207/3 62/210/3 46/152/3
f 48/160/1 64/216/1 63/213/1 47/155/1
f 66/221/13 67/223/13 68/226/13 65/218/13
f 56/191/1 68/227/1 67/224/1 55/186/1
f 55/187/12 67/225/12 66/222/12 49/163/12
f 50/168/21 65/219/21 68/228/21 56/192/21
f 69/230/13 72/239/13 71/235/13 70/232/13
f 40/127/3 69/231/3 70/233/3 39/122/3
f 41/130/1 71/236/1 72/240/1 42/135/1
f 39/123/21 70/234/21 71/237/21 41/131/21
f 75/247/13 76/251/13 74/245/13 73/241/13
f 44/142/21 73/242/21 74/246/21 37/115/21
f 43/138/3 75/248/3 73/243/3 44/143/3
f 38/119/12 76/252/12 75/249/12 43/139/12
f 7/20/21 5/14/21 1/1/21 3/7/21
f 53/180/13 31/91/13 30/86/13 44/144/13
f 52/176/13 53/180/13 44/144/13 37/116/13
f 45/148/13 52/176/13 37/116/13
f 47/156/13 45/148/13 37/116/13 39/124/13
f 49/164/13 47/156/13 39/124/13
f 41/132/13 35/106/13 34/102/13 55/188/13
f 1/2/13 5/15/13 36/111/13 42/136/13 40/128/13 38/120/13 43/140/13 29/82/13
f 81/262/2 83/269/2 84/274/2 82/267/2
f 83/270/2 85/277/2 86/281/2 84/275/2
f 85/278/2 87/286/2 88/289/2 86/282/2
f 87/287/2 7/21/2 3/8/2 88/290/2
f 88/291/1 3/9/1 1/3/1 29/83/1
f 86/283/1 88/292/1 29/84/1 30/87/1
f 84/276/1 86/284/1 30/88/1 31/92/1
f 32/96/1 2/6/1 4/12/1 82/268/1
f 87/288/3 85/279/3 35/107/3 36/112/3
f 85/280/3 83/271/3 34/103/3 35/108/3
f 83/272/3 81/263/3 33/99/3 34/104/3
f 81/264/3 8/24/3 6/18/3 33/100/3
s 0
f 89/293/22 90/296/22 92/301/22 91/299/22
f 91/299/23 92/301/23 96/306/23 95/305/23
f 95/305/24 96/306/24 94/304/24 93/303/24
f 93/303/25 94/304/25 90/297/25 89/294/25
f 91/300/21 95/305/21 93/303/21 89/295/21
f 96/306/12 92/302/12 90/298/12 94/304/12
f 97/307/26 98/310/26 100/315/26 99/313/26
f 99/313/27 100/315/27 104/320/27 103/319/27
f 103/319/28 104/320/28 102/318/28 101/317/28
f 101/317/29 102/318/29 98/311/29 97/308/29
f 99/314/21 103/319/21 101/317/21 97/309/21
f 104/320/12 100/316/12 98/312/12 102/318/12
f 105/321/1 106/324/1 108/329/1 107/327/1
f 107/327/2 108/329/2 112/334/2 111/333/2
f 111/333/3 112/334/3 110/332/3 109/331/3
f 109/331/13 110/332/13 106/325/13 105/322/13
f 107/328/21 111/333/21 109/331/21 105/323/21
f 112/334/12 108/330/12 106/326/12 110/332/12
f 113/335/1 114/338/1 116/343/1 115/341/1
f 115/341/2 116/343/2 120/348/2 119/347/2
f 119/347/3 120/348/3 118/346/3 117/345/3
f 117/345/13 118/346/13 114/339/13 113/336/13
f 115/342/21 119/347/21 117/345/21 113/337/21
f 120/348/12 116/344/12 114/340/12 118/346/12
f 121/349/1 122/352/1 124/357/1 123/355/1
f 123/355/2 124/357/2 128/362/2 127/361/2
f 127/361/3 128/362/3 126/360/3 125/359/3
f 125/359/13 126/360/13 122/353/13 121/350/13
f 123/356/21 127/361/21 125/359/21 121/351/21
f 128/362/12 124/358/12 122/354/12 126/360/12
