# Blender 3.5.1
# www.blender.org
o budynek3.001
v 2.033131 -0.000011 -1.967803
v 2.033131 6.952939 -1.967803
v 2.033131 6.952939 2.106685
v -2.041358 -0.000011 -1.967803
v -2.041358 6.952939 -1.967803
v -2.041358 -0.000012 2.106684
v -2.041358 6.952939 2.106685
v 1.666152 6.952939 1.794636
v -1.739007 6.952939 1.794636
v -1.739007 6.952939 -1.255666
v 1.641703 6.952939 -1.255666
v 1.666152 6.648868 1.794636
v -1.739007 6.648868 1.794636
v -1.739007 6.648868 -1.255666
v 1.641703 6.648868 -1.255666
v -2.041358 1.949295 -1.967803
v 2.033131 1.949295 -1.967803
v -2.041358 1.774135 -1.967803
v 2.033131 1.774135 -1.967803
v 1.653333 -0.000011 -1.967803
v 0.863169 -0.000011 -1.967803
v -2.041358 1.495892 -2.764840
v -2.041358 1.349450 -2.764840
v 1.598530 6.914633 -1.767336
v 1.598530 7.533977 -1.767336
v 1.598530 6.914633 -1.523258
v 1.598530 7.533977 -1.523258
v -1.589602 6.914633 -1.767336
v -1.589602 7.533977 -1.767336
v -1.589602 6.914633 -1.523258
v -1.589602 7.533977 -1.523258
v 2.033131 2.309015 -1.967803
v 2.033131 6.410098 -1.967803
v -2.041358 6.410098 -1.967803
v -2.041358 2.309017 -1.967803
v 0.379151 2.309015 -1.967803
v 0.379151 6.410098 -1.967803
v -0.343301 2.309015 -1.967803
v -0.343301 6.410098 -1.967803
v -0.930611 2.309015 -1.967803
v -0.930611 6.410098 -1.967803
v 0.933009 6.410098 -1.967803
v 0.933009 2.309015 -1.967803
v 1.645841 2.309015 -1.967803
v 1.645841 6.410098 -1.967803
v -1.632833 2.309017 -1.967803
v -1.632833 6.410098 -1.967803
v 1.645841 6.410098 -1.745020
v 0.933009 6.410098 -1.745020
v 1.645841 2.309015 -1.745020
v 0.933009 2.309015 -1.745020
v 0.379151 2.309015 -1.771445
v 0.379151 6.410098 -1.771445
v -0.343301 2.309015 -1.771445
v -0.343301 6.410098 -1.771445
v -0.930611 6.410098 -1.771914
v -0.930611 2.309015 -1.771914
v -1.632833 2.309017 -1.771914
v -1.632833 6.410098 -1.771914
v 0.532182 1.495892 -2.764840
v 0.532182 1.349448 -2.764840
v 0.532182 1.949295 -1.967803
v 0.528311 1.774135 -1.967803
v 1.680814 1.774135 -1.967803
v 0.871351 1.774135 -1.967803
v 1.677216 1.541799 -1.967803
v 0.870322 1.550920 -1.967803
v 1.677216 1.541799 -1.663848
v 0.870322 1.550920 -1.663848
v 2.033131 -0.000012 2.106684
v 1.653333 -0.000012 2.106684
v 0.863169 -0.000012 2.106684
v 1.669361 1.949295 -1.967803
v 0.891542 1.949295 -1.967803
v -2.041358 1.858086 2.106684
v 2.033131 1.934617 2.106684
v 2.033131 1.765542 2.106684
v -2.041358 1.685402 2.106684
v 1.665882 1.758319 2.106684
v 1.665882 1.927719 2.106684
v 1.665882 6.952939 2.106685
v 1.359232 6.952939 1.794636
v 1.359232 6.648868 1.794636
v 1.336988 6.648868 -1.255666
v 1.336988 6.952939 -1.255666
v 1.665882 6.952939 -1.967803
v 0.868995 1.742645 2.106684
v 0.868995 1.912751 2.106684
v 0.868995 6.952939 2.106685
v 0.693252 6.952939 1.794636
v 0.693252 6.648868 1.794636
v 0.675789 6.648868 -1.255666
v 0.675789 6.952939 -1.255666
v 0.868995 6.952939 -1.967803
v 1.653333 -0.000011 -1.663848
v 0.863169 -0.000011 -1.667760
v 2.033131 4.859868 2.106684
v 1.665882 4.857982 2.106684
v 0.868995 4.853889 2.106684
v -2.041358 4.838942 2.106684
v -2.041358 6.362335 2.106685
v 0.868995 6.376878 2.106685
v 1.665882 6.380860 2.106685
v 2.033131 6.382695 2.106685
v -0.618843 6.586211 0.775388
v -0.618843 7.778018 0.775388
v -0.618843 6.586211 1.416080
v -0.618843 7.778018 1.416080
v -1.317192 6.586211 0.775388
v -1.317192 7.778018 0.775388
v -1.317192 6.586211 1.416080
v -1.317192 7.778018 1.416080
v 1.353348 6.212969 0.212085
v 1.353348 7.155462 0.212085
v 1.353348 6.212969 0.988412
v 1.353348 7.155462 0.988412
v -0.181686 6.212969 0.212085
v -0.181686 7.155462 0.212085
v -0.181686 6.212969 0.988412
v -0.181686 7.155462 0.988412
vn 1.0000 -0.0000 -0.0000
vn -0.0000 -0.0000 1.0000
vn -1.0000 -0.0000 -0.0000
vn -0.0000 -0.0000 -1.0000
vn -0.0000 1.0000 -0.0000
vn -1.0000 -0.0000 0.0080
vn -0.0000 0.8692 -0.4945
vn 0.9999 -0.0120 0.0091
vn 1.0000 -0.0046 -0.0000
vn -0.0000 -1.0000 -0.0000
vn -0.0000 -0.8825 0.4702
vn -0.0113 -0.9999 -0.0000
vn -0.9999 0.0155 -0.0000
vt 0.388141 0.449600
vt 0.438108 0.372340
vt 0.444537 0.455205
vt 0.407633 0.447616
vt 0.379363 0.449600
vt 0.446885 0.372340
vt 0.398258 0.447616
vt 0.435171 0.445826
vt 0.446885 0.381718
vt 0.388141 0.458978
vt 0.341848 0.439771
vt 0.444537 0.445826
vt 0.407633 0.456995
vt 0.379363 0.458978
vt 0.350626 0.439771
vt 0.341848 0.430392
vt 0.443949 0.436448
vt 0.435170 0.445827
vt 0.398258 0.456995
vt 0.435171 0.436448
vt 0.350626 0.430392
vt 0.398976 0.448461
vt 0.463987 0.424252
vt 0.465271 0.440806
vt 0.465324 0.469024
vt 0.398976 0.456299
vt 0.463987 0.432090
vt 0.464051 0.368370
vt 0.405994 0.456299
vt 0.465324 0.462002
vt 0.465271 0.447827
vt 0.464051 0.376152
vt 0.405994 0.448517
vt 0.709282 0.866199
vt 0.464687 0.424252
vt 0.464571 0.440806
vt 0.464624 0.469024
vt 0.711494 0.831639
vt 0.464687 0.432090
vt 0.464751 0.368370
vt 0.464624 0.462002
vt 0.703573 0.831639
vt 0.702264 0.866143
vt 0.464571 0.447827
vt 0.464751 0.376152
vt 0.834094 0.460514
vt 0.777976 0.433911
vt 0.346335 0.439771
vt 0.383654 0.458978
vt 0.383654 0.449600
vt 0.442594 0.372340
vt 0.777573 0.433911
vt 0.449735 0.471165
vt 0.345932 0.439771
vt 0.384057 0.458978
vt 0.442191 0.372340
vt 0.384057 0.449600
vt 0.388141 0.450474
vt 0.358750 0.477772
vt 0.444537 0.454331
vt 0.388141 0.452293
vt 0.358050 0.474223
vt 0.444537 0.452512
vt 0.832228 0.460514
vt 0.776932 0.435746
vt 0.853621 0.466267
vt 0.776529 0.435746
vt 0.447850 0.471164
vt 0.854024 0.466267
vt 0.861385 0.423242
vt 0.941621 0.310246
vt 0.861385 0.420895
vt 0.939274 0.310246
vt 0.890483 0.402865
vt 0.861947 0.423242
vt 0.971288 0.385523
vt 0.861947 0.420895
vt 0.968941 0.385523
vt 0.891045 0.402865
vt 0.967986 0.423067
vt 0.941621 0.317585
vt 0.967986 0.420720
vt 0.939274 0.317585
vt 0.890483 0.395526
vt 0.971288 0.378184
vt 0.967424 0.423067
vt 0.968941 0.378184
vt 0.967424 0.420720
vt 0.891045 0.395526
vt 0.382826 0.449600
vt 0.443422 0.372340
vt 0.380613 0.449600
vt 0.445636 0.372340
vt 0.380613 0.458978
vt 0.349377 0.439771
vt 0.382826 0.458978
vt 0.347163 0.439771
vt 0.411751 0.478041
vt 0.459347 0.399410
vt 0.382826 0.453407
vt 0.465607 0.455004
vt 0.411751 0.475827
vt 0.380613 0.453407
vt 0.464176 0.399372
vt 0.459347 0.397747
vt 0.382826 0.455070
vt 0.465607 0.456667
vt 0.464176 0.397158
vt 0.380613 0.455070
vt 0.462519 0.368361
vt 0.424382 0.476323
vt 0.382826 0.456422
vt 0.466084 0.434488
vt 0.424382 0.478537
vt 0.380613 0.456422
vt 0.431523 0.472760
vt 0.466097 0.391776
vt 0.380613 0.452132
vt 0.465581 0.476316
vt 0.431523 0.474973
vt 0.382826 0.452132
vt 0.465581 0.477957
vt 0.465137 0.478226
vt 0.382826 0.450491
vt 0.466097 0.393417
vt 0.465137 0.476013
vt 0.380613 0.450491
vt 0.462519 0.366745
vt 0.404920 0.478542
vt 0.382826 0.458038
vt 0.380613 0.458038
vt 0.466084 0.432872
vt 0.404920 0.476328
vt 0.519988 0.981455
vt 0.465585 0.393417
vt 0.464624 0.476013
vt 0.521629 0.981455
vt 0.432035 0.472760
vt 0.465585 0.391776
vt 0.466094 0.477957
vt 0.519988 0.979242
vt 0.464624 0.478226
vt 0.466094 0.476316
vt 0.521629 0.979242
vt 0.432035 0.474973
vt 0.589037 0.940120
vt 0.411299 0.478041
vt 0.459799 0.399410
vt 0.466059 0.455004
vt 0.589037 0.942334
vt 0.411299 0.475827
vt 0.590700 0.940120
vt 0.464628 0.399372
vt 0.459799 0.397747
vt 0.466059 0.456667
vt 0.590700 0.942334
vt 0.464628 0.397158
vt 0.630224 0.895844
vt 0.465633 0.434488
vt 0.424833 0.478537
vt 0.462970 0.368361
vt 0.630224 0.893630
vt 0.424833 0.476323
vt 0.462970 0.366745
vt 0.631840 0.893630
vt 0.405371 0.478542
vt 0.631840 0.895844
vt 0.465633 0.432872
vt 0.405371 0.476328
vt 0.832228 0.466438
vt 0.844031 0.470208
vt 0.853621 0.460344
vt 0.843714 0.469958
vt 0.447850 0.465240
vt 0.854024 0.460344
vt 0.834094 0.466438
vt 0.843714 0.472294
vt 0.383654 0.453055
vt 0.843398 0.472045
vt 0.449735 0.465250
vt 0.384057 0.453064
vt 0.384057 0.450411
vt 0.384057 0.452274
vt 0.436902 0.476572
vt 0.358750 0.474223
vt 0.384592 0.450419
vt 0.358050 0.477793
vt 0.436902 0.478429
vt 0.384571 0.452276
vt 0.940684 0.213083
vt 0.437600 0.476572
vt 0.358050 0.474223
vt 0.357351 0.477793
vt 0.942541 0.213095
vt 0.437600 0.478430
vt 0.438108 0.381718
vt 0.443949 0.445826
vt 0.435170 0.455206
vt 0.443949 0.444952
vt 0.435170 0.454331
vt 0.443949 0.443133
vt 0.435170 0.452513
vt 0.383654 0.450437
vt 0.383654 0.452227
vt 0.346125 0.430392
vt 0.439672 0.436448
vt 0.442561 0.381718
vt 0.439495 0.445826
vt 0.442171 0.381718
vt 0.439885 0.445826
vt 0.345728 0.430392
vt 0.440069 0.436448
vt 0.439901 0.444981
vt 0.439511 0.444981
vt 0.398258 0.448461
vt 0.435171 0.444981
vt 0.398976 0.449167
vt 0.463987 0.424959
vt 0.709282 0.865493
vt 0.692633 0.786577
vt 0.464687 0.424959
vt 0.702264 0.865442
vt 0.685615 0.786526
vt 0.464751 0.375451
vt 0.464051 0.375451
vt 0.405994 0.449218
vt 0.407633 0.448461
vt 0.379363 0.450445
vt 0.439937 0.443147
vt 0.439546 0.443147
vt 0.398258 0.450296
vt 0.435171 0.443147
vt 0.398976 0.450700
vt 0.463987 0.426492
vt 0.692633 0.785044
vt 0.711494 0.837960
vt 0.464687 0.426492
vt 0.685615 0.785004
vt 0.464751 0.373929
vt 0.703573 0.837914
vt 0.464051 0.373929
vt 0.405994 0.450740
vt 0.407633 0.450296
vt 0.379363 0.452279
vt 0.940722 0.209534
vt 0.358050 0.477772
vt 0.443838 0.454331
vt 0.357360 0.474223
vt 0.942541 0.209525
vt 0.443847 0.452512
vt 0.443470 0.381718
vt 0.438586 0.445826
vt 0.438590 0.444981
vt 0.438599 0.443147
vt 0.347163 0.430392
vt 0.438634 0.436448
vt 0.349267 0.430392
vt 0.436530 0.436448
vt 0.436497 0.443147
vt 0.436487 0.444981
vt 0.436483 0.445826
vt 0.445573 0.381718
vt 0.795749 0.201008
vt 0.795749 0.216118
vt 0.791972 0.212341
vt 0.799526 0.201008
vt 0.799526 0.216118
vt 0.803304 0.212341
vt 0.795749 0.204786
vt 0.791972 0.208563
vt 0.799526 0.204786
vt 0.803304 0.208563
vt 0.795749 0.212341
vt 0.799526 0.212341
vt 0.795749 0.208563
vt 0.799526 0.208563
vt 0.959931 0.782734
vt 0.959931 0.800977
vt 0.955370 0.796416
vt 0.964491 0.782734
vt 0.964491 0.800977
vt 0.969052 0.796416
vt 0.959931 0.787295
vt 0.955370 0.791855
vt 0.964491 0.787295
vt 0.969052 0.791855
vt 0.959931 0.796416
vt 0.964491 0.796416
vt 0.959931 0.791855
vt 0.964491 0.791855
s 1
f 97/251/1 76/207/1 17/51/1 32/91/1
f 98/253/2 80/214/2 76/208/2 97/252/2
f 100/255/3 35/97/3 16/48/3 75/205/3
f 4/10/4 18/55/4 67/189/4 21/61/4
f 9/26/5 10/29/5 5/13/5 7/19/5
f 8/22/5 82/217/5 81/215/5 3/7/5
f 14/40/2 92/239/2 93/241/2 10/28/2
f 10/29/5 93/242/5 94/243/5 5/13/5
f 11/33/5 8/22/5 3/7/5 2/4/5
f 84/222/5 83/219/5 12/34/5 15/43/5
f 12/35/4 83/221/4 82/218/4 8/23/4
f 11/31/6 15/44/6 12/36/6 8/24/6
f 9/25/1 13/37/1 14/41/1 10/30/1
f 64/182/4 73/203/4 17/50/4 19/57/4
f 62/176/7 60/170/7 22/64/7 16/46/7
f 61/173/8 60/171/8 62/177/8 63/179/8
f 16/47/3 22/65/3 23/67/3 18/52/3
f 67/187/9 69/193/9 96/248/9 21/62/9
f 25/72/1 27/77/1 26/75/1 24/70/1
f 27/78/2 31/87/2 30/85/2 26/76/2
f 31/88/3 29/82/3 28/80/3 30/86/3
f 29/83/4 25/73/4 24/71/4 28/81/4
f 27/79/5 25/74/5 29/84/5 31/89/5
f 32/90/4 17/50/4 73/203/4 44/124/4
f 45/127/4 33/92/4 32/90/4 44/124/4
f 5/14/4 41/115/4 47/131/4 34/94/4
f 37/101/10 53/149/10 55/155/10 39/107/10
f 38/106/4 40/112/4 41/115/4 39/109/4
f 58/164/5 57/161/5 40/110/5 46/128/5
f 37/103/4 42/118/4 43/121/4 36/100/4
f 50/140/5 44/122/5 43/119/5 51/143/5
f 34/94/4 47/131/4 46/130/4 35/96/4
f 50/141/4 51/144/4 49/137/4 48/134/4
f 49/138/1 51/145/1 43/120/1 42/116/1
f 48/135/10 49/139/10 42/117/10 45/125/10
f 44/123/3 50/142/3 48/136/3 45/126/3
f 54/152/4 55/156/4 53/150/4 52/146/4
f 53/151/3 37/102/3 36/98/3 52/147/3
f 38/104/1 39/108/1 55/157/1 54/153/1
f 52/148/5 36/99/5 38/105/5 54/154/5
f 58/165/4 59/167/4 56/158/4 57/162/4
f 56/159/10 59/168/10 47/132/10 41/113/10
f 40/111/3 57/163/3 56/160/3 41/114/3
f 47/133/1 59/169/1 58/166/1 46/129/1
f 63/180/11 18/53/11 23/68/11 61/174/11
f 22/66/4 60/172/4 61/175/4 23/69/4
f 66/186/4 19/57/4 1/1/4 20/58/4
f 66/186/4 67/189/4 65/183/4 64/182/4
f 96/249/4 69/194/4 68/190/4 95/245/4
f 66/184/12 68/191/12 69/195/12 67/188/12
f 95/246/13 68/192/13 66/185/13 20/59/13
f 20/60/10 1/3/10 95/247/10
f 96/250/10 95/247/10 71/200/10 72/202/10
f 4/12/10 21/63/10 96/250/10
f 65/183/4 63/181/4 62/178/4 74/204/4
f 16/49/4 35/96/4 46/130/4 40/112/4
f 43/121/4 44/124/4 73/203/4 74/204/4
f 74/204/4 73/203/4 64/182/4 65/183/4
f 43/121/4 74/204/4 62/178/4 36/100/4
f 4/11/3 6/16/3 78/211/3 18/54/3
f 78/212/2 6/17/2 72/201/2 87/229/2
f 70/196/1 1/2/1 19/56/1 77/209/1
f 19/56/1 17/51/1 76/207/1 77/209/1
f 77/210/2 76/208/2 80/214/2 79/213/2
f 78/211/3 75/205/3 16/48/3 18/54/3
f 40/112/4 38/106/4 62/178/4 16/49/4
f 38/106/4 36/100/4 62/178/4
f 99/254/2 88/230/2 80/214/2 98/253/2
f 82/217/5 90/233/5 89/231/5 81/215/5
f 15/45/2 11/32/2 85/225/2 84/224/2
f 11/33/5 2/4/5 86/227/5 85/226/5
f 92/238/5 91/235/5 83/220/5 84/223/5
f 91/237/4 90/234/4 82/218/4 83/221/4
f 70/197/2 77/210/2 79/213/2 71/199/2
f 88/230/2 87/229/2 79/213/2 80/214/2
f 84/224/2 85/225/2 93/241/2 92/239/2
f 85/226/5 86/227/5 94/243/5 93/242/5
f 71/199/2 79/213/2 87/229/2 72/201/2
f 75/206/2 88/230/2 99/254/2 100/256/2
f 9/26/5 7/19/5 89/231/5 90/233/5
f 14/42/5 13/38/5 91/236/5 92/240/5
f 13/39/4 9/27/4 90/234/4 91/237/4
f 75/206/2 78/212/2 87/229/2 88/230/2
f 86/228/4 2/5/4 33/92/4 45/127/4
f 86/228/4 45/127/4 42/118/4 94/244/4
f 94/244/4 42/118/4 37/103/4 39/109/4
f 5/14/4 94/244/4 39/109/4 41/115/4
f 70/198/10 71/200/10 95/247/10 1/3/10
f 72/202/10 6/18/10 4/12/10 96/250/10
f 33/93/1 104/262/1 97/251/1 32/91/1
f 3/8/2 81/216/2 103/260/2 104/261/2
f 81/216/2 89/232/2 102/259/2 103/260/2
f 89/232/2 7/20/2 101/258/2 102/259/2
f 7/21/3 5/15/3 34/95/3 101/257/3
f 35/97/3 100/255/3 101/257/3 34/95/3
f 100/256/2 99/254/2 102/259/2 101/258/2
f 99/254/2 98/253/2 103/260/2 102/259/2
f 98/253/2 97/252/2 104/261/2 103/260/2
f 2/6/1 3/9/1 104/262/1 33/93/1
f 63/181/4 65/183/4 67/189/4
f 66/186/4 64/182/4 19/57/4
f 18/55/4 63/181/4 67/189/4
s 0
f 105/263/1 106/266/1 108/271/1 107/269/1
f 107/269/2 108/271/2 112/276/2 111/275/2
f 111/275/3 112/276/3 110/274/3 109/273/3
f 109/273/4 110/274/4 106/267/4 105/264/4
f 107/270/10 111/275/10 109/273/10 105/265/10
f 112/276/5 108/272/5 106/268/5 110/274/5
f 113/277/1 114/280/1 116/285/1 115/283/1
f 115/283/2 116/285/2 120/290/2 119/289/2
f 119/289/3 120/290/3 118/288/3 117/287/3
f 117/287/4 118/288/4 114/281/4 113/278/4
f 115/284/10 119/289/10 117/287/10 113/279/10
f 120/290/5 116/286/5 114/282/5 118/288/5
