# Blender 3.5.1
# www.blender.org
o budynek4.001
v 2.015986 6.481065 -1.981804
v 2.015986 -0.000024 2.092683
v 2.015986 5.701431 2.092684
v -2.058502 -0.000024 -1.981804
v -2.058502 6.481065 -1.981804
v -2.058502 -0.000024 2.092684
v -2.058502 5.701431 2.092684
v 1.649006 5.701431 1.780635
v -1.756152 5.701431 1.780635
v -1.756152 6.110421 -1.435477
v 1.624557 6.110421 -1.435477
v 1.649006 5.397360 1.780635
v -1.756152 5.397360 1.780635
v -1.756152 5.397360 -1.435477
v 1.624557 5.397360 -1.435477
v 2.003248 2.016095 -2.926391
v 2.003248 2.299526 -2.926391
v -2.021852 2.299526 -2.926391
v -2.021852 2.016095 -2.926391
v 1.860632 5.397161 -2.140358
v 1.860632 6.199682 -2.140358
v 1.860632 5.397161 -1.915852
v 1.860632 6.199682 -1.915852
v -1.914057 5.397161 -2.140358
v -1.914057 6.199682 -2.140358
v -1.914057 5.397161 -1.915852
v -1.914057 6.199682 -1.915852
v 2.015986 3.032403 -1.981804
v 2.015986 5.158589 -1.981804
v -2.058502 5.158589 -1.981804
v -2.058502 3.032403 -1.981804
v 0.849281 1.404647 -1.981804
v 1.724642 1.404647 -1.981804
v 0.849286 -0.000024 -1.981804
v 1.724642 -0.000024 -1.981804
v -0.338802 3.032403 -1.981804
v -0.338802 5.158589 -1.981804
v 0.314471 5.158589 -1.981804
v 0.314471 3.032403 -1.981804
v 1.680721 3.032403 -1.981804
v 1.680721 5.158589 -1.981804
v -1.698582 3.032403 -1.981804
v -1.698582 5.158589 -1.981804
v 0.596401 -0.000024 -1.981804
v -1.815700 -0.000024 -1.981804
v 0.596399 1.842327 -1.981804
v -1.815700 1.842327 -1.981804
v 0.849281 1.404647 -1.695506
v 0.849302 -0.000024 -1.695484
v 1.724642 1.404647 -1.695506
v -1.815670 -0.000024 -1.724770
v 0.596399 1.842327 -1.725600
v -1.815700 1.842327 -1.725600
v 1.680721 5.158589 -1.765101
v 0.314471 5.158589 -1.765101
v 1.680721 3.032403 -1.765101
v 0.314471 3.032403 -1.765101
v -0.338802 5.158589 -1.700055
v -0.338802 3.032403 -1.700055
v -1.698582 3.032403 -1.700055
v -1.698582 5.158589 -1.700055
v -2.021852 2.644359 -1.981804
v 2.003248 2.644359 -1.981804
v -2.021852 2.360928 -1.981804
v 2.003248 2.360928 -1.981804
v 2.015986 1.374680 -1.981804
v 2.015986 1.551659 2.092683
v -2.058502 1.601644 2.092683
v -2.058502 1.823127 -1.981804
v -1.814727 -0.000024 2.092684
v -1.813757 1.598642 2.092683
v -1.813757 5.701431 2.092684
v -1.551612 5.701431 1.780635
v -1.551612 5.397360 1.780635
v -1.553079 5.397360 -1.435477
v -1.553079 6.110421 -1.435477
v -1.813757 6.481065 -1.981804
v 0.601290 -0.000024 2.092683
v 0.606179 1.568954 2.092683
v 0.606179 5.701431 2.092684
v 0.470793 5.701431 1.780635
v 0.470793 5.397360 1.780635
v 0.454803 5.397360 -1.435477
v 0.454803 6.110421 -1.435477
v 0.606179 6.481065 -1.981804
v 0.849789 -0.000024 2.092683
v 0.850293 1.565960 2.092683
v 0.850293 5.701431 2.092684
v 0.674809 5.701431 1.780635
v 0.674809 5.397360 1.780635
v 0.657352 5.397360 -1.435477
v 0.657352 6.110421 -1.435477
v 0.850293 6.481065 -1.981804
v 1.725370 -0.000024 2.092683
v 1.726100 1.555216 2.092683
v 1.726100 5.701431 2.092684
v 1.406741 5.701431 1.780635
v 1.406741 5.397360 1.780635
v 1.384032 5.397360 -1.435477
v 1.384032 6.110421 -1.435477
v 1.726100 6.481065 -1.981804
v -2.058502 5.132408 2.092684
v -1.813759 5.131826 2.092684
v 0.606179 5.126071 2.092684
v 0.850293 5.125490 2.092684
v 1.726100 5.123408 2.092684
v 2.015983 5.122718 2.092684
v -2.058502 2.999923 2.092684
v -1.813759 2.998350 2.092684
v 0.606179 2.982806 2.092684
v 0.850293 2.981237 2.092684
v 1.726100 2.975612 2.092684
v 2.015983 2.973749 2.092684
v 0.596401 -0.000024 -1.725600
v 1.724667 -0.000024 -1.697171
v 2.015986 -0.000024 -1.981804
v 1.181328 5.237777 0.250761
v 1.181328 6.042865 0.250761
v 1.181328 5.237777 1.398147
v 1.181328 6.042865 1.398147
v 0.546577 5.237777 0.250761
v 0.546577 6.042865 0.250761
v 0.546577 5.237777 1.398147
v 0.546577 6.042865 1.398147
v -0.444354 5.444435 -0.989039
v -0.444354 5.844712 -0.989039
v -0.444354 5.444435 -0.387671
v -0.444354 5.844712 -0.387671
v -1.552889 5.444435 -0.989039
v -1.552889 5.844712 -0.989039
v -1.552889 5.444435 -0.387671
v -1.552889 5.844712 -0.387671
v 0.780456 5.201811 -0.543694
v 0.780456 6.773044 -0.543694
v 0.780456 5.201811 -0.007510
v 0.780456 6.773044 -0.007510
v 0.141449 5.201811 -0.543694
v 0.141449 6.773044 -0.543694
v 0.141449 5.201811 -0.007510
v 0.141449 6.773044 -0.007510
v -0.946632 5.201813 -0.108070
v -0.946632 5.759802 -0.108070
v -0.946632 5.201813 0.701886
v -0.946632 5.759802 0.701886
v -1.336021 5.201813 -0.108070
v -1.336021 5.759802 -0.108070
v -1.336021 5.201813 0.701886
v -1.336021 5.759802 0.701886
vn 1.0000 -0.0000 -0.0000
vn -0.0000 -0.0000 1.0000
vn -1.0000 -0.0000 -0.0000
vn 0.2480 0.9660 0.0735
vn 0.2801 0.8958 0.3452
vn 0.1691 0.8820 0.4399
vn 0.2447 0.9669 0.0726
vn -0.1962 0.9778 0.0737
vn -0.0000 1.0000 -0.0000
vn -0.2257 0.9705 0.0848
vn -0.0000 0.8275 0.5614
vn -0.2223 0.9080 0.3551
vn -0.1609 0.8942 0.4178
vn -0.0000 -0.0000 -1.0000
vn -1.0000 -0.0000 0.0076
vn -0.0000 0.9394 -0.3429
vn -0.0000 -1.0000 -0.0000
vn -0.0000 -0.9394 0.3429
vn -0.0002 -0.0002 -1.0000
vn 1.0000 -0.0000 -0.0001
vt 0.669688 0.847325
vt 0.589965 0.914826
vt 0.577237 0.900653
vt 0.671341 0.797646
vt 0.564509 0.915871
vt 0.682416 0.847325
vt 0.671341 0.811818
vt 0.577237 0.914826
vt 0.665703 0.923797
vt 0.602693 0.900653
vt 0.551781 0.928599
vt 0.669688 0.834597
vt 0.602693 0.914826
vt 0.665703 0.909625
vt 0.658613 0.797646
vt 0.652975 0.923797
vt 0.564509 0.928599
vt 0.682416 0.834597
vt 0.658613 0.811818
vt 0.652975 0.909625
vt 0.681442 0.846179
vt 0.717539 0.881399
vt 0.718276 0.878202
vt 0.665429 0.965165
vt 0.681442 0.835541
vt 0.717539 0.892036
vt 0.717590 0.833729
vt 0.671913 0.835541
vt 0.665429 0.955637
vt 0.718276 0.868673
vt 0.717590 0.844290
vt 0.671913 0.846102
vt 0.908626 0.047379
vt 0.718488 0.881399
vt 0.719226 0.878202
vt 0.664479 0.965165
vt 0.908626 0.036742
vt 0.718488 0.892036
vt 0.718540 0.833729
vt 0.664479 0.955637
vt 0.899097 0.036742
vt 0.899097 0.047303
vt 0.719226 0.868673
vt 0.718540 0.844290
vt 0.961332 0.195745
vt 0.716508 0.857451
vt 0.979409 0.225351
vt 0.980877 0.194989
vt 0.961332 0.194805
vt 0.978469 0.225351
vt 0.980877 0.187289
vt 0.957618 0.175625
vt 0.978469 0.233051
vt 0.957618 0.174685
vt 0.716508 0.844877
vt 0.979409 0.233051
vt 0.965778 0.180955
vt 0.960783 0.114471
vt 0.965778 0.182491
vt 0.959248 0.114471
vt 0.916915 0.206881
vt 0.965468 0.180955
vt 0.711630 0.937344
vt 0.965468 0.182491
vt 0.709123 0.937344
vt 0.917225 0.206881
vt 0.867989 0.216064
vt 0.960783 0.121692
vt 0.867989 0.217599
vt 0.959248 0.121692
vt 0.916915 0.199660
vt 0.711630 0.925552
vt 0.868299 0.216064
vt 0.709123 0.925552
vt 0.868299 0.217599
vt 0.917225 0.199660
vt 0.589965 0.910126
vt 0.589965 0.913130
vt 0.602693 0.913130
vt 0.665703 0.911320
vt 0.602693 0.910126
vt 0.665703 0.914324
vt 0.554610 0.963160
vt 0.711956 0.965489
vt 0.593610 0.905041
vt 0.554610 0.965894
vt 0.685080 0.965497
vt 0.590875 0.905041
vt 0.711956 0.961101
vt 0.551781 0.919515
vt 0.593610 0.900653
vt 0.685080 0.961109
vt 0.551781 0.916781
vt 0.590875 0.900653
vt 0.719244 0.864449
vt 0.718280 0.943552
vt 0.596731 0.910126
vt 0.719420 0.844364
vt 0.719244 0.867453
vt 0.596731 0.913130
vt 0.654547 0.965811
vt 0.693830 0.960445
vt 0.595937 0.913130
vt 0.654547 0.962807
vt 0.597543 0.960276
vt 0.595937 0.910126
vt 0.707970 0.962792
vt 0.597543 0.965494
vt 0.590719 0.910126
vt 0.693830 0.965662
vt 0.707970 0.965796
vt 0.590719 0.913130
vt 0.662001 0.962987
vt 0.718280 0.938284
vt 0.601999 0.910126
vt 0.719420 0.839096
vt 0.662001 0.965991
vt 0.601999 0.913130
vt 0.700711 0.957455
vt 0.551781 0.920305
vt 0.594400 0.900653
vt 0.710141 0.937551
vt 0.551781 0.927840
vt 0.601935 0.900653
vt 0.700711 0.963210
vt 0.717325 0.922702
vt 0.594400 0.906408
vt 0.710141 0.943306
vt 0.717325 0.915167
vt 0.601935 0.906408
vt 0.553716 0.963160
vt 0.449680 0.536654
vt 0.711061 0.965489
vt 0.449680 0.532266
vt 0.711061 0.961101
vt 0.552676 0.919515
vt 0.553716 0.965894
vt 0.446945 0.536654
vt 0.685974 0.965497
vt 0.925146 0.037046
vt 0.709338 0.937551
vt 0.552584 0.927840
vt 0.930901 0.044581
vt 0.701512 0.963210
vt 0.716524 0.922702
vt 0.930901 0.037046
vt 0.709341 0.943306
vt 0.716524 0.915167
vt 0.784374 0.393413
vt 0.693153 0.965662
vt 0.708647 0.965796
vt 0.653870 0.965811
vt 0.784374 0.398630
vt 0.693153 0.960445
vt 0.787378 0.393413
vt 0.708647 0.962792
vt 0.598220 0.965494
vt 0.653870 0.962807
vt 0.787378 0.398630
vt 0.598220 0.960276
vt 0.718540 0.844364
vt 0.820680 0.308253
vt 0.720124 0.867453
vt 0.823684 0.308253
vt 0.720124 0.864449
vt 0.719160 0.943552
vt 0.823684 0.313522
vt 0.661121 0.962987
vt 0.719160 0.938284
vt 0.718540 0.839096
vt 0.820680 0.313522
vt 0.661121 0.965991
vt 0.981459 0.187289
vt 0.958200 0.175676
vt 0.981459 0.194989
vt 0.961913 0.194754
vt 0.958200 0.174736
vt 0.715558 0.844877
vt 0.961913 0.195694
vt 0.715558 0.857451
vt 0.589965 0.904947
vt 0.577237 0.905500
vt 0.671341 0.802493
vt 0.652975 0.918794
vt 0.658613 0.802649
vt 0.665703 0.918102
vt 0.602693 0.906348
vt 0.659374 0.797646
vt 0.564509 0.927837
vt 0.659377 0.802640
vt 0.682416 0.835361
vt 0.659377 0.811818
vt 0.681442 0.836180
vt 0.717539 0.891397
vt 0.908626 0.037381
vt 0.718488 0.891397
vt 0.718540 0.834363
vt 0.899097 0.037376
vt 0.717590 0.834363
vt 0.671913 0.836176
vt 0.669688 0.835361
vt 0.601929 0.914826
vt 0.666922 0.797646
vt 0.564509 0.920290
vt 0.666937 0.802547
vt 0.682416 0.842921
vt 0.666937 0.811818
vt 0.681442 0.842498
vt 0.717539 0.885080
vt 0.908626 0.043699
vt 0.718488 0.885080
vt 0.718540 0.840636
vt 0.899097 0.043649
vt 0.717590 0.840636
vt 0.671913 0.842448
vt 0.669688 0.842921
vt 0.594369 0.914826
vt 0.667698 0.797646
vt 0.564509 0.919514
vt 0.667700 0.802538
vt 0.682416 0.843683
vt 0.667700 0.811818
vt 0.681442 0.843135
vt 0.717539 0.884442
vt 0.908626 0.044336
vt 0.718488 0.884442
vt 0.718540 0.841268
vt 0.899097 0.044282
vt 0.717590 0.841268
vt 0.671913 0.843081
vt 0.669688 0.843683
vt 0.593607 0.914826
vt 0.670433 0.797646
vt 0.564509 0.916779
vt 0.670435 0.802504
vt 0.682416 0.846419
vt 0.670435 0.811818
vt 0.681442 0.845422
vt 0.717539 0.882156
vt 0.908626 0.046622
vt 0.718488 0.882156
vt 0.899097 0.046552
vt 0.718540 0.843538
vt 0.717590 0.843538
vt 0.671913 0.845351
vt 0.669688 0.846419
vt 0.590871 0.914826
vt 0.658613 0.810041
vt 0.652975 0.911402
vt 0.659377 0.810039
vt 0.666937 0.810021
vt 0.667700 0.810019
vt 0.670435 0.810013
vt 0.671341 0.810010
vt 0.577237 0.913018
vt 0.658613 0.807017
vt 0.652975 0.914426
vt 0.659377 0.807012
vt 0.666937 0.806964
vt 0.667700 0.806959
vt 0.670435 0.806941
vt 0.671341 0.806935
vt 0.577237 0.909943
vt 0.925146 0.044581
vt 0.701512 0.957455
vt 0.552582 0.920305
vt 0.446946 0.532266
vt 0.685969 0.961109
vt 0.552670 0.916781
vt 0.589965 0.900653
vt 0.551781 0.915871
vt 0.791103 0.367538
vt 0.791103 0.413712
vt 0.779560 0.402169
vt 0.802647 0.367538
vt 0.802647 0.413712
vt 0.814190 0.402169
vt 0.791103 0.379081
vt 0.779560 0.390625
vt 0.802647 0.379081
vt 0.814190 0.390625
vt 0.791103 0.402169
vt 0.802647 0.402169
vt 0.791103 0.390625
vt 0.802647 0.390625
vt 0.958151 0.447838
vt 0.958151 0.470131
vt 0.952578 0.464558
vt 0.963724 0.447838
vt 0.963724 0.470131
vt 0.969297 0.464558
vt 0.958151 0.453411
vt 0.952578 0.458984
vt 0.963724 0.453411
vt 0.969297 0.458984
vt 0.958151 0.464558
vt 0.963724 0.464558
vt 0.958151 0.458984
vt 0.963724 0.458984
vt 0.533153 0.777145
vt 0.533153 0.824418
vt 0.521335 0.812599
vt 0.544972 0.777145
vt 0.544972 0.824418
vt 0.556790 0.812599
vt 0.533153 0.788963
vt 0.521335 0.800781
vt 0.544972 0.788963
vt 0.556790 0.800781
vt 0.533153 0.812599
vt 0.544972 0.812599
vt 0.533153 0.800781
vt 0.544972 0.800781
vt 0.706861 0.764945
vt 0.706861 0.813180
vt 0.694803 0.801121
vt 0.718920 0.764945
vt 0.718920 0.813180
vt 0.730979 0.801121
vt 0.706861 0.777004
vt 0.694803 0.789062
vt 0.718920 0.777004
vt 0.730979 0.789062
vt 0.706861 0.801121
vt 0.718920 0.801121
vt 0.706861 0.789062
vt 0.718920 0.789062
s 1
f 2/3/1 116/270/1 66/181/1 67/182/1
f 6/15/2 70/188/2 71/190/2 68/185/2
f 68/184/3 69/186/3 4/9/3 6/16/3
f 9/25/4 10/28/5 5/12/6 7/18/7
f 8/21/8 97/238/9 96/236/9 3/6/10
f 14/39/2 75/197/2 76/199/2 10/27/2
f 10/28/5 76/200/11 77/201/11 5/12/6
f 11/32/12 8/21/8 3/6/10 1/1/13
f 99/242/9 98/240/9 12/33/9 15/42/9
f 12/34/14 98/241/14 97/239/14 8/22/14
f 11/30/15 15/43/15 12/35/15 8/23/15
f 9/24/1 13/36/1 14/40/1 10/29/1
f 63/175/16 17/48/16 18/51/16 62/173/16
f 17/49/1 63/176/1 65/179/1 16/45/1
f 21/59/1 23/64/1 22/62/1 20/57/1
f 23/65/2 27/74/2 26/72/2 22/63/2
f 27/75/3 25/69/3 24/67/3 26/73/3
f 25/70/14 21/60/14 20/58/14 24/68/14
f 23/66/9 21/61/9 25/71/9 27/76/9
f 41/112/14 29/78/14 28/77/14 40/109/14
f 5/13/14 77/202/14 43/118/14 30/79/14
f 36/97/14 37/100/14 38/103/14 39/106/14
f 19/54/3 64/177/3 62/174/3 18/52/3
f 61/170/17 43/116/17 37/98/17 58/161/17
f 55/152/1 57/158/1 39/104/1 38/101/1
f 30/79/14 43/118/14 42/115/14 31/81/14
f 50/137/17 48/131/17 32/83/17 33/86/17
f 65/180/18 64/178/18 19/55/18 16/46/18
f 48/132/14 50/138/14 115/267/14 49/134/14
f 50/139/3 33/87/3 35/92/3 115/268/3
f 49/135/1 34/89/1 32/84/1 48/133/1
f 53/146/19 52/143/19 114/264/19 51/140/19
f 53/147/20 51/141/20 45/122/20 47/128/20
f 44/119/3 114/265/3 52/144/3 46/125/3
f 53/148/17 47/129/17 46/126/17 52/145/17
f 56/155/14 57/159/14 55/153/14 54/149/14
f 54/150/17 55/154/17 38/102/17 41/110/17
f 40/107/3 56/156/3 54/151/3 41/111/3
f 56/157/9 40/108/9 39/105/9 57/160/9
f 59/164/14 60/167/14 61/171/14 58/162/14
f 58/163/3 37/99/3 36/95/3 59/165/3
f 43/117/1 61/172/1 60/168/1 42/113/1
f 36/96/9 42/114/9 60/169/9 59/166/9
f 35/93/17 116/271/17 115/269/17
f 49/136/17 115/269/17 94/234/17 86/219/17
f 34/90/17 49/136/17 114/266/17 44/120/17
f 51/142/17 114/266/17 78/204/17 70/189/17
f 4/11/17 45/123/17 51/142/17
f 35/94/14 33/88/14 66/181/14 116/270/14
f 32/85/14 39/106/14 40/109/14 33/88/14
f 47/130/14 45/124/14 4/10/14 69/187/14
f 46/127/14 47/130/14 42/115/14 36/97/14
f 46/127/14 36/97/14 39/106/14 32/85/14
f 32/85/14 34/91/14 44/121/14 46/127/14
f 33/88/14 40/109/14 28/77/14 66/181/14
f 66/181/1 28/77/1 113/263/1 67/182/1
f 113/262/2 112/261/2 95/235/2 67/183/2
f 68/184/3 108/257/3 31/82/3 69/186/3
f 31/81/14 42/115/14 47/130/14 69/187/14
f 18/53/14 17/50/14 16/47/14 19/56/14
f 70/188/2 78/203/2 79/205/2 71/190/2
f 9/25/4 7/18/7 72/191/9 73/193/9
f 83/212/2 84/214/2 76/199/2 75/197/2
f 76/200/11 84/215/11 85/216/11 77/201/11
f 14/41/9 13/37/9 74/195/9 75/198/9
f 13/38/14 9/26/14 73/194/14 74/196/14
f 7/19/2 102/248/2 103/250/2 72/192/2
f 73/193/9 72/191/9 80/206/9 81/208/9
f 75/198/9 74/195/9 82/210/9 83/213/9
f 74/196/14 73/194/14 81/209/14 82/211/14
f 72/192/2 103/250/2 104/251/2 80/207/2
f 86/218/2 87/220/2 79/205/2 78/203/2
f 91/227/2 92/229/2 84/214/2 83/212/2
f 92/230/11 93/231/11 85/216/11 84/215/11
f 89/223/9 81/208/9 80/206/9 88/221/9
f 83/213/9 82/210/9 90/225/9 91/228/9
f 82/211/14 81/209/14 89/224/14 90/226/14
f 80/207/2 104/251/2 105/252/2 88/222/2
f 86/218/2 94/233/2 95/235/2 87/220/2
f 99/243/2 100/244/2 92/229/2 91/227/2
f 100/245/11 101/246/11 93/231/11 92/230/11
f 97/238/9 89/223/9 88/221/9 96/236/9
f 91/228/9 90/225/9 98/240/9 99/242/9
f 90/226/14 89/224/14 97/239/14 98/241/14
f 88/222/2 105/252/2 106/253/2 96/237/2
f 2/4/2 67/183/2 95/235/2 94/233/2
f 15/44/2 11/31/2 100/244/2 99/243/2
f 11/32/12 1/1/13 101/246/11 100/245/11
f 3/7/2 96/237/2 106/253/2 107/254/2
f 108/256/2 109/258/2 103/250/2 102/248/2
f 109/258/2 110/259/2 104/251/2 103/250/2
f 110/259/2 111/260/2 105/252/2 104/251/2
f 111/260/2 112/261/2 106/253/2 105/252/2
f 107/254/2 106/253/2 112/261/2 113/262/2
f 68/185/2 71/190/2 109/258/2 108/256/2
f 71/190/2 79/205/2 110/259/2 109/258/2
f 79/205/2 87/220/2 111/260/2 110/259/2
f 87/220/2 95/235/2 112/261/2 111/260/2
f 7/20/3 5/14/3 30/80/3 102/249/3
f 102/249/3 30/80/3 31/82/3 108/257/3
f 1/2/1 3/8/1 107/255/1 29/78/1
f 28/77/1 29/78/1 107/255/1 113/263/1
f 86/219/17 78/204/17 114/266/17 49/136/17
f 2/5/17 94/234/17 115/269/17 116/271/17
f 70/189/17 6/17/17 4/11/17 51/142/17
f 1/2/14 29/78/14 41/112/14 101/247/14
f 93/232/14 101/247/14 41/112/14 38/103/14
f 85/217/14 93/232/14 38/103/14 37/100/14
f 77/202/14 85/217/14 37/100/14 43/118/14
s 0
f 117/272/1 118/275/1 120/280/1 119/278/1
f 119/278/2 120/280/2 124/285/2 123/284/2
f 123/284/3 124/285/3 122/283/3 121/282/3
f 121/282/14 122/283/14 118/276/14 117/273/14
f 119/279/17 123/284/17 121/282/17 117/274/17
f 124/285/9 120/281/9 118/277/9 122/283/9
f 125/286/1 126/289/1 128/294/1 127/292/1
f 127/292/2 128/294/2 132/299/2 131/298/2
f 131/298/3 132/299/3 130/297/3 129/296/3
f 129/296/14 130/297/14 126/290/14 125/287/14
f 127/293/17 131/298/17 129/296/17 125/288/17
f 132/299/9 128/295/9 126/291/9 130/297/9
f 133/300/1 134/303/1 136/308/1 135/306/1
f 135/306/2 136/308/2 140/313/2 139/312/2
f 139/312/3 140/313/3 138/311/3 137/310/3
f 137/310/14 138/311/14 134/304/14 133/301/14
f 135/307/17 139/312/17 137/310/17 133/302/17
f 140/313/9 136/309/9 134/305/9 138/311/9
f 141/314/1 142/317/1 144/322/1 143/320/1
f 143/320/2 144/322/2 148/327/2 147/326/2
f 147/326/3 148/327/3 146/325/3 145/324/3
f 145/324/14 146/325/14 142/318/14 141/315/14
f 143/321/17 147/326/17 145/324/17 141/316/17
f 148/327/9 144/323/9 142/319/9 146/325/9
