# Blender 3.5.1
# www.blender.org
mtllib budynek6.mtl
o budynek6
v 1.958897 0.000001 -1.891392
v 1.958897 8.230465 -1.891391
v 1.958897 0.000001 2.183096
v 1.958897 8.230465 2.183096
v -2.115592 0.000001 -1.891392
v -2.115592 8.230465 -1.891391
v -2.115592 0.000001 2.183096
v -2.115592 8.230465 2.183096
v 1.737019 8.230465 2.183096
v 1.737019 0.000001 -1.891392
v 1.737019 8.230465 -1.891391
v 1.737019 7.536820 -1.891391
v 1.737019 6.073974 -1.891391
v 1.737019 5.709040 -1.891391
v 1.737019 4.069210 -1.891392
v 1.737019 3.702980 -1.891392
v 1.737019 2.197374 -1.891392
v -1.831714 8.230465 2.183096
v -1.831714 0.000001 -1.891392
v -1.831714 8.230465 -1.891391
v -1.831714 7.536820 -1.891391
v -1.831714 6.073974 -1.891391
v -1.831714 5.709040 -1.891391
v -1.831714 4.069210 -1.891392
v -1.831714 3.702980 -1.891392
v -1.831714 2.197374 -1.891392
v -1.831714 7.536820 -1.529483
v 1.737019 7.536820 -1.529483
v -1.831714 6.073974 -1.529483
v 1.737019 6.073974 -1.529483
v -1.831714 5.709040 -1.544815
v 1.737019 5.709040 -1.544815
v -1.831714 4.069210 -1.544815
v 1.737019 4.069210 -1.544815
v -1.831714 3.702980 -1.522037
v 1.737019 3.702980 -1.522037
v -1.831714 2.197374 -1.522037
v 1.737019 2.197374 -1.522037
v -1.831714 1.547635 -2.869656
v 1.737019 1.547635 -2.869656
v 1.737019 1.262790 -2.869656
v -1.831714 1.262790 -2.869656
v -1.831714 8.230465 1.932128
v -1.831714 8.230465 -1.637404
v 1.737019 8.230465 1.932128
v 1.737019 8.230465 -1.637404
v -1.831714 7.902478 1.932128
v -1.831714 7.902478 -1.637404
v 1.737019 7.902478 1.932128
v 1.737019 7.902478 -1.637404
v -1.831714 0.000001 2.183096
v 1.737021 0.000001 2.183096
v 1.958897 8.230465 -1.625523
v 1.958897 0.000001 -1.625523
v 1.737019 0.000001 -1.625523
v -1.831714 0.000001 -1.625523
v -2.115592 0.000001 -1.625523
v -2.115592 8.230465 -1.625523
v 1.958897 8.230465 1.913329
v 1.958897 0.000001 1.913329
v 1.737021 0.000001 1.913329
v -1.831714 0.000001 1.913329
v -2.115592 0.000001 1.913329
v -2.115592 8.230465 1.913329
v 1.958897 4.041980 -1.891392
v 1.958897 4.041980 -1.625523
v 1.958897 4.041980 1.913329
v 1.958897 4.041980 2.183096
v 1.737021 4.041980 2.183096
v -1.831714 4.041980 2.183096
v -2.115592 4.041980 2.183096
v -2.115592 4.041980 1.913329
v -2.115592 4.041980 -1.625523
v -2.115592 4.041980 -1.891392
v 1.958897 3.730098 -1.891392
v 1.958897 3.730098 -1.625523
v 1.958897 3.730098 1.913329
v 1.958897 3.730098 2.183096
v 1.737021 3.730098 2.183096
v -1.831714 3.730098 2.183096
v -2.115592 3.730098 2.183096
v -2.115592 3.730098 1.913329
v -2.115592 3.730098 -1.625523
v -2.115592 3.730098 -1.891392
v 1.958897 5.682802 -1.891391
v 1.958897 5.682802 -1.625523
v 1.958897 5.682802 1.913329
v 1.958897 5.682802 2.183096
v 1.737021 5.682802 2.183096
v -1.831714 5.682802 2.183096
v -2.115592 5.682802 2.183096
v -2.115592 5.682802 1.913329
v -2.115592 5.682802 -1.625523
v -2.115592 5.682802 -1.891391
v 1.958897 6.101738 -1.891391
v 1.958897 6.101738 -1.625523
v 1.958897 6.101738 1.913329
v 1.958897 6.101738 2.183096
v 1.737021 6.101738 2.183096
v -1.831714 6.101738 2.183096
v -2.115592 6.101738 2.183096
v -2.115592 6.101738 1.913329
v -2.115592 6.101738 -1.625523
v -2.115592 6.101738 -1.891391
v 1.958897 7.516919 -1.891391
v 1.958897 7.516919 -1.625523
v 1.958897 7.516919 1.913329
v 1.958897 7.516919 2.183096
v 1.737019 7.516919 2.183096
v -1.831714 7.516919 2.183096
v -2.115592 7.516919 2.183096
v -2.115592 7.516919 1.913329
v -2.115592 7.516919 -1.625523
v -2.115592 7.516919 -1.891391
v 1.958897 2.214334 -1.891392
v 1.958897 2.214334 -1.625523
v 1.958897 2.214334 1.913329
v 1.958897 2.214334 2.183096
v 1.737021 2.214334 2.183096
v -1.831714 2.214334 2.183096
v -2.115592 2.214334 2.183096
v -2.115592 2.214334 1.913329
v -2.115592 2.214334 -1.625523
v -2.115592 2.214334 -1.891392
v 1.737019 1.953220 -1.891392
v -1.831714 1.953220 -1.891392
v 1.737019 1.668375 -1.891392
v -1.831714 1.668375 -1.891392
vn -0.0000 1.0000 -0.0000
vn -0.0000 -0.0000 1.0000
vn 1.0000 -0.0000 -0.0000
vn -0.0000 -0.0000 -1.0000
vn -0.0000 -1.0000 -0.0000
vn -1.0000 -0.0000 -0.0000
vn -0.0000 0.9238 -0.3830
vn -0.0000 -0.9238 0.3830
vt 0.812106 0.856746
vt 0.871585 0.919207
vt 0.881581 0.919207
vt 0.792418 0.900464
vt 0.881581 0.899014
vt 0.871585 0.899014
vt 0.822098 0.856746
vt 0.871585 0.919207
vt 0.891577 0.919207
vt 0.871585 0.899014
vt 0.891577 0.899014
vt 0.802409 0.900464
vt 0.861588 0.919207
vt 0.812106 0.866742
vt 0.901574 0.919207
vt 0.901574 0.899014
vt 0.792418 0.890468
vt 0.861588 0.899014
vt 0.822098 0.866742
vt 0.891577 0.919207
vt 0.881581 0.919207
vt 0.802409 0.890468
vt 0.881581 0.899014
vt 0.891577 0.899014
vt 0.872129 0.899014
vt 0.802409 0.899920
vt 0.812106 0.857291
vt 0.871040 0.919207
vt 0.792418 0.899920
vt 0.871040 0.899014
vt 0.772296 0.842472
vt 0.778256 0.834907
vt 0.871040 0.900716
vt 0.778256 0.838496
vt 0.772216 0.917806
vt 0.871040 0.904305
vt 0.801941 0.911935
vt 0.772254 0.900295
vt 0.871040 0.905200
vt 0.772097 0.937480
vt 0.801941 0.915958
vt 0.871040 0.909223
vt 0.772320 0.856609
vt 0.875664 0.834932
vt 0.871040 0.910122
vt 0.772287 0.882276
vt 0.875664 0.838626
vt 0.871040 0.913815
vt 0.802409 0.891165
vt 0.880885 0.899014
vt 0.812106 0.866046
vt 0.862285 0.919207
vt 0.792418 0.891165
vt 0.862285 0.899014
vt 0.772296 0.851227
vt 0.873870 0.835037
vt 0.862285 0.900716
vt 0.772216 0.909050
vt 0.873870 0.838626
vt 0.862285 0.904305
vt 0.770554 0.938090
vt 0.772254 0.909050
vt 0.862285 0.905200
vt 0.772097 0.928725
vt 0.770554 0.942113
vt 0.862285 0.909223
vt 0.875664 0.834932
vt 0.772320 0.865364
vt 0.862285 0.910122
vt 0.772287 0.873521
vt 0.875664 0.838626
vt 0.862285 0.913815
vt 0.773184 0.851227
vt 0.040310 0.693694
vt 0.874758 0.835037
vt 0.773184 0.842472
vt 0.040310 0.702449
vt 0.777369 0.834907
vt 0.036721 0.693694
vt 0.773104 0.909050
vt 0.874758 0.838626
vt 0.036721 0.702449
vt 0.777369 0.838496
vt 0.773104 0.917806
vt 0.113488 0.654329
vt 0.771405 0.938090
vt 0.773104 0.909050
vt 0.113488 0.663085
vt 0.801091 0.911935
vt 0.773104 0.900295
vt 0.772947 0.928725
vt 0.109465 0.654329
vt 0.771405 0.942113
vt 0.772947 0.937480
vt 0.109465 0.663085
vt 0.801091 0.915958
vt 0.108920 0.612028
vt 0.876570 0.834932
vt 0.773225 0.865364
vt 0.108920 0.620784
vt 0.773225 0.856609
vt 0.874758 0.834932
vt 0.773193 0.873521
vt 0.105227 0.612028
vt 0.876570 0.838626
vt 0.773193 0.882276
vt 0.105227 0.620784
vt 0.874758 0.838626
vt 0.020815 0.145579
vt 0.027191 0.030987
vt 0.098508 0.022736
vt 0.114359 0.022765
vt 0.020815 0.154334
vt 0.027191 0.039743
vt 0.113714 0.022498
vt 0.020117 0.154334
vt 0.132622 0.030594
vt 0.020117 0.145579
vt 0.132622 0.039349
vt 0.099154 0.022469
vt 0.772874 0.951025
vt 0.772366 0.957064
vt 0.801794 0.891165
vt 0.772320 0.865364
vt 0.772874 0.942268
vt 0.793040 0.891165
vt 0.862686 0.836098
vt 0.772366 0.965819
vt 0.801794 0.899920
vt 0.772320 0.856609
vt 0.862686 0.844856
vt 0.793040 0.899920
vt 0.213924 0.046677
vt 0.772069 0.951025
vt 0.771561 0.957064
vt 0.771515 0.865364
vt 0.205170 0.046677
vt 0.772069 0.942268
vt 0.213924 0.055432
vt 0.861881 0.836098
vt 0.771561 0.965819
vt 0.771515 0.856609
vt 0.205170 0.055432
vt 0.861881 0.844856
vt 0.822098 0.866046
vt 0.880885 0.919207
vt 0.822098 0.857291
vt 0.872129 0.919207
vt 0.793070 0.900464
vt 0.882233 0.899014
vt 0.812758 0.856746
vt 0.882233 0.919207
vt 0.812758 0.857291
vt 0.812758 0.866046
vt 0.812758 0.866742
vt 0.900921 0.919207
vt 0.793070 0.890468
vt 0.900921 0.899014
vt 0.801748 0.900464
vt 0.890915 0.899014
vt 0.821437 0.856746
vt 0.890915 0.919207
vt 0.821437 0.857291
vt 0.821437 0.866046
vt 0.821437 0.866742
vt 0.892239 0.919207
vt 0.801748 0.890468
vt 0.892239 0.899014
vt 0.881581 0.909290
vt 0.871585 0.909290
vt 0.882233 0.909290
vt 0.890915 0.909290
vt 0.871585 0.909290
vt 0.891577 0.909290
vt 0.872129 0.909290
vt 0.880885 0.909290
vt 0.891577 0.909290
vt 0.881581 0.909290
vt 0.892239 0.909290
vt 0.900921 0.909290
vt 0.901574 0.909290
vt 0.861588 0.909290
vt 0.881581 0.910055
vt 0.871585 0.910055
vt 0.882233 0.910055
vt 0.890915 0.910055
vt 0.871585 0.910055
vt 0.891577 0.910055
vt 0.872129 0.910055
vt 0.880885 0.910055
vt 0.881581 0.910055
vt 0.891577 0.910055
vt 0.892239 0.910055
vt 0.900921 0.910055
vt 0.901574 0.910055
vt 0.861588 0.910055
vt 0.881581 0.905264
vt 0.871585 0.905264
vt 0.882233 0.905264
vt 0.890915 0.905264
vt 0.871585 0.905264
vt 0.891577 0.905264
vt 0.872129 0.905264
vt 0.880885 0.905264
vt 0.891577 0.905264
vt 0.881581 0.905264
vt 0.892239 0.905264
vt 0.900921 0.905264
vt 0.901574 0.905264
vt 0.861588 0.905264
vt 0.881581 0.904237
vt 0.871585 0.904237
vt 0.882233 0.904237
vt 0.890915 0.904237
vt 0.871585 0.904237
vt 0.891577 0.904237
vt 0.872129 0.904237
vt 0.880885 0.904237
vt 0.891577 0.904237
vt 0.881581 0.904237
vt 0.892239 0.904237
vt 0.900921 0.904237
vt 0.901574 0.904237
vt 0.861588 0.904237
vt 0.881581 0.900765
vt 0.871585 0.900765
vt 0.882233 0.900765
vt 0.890915 0.900765
vt 0.871585 0.900765
vt 0.891577 0.900765
vt 0.872129 0.900765
vt 0.880885 0.900765
vt 0.881581 0.900765
vt 0.891577 0.900765
vt 0.892239 0.900765
vt 0.900921 0.900765
vt 0.901574 0.900765
vt 0.861588 0.900765
vt 0.881581 0.913774
vt 0.871585 0.913774
vt 0.882233 0.913774
vt 0.890915 0.913774
vt 0.871585 0.913774
vt 0.891577 0.913774
vt 0.872129 0.913774
vt 0.880885 0.913774
vt 0.891577 0.913774
vt 0.881581 0.913774
vt 0.892239 0.913774
vt 0.900921 0.913774
vt 0.901574 0.913774
vt 0.861588 0.913774
vt 0.114359 0.025364
vt 0.029619 0.039743
vt 0.029619 0.030987
vt 0.098508 0.025335
vt 0.113714 0.025096
vt 0.135050 0.030594
vt 0.135050 0.039349
vt 0.099154 0.025067
s 1
usemtl default
f 2/4/1 11/29/1 46/132/1 53/149/1
f 9/25/2 109/231/2 108/229/2 4/10/2
f 108/230/3 107/228/3 59/160/3 4/11/3
f 125/253/3 127/257/3 41/115/3 40/112/3
f 17/46/1 26/70/1 37/103/1 38/106/1
f 16/45/4 25/69/4 24/66/4 15/42/4
f 33/91/1 34/94/1 15/40/1 24/64/1
f 14/39/4 23/63/4 22/60/4 13/36/4
f 12/31/5 28/76/5 27/73/5 21/55/5
f 18/49/1 9/26/1 45/129/1 43/123/1
f 1/1/5 54/151/5 55/153/5 10/27/5
f 20/54/4 11/30/4 12/33/4 21/57/4
f 43/123/1 64/167/1 8/22/1 18/49/1
f 5/13/4 124/252/4 26/72/4 19/52/4
f 114/237/6 113/236/6 58/158/6 6/16/6
f 17/48/4 115/240/4 1/2/4 10/28/4
f 27/74/4 28/77/4 30/82/4 29/79/4
f 30/83/6 28/78/6 12/32/6 13/34/6
f 22/58/1 29/80/1 30/84/1 13/35/1
f 29/81/3 22/59/3 21/56/3 27/75/3
f 32/88/4 34/95/4 33/92/4 31/85/4
f 32/89/6 14/37/6 15/41/6 34/96/6
f 24/65/3 23/61/3 31/86/3 33/93/3
f 14/38/5 32/90/5 31/87/5 23/62/5
f 35/97/4 36/100/4 38/107/4 37/104/4
f 25/67/3 35/98/3 37/105/3 26/71/3
f 16/43/5 36/101/5 35/99/5 25/68/5
f 38/108/6 36/102/6 16/44/6 17/47/6
f 40/113/4 41/116/4 42/118/4 39/109/4
f 125/254/7 40/114/7 39/110/7 126/255/7
f 42/119/8 41/117/8 127/258/8 128/259/8
f 128/260/6 126/256/6 39/111/6 42/120/6
f 46/130/2 44/124/2 48/136/2 50/142/2
f 44/126/1 46/132/1 11/29/1 20/53/1
f 49/139/1 50/143/1 48/137/1 47/133/1
f 46/131/6 50/144/6 49/140/6 45/127/6
f 44/125/3 43/121/3 47/134/3 48/138/3
f 47/135/4 43/122/4 45/128/4 49/141/4
f 8/23/2 111/233/2 110/232/2 18/50/2
f 7/19/5 63/165/5 62/164/5 51/145/5
f 18/50/2 110/232/2 109/231/2 9/25/2
f 51/145/5 62/164/5 61/163/5 52/147/5
f 1/3/3 115/239/3 116/241/3 54/152/3
f 60/161/5 61/163/5 55/153/5 54/151/5
f 63/166/6 122/249/6 123/250/6 57/156/6
f 5/14/5 19/51/5 56/154/5 57/155/5
f 19/51/5 10/27/5 55/153/5 56/154/5
f 54/152/3 116/241/3 117/242/3 60/162/3
f 57/155/5 56/154/5 62/164/5 63/165/5
f 56/154/5 55/153/5 61/163/5 62/164/5
f 3/7/5 52/147/5 61/163/5 60/161/5
f 7/20/6 121/247/6 122/249/6 63/166/6
f 44/126/1 20/53/1 6/17/1 58/157/1
f 44/126/1 58/157/1 64/167/1 43/123/1
f 45/129/1 9/26/1 4/12/1 59/159/1
f 45/129/1 59/159/1 53/149/1 46/132/1
f 79/189/2 78/187/2 68/173/2 69/175/2
f 78/188/3 77/186/3 67/172/3 68/174/3
f 84/195/6 83/194/6 73/180/6 74/181/6
f 81/191/2 80/190/2 70/176/2 71/178/2
f 80/190/2 79/189/2 69/175/2 70/176/2
f 85/197/3 86/199/3 66/171/3 65/169/3
f 92/207/6 93/208/6 73/180/6 72/179/6
f 86/199/3 87/200/3 67/172/3 66/171/3
f 91/205/6 92/207/6 72/179/6 71/177/6
f 65/169/3 66/171/3 76/185/3 75/183/3
f 72/179/6 73/180/6 83/194/6 82/193/6
f 66/171/3 67/172/3 77/186/3 76/185/3
f 71/177/6 72/179/6 82/193/6 81/192/6
f 119/245/2 118/243/2 78/187/2 79/189/2
f 118/244/3 117/242/3 77/186/3 78/188/3
f 124/251/6 123/250/6 83/194/6 84/195/6
f 121/248/2 120/246/2 80/190/2 81/191/2
f 120/246/2 119/245/2 79/189/2 80/190/2
f 69/175/2 68/173/2 88/201/2 89/203/2
f 68/174/3 67/172/3 87/200/3 88/202/3
f 74/181/6 73/180/6 93/208/6 94/209/6
f 71/178/2 70/176/2 90/204/2 91/206/2
f 70/176/2 69/175/2 89/203/2 90/204/2
f 95/211/3 96/213/3 86/199/3 85/197/3
f 102/221/6 103/222/6 93/208/6 92/207/6
f 96/213/3 97/214/3 87/200/3 86/199/3
f 101/219/6 102/221/6 92/207/6 91/205/6
f 89/203/2 88/201/2 98/215/2 99/217/2
f 88/202/3 87/200/3 97/214/3 98/216/3
f 94/209/6 93/208/6 103/222/6 104/223/6
f 91/206/2 90/204/2 100/218/2 101/220/2
f 90/204/2 89/203/2 99/217/2 100/218/2
f 105/225/3 106/227/3 96/213/3 95/211/3
f 112/235/6 113/236/6 103/222/6 102/221/6
f 106/227/3 107/228/3 97/214/3 96/213/3
f 111/234/6 112/235/6 102/221/6 101/219/6
f 99/217/2 98/215/2 108/229/2 109/231/2
f 98/216/3 97/214/3 107/228/3 108/230/3
f 104/223/6 103/222/6 113/236/6 114/237/6
f 101/220/2 100/218/2 110/232/2 111/233/2
f 100/218/2 99/217/2 109/231/2 110/232/2
f 2/5/3 53/150/3 106/227/3 105/225/3
f 64/168/6 58/158/6 113/236/6 112/235/6
f 53/150/3 59/160/3 107/228/3 106/227/3
f 8/24/6 64/168/6 112/235/6 111/234/6
f 75/183/3 76/185/3 116/241/3 115/239/3
f 82/193/6 83/194/6 123/250/6 122/249/6
f 76/185/3 77/186/3 117/242/3 116/241/3
f 81/192/6 82/193/6 122/249/6 121/247/6
f 52/148/2 3/8/2 118/243/2 119/245/2
f 3/9/3 60/162/3 117/242/3 118/244/3
f 5/15/6 57/156/6 123/250/6 124/251/6
f 7/21/2 51/146/2 120/246/2 121/248/2
f 51/146/2 52/148/2 119/245/2 120/246/2
f 19/52/4 26/72/4 17/48/4 10/28/4
f 16/45/4 75/184/4 115/240/4 17/48/4
f 124/252/4 84/196/4 25/69/4 26/72/4
f 74/182/4 24/66/4 25/69/4 84/196/4
f 94/210/4 23/63/4 24/66/4 74/182/4
f 15/42/4 14/39/4 85/198/4 65/170/4
f 15/42/4 65/170/4 75/184/4 16/45/4
f 104/224/4 22/60/4 23/63/4 94/210/4
f 104/224/4 114/238/4 21/57/4 22/60/4
f 6/18/4 20/54/4 21/57/4 114/238/4
f 12/33/4 11/30/4 2/6/4 105/226/4
f 12/33/4 105/226/4 95/212/4 13/36/4
f 13/36/4 95/212/4 85/198/4 14/39/4
