# Blender 3.5.1
# www.blender.org
mtllib budynek5.mtl
o budynek5
v 1.940170 0.000007 -1.986899
v 1.940170 9.766684 -1.986899
v 1.940170 0.000007 2.087589
v 1.940170 9.766684 2.087589
v -2.134319 0.000007 -1.986899
v -2.134319 9.766684 -1.986899
v -2.134319 0.000007 2.087589
v -2.134319 9.766684 2.087589
v 1.940170 1.975757 -1.986899
v 1.940170 9.216751 -1.986899
v -2.134319 9.216747 -1.986899
v -2.134319 1.975760 -1.986899
v -1.629213 9.216750 -1.986899
v -1.643218 1.975760 -1.986899
v 0.191540 9.216750 -1.986899
v 0.191540 1.975760 -1.986899
v 0.779782 9.216750 -1.986899
v 0.779782 1.975760 -1.986899
v -0.452728 9.216750 -1.986899
v -0.452728 1.975760 -1.986899
v -1.026963 9.216750 -1.986899
v -1.026963 1.975760 -1.986899
v 1.410043 9.216751 -1.986899
v 1.410043 1.975757 -1.986899
v 0.779782 9.216750 -1.592462
v 0.779782 1.975759 -1.592462
v 1.410043 9.216751 -1.592462
v 1.410043 1.975757 -1.592462
v 0.191540 9.216750 -1.636334
v 0.191540 1.975759 -1.636334
v -0.452728 9.216750 -1.636334
v -0.452728 1.975759 -1.636334
v -1.629213 9.216750 -1.648160
v -1.643218 1.975759 -1.648160
v -1.026963 9.216750 -1.648160
v -1.026963 1.975759 -1.648160
v 1.487512 9.078125 -1.575993
v 1.487512 10.133587 -1.575993
v 1.487512 9.078125 1.655651
v 1.487512 10.133587 1.655651
v -1.641843 9.078125 -1.575993
v -1.641843 10.133587 -1.575993
v -1.641843 9.078125 1.655651
v -1.641843 10.133587 1.655651
v -2.134319 9.272858 2.087589
v 1.940170 9.272858 2.087589
v -2.134319 2.100651 2.087589
v 1.940172 2.100651 2.087589
v 1.295322 9.766684 -1.986899
v 1.295322 9.766684 2.087589
v 1.295320 9.272858 2.087589
v 1.295322 2.100651 2.087589
v 1.295320 0.000007 2.087589
v 1.295322 0.000007 -1.986899
v 0.440392 9.766684 -1.986899
v 0.440392 9.766684 2.087589
v 0.440392 9.272858 2.087589
v 0.440392 2.100651 2.087589
v 0.440392 0.000007 2.087589
v 0.440392 0.000007 -1.986899
v -0.025568 9.766684 -1.986899
v -0.025568 9.766684 2.087589
v -0.025566 9.272858 2.087589
v -0.025566 2.100651 2.087589
v -0.025566 0.000007 2.087589
v -0.025568 0.000007 -1.986899
v -0.908086 9.766684 -1.986899
v -0.908086 9.766684 2.087589
v -0.908082 9.272858 2.087589
v -0.908082 2.100651 2.087589
v -0.908082 0.000007 2.087589
v -0.908086 0.000007 -1.986899
v -1.394607 9.766684 -1.986899
v -1.394607 9.766684 2.087589
v -1.394605 9.272858 2.087589
v -1.394605 2.100651 2.087589
v -1.394605 0.000007 2.087589
v -1.394607 0.000007 -1.986899
v -1.902924 9.766684 -1.986899
v -1.902924 9.766684 2.087589
v -1.902924 9.272858 2.087589
v -1.902924 2.100651 2.087589
v -1.902924 0.000007 2.087589
v -1.902924 0.000007 -1.986899
vn 1.0000 -0.0000 -0.0000
vn -0.0000 -0.0000 1.0000
vn -1.0000 -0.0000 -0.0000
vn -0.0000 -0.0000 -1.0000
vn -0.0000 -1.0000 -0.0000
vn -0.0000 1.0000 -0.0000
vn 1.0000 -0.0019 -0.0000
vt 0.134195 0.023039
vt 0.154730 0.114049
vt 0.103619 0.023039
vt 0.184651 0.122297
vt 0.103619 0.047470
vt 0.134195 0.047470
vt 0.124003 0.023039
vt 0.164922 0.114049
vt 0.103619 0.023039
vt 0.103619 0.047470
vt 0.194843 0.122297
vt 0.124003 0.047470
vt 0.154730 0.124242
vt 0.113811 0.023039
vt 0.113811 0.047470
vt 0.184651 0.112105
vt 0.164922 0.124242
vt 0.093427 0.023039
vt 0.124003 0.023039
vt 0.124003 0.047470
vt 0.093427 0.047470
vt 0.194843 0.112105
vt 0.103619 0.027981
vt 0.134195 0.027981
vt 0.103619 0.046094
vt 0.134195 0.046094
vt 0.113811 0.046094
vt 0.113811 0.027981
vt 0.224290 0.125462
vt 0.221649 0.070047
vt 0.112548 0.046094
vt 0.187349 0.156235
vt 0.221649 0.051934
vt 0.112583 0.027981
vt 0.193966 0.150602
vt 0.213337 0.155795
vt 0.107993 0.046094
vt 0.193966 0.132489
vt 0.189979 0.157397
vt 0.107993 0.027981
vt 0.221649 0.071945
vt 0.220870 0.090106
vt 0.106522 0.046094
vt 0.222222 0.102866
vt 0.220870 0.071993
vt 0.106522 0.027981
vt 0.221127 0.108218
vt 0.213337 0.157407
vt 0.109605 0.046094
vt 0.189979 0.155786
vt 0.221127 0.090106
vt 0.109605 0.027981
vt 0.224290 0.123955
vt 0.220870 0.090106
vt 0.111041 0.046094
vt 0.187349 0.157777
vt 0.220870 0.071993
vt 0.111041 0.027981
vt 0.221649 0.070368
vt 0.212101 0.119304
vt 0.104945 0.046094
vt 0.222222 0.104443
vt 0.212101 0.101191
vt 0.104945 0.027981
vt 0.781174 0.282942
vt 0.222636 0.071945
vt 0.219883 0.090106
vt 0.781174 0.297124
vt 0.223209 0.102866
vt 0.219883 0.071993
vt 0.782409 0.282942
vt 0.222636 0.070368
vt 0.213088 0.119304
vt 0.782409 0.297124
vt 0.223209 0.104443
vt 0.213088 0.101191
vt 0.194843 0.150602
vt 0.870847 0.310274
vt 0.214214 0.155795
vt 0.194843 0.132489
vt 0.870847 0.292161
vt 0.190856 0.157397
vt 0.872459 0.310274
vt 0.220251 0.108218
vt 0.214214 0.157407
vt 0.872459 0.292161
vt 0.190856 0.155786
vt 0.220251 0.090106
vt 0.225137 0.125462
vt 0.915804 0.287371
vt 0.220802 0.070047
vt 0.915769 0.305484
vt 0.188197 0.156235
vt 0.220802 0.051934
vt 0.225137 0.123955
vt 0.917310 0.287371
vt 0.221717 0.090106
vt 0.917310 0.305484
vt 0.188197 0.157777
vt 0.221717 0.071993
vt 0.947364 0.079541
vt 0.945368 0.067842
vt 0.944724 0.079541
vt 0.948008 0.067842
vt 0.941400 0.059727
vt 0.947364 0.071458
vt 0.875313 0.160537
vt 0.944724 0.071458
vt 0.877953 0.160537
vt 0.941400 0.051643
vt 0.947365 0.079541
vt 0.945368 0.060014
vt 0.944724 0.079541
vt 0.948008 0.060014
vt 0.933572 0.059727
vt 0.875313 0.168364
vt 0.947365 0.087625
vt 0.877953 0.168364
vt 0.944724 0.087625
vt 0.933572 0.051643
vt 0.093427 0.046234
vt 0.124003 0.046234
vt 0.103619 0.046234
vt 0.124003 0.046234
vt 0.093427 0.028293
vt 0.124003 0.028293
vt 0.103619 0.028293
vt 0.124003 0.028293
vt 0.184651 0.120684
vt 0.105232 0.047470
vt 0.102006 0.047470
vt 0.194843 0.120684
vt 0.102006 0.046234
vt 0.102006 0.028293
vt 0.164922 0.115662
vt 0.102006 0.023039
vt 0.154730 0.115662
vt 0.105232 0.023039
vt 0.184651 0.118545
vt 0.107371 0.047470
vt 0.099867 0.047470
vt 0.194843 0.118545
vt 0.099867 0.046234
vt 0.099867 0.028293
vt 0.164922 0.117801
vt 0.099867 0.023039
vt 0.154730 0.117801
vt 0.107371 0.023039
vt 0.184651 0.117379
vt 0.108536 0.047470
vt 0.098702 0.047470
vt 0.194843 0.117379
vt 0.098702 0.046234
vt 0.098702 0.028293
vt 0.164922 0.118967
vt 0.098702 0.023039
vt 0.154730 0.118967
vt 0.108536 0.023039
vt 0.184651 0.115172
vt 0.110744 0.047470
vt 0.096494 0.047470
vt 0.194843 0.115172
vt 0.096494 0.046234
vt 0.096494 0.028293
vt 0.164922 0.121174
vt 0.096494 0.023039
vt 0.154730 0.121174
vt 0.110744 0.023039
vt 0.184651 0.113955
vt 0.111961 0.047470
vt 0.095277 0.047470
vt 0.194843 0.113955
vt 0.095277 0.046234
vt 0.095277 0.028293
vt 0.164922 0.122391
vt 0.095277 0.023039
vt 0.154730 0.122391
vt 0.111961 0.023039
vt 0.184651 0.112683
vt 0.113232 0.047470
vt 0.094006 0.047470
vt 0.194843 0.112683
vt 0.094006 0.046234
vt 0.094006 0.028293
vt 0.164922 0.123663
vt 0.094006 0.023039
vt 0.154730 0.123663
vt 0.113232 0.023039
s 1
usemtl default
f 9/24/1 48/128/1 3/7/1 1/1/1
f 50/131/2 51/133/2 46/123/2 4/10/2
f 11/27/3 45/122/3 8/20/3 6/15/3
f 60/148/4 66/158/4 16/40/4 18/46/4
f 5/13/5 84/187/5 83/185/5 7/17/5
f 2/4/6 49/129/6 50/132/6 4/11/6
f 27/71/4 28/74/4 26/68/4 25/65/4
f 24/64/4 23/61/4 10/25/4 9/23/4
f 11/27/4 6/15/4 79/180/4 13/31/4
f 11/27/4 13/31/4 14/34/4 12/28/4
f 33/89/5 13/29/5 21/53/5 35/95/5
f 21/55/4 19/49/4 20/52/4 22/58/4
f 15/35/3 16/38/3 30/80/3 29/77/3
f 17/43/4 18/46/4 16/40/4 15/37/4
f 27/72/5 25/66/5 17/41/5 23/59/5
f 24/62/6 18/44/6 26/69/6 28/75/6
f 25/67/1 26/70/1 18/45/1 17/42/1
f 28/76/3 27/73/3 23/60/3 24/63/3
f 29/78/4 30/81/4 32/86/4 31/83/4
f 16/39/6 20/50/6 32/87/6 30/82/6
f 31/84/1 32/88/1 20/51/1 19/47/1
f 29/79/5 31/85/5 19/48/5 15/36/5
f 36/98/4 34/92/4 33/90/4 35/96/4
f 34/93/6 36/99/6 22/56/6 14/32/6
f 13/30/7 33/91/7 34/94/7 14/33/7
f 22/57/3 36/100/3 35/97/3 21/54/3
f 40/108/1 39/106/1 37/101/1 38/103/1
f 40/109/2 44/118/2 43/116/2 39/107/2
f 44/119/3 42/113/3 41/111/3 43/117/3
f 41/112/4 42/114/4 38/104/4 37/102/4
f 38/105/6 42/115/6 44/120/6 40/110/6
f 47/125/2 82/184/2 81/183/2 45/121/2
f 7/18/2 83/186/2 82/184/2 47/125/2
f 56/141/2 57/143/2 51/133/2 50/131/2
f 1/2/5 3/8/5 53/135/5 54/137/5
f 55/139/6 56/142/6 50/132/6 49/129/6
f 48/127/2 46/123/2 51/133/2 52/134/2
f 3/9/2 48/127/2 52/134/2 53/136/2
f 54/137/5 53/135/5 59/145/5 60/147/5
f 52/134/2 51/133/2 57/143/2 58/144/2
f 53/136/2 52/134/2 58/144/2 59/146/2
f 62/151/2 63/153/2 57/143/2 56/141/2
f 61/149/6 62/152/6 56/142/6 55/139/6
f 60/147/5 59/145/5 65/155/5 66/157/5
f 58/144/2 57/143/2 63/153/2 64/154/2
f 59/146/2 58/144/2 64/154/2 65/156/2
f 68/161/2 69/163/2 63/153/2 62/151/2
f 67/159/6 68/162/6 62/152/6 61/149/6
f 66/157/5 65/155/5 71/165/5 72/167/5
f 64/154/2 63/153/2 69/163/2 70/164/2
f 65/156/2 64/154/2 70/164/2 71/166/2
f 74/171/2 75/173/2 69/163/2 68/161/2
f 73/169/6 74/172/6 68/162/6 67/159/6
f 72/167/5 71/165/5 77/175/5 78/177/5
f 70/164/2 69/163/2 75/173/2 76/174/2
f 71/166/2 70/164/2 76/174/2 77/176/2
f 80/181/2 81/183/2 75/173/2 74/171/2
f 79/179/6 80/182/6 74/172/6 73/169/6
f 78/177/5 77/175/5 83/185/5 84/187/5
f 76/174/2 75/173/2 81/183/2 82/184/2
f 77/176/2 76/174/2 82/184/2 83/186/2
f 8/21/2 45/121/2 81/183/2 80/181/2
f 6/16/6 8/22/6 80/182/6 79/179/6
f 24/64/4 9/23/4 1/3/4 54/138/4
f 18/46/4 24/64/4 54/138/4 60/148/4
f 66/158/4 72/168/4 20/52/4 16/40/4
f 72/168/4 78/178/4 22/58/4 20/52/4
f 78/178/4 84/188/4 14/34/4 22/58/4
f 84/188/4 5/14/4 12/28/4 14/34/4
f 2/5/4 10/25/4 23/61/4 49/130/4
f 49/130/4 23/61/4 17/43/4 55/140/4
f 55/140/4 17/43/4 15/37/4 61/150/4
f 61/150/4 15/37/4 19/49/4 67/160/4
f 67/160/4 19/49/4 21/55/4 73/170/4
f 73/170/4 21/55/4 13/31/4 79/180/4
f 11/27/3 12/28/3 47/126/3 45/122/3
f 12/28/3 5/14/3 7/19/3 47/126/3
f 2/6/1 4/12/1 46/124/1 10/26/1
f 9/24/1 10/26/1 46/124/1 48/128/1
