# Blender 3.5.1
# www.blender.org
o budynek1
v 2.015881 -0.000027 -2.085516
v 2.015881 7.782244 -2.085515
v 2.015882 -0.000027 1.988972
v 2.015882 7.782244 1.988972
v -2.058606 -0.000027 -2.085516
v -2.058606 7.782244 -2.085516
v -2.058606 -0.000027 1.988972
v -2.058606 7.782244 1.988972
v 1.740098 7.782244 1.676923
v -1.756256 7.782244 1.676923
v -1.756256 7.782244 -1.782755
v 1.715648 7.782244 -1.782755
v 1.740098 7.478173 1.676923
v -1.756256 7.478173 1.676923
v -1.756256 7.478173 -1.782755
v 1.715648 7.478173 -1.782755
v 1.991876 2.497520 -2.302289
v 1.991876 2.913171 -2.302289
v -2.034503 2.913169 -2.302289
v -2.034503 2.497520 -2.302289
v -0.642942 7.316414 -0.635096
v -0.642942 8.433071 -0.635096
v -0.642942 7.316414 1.146729
v -0.642942 8.433071 1.146729
v -1.535659 7.316414 -0.635096
v -1.535659 8.433071 -0.635096
v -1.535659 7.316414 1.146729
v -1.535659 8.433071 1.146729
v 2.015881 3.262915 -2.085516
v 2.015881 5.272707 -2.085515
v 2.015881 5.756816 -2.085515
v 2.015881 7.267828 -2.085515
v -2.058606 7.267830 -2.085516
v -2.058606 5.756816 -2.085516
v -2.058606 5.272707 -2.085516
v -2.058606 3.262915 -2.085516
v 0.628141 5.272707 -2.085515
v 0.628141 3.262915 -2.085516
v -0.624923 5.272707 -2.085515
v -0.624923 3.262915 -2.085516
v -1.658510 5.272707 -2.085516
v -1.658510 3.262915 -2.085516
v 1.637057 3.262915 -2.085516
v 1.637057 5.272707 -2.085515
v 0.361900 5.756816 -2.085515
v 0.361900 7.267828 -2.085515
v -0.360552 5.756816 -2.085515
v -0.360552 7.267828 -2.085515
v -0.947858 5.756816 -2.085516
v -0.947858 7.267828 -2.085516
v 0.915761 7.267828 -2.085515
v 0.915761 5.756816 -2.085515
v 1.628593 5.756816 -2.085515
v 1.628593 7.267828 -2.085515
v -1.650082 5.756816 -2.085516
v -1.650082 7.267830 -2.085516
v 1.628593 7.267828 -1.913120
v 0.915761 7.267828 -1.913120
v 1.628593 5.756816 -1.913120
v 0.915761 5.756816 -1.913120
v 0.361900 5.756816 -1.932482
v 0.361900 7.267828 -1.932482
v -0.360552 5.756816 -1.932482
v -0.360552 7.267828 -1.932482
v -0.947858 7.267828 -1.951820
v -0.947858 5.756816 -1.951820
v -1.650082 5.756816 -1.951820
v -1.650082 7.267830 -1.951819
v -0.624922 3.262915 -1.897651
v -0.624922 5.272707 -1.897651
v -1.658510 5.272707 -1.897651
v -1.658510 3.262915 -1.897651
v 1.637057 5.272707 -1.931698
v 0.628141 5.272707 -1.931698
v 1.637057 3.262915 -1.931698
v 0.628141 3.262915 -1.931698
v -2.034503 2.913169 -2.034036
v 1.991876 2.913171 -2.034036
v -2.034503 2.497520 -2.034036
v 1.991876 2.497520 -2.034036
v -2.058606 7.313259 1.988972
v 2.015882 7.313259 1.988972
v -2.058606 5.690696 1.988972
v 2.015882 5.690696 1.988972
v -2.058606 5.161245 1.988972
v 2.015882 5.161245 1.988972
v -2.058606 2.980642 1.988972
v 2.015882 2.980642 1.988972
vn 1.0000 -0.0000 -0.0000
vn -0.0000 -0.0000 1.0000
vn -1.0000 -0.0000 -0.0000
vn -0.0000 1.0000 -0.0000
vn -0.0000 -0.0000 -1.0000
vn -1.0000 -0.0000 0.0071
vn -0.0000 -1.0000 -0.0000
vt 0.947168 0.284717
vt 0.947293 0.177922
vt 0.927093 0.146404
vt 0.894964 0.179896
vt 0.918497 0.161603
vt 0.926201 0.131635
vt 0.947168 0.277168
vt 0.926938 0.161954
vt 0.919544 0.146404
vt 0.926046 0.147185
vt 0.894964 0.172348
vt 0.918652 0.131635
vt 0.903405 0.177504
vt 0.954717 0.284717
vt 0.954841 0.177922
vt 0.887415 0.179896
vt 0.926046 0.161603
vt 0.902513 0.162736
vt 0.910954 0.177504
vt 0.954717 0.277168
vt 0.919389 0.161954
vt 0.918497 0.147185
vt 0.887415 0.172348
vt 0.910062 0.162736
vt 0.894453 0.172926
vt 0.970062 0.152523
vt 0.971062 0.139108
vt 0.887976 0.172926
vt 0.970062 0.159001
vt 0.970532 0.178709
vt 0.970113 0.114022
vt 0.887976 0.179335
vt 0.970532 0.185119
vt 0.970113 0.120455
vt 0.894408 0.179335
vt 0.971062 0.145518
vt 0.885770 0.343155
vt 0.970625 0.152523
vt 0.970499 0.139108
vt 0.885770 0.349633
vt 0.970625 0.159001
vt 0.971095 0.178709
vt 0.970676 0.114022
vt 0.892179 0.349633
vt 0.971095 0.185119
vt 0.970676 0.120455
vt 0.892179 0.343200
vt 0.970499 0.145518
vt 0.218465 0.586423
vt 0.220975 0.559593
vt 0.205510 0.537895
vt 0.219235 0.586423
vt 0.160506 0.575761
vt 0.205510 0.538665
vt 0.219235 0.578964
vt 0.160506 0.583220
vt 0.205510 0.538665
vt 0.218465 0.578964
vt 0.220975 0.552133
vt 0.205510 0.537895
vt 0.425491 0.593835
vt 0.378597 0.674446
vt 0.423423 0.593835
vt 0.378597 0.676515
vt 0.427145 0.590534
vt 0.425491 0.590534
vt 0.412354 0.601645
vt 0.423423 0.590534
vt 0.412354 0.603714
vt 0.427145 0.587233
vt 0.337040 0.670882
vt 0.380251 0.674446
vt 0.334972 0.670882
vt 0.380251 0.676515
vt 0.425491 0.590534
vt 0.410700 0.601645
vt 0.337040 0.674183
vt 0.410700 0.603714
vt 0.334972 0.674183
vt 0.425491 0.587233
vt 0.923419 0.313181
vt 0.947293 0.183968
vt 0.927093 0.152449
vt 0.931122 0.283213
vt 0.923419 0.316905
vt 0.950487 0.198787
vt 0.931122 0.286937
vt 0.958191 0.168819
vt 0.931122 0.287834
vt 0.923419 0.317802
vt 0.950487 0.199684
vt 0.958191 0.169716
vt 0.931122 0.290633
vt 0.923419 0.320601
vt 0.918497 0.160650
vt 0.926201 0.130682
vt 0.926046 0.160650
vt 0.930967 0.320601
vt 0.907434 0.321734
vt 0.902513 0.161783
vt 0.930967 0.317802
vt 0.958036 0.199684
vt 0.934503 0.200817
vt 0.907434 0.318934
vt 0.930967 0.316905
vt 0.958036 0.198787
vt 0.907434 0.318037
vt 0.934503 0.199920
vt 0.903405 0.183550
vt 0.930967 0.313181
vt 0.954841 0.183968
vt 0.907434 0.314314
vt 0.925990 0.316905
vt 0.959865 0.354044
vt 0.976850 0.343703
vt 0.953058 0.198787
vt 0.925990 0.313181
vt 0.959865 0.350320
vt 0.907136 0.360760
vt 0.949864 0.183968
vt 0.928311 0.316905
vt 0.974012 0.296581
vt 0.939186 0.356331
vt 0.955380 0.198787
vt 0.928311 0.313181
vt 0.974012 0.298496
vt 0.974012 0.292858
vt 0.952185 0.183968
vt 0.930226 0.316905
vt 0.884340 0.361399
vt 0.939186 0.358246
vt 0.957295 0.198787
vt 0.974012 0.296581
vt 0.930226 0.313181
vt 0.884340 0.357675
vt 0.954100 0.183968
vt 0.924120 0.313181
vt 0.922319 0.350033
vt 0.907136 0.362629
vt 0.947995 0.183968
vt 0.924120 0.316905
vt 0.976850 0.341834
vt 0.922319 0.353757
vt 0.951189 0.198787
vt 0.976872 0.333614
vt 0.926483 0.317802
vt 0.976640 0.318952
vt 0.953551 0.199684
vt 0.921561 0.160650
vt 0.926483 0.320601
vt 0.976872 0.333614
vt 0.976640 0.321751
vt 0.976872 0.332275
vt 0.927821 0.317802
vt 0.976906 0.352103
vt 0.954890 0.199684
vt 0.922900 0.160650
vt 0.927821 0.320601
vt 0.976872 0.334952
vt 0.976906 0.354902
vt 0.928909 0.317802
vt 0.976827 0.269413
vt 0.967079 0.361099
vt 0.955978 0.199684
vt 0.923988 0.160650
vt 0.928909 0.320601
vt 0.976827 0.272213
vt 0.892082 0.360762
vt 0.920535 0.160650
vt 0.925457 0.320601
vt 0.971892 0.334595
vt 0.883992 0.362719
vt 0.925457 0.317802
vt 0.972911 0.333349
vt 0.971892 0.331796
vt 0.952525 0.199684
vt 0.924136 0.317802
vt 0.973506 0.323090
vt 0.972911 0.334669
vt 0.951205 0.199684
vt 0.924136 0.320601
vt 0.919215 0.160650
vt 0.973506 0.325889
vt 0.883992 0.361399
vt 0.930210 0.317802
vt 0.959883 0.358156
vt 0.967079 0.359798
vt 0.957279 0.199684
vt 0.925289 0.160650
vt 0.930210 0.320601
vt 0.959883 0.360956
vt 0.892082 0.362063
vt 0.973826 0.325889
vt 0.559321 0.944764
vt 0.884311 0.361399
vt 0.560642 0.944764
vt 0.971573 0.334595
vt 0.884311 0.362719
vt 0.973826 0.323090
vt 0.559321 0.941964
vt 0.973230 0.334669
vt 0.560642 0.941964
vt 0.973230 0.333349
vt 0.971573 0.331796
vt 0.977155 0.333614
vt 0.176759 0.690625
vt 0.976924 0.318952
vt 0.176759 0.693424
vt 0.977155 0.333614
vt 0.976924 0.321751
vt 0.977155 0.332275
vt 0.178097 0.690625
vt 0.976622 0.352103
vt 0.178097 0.693424
vt 0.977155 0.334952
vt 0.976622 0.354902
vt 0.977075 0.272213
vt 0.617586 0.932525
vt 0.892330 0.360762
vt 0.977075 0.269413
vt 0.617586 0.929726
vt 0.967326 0.361099
vt 0.618887 0.929726
vt 0.959635 0.358156
vt 0.967326 0.359798
vt 0.618887 0.932525
vt 0.959635 0.360956
vt 0.892330 0.362063
vt 0.974360 0.298496
vt 0.713292 0.953775
vt 0.974360 0.292858
vt 0.713292 0.957499
vt 0.974360 0.296581
vt 0.939534 0.356331
vt 0.715207 0.957499
vt 0.883992 0.361399
vt 0.939534 0.358246
vt 0.974360 0.296581
vt 0.715207 0.953775
vt 0.883992 0.357675
vt 0.656832 0.921940
vt 0.977135 0.341834
vt 0.922603 0.353757
vt 0.959580 0.354044
vt 0.658701 0.921940
vt 0.977135 0.343703
vt 0.656832 0.918216
vt 0.922603 0.350033
vt 0.907421 0.362629
vt 0.959580 0.350320
vt 0.658701 0.918216
vt 0.907421 0.360760
vt 0.160009 0.583220
vt 0.206007 0.538665
vt 0.160009 0.575761
vt 0.205013 0.538665
vt 0.220478 0.552133
vt 0.206007 0.537895
vt 0.220478 0.559593
vt 0.205013 0.537895
vt 0.918497 0.146317
vt 0.923419 0.306267
vt 0.914983 0.321818
vt 0.910062 0.161867
vt 0.923574 0.290717
vt 0.926046 0.146317
vt 0.930967 0.306267
vt 0.918652 0.130766
vt 0.923419 0.303261
vt 0.950487 0.185144
vt 0.942052 0.200694
vt 0.914983 0.318812
vt 0.923574 0.287711
vt 0.930967 0.303261
vt 0.958036 0.185144
vt 0.950642 0.169593
vt 0.950487 0.184163
vt 0.923419 0.302280
vt 0.914983 0.317831
vt 0.942052 0.199713
vt 0.958036 0.184163
vt 0.930967 0.302280
vt 0.923574 0.286730
vt 0.950642 0.168613
vt 0.910954 0.183027
vt 0.923419 0.298240
vt 0.919389 0.167476
vt 0.914983 0.313791
vt 0.930967 0.298240
vt 0.926938 0.167476
vt 0.919544 0.151926
vt 0.923574 0.282690
s 1
f 32/93/1 82/265/1 84/273/1 31/89/1
f 4/10/2 8/22/2 81/261/2 82/266/2
f 7/19/3 87/285/3 36/109/3 5/13/3
f 10/28/4 11/32/4 6/16/4 8/23/4
f 4/11/4 9/25/4 10/28/4 8/23/4
f 11/31/2 15/43/2 16/46/2 12/34/2
f 11/32/4 12/35/4 2/4/4 6/16/4
f 12/35/4 9/25/4 4/11/4 2/4/4
f 16/47/4 15/44/4 14/40/4 13/37/4
f 9/26/5 13/38/5 14/41/5 10/29/5
f 12/36/6 16/48/6 13/39/6 9/27/6
f 10/30/1 14/42/1 15/45/1 11/33/1
f 20/58/5 19/55/5 18/52/5 17/49/5
f 78/255/4 18/53/4 19/56/4 77/253/4
f 79/257/7 20/59/7 17/50/7 80/259/7
f 77/254/3 19/57/3 20/60/3 79/258/3
f 80/260/1 17/51/1 18/54/1 78/256/1
f 22/63/1 24/68/1 23/66/1 21/61/1
f 24/69/2 28/78/2 27/76/2 23/67/2
f 28/79/3 26/73/3 25/71/3 27/77/3
f 26/74/5 22/64/5 21/62/5 25/72/5
f 24/70/4 22/65/4 26/75/4 28/80/4
f 43/137/5 44/141/5 30/85/5 29/81/5
f 41/132/5 55/188/5 49/164/5 39/124/5
f 53/177/5 54/181/5 32/94/5 31/90/5
f 56/189/5 33/97/5 6/17/5 2/5/5 32/95/5 54/182/5 51/169/5 46/149/5 48/157/5 50/165/5
f 38/117/5 40/125/5 39/121/5 37/113/5
f 42/133/4 72/238/4 69/229/4 40/126/4
f 42/134/5 36/110/5 35/105/5 41/129/5
f 37/114/1 74/244/1 76/250/1 38/118/1
f 47/153/4 63/211/4 61/205/4 45/145/4
f 47/154/5 49/161/5 50/166/5 48/158/5
f 49/162/3 66/220/3 65/217/3 50/167/3
f 52/173/5 45/146/5 46/150/5 51/170/5
f 53/178/3 59/199/3 57/193/3 54/183/3
f 55/185/5 34/101/5 33/98/5 56/190/5
f 59/200/5 60/202/5 58/196/5 57/194/5
f 52/174/4 60/203/4 59/201/4 53/179/4
f 51/171/1 58/197/1 60/204/1 52/175/1
f 54/184/7 57/195/7 58/198/7 51/172/7
f 61/206/5 63/212/5 64/214/5 62/208/5
f 46/151/7 62/209/7 64/215/7 48/159/7
f 45/147/3 61/207/3 62/210/3 46/152/3
f 48/160/1 64/216/1 63/213/1 47/155/1
f 66/221/5 67/223/5 68/226/5 65/218/5
f 56/191/1 68/227/1 67/224/1 55/186/1
f 55/187/4 67/225/4 66/222/4 49/163/4
f 50/168/7 65/219/7 68/228/7 56/192/7
f 69/230/5 72/239/5 71/235/5 70/232/5
f 40/127/3 69/231/3 70/233/3 39/122/3
f 41/130/1 71/236/1 72/240/1 42/135/1
f 39/123/7 70/234/7 71/237/7 41/131/7
f 75/247/5 76/251/5 74/245/5 73/241/5
f 44/142/7 73/242/7 74/246/7 37/115/7
f 43/138/3 75/248/3 73/243/3 44/143/3
f 38/119/4 76/252/4 75/249/4 43/139/4
f 7/20/7 5/14/7 1/1/7 3/7/7
f 53/180/5 31/91/5 30/86/5 44/144/5
f 52/176/5 53/180/5 44/144/5 37/116/5
f 45/148/5 52/176/5 37/116/5
f 47/156/5 45/148/5 37/116/5 39/124/5
f 49/164/5 47/156/5 39/124/5
f 41/132/5 35/106/5 34/102/5 55/188/5
f 1/2/5 5/15/5 36/111/5 42/136/5 40/128/5 38/120/5 43/140/5 29/82/5
f 81/262/2 83/269/2 84/274/2 82/267/2
f 83/270/2 85/277/2 86/281/2 84/275/2
f 85/278/2 87/286/2 88/289/2 86/282/2
f 87/287/2 7/21/2 3/8/2 88/290/2
f 88/291/1 3/9/1 1/3/1 29/83/1
f 86/283/1 88/292/1 29/84/1 30/87/1
f 84/276/1 86/284/1 30/88/1 31/92/1
f 32/96/1 2/6/1 4/12/1 82/268/1
f 87/288/3 85/279/3 35/107/3 36/112/3
f 85/280/3 83/271/3 34/103/3 35/108/3
f 83/272/3 81/263/3 33/99/3 34/104/3
f 81/264/3 8/24/3 6/18/3 33/100/3
