# Blender 3.5.1
# www.blender.org
mtllib budynek2.mtl
o budynek2
v 2.029418 -0.000024 -2.004171
v 2.029418 9.232546 -2.004170
v 2.029418 -0.000025 2.070317
v 2.029418 9.232546 2.070318
v -2.045071 -0.000024 -2.004171
v -2.045071 9.232546 -2.004170
v -2.045071 -0.000025 2.070317
v -2.045071 9.232546 2.070318
v 1.753633 9.232546 1.758269
v -1.742719 9.232546 1.758269
v -1.742719 9.232546 -1.701409
v 1.729182 9.232546 -1.701409
v 1.753633 8.928475 1.758269
v -1.742719 8.928475 1.758269
v -1.742719 8.928475 -1.701409
v 1.729182 8.928475 -1.701409
v 1.990087 1.849557 -3.260060
v 1.990087 2.024717 -3.260060
v -2.003185 2.024715 -3.260060
v -2.003185 1.849557 -3.260060
v 1.265637 8.766714 -1.233772
v 1.265637 9.269679 -1.233772
v 1.265637 8.766714 1.284182
v 1.265637 9.269679 1.284182
v -1.246962 8.766714 -1.233772
v -1.246962 9.269679 -1.233772
v -1.246962 8.766714 1.284182
v -1.246962 9.269679 1.284182
v 2.029418 3.032402 -2.004171
v 2.029418 8.718130 -2.004170
v -2.045071 8.718130 -2.004170
v -2.045071 3.032402 -2.004171
v 0.375436 3.032402 -2.004171
v 0.375436 8.718130 -2.004170
v -0.347016 3.032402 -2.004171
v -0.347016 8.718130 -2.004170
v -0.934324 3.032402 -2.004171
v -0.934324 8.718130 -2.004170
v 0.929295 8.718130 -2.004170
v 0.929295 3.032402 -2.004171
v 1.642127 3.032402 -2.004171
v 1.642127 8.718130 -2.004170
v -1.636546 3.032402 -2.004171
v -1.636546 8.718130 -2.004170
v 1.642127 8.718130 -1.678287
v 0.929295 8.718130 -1.678287
v 1.642127 3.032402 -1.678287
v 0.929295 3.032402 -1.678287
v 0.375436 3.032402 -1.723717
v 0.375436 8.718130 -1.723717
v -0.347016 3.032402 -1.723717
v -0.347016 8.718130 -1.723717
v -0.934324 8.718130 -1.731267
v -0.934324 3.032402 -1.731267
v -1.636546 3.032402 -1.731267
v -1.636546 8.718130 -1.731267
v -2.003185 2.672683 -2.004171
v 1.990087 2.672683 -2.004171
v -2.003185 2.497522 -2.004171
v 1.990087 2.497522 -2.004171
v 1.666846 -0.000024 -2.004171
v 1.666846 -0.000025 2.070317
v 1.666846 9.232546 2.070318
v 1.442507 9.232546 1.758269
v 1.442507 8.928475 1.758269
v 1.420231 8.928475 -1.701409
v 1.420231 9.232546 -1.701409
v 1.666846 9.232546 -2.004170
v 0.865947 9.232546 -2.004170
v 0.737780 9.232546 -1.701409
v 0.737780 8.928475 -1.701409
v 0.755250 8.928475 1.758269
v 0.755250 9.232546 1.758269
v 0.865947 9.232546 2.070318
v 0.865947 -0.000025 2.070317
v 0.865947 -0.000024 -2.004171
v 0.440751 9.232546 -2.004170
v 0.375466 9.232546 -1.701409
v 0.375466 8.928475 -1.701409
v 0.390384 8.928475 1.758269
v 0.390384 9.232546 1.758269
v 0.440751 9.232546 2.070318
v 0.440751 -0.000025 2.070317
v 0.440751 -0.000024 -2.004171
v -0.388167 9.232546 -2.004170
v -0.330860 9.232546 -1.701409
v -0.330860 8.928474 -1.701409
v -0.320916 8.928474 1.758269
v -0.320916 9.232546 1.758269
v -0.388167 9.232546 2.070318
v -0.388167 -0.000025 2.070317
v -0.388167 -0.000024 -2.004171
v -0.860885 9.232546 -2.004170
v -0.733667 9.232546 -1.701409
v -0.733667 8.928474 -1.701409
v -0.726560 8.928474 1.758269
v -0.726560 9.232546 1.758269
v -0.860885 9.232546 2.070318
v -0.860885 -0.000025 2.070317
v -0.860885 -0.000024 -2.004171
v -1.674848 9.232546 -2.004170
v -1.427251 9.232546 -1.701409
v -1.427251 8.928474 -1.701409
v -1.425029 8.928474 1.758269
v -1.425029 9.232546 1.758269
v -1.674848 9.232546 2.070318
v -1.674848 -0.000025 2.070317
v -1.674848 -0.000024 -2.004171
v -2.045072 2.936551 2.070317
v -1.674848 2.936551 2.070317
v -0.860885 2.936551 2.070317
v -0.388167 2.936551 2.070317
v 0.440751 2.936551 2.070317
v 0.865947 2.936551 2.070317
v 1.666846 2.936551 2.070317
v 2.029418 2.936551 2.070317
v -2.045072 8.694356 2.070317
v -1.674850 8.694356 2.070317
v -0.860885 8.694356 2.070317
v -0.388167 8.694356 2.070317
v 0.440751 8.694356 2.070317
v 0.865947 8.694356 2.070317
v 1.666846 8.694356 2.070317
v 2.029418 8.694356 2.070317
vn 1.0000 -0.0000 -0.0000
vn -0.0000 -0.0000 1.0000
vn -1.0000 -0.0000 -0.0000
vn -0.0000 1.0000 -0.0000
vn -0.0000 -0.0000 -1.0000
vn -1.0000 -0.0000 0.0071
vn -0.0000 0.8887 -0.4585
vn -0.0000 -0.8887 0.4585
vn -0.0000 -1.0000 -0.0000
vt 0.965512 0.036465
vt 0.880207 0.904821
vt 0.951931 0.036465
vt 0.947763 0.932017
vt 0.880607 0.936769
vt 0.934182 0.932017
vt 0.886992 0.904821
vt 0.965512 0.036465
vt 0.958721 0.036465
vt 0.947763 0.932017
vt 0.887397 0.936769
vt 0.940973 0.932017
vt 0.951931 0.036465
vt 0.880207 0.911612
vt 0.958721 0.036465
vt 0.880607 0.929979
vt 0.940973 0.932017
vt 0.934182 0.932017
vt 0.945140 0.036465
vt 0.886992 0.911612
vt 0.972302 0.036465
vt 0.954554 0.932017
vt 0.887397 0.929979
vt 0.927391 0.932017
vt 0.886877 0.936310
vt 0.866669 0.938483
vt 0.866235 0.957916
vt 0.866233 0.925300
vt 0.886877 0.930483
vt 0.866669 0.932656
vt 0.866599 0.944431
vt 0.881111 0.930483
vt 0.866233 0.919534
vt 0.866235 0.963682
vt 0.866599 0.938644
vt 0.881111 0.936269
vt 0.893775 0.890759
vt 0.866162 0.938483
vt 0.865728 0.957916
vt 0.865726 0.925300
vt 0.893775 0.884932
vt 0.866162 0.932656
vt 0.866092 0.944431
vt 0.865726 0.919534
vt 0.888009 0.884932
vt 0.888009 0.890719
vt 0.865728 0.963682
vt 0.866092 0.938644
vt 0.414171 0.679516
vt 0.407689 0.651495
vt 0.424034 0.643033
vt 0.414463 0.679516
vt 0.430219 0.650196
vt 0.424294 0.643166
vt 0.414463 0.672860
vt 0.430219 0.656851
vt 0.365353 0.652169
vt 0.414171 0.672860
vt 0.407689 0.658150
vt 0.365613 0.652035
vt 0.169637 0.583665
vt 0.196604 0.587366
vt 0.170475 0.583665
vt 0.197443 0.587366
vt 0.185342 0.595155
vt 0.169637 0.587861
vt 0.145278 0.614152
vt 0.170475 0.587861
vt 0.146116 0.614152
vt 0.185342 0.590959
vt 0.213370 0.587512
vt 0.196604 0.583179
vt 0.214208 0.587512
vt 0.197443 0.583179
vt 0.181154 0.595155
vt 0.145278 0.618340
vt 0.213370 0.583316
vt 0.146116 0.618340
vt 0.214208 0.583316
vt 0.181154 0.590959
vt 0.934182 0.942350
vt 0.947763 0.942350
vt 0.965512 0.031412
vt 0.951931 0.031412
vt 0.947763 0.932875
vt 0.934182 0.932875
vt 0.940973 0.932875
vt 0.934182 0.932875
vt 0.951931 0.031412
vt 0.940973 0.942350
vt 0.958721 0.031412
vt 0.934182 0.942350
vt 0.945007 0.942350
vt 0.865074 0.945182
vt 0.868085 0.918998
vt 0.962755 0.031412
vt 0.908473 0.874878
vt 0.868085 0.909522
vt 0.945007 0.932875
vt 0.867365 0.895441
vt 0.943803 0.942350
vt 0.865074 0.946386
vt 0.961551 0.031412
vt 0.867365 0.885965
vt 0.908473 0.873674
vt 0.943803 0.932875
vt 0.942824 0.942350
vt 0.935710 0.873694
vt 0.867798 0.906930
vt 0.960572 0.031412
vt 0.933486 0.873682
vt 0.867798 0.897454
vt 0.942824 0.932875
vt 0.900610 0.878550
vt 0.891984 0.875256
vt 0.945930 0.932875
vt 0.945930 0.942350
vt 0.901154 0.878550
vt 0.900610 0.888026
vt 0.963678 0.031412
vt 0.947118 0.942350
vt 0.880996 0.929763
vt 0.901154 0.877362
vt 0.964866 0.031412
vt 0.880996 0.920287
vt 0.891984 0.874068
vt 0.947118 0.932875
vt 0.935710 0.874864
vt 0.941654 0.942350
vt 0.867283 0.931066
vt 0.959402 0.031412
vt 0.933486 0.874853
vt 0.867283 0.921590
vt 0.941654 0.932875
vt 0.880452 0.920287
vt 0.865947 0.443241
vt 0.892527 0.874068
vt 0.864759 0.443241
vt 0.901154 0.878550
vt 0.892527 0.875256
vt 0.880452 0.929763
vt 0.865947 0.452717
vt 0.900611 0.877362
vt 0.864759 0.452717
vt 0.900611 0.878550
vt 0.901154 0.888026
vt 0.824532 0.459233
vt 0.864606 0.945182
vt 0.867618 0.918998
vt 0.824532 0.449757
vt 0.908006 0.874878
vt 0.867618 0.909522
vt 0.867833 0.895441
vt 0.823328 0.459233
vt 0.864606 0.946386
vt 0.867833 0.885965
vt 0.823328 0.449757
vt 0.908006 0.873674
vt 0.806875 0.440579
vt 0.933940 0.873682
vt 0.867343 0.897454
vt 0.935255 0.873694
vt 0.806875 0.450054
vt 0.867343 0.906930
vt 0.935255 0.874864
vt 0.805705 0.450054
vt 0.867737 0.931066
vt 0.805705 0.440579
vt 0.933940 0.874853
vt 0.867737 0.921590
vt 0.428108 0.656851
vt 0.365353 0.654524
vt 0.428108 0.650196
vt 0.424294 0.645522
vt 0.409825 0.658150
vt 0.365613 0.654390
vt 0.409825 0.651495
vt 0.424034 0.645388
vt 0.880207 0.905426
vt 0.964908 0.036465
vt 0.886992 0.905426
vt 0.966116 0.036465
vt 0.948368 0.932017
vt 0.887397 0.936165
vt 0.886877 0.935791
vt 0.866669 0.937964
vt 0.893775 0.890241
vt 0.866162 0.937964
vt 0.888009 0.890204
vt 0.866092 0.939159
vt 0.866599 0.939159
vt 0.881111 0.935754
vt 0.880607 0.936165
vt 0.947159 0.932017
vt 0.880607 0.934830
vt 0.945824 0.932017
vt 0.866599 0.940297
vt 0.881111 0.934617
vt 0.888009 0.889066
vt 0.866092 0.940297
vt 0.893775 0.889095
vt 0.866162 0.936819
vt 0.886877 0.934646
vt 0.866669 0.936819
vt 0.949702 0.932017
vt 0.887397 0.934830
vt 0.886992 0.906760
vt 0.967451 0.036465
vt 0.880207 0.906760
vt 0.963573 0.036465
vt 0.880607 0.934122
vt 0.945116 0.932017
vt 0.866599 0.940900
vt 0.881111 0.934013
vt 0.888009 0.888462
vt 0.866092 0.940900
vt 0.893775 0.888487
vt 0.866162 0.936211
vt 0.886877 0.934038
vt 0.866669 0.936211
vt 0.950411 0.932017
vt 0.887397 0.934122
vt 0.886992 0.907469
vt 0.968160 0.036465
vt 0.880207 0.907469
vt 0.962864 0.036465
vt 0.880607 0.932740
vt 0.943734 0.932017
vt 0.866599 0.942078
vt 0.881111 0.932836
vt 0.888009 0.887285
vt 0.866092 0.942078
vt 0.893775 0.887302
vt 0.866162 0.935025
vt 0.886877 0.932852
vt 0.866669 0.935025
vt 0.951793 0.932017
vt 0.887397 0.932740
vt 0.886992 0.908850
vt 0.969541 0.036465
vt 0.880207 0.908850
vt 0.961483 0.036465
vt 0.880607 0.931952
vt 0.942946 0.932017
vt 0.866599 0.942749
vt 0.881111 0.932164
vt 0.888009 0.886614
vt 0.866092 0.942749
vt 0.893775 0.886626
vt 0.866162 0.934349
vt 0.886877 0.932176
vt 0.866669 0.934349
vt 0.952580 0.932017
vt 0.887397 0.931952
vt 0.886992 0.909638
vt 0.970329 0.036465
vt 0.880207 0.909638
vt 0.960695 0.036465
vt 0.880607 0.930596
vt 0.941590 0.932017
vt 0.866599 0.943905
vt 0.881111 0.931009
vt 0.866092 0.943905
vt 0.888009 0.885458
vt 0.893775 0.885462
vt 0.866162 0.933185
vt 0.886877 0.931012
vt 0.866669 0.933185
vt 0.953937 0.932017
vt 0.887397 0.930596
vt 0.886992 0.910995
vt 0.971685 0.036465
vt 0.880207 0.910995
vt 0.959338 0.036465
vt 0.945140 0.031571
vt 0.972302 0.031571
vt 0.927391 0.942510
vt 0.954554 0.942510
vt 0.971685 0.031571
vt 0.953937 0.942510
vt 0.970329 0.031571
vt 0.952580 0.942510
vt 0.969541 0.031571
vt 0.951793 0.942510
vt 0.968160 0.031571
vt 0.950411 0.942510
vt 0.967451 0.031571
vt 0.949702 0.942510
vt 0.966116 0.031571
vt 0.948368 0.942510
vt 0.940973 0.942510
vt 0.965512 0.031571
vt 0.958721 0.031571
vt 0.947763 0.942510
vt 0.954554 0.932914
vt 0.927391 0.932914
vt 0.953937 0.932914
vt 0.952580 0.932914
vt 0.951793 0.932914
vt 0.950411 0.932914
vt 0.949702 0.932914
vt 0.948368 0.932914
vt 0.947763 0.932914
vt 0.940973 0.932914
s 1
usemtl default
f 30/86/1 124/304/1 116/291/1 29/81/1
f 63/183/2 123/302/2 124/303/2 4/10/2
f 109/275/3 32/89/3 5/13/3 7/19/3
f 10/29/4 11/32/4 6/16/4 8/23/4
f 9/25/4 64/185/4 63/184/4 4/11/4
f 15/43/2 103/263/2 102/261/2 11/31/2
f 11/32/4 102/262/4 101/259/4 6/16/4
f 12/36/4 9/25/4 4/11/4 2/5/4
f 66/189/4 65/187/4 13/37/4 16/46/4
f 13/38/5 65/188/5 64/186/5 9/26/5
f 12/34/6 16/47/6 13/39/6 9/27/6
f 10/28/1 14/40/1 15/44/1 11/33/1
f 20/58/5 19/55/5 18/52/5 17/49/5
f 58/173/7 18/53/7 19/56/7 57/171/7
f 59/175/8 20/59/8 17/50/8 60/177/8
f 57/172/3 19/57/3 20/60/3 59/176/3
f 60/178/1 17/51/1 18/54/1 58/174/1
f 22/63/1 24/68/1 23/66/1 21/61/1
f 24/69/2 28/78/2 27/76/2 23/67/2
f 28/79/3 26/73/3 25/71/3 27/77/3
f 26/74/5 22/64/5 21/62/5 25/72/5
f 24/70/4 22/65/4 26/75/4 28/80/4
f 42/127/5 30/85/5 29/82/5 41/121/5
f 30/85/5 42/127/5 68/194/5 2/4/5
f 35/100/1 36/104/1 52/156/1 51/153/1
f 35/101/5 37/107/5 38/113/5 36/106/5
f 55/165/4 54/162/4 37/108/4 43/128/4
f 34/99/5 39/116/5 40/117/5 33/93/5
f 41/122/3 47/141/3 45/135/3 42/125/3
f 31/87/5 44/134/5 43/129/5 32/90/5
f 47/142/5 48/144/5 46/138/5 45/136/5
f 47/143/4 41/123/4 40/118/4 48/145/4
f 46/139/1 48/146/1 40/119/1 39/114/1
f 45/137/9 46/140/9 39/115/9 42/126/9
f 51/154/5 52/157/5 50/150/5 49/147/5
f 49/148/4 33/94/4 35/102/4 51/155/4
f 34/97/9 50/151/9 52/158/9 36/105/9
f 50/152/3 34/98/3 33/95/3 49/149/3
f 55/166/5 56/168/5 53/159/5 54/163/5
f 53/160/9 56/169/9 44/132/9 38/111/9
f 37/109/3 54/164/3 53/161/3 38/112/3
f 44/133/1 56/170/1 55/167/1 43/130/1
f 108/273/9 107/271/9 7/20/9 5/14/9
f 61/180/5 41/124/5 29/83/5 1/1/5
f 74/205/2 122/301/2 123/302/2 63/183/2
f 64/185/4 73/203/4 74/206/4 63/184/4
f 16/48/2 12/35/2 67/191/2 66/190/2
f 12/36/4 2/5/4 68/193/4 67/192/4
f 71/199/4 72/201/4 65/187/4 66/189/4
f 72/202/5 73/204/5 64/186/5 65/188/5
f 1/2/9 3/7/9 62/181/9 61/179/9
f 66/190/2 67/191/2 70/197/2 71/200/2
f 67/192/4 68/193/4 69/195/4 70/198/4
f 61/179/9 62/181/9 75/207/9 76/209/9
f 82/221/2 121/300/2 122/301/2 74/205/2
f 73/203/4 81/219/4 82/222/4 74/206/4
f 79/215/4 80/217/4 72/201/4 71/199/4
f 80/218/5 81/220/5 73/204/5 72/202/5
f 71/200/2 70/197/2 78/213/2 79/216/2
f 70/198/4 69/195/4 77/211/4 78/214/4
f 76/209/9 75/207/9 83/223/9 84/225/9
f 90/237/2 120/299/2 121/300/2 82/221/2
f 89/235/4 90/238/4 82/222/4 81/219/4
f 87/231/4 88/233/4 80/217/4 79/215/4
f 88/234/5 89/236/5 81/220/5 80/218/5
f 79/216/2 78/213/2 86/229/2 87/232/2
f 78/214/4 77/211/4 85/227/4 86/230/4
f 84/225/9 83/223/9 91/239/9 92/241/9
f 98/253/2 119/298/2 120/299/2 90/237/2
f 97/251/4 98/254/4 90/238/4 89/235/4
f 95/247/4 96/249/4 88/233/4 87/231/4
f 96/250/5 97/252/5 89/236/5 88/234/5
f 87/232/2 86/229/2 94/245/2 95/248/2
f 94/246/4 86/230/4 85/227/4 93/243/4
f 92/241/9 91/239/9 99/255/9 100/257/9
f 106/269/2 118/297/2 119/298/2 98/253/2
f 105/267/4 106/270/4 98/254/4 97/251/4
f 103/264/4 104/265/4 96/249/4 95/247/4
f 104/266/5 105/268/5 97/252/5 96/250/5
f 95/248/2 94/245/2 102/261/2 103/263/2
f 102/262/4 94/246/4 93/243/4 101/259/4
f 100/257/9 99/255/9 107/271/9 108/273/9
f 8/22/2 117/295/2 118/297/2 106/269/2
f 10/29/4 8/23/4 106/270/4 105/267/4
f 15/45/4 14/41/4 104/265/4 103/264/4
f 14/42/5 10/30/5 105/268/5 104/266/5
f 31/87/5 6/17/5 101/260/5 44/134/5
f 38/113/5 44/134/5 101/260/5 93/244/5
f 36/106/5 38/113/5 93/244/5 85/228/5
f 34/99/5 36/106/5 85/228/5 77/212/5
f 34/99/5 77/212/5 69/196/5 39/116/5
f 39/116/5 69/196/5 68/194/5 42/127/5
f 76/210/5 40/120/5 41/124/5 61/180/5
f 84/226/5 33/96/5 40/120/5 76/210/5
f 92/242/5 35/103/5 33/96/5 84/226/5
f 100/258/5 37/110/5 35/103/5 92/242/5
f 100/258/5 108/274/5 43/131/5 37/110/5
f 108/274/5 5/15/5 32/91/5 43/131/5
f 62/182/2 3/8/2 116/292/2 115/289/2
f 75/208/2 62/182/2 115/289/2 114/287/2
f 83/224/2 75/208/2 114/287/2 113/285/2
f 91/240/2 83/224/2 113/285/2 112/283/2
f 99/256/2 91/240/2 112/283/2 111/281/2
f 107/272/2 99/256/2 111/281/2 110/279/2
f 7/21/2 107/272/2 110/279/2 109/276/2
f 117/296/3 31/88/3 32/92/3 109/277/3
f 116/293/1 3/9/1 1/3/1 29/84/1
f 115/290/2 116/294/2 124/303/2 123/302/2
f 114/288/2 115/290/2 123/302/2 122/301/2
f 113/286/2 114/288/2 122/301/2 121/300/2
f 112/284/2 113/286/2 121/300/2 120/299/2
f 111/282/2 112/284/2 120/299/2 119/298/2
f 110/280/2 111/282/2 119/298/2 118/297/2
f 109/278/2 110/280/2 118/297/2 117/295/2
f 30/86/1 2/6/1 4/12/1 124/304/1
f 8/24/3 6/18/3 31/88/3 117/296/3
