# Blender 3.4.0
# www.blender.org
mtllib dom1.mtl
o Cube.003
v 0.406705 -0.443866 1.208899
v 0.406705 3.376134 1.208899
v 0.406705 -0.443866 -0.791101
v 0.406705 3.376134 -0.791101
v 2.406705 -0.443866 1.208899
v 2.406705 3.376134 1.208899
v 2.406705 -0.443866 -0.791101
v 2.406705 3.376134 -0.791101
v 0.542076 3.376134 -0.637929
v 2.258293 3.376134 -0.637929
v 2.258293 3.376134 1.060286
v 0.554078 3.376134 1.060286
v 0.542076 3.226878 -0.637929
v 2.258293 3.226878 -0.637929
v 2.258293 3.226878 1.060286
v 0.554078 3.226878 1.060286
v 2.406705 0.986103 1.208899
v 0.406705 0.986104 1.208899
v 2.406705 0.782078 1.208899
v 0.406705 0.782078 1.208899
v 0.406705 0.782078 1.315304
v 0.406705 0.986104 1.315304
v 2.406705 0.986103 1.315304
v 2.406705 0.782078 1.315304
v 1.711813 3.147477 0.496947
v 1.711813 3.695598 0.496947
v 1.711813 3.147477 -0.377678
v 1.711813 3.695598 -0.377678
v 2.150011 3.147477 0.496947
v 2.150011 3.695598 0.496947
v 2.150011 3.147477 -0.377678
v 2.150011 3.695598 -0.377678
v 0.406705 1.157779 1.208899
v 0.406705 2.144304 1.208899
v 0.406705 2.381934 1.208899
v 0.406705 3.123628 1.208899
v 2.406705 3.123629 1.208899
v 2.406705 2.381934 1.208899
v 2.406705 2.144304 1.208899
v 2.406705 1.157779 1.208899
v 1.087891 2.144304 1.208899
v 1.087891 1.157779 1.208899
v 1.702969 2.144304 1.208899
v 1.702969 1.157779 1.208899
v 2.210315 2.144304 1.208899
v 2.210315 1.157779 1.208899
v 0.592654 1.157779 1.208899
v 0.592654 2.144304 1.208899
v 1.218577 2.381934 1.208899
v 1.218577 3.123628 1.208899
v 1.573199 2.381934 1.208899
v 1.573199 3.123628 1.208899
v 1.861485 2.381934 1.208899
v 1.861485 3.123628 1.208899
v 0.946710 3.123628 1.208899
v 0.946710 2.381934 1.208899
v 0.596810 2.381934 1.208899
v 0.596810 3.123628 1.208899
v 2.206177 2.381934 1.208899
v 2.206177 3.123629 1.208899
v 0.596810 3.123628 1.124277
v 0.946710 3.123628 1.124277
v 0.596810 2.381934 1.124277
v 0.946710 2.381934 1.124277
v 1.218577 2.381934 1.133781
v 1.218577 3.123628 1.133781
v 1.573199 2.381934 1.133781
v 1.573199 3.123628 1.133781
v 1.861485 3.123628 1.143273
v 1.861485 2.381934 1.143273
v 2.206177 2.381934 1.143273
v 2.206177 3.123629 1.143273
v 1.702969 1.157779 1.116684
v 1.702969 2.144304 1.116684
v 2.210315 2.144304 1.116684
v 2.210315 1.157779 1.116684
v 0.592654 2.144304 1.133396
v 1.087891 2.144304 1.133396
v 0.592654 1.157779 1.133396
v 1.087891 1.157779 1.133396
vn -1.0000 -0.0000 -0.0000
vn -0.0000 -0.0000 -1.0000
vn 1.0000 -0.0000 -0.0000
vn -0.0000 -0.0000 1.0000
vn -0.0000 1.0000 -0.0000
vn 1.0000 -0.0000 -0.0071
vn -0.0000 -1.0000 -0.0000
vt 0.375000 0.000000
vt 0.375000 1.000000
vt 0.625000 0.000000
vt 0.875000 0.750000
vt 0.625000 1.000000
vt 0.375000 0.250000
vt 0.625000 0.250000
vt 0.875000 0.500000
vt 0.375000 0.750000
vt 0.625000 0.750000
vt 0.375000 0.500000
vt 0.625000 0.500000
vt 0.858079 0.519147
vt 0.643551 0.519147
vt 0.643551 0.731423
vt 0.856578 0.731423
vt 0.858079 0.519147
vt 0.643551 0.519147
vt 0.643551 0.731423
vt 0.856578 0.731423
vt 0.468584 0.750000
vt 0.468584 1.000000
vt 0.468584 0.000000
vt 0.455232 0.750000
vt 0.455232 1.000000
vt 0.455232 0.000000
vt 0.455232 1.000000
vt 0.455232 0.000000
vt 0.468584 1.000000
vt 0.468584 0.000000
vt 0.468584 0.750000
vt 0.455232 0.750000
vt 0.375000 0.000000
vt 0.375000 1.000000
vt 0.625000 0.000000
vt 0.625000 1.000000
vt 0.875000 0.750000
vt 0.375000 0.250000
vt 0.625000 0.250000
vt 0.875000 0.500000
vt 0.375000 0.750000
vt 0.625000 0.750000
vt 0.375000 0.500000
vt 0.625000 0.500000
vt 0.477463 0.000000
vt 0.477463 1.000000
vt 0.532601 0.000000
vt 0.532601 1.000000
vt 0.555693 0.000000
vt 0.555693 1.000000
vt 0.608475 0.000000
vt 0.608475 1.000000
vt 0.608475 0.750000
vt 0.555693 0.750000
vt 0.532601 0.750000
vt 0.477463 0.750000
vt 0.532601 0.914852
vt 0.477463 0.914852
vt 0.532601 0.840467
vt 0.477463 0.840467
vt 0.532601 0.769208
vt 0.477463 0.769208
vt 0.477463 0.984861
vt 0.532601 0.984861
vt 0.555693 0.900475
vt 0.608475 0.900475
vt 0.555693 0.855469
vt 0.608475 0.855469
vt 0.555693 0.816089
vt 0.608475 0.816089
vt 0.608475 0.941730
vt 0.555693 0.941730
vt 0.555693 0.984861
vt 0.608475 0.984861
vt 0.555693 0.769833
vt 0.608475 0.769833
vt 0.608475 0.984861
vt 0.608475 0.941730
vt 0.555693 0.984861
vt 0.555693 0.941730
vt 0.555693 0.900475
vt 0.608475 0.900475
vt 0.555693 0.855469
vt 0.608475 0.855469
vt 0.608475 0.816089
vt 0.555693 0.816089
vt 0.555693 0.769833
vt 0.608475 0.769833
vt 0.477463 0.840467
vt 0.532601 0.840467
vt 0.532601 0.769208
vt 0.477463 0.769208
vt 0.532601 0.984861
vt 0.532601 0.914852
vt 0.477463 0.984861
vt 0.477463 0.914852
s 0
f 1/1/1 20/26/1 18/23/1 33/45/1 34/47/1 35/49/1 36/51/1 2/3/1 4/7/1 3/6/1
f 3/6/2 4/7/2 8/12/2 7/11/2
f 7/11/3 8/12/3 6/10/3 37/53/3 38/54/3 39/55/3 40/56/3 17/21/3 19/24/3 5/9/3
f 5/9/4 19/24/4 20/25/4 1/2/4
f 8/12/5 10/14/5 11/15/5 6/10/5
f 4/8/5 9/13/5 10/14/5 8/12/5
f 12/16/2 11/15/2 15/19/2 16/20/2
f 6/10/5 11/15/5 12/16/5 2/4/5
f 2/4/5 12/16/5 9/13/5 4/8/5
f 13/17/5 16/20/5 15/19/5 14/18/5
f 10/14/4 9/13/4 13/17/4 14/18/4
f 9/13/6 12/16/6 16/20/6 13/17/6
f 11/15/1 10/14/1 14/18/1 15/19/1
f 21/27/4 24/32/4 23/31/4 22/29/4
f 18/22/4 17/21/4 40/56/4 46/62/4 44/60/4 42/58/4 47/63/4 33/46/4
f 17/21/5 18/22/5 22/29/5 23/31/5
f 20/25/7 19/24/7 24/32/7 21/27/7
f 19/24/3 17/21/3 23/31/3 24/32/3
f 18/23/1 20/26/1 21/28/1 22/30/1
f 25/33/1 26/35/1 28/39/1 27/38/1
f 27/38/2 28/39/2 32/44/2 31/43/2
f 31/43/3 32/44/3 30/42/3 29/41/3
f 29/41/4 30/42/4 26/36/4 25/34/4
f 32/44/5 28/40/5 26/37/5 30/42/5
f 33/46/4 47/63/4 48/64/4 34/48/4
f 34/48/4 48/64/4 41/57/4 43/59/4 45/61/4 39/55/4 38/54/4 59/75/4 53/69/4 51/67/4 49/65/4 56/72/4 57/73/4 35/50/4
f 35/50/4 57/73/4 58/74/4 36/52/4
f 36/52/4 58/74/4 55/71/4 50/66/4 52/68/4 54/70/4 60/76/4 37/53/4 6/10/4 2/5/4
f 41/57/4 42/58/4 44/60/4 43/59/4
f 44/60/5 46/62/5 76/92/5 73/89/5
f 45/61/4 46/62/4 40/56/4 39/55/4
f 42/58/1 41/57/1 78/94/1 80/96/1
f 49/65/5 51/67/5 67/83/5 65/81/5
f 52/68/4 51/67/4 53/69/4 54/70/4
f 54/70/3 53/69/3 70/86/3 69/85/3
f 55/71/4 56/72/4 49/65/4 50/66/4
f 58/74/3 57/73/3 63/79/3 61/77/3
f 60/76/4 59/75/4 38/54/4 37/53/4
f 61/77/4 63/79/4 64/80/4 62/78/4
f 57/73/5 56/72/5 64/80/5 63/79/5
f 56/72/1 55/71/1 62/78/1 64/80/1
f 55/71/7 58/74/7 61/77/7 62/78/7
f 66/82/4 65/81/4 67/83/4 68/84/4
f 52/68/7 50/66/7 66/82/7 68/84/7
f 50/66/3 49/65/3 65/81/3 66/82/3
f 51/67/1 52/68/1 68/84/1 67/83/1
f 69/85/4 70/86/4 71/87/4 72/88/4
f 59/75/1 60/76/1 72/88/1 71/87/1
f 53/69/5 59/75/5 71/87/5 70/86/5
f 60/76/7 54/70/7 69/85/7 72/88/7
f 74/90/4 73/89/4 76/92/4 75/91/4
f 43/59/3 44/60/3 73/89/3 74/90/3
f 46/62/1 45/61/1 75/91/1 76/92/1
f 45/61/7 43/59/7 74/90/7 75/91/7
f 77/93/4 79/95/4 80/96/4 78/94/4
f 41/57/7 48/64/7 77/93/7 78/94/7
f 48/64/3 47/63/3 79/95/3 77/93/3
f 47/63/5 42/58/5 80/96/5 79/95/5
