# Blender 3.4.0
# www.blender.org
mtllib dom3.mtl
o Cube.006
v 6.678729 -0.443866 1.208899
v 6.678729 1.428025 1.208899
v 6.678729 -0.443866 -0.791101
v 6.678729 1.428025 -0.791101
v 8.678728 -0.443866 1.208899
v 8.678728 1.428025 1.208899
v 8.678728 -0.443866 -0.791101
v 8.678728 1.428025 -0.791101
v 6.858863 1.428025 -0.637929
v 8.530317 1.428025 -0.637929
v 8.530317 1.428025 0.859340
v 6.870864 1.428025 0.859340
v 6.858863 1.278769 -0.637929
v 8.530317 1.278769 -0.637929
v 8.530317 1.278769 0.859340
v 6.870864 1.278769 0.859340
v 8.678728 0.512969 1.208899
v 6.678729 0.512969 1.208899
v 8.678728 0.426990 1.208899
v 6.678729 0.426990 1.208899
v 6.865155 -0.443866 1.208899
v 7.253015 -0.443866 1.208899
v 8.678728 0.290412 1.600132
v 8.678728 0.204434 1.600132
v 6.892056 1.409222 1.110498
v 6.892056 1.909764 1.110498
v 6.892056 1.409222 0.990690
v 6.892056 1.909764 0.990690
v 8.456980 1.409222 1.110498
v 8.456980 1.909764 1.110498
v 8.456980 1.409222 0.990690
v 8.456980 1.909764 0.990690
v 6.678729 0.689541 1.208899
v 6.678729 1.161566 1.208899
v 8.678728 1.161566 1.208899
v 8.678728 0.689542 1.208899
v 7.490601 0.689541 1.208899
v 7.490601 1.161566 1.208899
v 7.845222 0.689541 1.208899
v 7.845222 1.161566 1.208899
v 8.133508 0.689541 1.208899
v 8.133508 1.161566 1.208899
v 7.218733 1.161566 1.208899
v 7.218733 0.689541 1.208899
v 6.868834 0.689541 1.208899
v 6.868834 1.161566 1.208899
v 8.478201 0.689542 1.208899
v 8.478201 1.161566 1.208899
v 6.868834 1.161566 1.099544
v 7.218733 1.161566 1.099544
v 6.868834 0.689541 1.099544
v 7.218733 0.689541 1.099544
v 7.490601 0.689541 1.112515
v 7.490601 1.161566 1.112515
v 7.845222 0.689541 1.112515
v 7.845222 1.161566 1.112515
v 8.133508 1.161566 1.112745
v 8.133508 0.689541 1.112745
v 8.478201 0.689542 1.112745
v 8.478201 1.161566 1.112745
v 7.415483 0.290412 1.600132
v 7.415483 0.204433 1.600132
v 7.415483 0.512969 1.208899
v 7.417383 0.426990 1.208899
v 6.851666 0.426990 1.208899
v 7.248999 0.426990 1.208899
v 6.853433 0.312946 1.208899
v 7.249504 0.317423 1.208899
v 6.865155 -0.443866 1.059700
v 7.253015 -0.443866 1.059700
v 6.853433 0.312946 1.059700
v 7.249504 0.317423 1.059700
vn -1.0000 -0.0000 -0.0000
vn -0.0000 -0.0000 -1.0000
vn 1.0000 -0.0000 -0.0000
vn -0.0000 -0.0000 1.0000
vn -0.0000 1.0000 -0.0000
vn 1.0000 -0.0000 -0.0080
vn -0.0000 0.8692 0.4945
vn -0.9999 -0.0110 -0.0087
vn -1.0000 -0.0046 -0.0000
vn -0.0000 -1.0000 -0.0000
vn -0.0000 -0.8692 -0.4945
vn 0.0113 -0.9999 -0.0000
vn 0.9999 0.0155 -0.0000
vt 0.375000 0.000000
vt 0.375000 1.000000
vt 0.625000 0.000000
vt 0.875000 0.750000
vt 0.625000 1.000000
vt 0.375000 0.250000
vt 0.625000 0.250000
vt 0.875000 0.500000
vt 0.375000 0.750000
vt 0.625000 0.750000
vt 0.375000 0.500000
vt 0.625000 0.500000
vt 0.858079 0.519147
vt 0.643551 0.519147
vt 0.643551 0.731423
vt 0.856578 0.731423
vt 0.858079 0.519147
vt 0.643551 0.519147
vt 0.643551 0.731423
vt 0.856578 0.731423
vt 0.468584 0.750000
vt 0.468584 0.000000
vt 0.468584 1.000000
vt 0.455232 0.750000
vt 0.455232 0.000000
vt 0.455232 1.000000
vt 0.375000 0.984494
vt 0.000000 0.000000
vt 0.375000 0.913862
vt 0.000000 0.000000
vt 0.468584 0.750000
vt 0.455232 0.750000
vt 0.375000 0.000000
vt 0.375000 1.000000
vt 0.625000 0.000000
vt 0.625000 1.000000
vt 0.875000 0.750000
vt 0.375000 0.250000
vt 0.625000 0.250000
vt 0.875000 0.500000
vt 0.375000 0.750000
vt 0.625000 0.750000
vt 0.375000 0.500000
vt 0.625000 0.500000
vt 0.555693 0.000000
vt 0.555693 1.000000
vt 0.608475 0.000000
vt 0.608475 1.000000
vt 0.608475 0.750000
vt 0.555693 0.750000
vt 0.555693 0.900475
vt 0.608475 0.900475
vt 0.555693 0.855469
vt 0.608475 0.855469
vt 0.555693 0.816089
vt 0.608475 0.816089
vt 0.608475 0.941730
vt 0.555693 0.941730
vt 0.555693 0.984861
vt 0.608475 0.984861
vt 0.555693 0.769833
vt 0.608475 0.769833
vt 0.608475 0.984861
vt 0.608475 0.941730
vt 0.555693 0.984861
vt 0.555693 0.941730
vt 0.555693 0.900475
vt 0.608475 0.900475
vt 0.555693 0.855469
vt 0.608475 0.855469
vt 0.608475 0.816089
vt 0.555693 0.816089
vt 0.555693 0.769833
vt 0.608475 0.769833
vt 0.468584 0.907906
vt 0.455232 0.907906
vt 0.468584 0.907906
vt 0.455232 0.907668
vt 0.455232 0.986180
vt 0.455232 0.914365
vt 0.444725 0.985959
vt 0.445138 0.914301
vt 0.375000 0.984494
vt 0.000000 0.000000
vt 0.375000 0.913862
vt 0.000000 0.000000
vt 0.444725 0.985959
vt 0.445138 0.914301
s 0
f 1/1/1 20/25/1 18/22/1 33/45/1 34/47/1 2/3/1 4/7/1 3/6/1
f 3/6/2 4/7/2 8/12/2 7/11/2
f 7/11/3 8/12/3 6/10/3 35/49/3 36/50/3 17/21/3 19/24/3 5/9/3
f 5/9/4 19/24/4 64/78/4 66/80/4 68/82/4 22/29/4
f 8/12/5 10/14/5 11/15/5 6/10/5
f 4/8/5 9/13/5 10/14/5 8/12/5
f 12/16/2 11/15/2 15/19/2 16/20/2
f 6/10/5 11/15/5 12/16/5 2/4/5
f 2/4/5 12/16/5 9/13/5 4/8/5
f 13/17/5 16/20/5 15/19/5 14/18/5
f 10/14/4 9/13/4 13/17/4 14/18/4
f 9/13/6 12/16/6 16/20/6 13/17/6
f 11/15/1 10/14/1 14/18/1 15/19/1
f 20/26/4 65/79/4 66/80/4 64/78/4 63/77/4 18/23/4
f 17/21/7 63/77/7 61/75/7 23/31/7
f 64/78/8 62/76/8 61/75/8 63/77/8
f 19/24/3 17/21/3 23/31/3 24/32/3
f 22/29/9 68/82/9 72/88/9 70/85/9
f 25/33/1 26/35/1 28/39/1 27/38/1
f 27/38/2 28/39/2 32/44/2 31/43/2
f 31/43/3 32/44/3 30/42/3 29/41/3
f 29/41/4 30/42/4 26/36/4 25/34/4
f 32/44/5 28/40/5 26/37/5 30/42/5
f 17/21/4 36/50/4 47/61/4 41/55/4 39/53/4 37/51/4 44/58/4 45/59/4 33/46/4 18/23/4 63/77/4
f 33/46/4 45/59/4 46/60/4 34/48/4
f 34/48/4 46/60/4 43/57/4 38/52/4 40/54/4 42/56/4 48/62/4 35/49/4 6/10/4 2/5/4
f 40/54/10 38/52/10 54/68/10 56/70/10
f 40/54/4 39/53/4 41/55/4 42/56/4
f 41/55/5 47/61/5 59/73/5 58/72/5
f 43/57/4 44/58/4 37/51/4 38/52/4
f 45/59/5 44/58/5 52/66/5 51/65/5
f 48/62/4 47/61/4 36/50/4 35/49/4
f 49/63/4 51/65/4 52/66/4 50/64/4
f 44/58/1 43/57/1 50/64/1 52/66/1
f 43/57/10 46/60/10 49/63/10 50/64/10
f 46/60/3 45/59/3 51/65/3 49/63/3
f 54/68/4 53/67/4 55/69/4 56/70/4
f 38/52/3 37/51/3 53/67/3 54/68/3
f 39/53/1 40/54/1 56/70/1 55/69/1
f 37/51/5 39/53/5 55/69/5 53/67/5
f 57/71/4 58/72/4 59/73/4 60/74/4
f 48/62/10 42/56/10 57/71/10 60/74/10
f 42/56/3 41/55/3 58/72/3 57/71/3
f 47/61/1 48/62/1 60/74/1 59/73/1
f 62/76/11 64/78/11 19/24/11 24/32/11
f 61/75/4 62/76/4 24/32/4 23/31/4
f 21/27/4 67/81/4 65/79/4 20/26/4 1/2/4
f 65/79/4 67/81/4 68/82/4 66/80/4
f 70/85/4 72/88/4 71/87/4 69/83/4
f 68/82/12 67/81/12 71/87/12 72/88/12
f 67/81/13 21/27/13 69/83/13 71/87/13
f 21/28/5 22/30/5 70/86/5 69/84/5
