# Blender 3.5.1
# www.blender.org
o droga_chodnik.007
v -0.405016 0.000000 -0.411930
v -0.405016 0.000000 0.354161
v 0.291177 0.000000 -0.411930
v 0.291178 0.000000 0.354161
v 0.104932 17.084738 -0.206961
v -0.218771 17.084738 -0.206961
v -0.218771 17.084738 0.149241
v 0.104932 17.084738 0.149241
v -0.376766 17.078466 -0.677337
v -0.376766 17.470852 -0.677337
v 0.172620 17.078466 -0.677337
v 0.172620 17.470852 -0.677337
v -0.790803 16.772291 1.254012
v -0.790803 17.687096 1.254012
v 0.613057 16.772291 1.254012
v 0.613057 17.687096 1.254012
v -0.349523 5.090559 -0.350857
v 0.235684 5.090559 -0.350857
v -0.349523 5.090559 0.293103
v 0.235684 5.090559 0.293103
v 0.244128 4.315909 -0.360151
v -0.357967 4.315909 -0.360151
v -0.357967 4.315909 0.302395
v 0.244129 4.315909 0.302395
v 0.511138 16.883669 -0.677337
v -0.688884 16.883669 -0.677337
v -0.688884 17.665648 -0.677337
v 0.511138 17.665648 -0.677337
v 0.095440 17.133591 -1.182318
v -0.299586 17.133591 -1.182318
v -0.299586 17.415730 -1.182318
v 0.095440 17.415730 -1.182318
v -0.313097 17.313862 -0.948645
v -0.177408 23.667189 -1.067843
v 0.111529 17.313862 -0.948645
v -0.024161 23.667189 -1.067843
v -0.313097 17.327089 -0.700598
v -0.177408 23.671963 -0.897251
v 0.111529 17.327089 -0.700598
v -0.024161 23.671963 -0.897251
v -0.266981 17.144674 -0.739931
v 5.836121 12.227439 -1.040587
v 0.022681 17.454782 -0.739931
v 5.922978 12.320430 -1.040587
v -0.260116 17.138260 -0.948639
v 5.838179 12.225516 -1.126006
v 0.029545 17.448370 -0.948639
v 5.925037 12.318506 -1.126006
v -0.172882 17.559101 -0.681297
v -6.129227 12.390712 -1.063261
v 0.123518 17.255325 -0.681297
v -6.002164 12.260488 -1.063261
v -0.157247 17.574358 -0.923698
v -6.122525 12.397252 -1.191333
v 0.139154 17.270580 -0.923698
v -5.995461 12.267027 -1.191333
v 0.730821 0.829898 -0.687837
v 0.730821 0.812756 0.741001
v 0.730821 -0.000000 -0.697793
v 0.730821 -0.017142 0.731044
v -0.663871 0.829898 -0.687837
v -0.663871 0.812756 0.741001
v -0.663871 -0.000000 -0.697793
v -0.663871 -0.017142 0.731044
vn -0.0000 1.0000 -0.0000
vn -0.0000 0.0120 -0.9999
vn -0.9999 0.0109 -0.0000
vn -0.0000 0.0120 0.9999
vn 0.9999 0.0109 -0.0000
vn -0.0000 -1.0000 -0.0000
vn -0.0000 -0.9941 -0.1085
vn 0.9986 -0.0000 -0.0527
vn -0.0000 -0.0000 1.0000
vn -0.9986 -0.0000 -0.0527
vn -0.0000 -0.9983 -0.0576
vn -0.0000 0.9999 -0.0111
vn -0.0000 -0.0000 -1.0000
vn 0.9885 -0.0000 -0.1511
vn -0.9885 -0.0000 -0.1511
vn -0.0000 0.9941 -0.1085
vn -0.0000 -0.0188 -0.9998
vn 0.9998 0.0213 -0.0009
vn -0.0000 0.0310 0.9995
vn -0.9998 0.0213 -0.0009
vn -0.0000 -0.9986 0.0533
vn -0.0000 0.9996 -0.0280
vn 0.0281 -0.0262 0.9993
vn 0.6564 0.7544 -0.0015
vn -0.0166 0.0155 -0.9997
vn -0.6273 -0.7788 0.0030
vn -0.7301 0.6819 -0.0450
vn 0.7304 -0.6822 0.0330
vn -0.0347 -0.0338 0.9988
vn 0.6322 -0.7748 -0.0075
vn 0.0243 0.0237 -0.9994
vn -0.6556 0.7551 0.0049
vn 0.7129 0.6955 0.0898
vn -0.7138 -0.6965 -0.0729
vn 1.0000 -0.0000 -0.0000
vn -0.0000 -0.9999 -0.0120
vn -1.0000 -0.0000 -0.0000
vn -0.0000 0.9999 0.0120
vn -0.0000 -0.0120 0.9999
vt 0.643534 0.886897
vt 0.643205 0.885016
vt 0.643205 0.886897
vt 0.643314 0.885016
vt 0.643534 0.885016
vt 0.643424 0.886897
vt 0.643314 0.886897
vt 0.643424 0.885016
vt 0.643095 0.885016
vt 0.643424 0.885016
vt 0.643314 0.886897
vt 0.643095 0.886897
vt 0.643424 0.886897
vt 0.643095 0.885016
vt 0.641214 0.886897
vt 0.643095 0.886897
vt 0.643205 0.885016
vt 0.641214 0.885016
vt 0.643205 0.886897
vt 0.643314 0.885016
vt 0.656296 0.880712
vt 0.662336 0.880712
vt 0.656296 0.888841
vt 0.662336 0.888841
vt 0.653298 0.914869
vt 0.665335 0.914869
vt 0.653298 0.902832
vt 0.665335 0.902832
vt 0.643501 0.886897
vt 0.643172 0.885016
vt 0.286525 0.216420
vt 0.286854 0.218301
vt 0.643501 0.885016
vt 0.643391 0.886897
vt 0.286745 0.218301
vt 0.286854 0.216420
vt 0.643172 0.886897
vt 0.643282 0.885016
vt 0.286635 0.216420
vt 0.286525 0.218301
vt 0.643282 0.886897
vt 0.643391 0.885016
vt 0.286745 0.216420
vt 0.286635 0.218301
vt 0.286750 0.218301
vt 0.286859 0.216420
vt 0.643506 0.885016
vt 0.643396 0.886897
vt 0.286530 0.216420
vt 0.286859 0.218301
vt 0.643506 0.886897
vt 0.643177 0.885016
vt 0.286640 0.216420
vt 0.286530 0.218301
vt 0.643177 0.886897
vt 0.643287 0.885016
vt 0.286750 0.216420
vt 0.286640 0.218301
vt 0.643287 0.886897
vt 0.643396 0.885016
vt 0.641261 0.902832
vt 0.653298 0.890795
vt 0.653298 0.926905
vt 0.641261 0.914869
vt 0.653298 0.878759
vt 0.665335 0.926905
vt 0.677371 0.914869
vt 0.665335 0.878759
vt 0.677371 0.902832
vt 0.665335 0.890795
vt 0.656296 0.888841
vt 0.656296 0.880712
vt 0.662336 0.880712
vt 0.662336 0.888841
vt 0.653298 0.878759
vt 0.653298 0.926905
vt 0.641261 0.914869
vt 0.665335 0.878759
vt 0.665335 0.926905
vt 0.677371 0.914869
vt 0.653298 0.890795
vt 0.641261 0.902832
vt 0.665335 0.890795
vt 0.677371 0.902832
vt 0.653298 0.914869
vt 0.665335 0.914869
vt 0.653298 0.902832
vt 0.665335 0.902832
vt 0.653298 0.878759
vt 0.653298 0.926905
vt 0.641261 0.914869
vt 0.665335 0.878759
vt 0.665335 0.926905
vt 0.677371 0.914869
vt 0.653298 0.890795
vt 0.641261 0.902832
vt 0.665335 0.890795
vt 0.677371 0.902832
vt 0.653298 0.914869
vt 0.665335 0.914869
vt 0.653298 0.902832
vt 0.665335 0.902832
vt 0.653298 0.878759
vt 0.653298 0.926905
vt 0.641261 0.914869
vt 0.665335 0.878759
vt 0.665335 0.926905
vt 0.677371 0.914869
vt 0.653298 0.890795
vt 0.641261 0.902832
vt 0.665335 0.890795
vt 0.677371 0.902832
vt 0.653298 0.914869
vt 0.665335 0.914869
vt 0.653298 0.902832
vt 0.665335 0.902832
vt 0.653298 0.878759
vt 0.653298 0.926905
vt 0.641261 0.914869
vt 0.665335 0.878759
vt 0.665335 0.926905
vt 0.677371 0.914869
vt 0.653298 0.890795
vt 0.641261 0.902832
vt 0.665335 0.890795
vt 0.677371 0.902832
vt 0.653298 0.914869
vt 0.665335 0.914869
vt 0.653298 0.902832
vt 0.665335 0.902832
s 0
f 6/12/1 7/15/1 8/18/1 5/9/1
f 18/33/2 17/29/2 6/13/2 5/10/2
f 17/30/3 19/37/3 7/16/3 6/14/3
f 19/38/4 20/41/4 8/19/4 7/17/4
f 20/42/5 18/34/5 5/11/5 8/20/5
f 3/6/6 4/8/6 2/4/6 1/2/6
f 11/23/7 9/21/7 30/72/7 29/71/7
f 25/62/8 28/70/8 16/28/8 15/27/8
f 15/27/9 16/28/9 14/26/9 13/25/9
f 13/25/10 14/26/10 27/66/10 26/63/10
f 25/61/11 15/27/11 13/25/11 26/64/11
f 16/28/12 28/69/12 27/67/12 14/26/12
f 24/57/5 21/45/5 18/35/5 20/43/5
f 23/53/4 24/58/4 20/44/4 19/39/4
f 22/49/3 23/54/3 19/40/3 17/31/3
f 21/46/2 22/50/2 17/32/2 18/36/2
f 3/5/2 1/1/2 22/51/2 21/47/2
f 1/2/3 2/3/3 23/55/3 22/52/3
f 2/4/4 4/7/4 24/59/4 23/56/4
f 4/8/5 3/6/5 21/48/5 24/60/5
f 9/21/13 11/23/13 25/62/13 26/65/13
f 10/22/13 9/21/13 26/65/13 27/68/13
f 12/24/13 10/22/13 27/68/13 28/70/13
f 11/23/13 12/24/13 28/70/13 25/62/13
f 30/72/13 31/73/13 32/74/13 29/71/13
f 12/24/14 11/23/14 29/71/14 32/74/14
f 9/21/15 10/22/15 31/73/15 30/72/15
f 10/22/16 12/24/16 32/74/16 31/73/16
f 33/75/17 34/78/17 36/83/17 35/81/17
f 35/81/18 36/83/18 40/88/18 39/87/18
f 39/87/19 40/88/19 38/86/19 37/85/19
f 37/85/20 38/86/20 34/79/20 33/76/20
f 35/82/21 39/87/21 37/85/21 33/77/21
f 40/88/22 36/84/22 34/80/22 38/86/22
f 41/89/23 42/92/23 44/97/23 43/95/23
f 43/95/24 44/97/24 48/102/24 47/101/24
f 47/101/25 48/102/25 46/100/25 45/99/25
f 45/99/26 46/100/26 42/93/26 41/90/26
f 43/96/27 47/101/27 45/99/27 41/91/27
f 48/102/28 44/98/28 42/94/28 46/100/28
f 49/103/29 50/106/29 52/111/29 51/109/29
f 51/109/30 52/111/30 56/116/30 55/115/30
f 55/115/31 56/116/31 54/114/31 53/113/31
f 53/113/32 54/114/32 50/107/32 49/104/32
f 51/110/33 55/115/33 53/113/33 49/105/33
f 56/116/34 52/112/34 50/108/34 54/114/34
f 57/117/35 58/120/35 60/125/35 59/123/35
f 59/123/36 60/125/36 64/130/36 63/129/36
f 63/129/37 64/130/37 62/128/37 61/127/37
f 61/127/38 62/128/38 58/121/38 57/118/38
f 59/124/2 63/129/2 61/127/2 57/119/2
f 64/130/39 60/126/39 58/122/39 62/128/39
