# Blender 3.5.1
# www.blender.org
o wiatrak_anim
v -0.313097 17.313862 -0.948645
v -0.177408 23.667189 -1.067843
v 0.111529 17.313862 -0.948645
v -0.024161 23.667189 -1.067843
v -0.313097 17.327089 -0.700598
v -0.177408 23.671963 -0.897251
v 0.111529 17.327089 -0.700598
v -0.024161 23.671963 -0.897251
v -0.266981 17.144674 -0.739931
v 5.836121 12.227439 -1.040587
v 0.022681 17.454782 -0.739931
v 5.922978 12.320430 -1.040587
v -0.260116 17.138260 -0.948639
v 5.838179 12.225516 -1.126006
v 0.029545 17.448370 -0.948639
v 5.925037 12.318506 -1.126006
v -0.172882 17.559101 -0.681297
v -6.129227 12.390712 -1.063261
v 0.123518 17.255325 -0.681297
v -6.002164 12.260488 -1.063261
v -0.157247 17.574358 -0.923698
v -6.122525 12.397252 -1.191333
v 0.139154 17.270580 -0.923698
v -5.995461 12.267027 -1.191333
vn -0.0000 -0.0188 -0.9998
vn 0.9998 0.0213 -0.0009
vn -0.0000 0.0310 0.9995
vn -0.9998 0.0213 -0.0009
vn -0.0000 -0.9986 0.0533
vn -0.0000 0.9996 -0.0280
vn 0.0281 -0.0262 0.9993
vn 0.6564 0.7544 -0.0015
vn -0.0166 0.0155 -0.9997
vn -0.6273 -0.7788 0.0030
vn -0.7301 0.6819 -0.0450
vn 0.7304 -0.6822 0.0330
vn -0.0347 -0.0338 0.9988
vn 0.6322 -0.7748 -0.0075
vn 0.0243 0.0237 -0.9994
vn -0.6556 0.7551 0.0049
vn 0.7129 0.6955 0.0898
vn -0.7138 -0.6965 -0.0729
vt 0.653298 0.878759
vt 0.653298 0.926905
vt 0.641261 0.914869
vt 0.665335 0.878759
vt 0.665335 0.926905
vt 0.677371 0.914869
vt 0.653298 0.890795
vt 0.641261 0.902832
vt 0.665335 0.890795
vt 0.677371 0.902832
vt 0.653298 0.914869
vt 0.665335 0.914869
vt 0.653298 0.902832
vt 0.665335 0.902832
vt 0.653298 0.878759
vt 0.653298 0.926905
vt 0.641261 0.914869
vt 0.665335 0.878759
vt 0.665335 0.926905
vt 0.677371 0.914869
vt 0.653298 0.890795
vt 0.641261 0.902832
vt 0.665335 0.890795
vt 0.677371 0.902832
vt 0.653298 0.914869
vt 0.665335 0.914869
vt 0.653298 0.902832
vt 0.665335 0.902832
vt 0.653298 0.878759
vt 0.653298 0.926905
vt 0.641261 0.914869
vt 0.665335 0.878759
vt 0.665335 0.926905
vt 0.677371 0.914869
vt 0.653298 0.890795
vt 0.641261 0.902832
vt 0.665335 0.890795
vt 0.677371 0.902832
vt 0.653298 0.914869
vt 0.665335 0.914869
vt 0.653298 0.902832
vt 0.665335 0.902832
s 0
f 1/1/1 2/4/1 4/9/1 3/7/1
f 3/7/2 4/9/2 8/14/2 7/13/2
f 7/13/3 8/14/3 6/12/3 5/11/3
f 5/11/4 6/12/4 2/5/4 1/2/4
f 3/8/5 7/13/5 5/11/5 1/3/5
f 8/14/6 4/10/6 2/6/6 6/12/6
f 9/15/7 10/18/7 12/23/7 11/21/7
f 11/21/8 12/23/8 16/28/8 15/27/8
f 15/27/9 16/28/9 14/26/9 13/25/9
f 13/25/10 14/26/10 10/19/10 9/16/10
f 11/22/11 15/27/11 13/25/11 9/17/11
f 16/28/12 12/24/12 10/20/12 14/26/12
f 17/29/13 18/32/13 20/37/13 19/35/13
f 19/35/14 20/37/14 24/42/14 23/41/14
f 23/41/15 24/42/15 22/40/15 21/39/15
f 21/39/16 22/40/16 18/33/16 17/30/16
f 19/36/17 23/41/17 21/39/17 17/31/17
f 24/42/18 20/38/18 18/34/18 22/40/18
