# Blender 3.5.1
# www.blender.org
o budynek2.002
v 2.029418 -0.000024 -2.004171
v 2.029418 4.350196 -2.004170
v 2.029418 -0.000025 2.070317
v 2.029418 4.350196 2.070318
v -2.045071 -0.000024 -2.004171
v -2.045071 4.350196 -2.004170
v -2.045071 -0.000025 2.070317
v -2.045071 4.350196 2.070318
v 1.753633 4.350196 1.758269
v -1.742719 4.350196 1.758269
v -1.742719 4.350196 -1.701409
v 1.729182 4.350196 -1.701409
v 1.753633 4.046125 1.758269
v -1.742719 4.046125 1.758269
v -1.742719 4.046125 -1.701409
v 1.729182 4.046125 -1.701409
v 1.990087 1.703668 -2.714542
v 1.990087 2.031641 -2.714542
v -2.003185 2.031639 -2.714542
v -2.003185 1.703668 -2.714542
v 1.436989 3.850063 -1.405490
v 1.436989 4.421630 -1.405490
v 1.436989 3.850063 1.455900
v 1.436989 4.421630 1.455900
v -1.418315 3.850063 -1.405490
v -1.418315 4.421630 -1.405490
v -1.418315 3.850063 1.455900
v -1.418315 4.421630 1.455900
v 2.029418 2.820767 -2.004171
v 2.029418 3.835780 -2.004170
v -2.045071 3.835780 -2.004170
v -2.045071 2.820767 -2.004171
v 0.375436 2.820767 -2.004171
v 0.375436 3.835780 -2.004170
v -0.347016 2.820767 -2.004171
v -0.347016 3.835780 -2.004170
v -0.934324 2.820767 -2.004171
v -0.934324 3.835780 -2.004170
v 0.929295 3.835780 -2.004170
v 0.929295 2.820767 -2.004171
v 1.642127 2.820767 -2.004171
v 1.642127 3.835780 -2.004170
v -1.636546 2.820767 -2.004171
v -1.636546 3.835780 -2.004170
v 1.642127 3.835780 -1.678287
v 0.929295 3.835780 -1.678287
v 1.642127 2.820767 -1.678287
v 0.929295 2.820767 -1.678287
v 0.375436 2.820767 -1.723717
v 0.375436 3.835780 -1.723717
v -0.347016 2.820767 -1.723717
v -0.347016 3.835780 -1.723717
v -0.934324 3.835780 -1.731267
v -0.934324 2.820767 -1.731267
v -1.636546 2.820767 -1.731267
v -1.636546 3.835780 -1.731267
v -2.003185 2.461047 -2.004171
v 1.990087 2.461047 -2.004171
v -2.003185 2.133074 -2.004171
v 1.990087 2.133074 -2.004171
v 1.666846 -0.000024 -2.004171
v 1.666846 -0.000025 2.070317
v 1.666846 4.350196 2.070318
v 1.442507 4.350196 1.758269
v 1.442507 4.046125 1.758269
v 1.420231 4.046125 -1.701409
v 1.420231 4.350196 -1.701409
v 1.666846 4.350196 -2.004170
v 0.865947 4.350196 -2.004170
v 0.737780 4.350196 -1.701409
v 0.737780 4.046125 -1.701409
v 0.755250 4.046125 1.758269
v 0.755250 4.350196 1.758269
v 0.865947 4.350196 2.070318
v 0.865947 -0.000025 2.070317
v 0.865947 -0.000024 -2.004171
v 0.440751 4.350196 -2.004170
v 0.375466 4.350196 -1.701409
v 0.375466 4.046125 -1.701409
v 0.390384 4.046125 1.758269
v 0.390384 4.350196 1.758269
v 0.440751 4.350196 2.070318
v 0.440751 -0.000025 2.070317
v 0.440751 -0.000024 -2.004171
v -0.388167 4.350196 -2.004170
v -0.330860 4.350196 -1.701409
v -0.330860 4.046125 -1.701409
v -0.320916 4.046125 1.758269
v -0.320916 4.350196 1.758269
v -0.388167 4.350196 2.070318
v -0.388167 -0.000025 2.070317
v -0.388167 -0.000024 -2.004171
v -0.860885 4.350196 -2.004170
v -0.733667 4.350196 -1.701409
v -0.733667 4.046125 -1.701409
v -0.726560 4.046125 1.758269
v -0.726560 4.350196 1.758269
v -0.860885 4.350196 2.070318
v -0.860885 -0.000025 2.070317
v -0.860885 -0.000024 -2.004171
v -1.674848 4.350196 -2.004170
v -1.427251 4.350196 -1.701409
v -1.427251 4.046125 -1.701409
v -1.425029 4.046125 1.758269
v -1.425029 4.350196 1.758269
v -1.674848 4.350196 2.070318
v -1.674848 -0.000025 2.070317
v -1.674848 -0.000024 -2.004171
v -2.045072 2.724915 2.070317
v -1.674848 2.724915 2.070317
v -0.860885 2.724915 2.070317
v -0.388167 2.724915 2.070317
v 0.440751 2.724915 2.070317
v 0.865947 2.724915 2.070317
v 1.666846 2.724915 2.070317
v 2.029418 2.724915 2.070317
v -2.045072 3.812006 2.070317
v -1.674850 3.812006 2.070317
v -0.860885 3.812006 2.070317
v -0.388167 3.812006 2.070317
v 0.440751 3.812006 2.070317
v 0.865947 3.812006 2.070317
v 1.666846 3.812006 2.070317
v 2.029418 3.812006 2.070317
v -0.208668 4.354652 0.850925
v -0.208668 5.227478 0.850925
v -0.208668 4.354652 1.220233
v -0.208668 5.227478 1.220233
v -1.153416 4.354652 0.850925
v -1.153416 5.227478 0.850925
v -1.153416 4.354652 1.220233
v -1.153416 5.227478 1.220233
v 1.278206 4.328163 -1.205688
v 1.278206 4.774121 -1.205688
v 1.278206 4.328163 -0.352575
v 1.278206 4.774121 -0.352575
v 0.423515 4.328163 -1.205688
v 0.423515 4.774121 -1.205688
v 0.423515 4.328163 -0.352575
v 0.423515 4.774121 -0.352575
vn 1.0000 -0.0000 -0.0000
vn -0.0000 -0.0000 1.0000
vn -1.0000 -0.0000 -0.0000
vn -0.0000 1.0000 -0.0000
vn -0.0000 -0.0000 -1.0000
vn -1.0000 -0.0000 0.0071
vn -0.0000 0.8558 -0.5173
vn -0.0000 -0.8558 0.5173
vn -0.0000 -1.0000 -0.0000
vt 0.965512 0.036465
vt 0.641926 0.908728
vt 0.951931 0.036465
vt 0.709482 0.935923
vt 0.642326 0.940676
vt 0.695901 0.935923
vt 0.648710 0.908728
vt 0.965512 0.036465
vt 0.958721 0.036465
vt 0.709482 0.935923
vt 0.649115 0.940676
vt 0.702692 0.935923
vt 0.951931 0.036465
vt 0.641926 0.915518
vt 0.958721 0.036465
vt 0.642326 0.933885
vt 0.702692 0.935923
vt 0.695901 0.935923
vt 0.945140 0.036465
vt 0.648710 0.915518
vt 0.972302 0.036465
vt 0.716273 0.935923
vt 0.649115 0.933885
vt 0.689110 0.935923
vt 0.648595 0.940216
vt 0.628388 0.942389
vt 0.627953 0.961822
vt 0.627951 0.929206
vt 0.648595 0.934389
vt 0.628388 0.936562
vt 0.628317 0.948337
vt 0.642830 0.934389
vt 0.627951 0.923440
vt 0.627953 0.967588
vt 0.628317 0.942551
vt 0.642830 0.940175
vt 0.655493 0.894666
vt 0.627881 0.942389
vt 0.627447 0.961822
vt 0.627445 0.929206
vt 0.655493 0.888839
vt 0.627881 0.936562
vt 0.627811 0.948337
vt 0.627445 0.923440
vt 0.649728 0.888839
vt 0.649728 0.894625
vt 0.627447 0.967588
vt 0.627811 0.942551
vt 0.414171 0.679516
vt 0.407689 0.651495
vt 0.424034 0.643033
vt 0.414463 0.679516
vt 0.430219 0.650196
vt 0.424294 0.643166
vt 0.414463 0.672860
vt 0.430219 0.656851
vt 0.365353 0.652169
vt 0.414171 0.672860
vt 0.407689 0.658150
vt 0.365613 0.652035
vt 0.169637 0.583665
vt 0.196604 0.587366
vt 0.170475 0.583665
vt 0.197443 0.587366
vt 0.185342 0.595155
vt 0.169637 0.587861
vt 0.145278 0.614152
vt 0.170475 0.587861
vt 0.146116 0.614152
vt 0.185342 0.590959
vt 0.213370 0.587512
vt 0.196604 0.583179
vt 0.214208 0.587512
vt 0.197443 0.583179
vt 0.181154 0.595155
vt 0.145278 0.618340
vt 0.213370 0.583316
vt 0.146116 0.618340
vt 0.214208 0.583316
vt 0.181154 0.590959
vt 0.695901 0.946257
vt 0.709482 0.946257
vt 0.965512 0.031412
vt 0.951931 0.031412
vt 0.709482 0.936781
vt 0.695901 0.936781
vt 0.702692 0.936781
vt 0.695901 0.936781
vt 0.951931 0.031412
vt 0.702692 0.946257
vt 0.958721 0.031412
vt 0.695901 0.946257
vt 0.706726 0.946257
vt 0.626792 0.949088
vt 0.629804 0.922904
vt 0.962755 0.031412
vt 0.670191 0.878785
vt 0.629804 0.913428
vt 0.706726 0.936781
vt 0.629084 0.899347
vt 0.705522 0.946257
vt 0.626792 0.950292
vt 0.961551 0.031412
vt 0.629084 0.889871
vt 0.670191 0.877581
vt 0.705522 0.936781
vt 0.704543 0.946257
vt 0.697429 0.877600
vt 0.629516 0.910836
vt 0.960572 0.031412
vt 0.695205 0.877589
vt 0.629516 0.901360
vt 0.704543 0.936781
vt 0.662329 0.882457
vt 0.653703 0.879162
vt 0.707649 0.936781
vt 0.707649 0.946257
vt 0.662872 0.882457
vt 0.662329 0.891933
vt 0.963678 0.031412
vt 0.708837 0.946257
vt 0.642714 0.933669
vt 0.662872 0.881269
vt 0.964866 0.031412
vt 0.642714 0.924193
vt 0.653703 0.877974
vt 0.708837 0.936781
vt 0.697429 0.878770
vt 0.703372 0.946257
vt 0.629001 0.934972
vt 0.959402 0.031412
vt 0.695205 0.878759
vt 0.629001 0.925496
vt 0.703372 0.936781
vt 0.642171 0.924193
vt 0.092510 0.710819
vt 0.654246 0.877974
vt 0.091322 0.710819
vt 0.662872 0.882457
vt 0.654246 0.879162
vt 0.642171 0.933669
vt 0.092510 0.720295
vt 0.662329 0.881269
vt 0.091322 0.720295
vt 0.662329 0.882457
vt 0.662872 0.891933
vt 0.051095 0.726811
vt 0.626325 0.949088
vt 0.629337 0.922904
vt 0.051095 0.717335
vt 0.669724 0.878785
vt 0.629337 0.913428
vt 0.629551 0.899347
vt 0.049891 0.726811
vt 0.626325 0.950292
vt 0.629551 0.889871
vt 0.049891 0.717335
vt 0.669724 0.877581
vt 0.033438 0.708157
vt 0.695659 0.877589
vt 0.629062 0.901360
vt 0.696974 0.877600
vt 0.033438 0.717633
vt 0.629062 0.910836
vt 0.696974 0.878770
vt 0.032267 0.717633
vt 0.629456 0.934972
vt 0.032267 0.708157
vt 0.695659 0.878759
vt 0.629456 0.925496
vt 0.428108 0.656851
vt 0.365353 0.654524
vt 0.428108 0.650196
vt 0.424294 0.645522
vt 0.409825 0.658150
vt 0.365613 0.654390
vt 0.409825 0.651495
vt 0.424034 0.645388
vt 0.641926 0.909332
vt 0.964908 0.036465
vt 0.648710 0.909332
vt 0.966116 0.036465
vt 0.710086 0.935923
vt 0.649115 0.940071
vt 0.648595 0.939698
vt 0.628388 0.941871
vt 0.655493 0.894147
vt 0.627881 0.941871
vt 0.649728 0.894110
vt 0.627811 0.943065
vt 0.628317 0.943065
vt 0.642830 0.939660
vt 0.642326 0.940071
vt 0.708878 0.935923
vt 0.642326 0.938737
vt 0.707543 0.935923
vt 0.628317 0.944203
vt 0.642830 0.938523
vt 0.649728 0.892973
vt 0.627811 0.944203
vt 0.655493 0.893002
vt 0.627881 0.940725
vt 0.648595 0.938552
vt 0.628388 0.940725
vt 0.711421 0.935923
vt 0.649115 0.938737
vt 0.648710 0.910667
vt 0.967451 0.036465
vt 0.641926 0.910667
vt 0.963573 0.036465
vt 0.642326 0.938028
vt 0.706834 0.935923
vt 0.628317 0.944807
vt 0.642830 0.937919
vt 0.649728 0.892369
vt 0.627811 0.944807
vt 0.655493 0.892394
vt 0.627881 0.940117
vt 0.648595 0.937944
vt 0.628388 0.940117
vt 0.712130 0.935923
vt 0.649115 0.938028
vt 0.648710 0.911375
vt 0.968160 0.036465
vt 0.641926 0.911375
vt 0.962864 0.036465
vt 0.642326 0.936647
vt 0.705453 0.935923
vt 0.628317 0.945984
vt 0.642830 0.936742
vt 0.649728 0.891192
vt 0.627811 0.945984
vt 0.655493 0.891208
vt 0.627881 0.938932
vt 0.648595 0.936759
vt 0.628388 0.938932
vt 0.713511 0.935923
vt 0.649115 0.936647
vt 0.648710 0.912757
vt 0.969541 0.036465
vt 0.641926 0.912757
vt 0.961483 0.036465
vt 0.642326 0.935859
vt 0.704665 0.935923
vt 0.628317 0.946655
vt 0.642830 0.936071
vt 0.649728 0.890520
vt 0.627811 0.946655
vt 0.655493 0.890532
vt 0.627881 0.938256
vt 0.648595 0.936083
vt 0.628388 0.938256
vt 0.714299 0.935923
vt 0.649115 0.935859
vt 0.648710 0.913545
vt 0.970329 0.036465
vt 0.641926 0.913545
vt 0.960695 0.036465
vt 0.642326 0.934502
vt 0.703309 0.935923
vt 0.628317 0.947811
vt 0.642830 0.934915
vt 0.627811 0.947811
vt 0.649728 0.889364
vt 0.655493 0.889368
vt 0.627881 0.937091
vt 0.648595 0.934919
vt 0.628388 0.937091
vt 0.715656 0.935923
vt 0.649115 0.934502
vt 0.648710 0.914901
vt 0.971685 0.036465
vt 0.641926 0.914901
vt 0.959338 0.036465
vt 0.945140 0.031571
vt 0.972302 0.031571
vt 0.689110 0.946416
vt 0.716273 0.946416
vt 0.971685 0.031571
vt 0.715656 0.946416
vt 0.970329 0.031571
vt 0.714299 0.946416
vt 0.969541 0.031571
vt 0.713511 0.946416
vt 0.968160 0.031571
vt 0.712130 0.946416
vt 0.967451 0.031571
vt 0.711421 0.946416
vt 0.966116 0.031571
vt 0.710086 0.946416
vt 0.702692 0.946416
vt 0.965512 0.031571
vt 0.958721 0.031571
vt 0.709482 0.946416
vt 0.716273 0.936820
vt 0.689110 0.936820
vt 0.715656 0.936820
vt 0.714299 0.936820
vt 0.713511 0.936820
vt 0.712130 0.936820
vt 0.711421 0.936820
vt 0.710086 0.936820
vt 0.709482 0.936820
vt 0.702692 0.936820
vt 0.705904 0.778693
vt 0.705904 0.834588
vt 0.691930 0.820614
vt 0.719877 0.778693
vt 0.719877 0.834588
vt 0.733851 0.820614
vt 0.705904 0.792667
vt 0.691930 0.806641
vt 0.719877 0.792667
vt 0.733851 0.806641
vt 0.705904 0.820614
vt 0.719877 0.820614
vt 0.705904 0.806641
vt 0.719877 0.806641
vt 0.789234 0.438188
vt 0.789234 0.483687
vt 0.777860 0.472312
vt 0.800609 0.438188
vt 0.800609 0.483687
vt 0.811984 0.472312
vt 0.789234 0.449563
vt 0.777860 0.460938
vt 0.800609 0.449563
vt 0.811984 0.460938
vt 0.789234 0.472312
vt 0.800609 0.472312
vt 0.789234 0.460938
vt 0.800609 0.460938
s 1
f 30/86/1 124/304/1 116/291/1 29/81/1
f 63/183/2 123/302/2 124/303/2 4/10/2
f 109/275/3 32/89/3 5/13/3 7/19/3
f 10/29/4 11/32/4 6/16/4 8/23/4
f 9/25/4 64/185/4 63/184/4 4/11/4
f 15/43/2 103/263/2 102/261/2 11/31/2
f 11/32/4 102/262/4 101/259/4 6/16/4
f 12/36/4 9/25/4 4/11/4 2/5/4
f 66/189/4 65/187/4 13/37/4 16/46/4
f 13/38/5 65/188/5 64/186/5 9/26/5
f 12/34/6 16/47/6 13/39/6 9/27/6
f 10/28/1 14/40/1 15/44/1 11/33/1
f 20/58/5 19/55/5 18/52/5 17/49/5
f 58/173/7 18/53/7 19/56/7 57/171/7
f 59/175/8 20/59/8 17/50/8 60/177/8
f 57/172/3 19/57/3 20/60/3 59/176/3
f 60/178/1 17/51/1 18/54/1 58/174/1
f 22/63/1 24/68/1 23/66/1 21/61/1
f 24/69/2 28/78/2 27/76/2 23/67/2
f 28/79/3 26/73/3 25/71/3 27/77/3
f 26/74/5 22/64/5 21/62/5 25/72/5
f 24/70/4 22/65/4 26/75/4 28/80/4
f 42/127/5 30/85/5 29/82/5 41/121/5
f 30/85/5 42/127/5 68/194/5 2/4/5
f 35/100/1 36/104/1 52/156/1 51/153/1
f 35/101/5 37/107/5 38/113/5 36/106/5
f 55/165/4 54/162/4 37/108/4 43/128/4
f 34/99/5 39/116/5 40/117/5 33/93/5
f 41/122/3 47/141/3 45/135/3 42/125/3
f 31/87/5 44/134/5 43/129/5 32/90/5
f 47/142/5 48/144/5 46/138/5 45/136/5
f 47/143/4 41/123/4 40/118/4 48/145/4
f 46/139/1 48/146/1 40/119/1 39/114/1
f 45/137/9 46/140/9 39/115/9 42/126/9
f 51/154/5 52/157/5 50/150/5 49/147/5
f 49/148/4 33/94/4 35/102/4 51/155/4
f 34/97/9 50/151/9 52/158/9 36/105/9
f 50/152/3 34/98/3 33/95/3 49/149/3
f 55/166/5 56/168/5 53/159/5 54/163/5
f 53/160/9 56/169/9 44/132/9 38/111/9
f 37/109/3 54/164/3 53/161/3 38/112/3
f 44/133/1 56/170/1 55/167/1 43/130/1
f 108/273/9 107/271/9 7/20/9 5/14/9
f 61/180/5 41/124/5 29/83/5 1/1/5
f 74/205/2 122/301/2 123/302/2 63/183/2
f 64/185/4 73/203/4 74/206/4 63/184/4
f 16/48/2 12/35/2 67/191/2 66/190/2
f 12/36/4 2/5/4 68/193/4 67/192/4
f 71/199/4 72/201/4 65/187/4 66/189/4
f 72/202/5 73/204/5 64/186/5 65/188/5
f 1/2/9 3/7/9 62/181/9 61/179/9
f 66/190/2 67/191/2 70/197/2 71/200/2
f 67/192/4 68/193/4 69/195/4 70/198/4
f 61/179/9 62/181/9 75/207/9 76/209/9
f 82/221/2 121/300/2 122/301/2 74/205/2
f 73/203/4 81/219/4 82/222/4 74/206/4
f 79/215/4 80/217/4 72/201/4 71/199/4
f 80/218/5 81/220/5 73/204/5 72/202/5
f 71/200/2 70/197/2 78/213/2 79/216/2
f 70/198/4 69/195/4 77/211/4 78/214/4
f 76/209/9 75/207/9 83/223/9 84/225/9
f 90/237/2 120/299/2 121/300/2 82/221/2
f 89/235/4 90/238/4 82/222/4 81/219/4
f 87/231/4 88/233/4 80/217/4 79/215/4
f 88/234/5 89/236/5 81/220/5 80/218/5
f 79/216/2 78/213/2 86/229/2 87/232/2
f 78/214/4 77/211/4 85/227/4 86/230/4
f 84/225/9 83/223/9 91/239/9 92/241/9
f 98/253/2 119/298/2 120/299/2 90/237/2
f 97/251/4 98/254/4 90/238/4 89/235/4
f 95/247/4 96/249/4 88/233/4 87/231/4
f 96/250/5 97/252/5 89/236/5 88/234/5
f 87/232/2 86/229/2 94/245/2 95/248/2
f 94/246/4 86/230/4 85/227/4 93/243/4
f 92/241/9 91/239/9 99/255/9 100/257/9
f 106/269/2 118/297/2 119/298/2 98/253/2
f 105/267/4 106/270/4 98/254/4 97/251/4
f 103/264/4 104/265/4 96/249/4 95/247/4
f 104/266/5 105/268/5 97/252/5 96/250/5
f 95/248/2 94/245/2 102/261/2 103/263/2
f 102/262/4 94/246/4 93/243/4 101/259/4
f 100/257/9 99/255/9 107/271/9 108/273/9
f 8/22/2 117/295/2 118/297/2 106/269/2
f 10/29/4 8/23/4 106/270/4 105/267/4
f 15/45/4 14/41/4 104/265/4 103/264/4
f 14/42/5 10/30/5 105/268/5 104/266/5
f 31/87/5 6/17/5 101/260/5 44/134/5
f 38/113/5 44/134/5 101/260/5 93/244/5
f 36/106/5 38/113/5 93/244/5 85/228/5
f 34/99/5 36/106/5 85/228/5 77/212/5
f 34/99/5 77/212/5 69/196/5 39/116/5
f 39/116/5 69/196/5 68/194/5 42/127/5
f 76/210/5 40/120/5 41/124/5 61/180/5
f 84/226/5 33/96/5 40/120/5 76/210/5
f 92/242/5 35/103/5 33/96/5 84/226/5
f 100/258/5 37/110/5 35/103/5 92/242/5
f 100/258/5 108/274/5 43/131/5 37/110/5
f 108/274/5 5/15/5 32/91/5 43/131/5
f 62/182/2 3/8/2 116/292/2 115/289/2
f 75/208/2 62/182/2 115/289/2 114/287/2
f 83/224/2 75/208/2 114/287/2 113/285/2
f 91/240/2 83/224/2 113/285/2 112/283/2
f 99/256/2 91/240/2 112/283/2 111/281/2
f 107/272/2 99/256/2 111/281/2 110/279/2
f 7/21/2 107/272/2 110/279/2 109/276/2
f 117/296/3 31/88/3 32/92/3 109/277/3
f 116/293/1 3/9/1 1/3/1 29/84/1
f 115/290/2 116/294/2 124/303/2 123/302/2
f 114/288/2 115/290/2 123/302/2 122/301/2
f 113/286/2 114/288/2 122/301/2 121/300/2
f 112/284/2 113/286/2 121/300/2 120/299/2
f 111/282/2 112/284/2 120/299/2 119/298/2
f 110/280/2 111/282/2 119/298/2 118/297/2
f 109/278/2 110/280/2 118/297/2 117/295/2
f 30/86/1 2/6/1 4/12/1 124/304/1
f 8/24/3 6/18/3 31/88/3 117/296/3
s 0
f 125/305/1 126/308/1 128/313/1 127/311/1
f 127/311/2 128/313/2 132/318/2 131/317/2
f 131/317/3 132/318/3 130/316/3 129/315/3
f 129/315/5 130/316/5 126/309/5 125/306/5
f 127/312/9 131/317/9 129/315/9 125/307/9
f 132/318/4 128/314/4 126/310/4 130/316/4
f 133/319/1 134/322/1 136/327/1 135/325/1
f 135/325/2 136/327/2 140/332/2 139/331/2
f 139/331/3 140/332/3 138/330/3 137/329/3
f 137/329/5 138/330/5 134/323/5 133/320/5
f 135/326/9 139/331/9 137/329/9 133/321/9
f 140/332/4 136/328/4 134/324/4 138/330/4
