# Blender 3.5.1
# www.blender.org
o budynek7.001
v 2.067169 2.607662 -2.050220
v 2.067169 2.607662 2.024267
v -2.292531 -0.000010 -2.050220
v -2.292531 2.607662 -2.050220
v -2.292531 2.607662 2.024267
v 0.824880 2.792303 -0.642605
v 0.824880 2.792303 1.745574
v -1.730474 2.792303 1.745574
v -1.730474 2.792303 -0.642605
v -1.730474 3.414464 -0.859357
v 0.824880 3.414098 -0.859357
v 0.824880 3.414098 -0.642605
v 0.824880 4.407448 1.745574
v -1.730474 4.407448 1.745574
v -1.730474 3.414464 -0.642605
v -1.730474 4.407448 -0.642605
v 0.824880 4.407448 -0.642605
v -1.730474 2.792303 -0.859357
v 0.824880 2.792303 -0.859357
v 2.067169 -0.000010 -2.050220
v 1.499762 1.999811 -2.050220
v 1.514232 0.773260 -2.050220
v -0.278000 0.774782 -2.050220
v -0.275748 1.988107 -2.050220
v -1.954678 1.888417 -1.736460
v -1.621429 4.703867 -0.700145
v -1.890153 4.293416 -0.951292
v -0.981940 -0.000010 -1.736460
v -1.621429 4.703867 1.684616
v -0.981940 -0.000010 -2.050220
v -0.694199 2.607662 -2.050220
v -0.981940 1.888417 -1.736460
v -1.954683 -0.000010 -2.050220
v 0.757693 4.703867 1.684616
v 1.499762 1.999811 -1.736460
v 1.026417 4.293416 1.935761
v -0.275748 1.988107 -1.736460
v -1.954678 2.607662 -2.050220
v -1.890153 4.293416 1.935761
v 1.514232 0.773260 -1.736460
v -0.278000 0.774782 -1.736460
v -2.292531 1.888417 -2.050220
v -0.981940 1.888417 -2.050220
v 0.757693 4.703867 -0.700145
v -1.954678 1.888417 -2.050220
v 1.026417 4.293416 -0.951292
v 1.026417 4.703867 1.935761
v -1.890153 4.703867 1.935761
v -1.890153 4.703867 -0.951292
v 1.026417 4.703867 -0.951292
v 0.757693 4.488438 1.684616
v -1.621429 4.488438 1.684616
v -1.621429 4.488438 -0.700145
v 0.757693 4.488438 -0.700145
v 1.851755 2.522473 -0.574979
v 1.851755 2.947873 -0.574979
v 1.261774 2.522473 -0.565337
v 1.261774 2.947873 -0.565337
v 1.836609 2.691024 -1.501795
v 1.836609 3.116422 -1.501795
v 1.246628 2.691024 -1.492153
v 1.246628 3.116422 -1.492153
v -1.954678 -0.000010 -1.736460
v 0.824880 3.428720 1.745574
v -1.730474 3.428720 1.745574
v 2.067169 -0.000011 2.024267
v -2.292531 -0.000011 2.024267
v -1.590331 2.607662 2.024267
v -1.954683 -0.000011 2.024267
v -0.981940 -0.000011 2.024267
v -0.729771 2.607661 2.024267
v -1.129235 2.792303 1.745574
v -1.129235 3.428720 1.745574
v -1.129235 4.407448 1.745574
v -1.129235 4.407448 -0.642605
v -1.129235 3.414379 -0.642605
v -1.129235 3.414379 -0.859357
v -1.129235 2.792303 -0.859357
v -0.707867 2.744012 -1.263433
v -2.292531 2.011720 2.024267
v -1.681957 1.951910 2.024267
v -0.801521 1.865666 2.024267
v 2.067169 1.989273 2.024267
v 2.067169 2.009885 -2.050220
v 2.217233 2.368227 -2.228987
v 2.217233 2.864794 -2.228987
v 2.217233 2.368226 2.264157
v 2.217233 2.864794 2.264157
v -2.454630 2.368227 -2.228987
v -2.454630 2.864794 -2.228987
v -2.454630 2.368226 2.264157
v -2.454630 2.864794 2.264157
v 0.608511 4.449537 0.173956
v 0.608511 5.555188 0.173956
v 0.608511 4.449537 1.267963
v 0.608511 5.555188 1.267963
v -0.114416 4.449537 0.173956
v -0.114416 5.555188 0.173956
v -0.114416 4.449537 1.267963
v -0.114416 5.555188 1.267963
v 0.508437 4.723556 1.247573
v 1.258315 4.723556 1.247574
v 0.508437 5.026770 1.247573
v 1.258315 5.026770 1.247574
v 0.508437 4.723556 0.634940
v 1.258315 4.723556 0.634940
v 0.508437 5.026770 0.634940
v 1.258315 5.026770 0.634940
v 1.004875 4.832479 0.653041
v 1.004875 2.528867 0.653041
v 1.004875 4.832479 1.233503
v 1.004875 2.528867 1.233503
v 1.236153 4.832479 0.653041
v 1.236153 2.528867 0.653041
v 1.236153 4.832479 1.233503
v 1.236153 2.528867 1.233503
vn -0.0000 -0.0000 -1.0000
vn 1.0000 -0.0000 -0.0000
vn -0.9999 -0.0118 -0.0000
vn 0.1470 0.9891 -0.0000
vn -1.0000 -0.0000 -0.0000
vn 0.0001 1.0000 -0.0000
vn -0.0000 -1.0000 -0.0000
vn -0.0000 -0.0000 1.0000
vn -0.0000 1.0000 -0.0000
vn 0.0008 1.0000 -0.0000
vn 0.0066 -1.0000 -0.0000
vn 1.0000 -0.0019 -0.0000
vn 0.0163 -0.0000 0.9999
vn -0.9999 -0.0000 0.0163
vn -0.0163 -0.0000 -0.9999
vn 0.9999 -0.0000 -0.0163
vn -0.0029 -0.9839 -0.1789
vn 0.0029 0.9839 0.1789
vn -0.0151 0.9899 -0.1410
vn -0.0051 0.9899 -0.1414
vn -0.0043 0.9900 -0.1413
vn -0.0081 0.9907 -0.1359
vn -0.3121 0.9500 -0.0000
vn -0.0000 0.8336 0.5523
vn -0.0000 0.9915 -0.1301
vn 0.0091 0.9902 -0.1397
vt 0.160124 0.131011
vt 0.181919 0.122488
vt 0.174652 0.100170
vt 0.160124 0.123743
vt 0.183602 0.052216
vt 0.167392 0.100177
vt 0.186571 0.130265
vt 0.138680 0.116612
vt 0.146055 0.131143
vt 0.181919 0.130265
vt 0.150707 0.131143
vt 0.174652 0.107945
vt 0.150707 0.123875
vt 0.167392 0.107952
vt 0.183602 0.044439
vt 0.168889 0.072532
vt 0.440823 0.644521
vt 0.173262 0.100678
vt 0.168889 0.067095
vt 0.167831 0.100684
vt 0.105710 0.126485
vt 0.105710 0.132303
vt 0.105710 0.132416
vt 0.167831 0.106500
vt 0.377644 0.698968
vt 0.105710 0.126979
vt 0.173262 0.106494
vt 0.468867 0.711686
vt 0.376228 0.698474
vt 0.463683 0.688674
vt 0.439407 0.645014
vt 0.468867 0.705870
vt 0.450150 0.684087
vt 0.439407 0.644521
vt 0.190873 0.052302
vt 0.167474 0.072532
vt 0.468374 0.705870
vt 0.109081 0.126485
vt 0.165519 0.067095
vt 0.123449 0.125271
vt 0.102340 0.132416
vt 0.123449 0.131087
vt 0.109081 0.132303
vt 0.468374 0.711686
vt 0.376228 0.698968
vt 0.104294 0.126979
vt 0.190872 0.058120
vt 0.102340 0.126979
vt 0.128879 0.131081
vt 0.188918 0.058120
vt 0.188918 0.052302
vt 0.165519 0.072532
vt 0.128879 0.125265
vt 0.377644 0.698474
vt 0.465100 0.688674
vt 0.440823 0.645014
vt 0.451565 0.684087
vt 0.138680 0.108837
vt 0.164776 0.131011
vt 0.186571 0.122488
vt 0.185947 0.132453
vt 0.197292 0.050805
vt 0.183003 0.123500
vt 0.185947 0.130265
vt 0.169309 0.135885
vt 0.185191 0.123475
vt 0.169309 0.139081
vt 0.112800 0.137907
vt 0.185189 0.126672
vt 0.197292 0.053971
vt 0.112800 0.140071
vt 0.183024 0.126668
vt 0.792452 0.212076
vt 0.142983 0.139966
vt 0.196423 0.065044
vt 0.030283 0.686871
vt 0.221372 0.691514
vt 0.220252 0.650397
vt 0.094616 0.640413
vt 0.017716 0.687482
vt 0.058290 0.698768
vt 0.790717 0.208707
vt 0.180293 0.135864
vt 0.180381 0.138245
vt 0.024860 0.686876
vt 0.221375 0.635143
vt 0.220252 0.644968
vt 0.179733 0.135864
vt 0.186571 0.127927
vt 0.180940 0.138244
vt 0.138680 0.114275
vt 0.181919 0.127414
vt 0.174652 0.105094
vt 0.790717 0.212076
vt 0.142983 0.138232
vt 0.180293 0.139232
vt 0.186571 0.129663
vt 0.196982 0.061675
vt 0.180940 0.139979
vt 0.138680 0.116010
vt 0.149023 0.698030
vt 0.024860 0.681461
vt 0.221375 0.629727
vt 0.186507 0.132453
vt 0.782101 0.458963
vt 0.197852 0.050805
vt 0.024289 0.680844
vt 0.031788 0.687483
vt 0.094616 0.633840
vt 0.782125 0.462130
vt 0.197852 0.053971
vt 0.112240 0.140071
vt 0.174652 0.107342
vt 0.181919 0.129663
vt 0.094616 0.633840
vt 0.024289 0.687482
vt 0.031788 0.680844
vt 0.186507 0.130265
vt 0.784289 0.458935
vt 0.168749 0.135886
vt 0.784289 0.462132
vt 0.168749 0.139082
vt 0.112240 0.137907
vt 0.183202 0.130265
vt 0.149424 0.131143
vt 0.142423 0.138232
vt 0.179733 0.139232
vt 0.183202 0.127927
vt 0.149023 0.692601
vt 0.030283 0.681456
vt 0.221372 0.696930
vt 0.142423 0.139966
vt 0.196982 0.065044
vt 0.183202 0.129663
vt 0.017716 0.680844
vt 0.058290 0.692128
vt 0.094616 0.627268
vt 0.030854 0.687483
vt 0.095550 0.633840
vt 0.024289 0.680850
vt 0.095550 0.633840
vt 0.030854 0.680844
vt 0.024289 0.687489
vt 0.095550 0.640413
vt 0.057356 0.698768
vt 0.030854 0.687482
vt 0.057356 0.692128
vt 0.095550 0.627268
vt 0.030854 0.680844
vt 0.149513 0.698030
vt 0.966527 0.456116
vt 0.221866 0.629727
vt 0.971942 0.456122
vt 0.221866 0.635143
vt 0.220742 0.644968
vt 0.971942 0.450698
vt 0.221863 0.691514
vt 0.220742 0.650397
vt 0.149513 0.692601
vt 0.966527 0.450693
vt 0.221863 0.696930
vt 0.947752 0.819262
vt 0.948735 0.804886
vt 0.680786 0.216886
vt 0.946783 0.819262
vt 0.949688 0.804713
vt 0.930357 0.875714
vt 0.947752 0.817919
vt 0.948894 0.876048
vt 0.682129 0.216886
vt 0.946783 0.817919
vt 0.949847 0.876221
vt 0.929016 0.875704
vt 0.859990 0.877676
vt 0.948735 0.802741
vt 0.680786 0.219004
vt 0.859021 0.877676
vt 0.949688 0.802568
vt 0.930357 0.877832
vt 0.948894 0.878193
vt 0.859990 0.879019
vt 0.682129 0.219004
vt 0.949847 0.878366
vt 0.859021 0.879019
vt 0.929016 0.877822
vt 0.792452 0.208707
vt 0.196423 0.061675
vt 0.180381 0.139980
vt 0.167440 0.067095
vt 0.107159 0.126485
vt 0.104262 0.132416
vt 0.107159 0.132303
vt 0.145948 0.108837
vt 0.188254 0.052216
vt 0.164776 0.123743
vt 0.145948 0.116612
vt 0.146055 0.123875
vt 0.188254 0.044439
vt 0.183602 0.045692
vt 0.167392 0.106700
vt 0.145948 0.116010
vt 0.188254 0.045042
vt 0.145948 0.114275
vt 0.188254 0.046777
vt 0.183602 0.047227
vt 0.167392 0.105165
vt 0.105710 0.130934
vt 0.167831 0.105131
vt 0.107159 0.130934
vt 0.123449 0.129719
vt 0.109081 0.130934
vt 0.188918 0.056751
vt 0.128879 0.129713
vt 0.468374 0.710318
vt 0.190873 0.056751
vt 0.463684 0.687306
vt 0.468867 0.710317
vt 0.450149 0.688536
vt 0.465100 0.687306
vt 0.451565 0.688536
vt 0.173262 0.105125
vt 0.149644 0.123875
vt 0.184666 0.044439
vt 0.184772 0.045528
vt 0.184926 0.047099
vt 0.184706 0.052216
vt 0.161227 0.123743
vt 0.161191 0.131011
vt 0.182985 0.122488
vt 0.108801 0.644925
vt 0.108173 0.672401
vt 0.060567 0.645653
vt 0.107915 0.644925
vt 0.107288 0.672401
vt 0.082642 0.628262
vt 0.108801 0.636910
vt 0.102183 0.644815
vt 0.068582 0.645653
vt 0.107915 0.636910
vt 0.101297 0.644815
vt 0.074636 0.628270
vt 0.108966 0.649826
vt 0.108173 0.680735
vt 0.060567 0.653984
vt 0.108080 0.649826
vt 0.107288 0.680735
vt 0.082642 0.636594
vt 0.102183 0.636481
vt 0.108966 0.657841
vt 0.068582 0.653984
vt 0.101297 0.636481
vt 0.108080 0.657841
vt 0.074636 0.636602
vt 0.196277 0.171827
vt 0.196277 0.226610
vt 0.182581 0.212915
vt 0.209973 0.171827
vt 0.209973 0.226610
vt 0.223669 0.212915
vt 0.196277 0.185523
vt 0.182581 0.199219
vt 0.209973 0.185523
vt 0.223669 0.199219
vt 0.196277 0.212915
vt 0.209973 0.212915
vt 0.196277 0.199219
vt 0.209973 0.199219
vt 0.196277 0.171827
vt 0.196277 0.226610
vt 0.182581 0.212915
vt 0.209973 0.171827
vt 0.209973 0.226610
vt 0.223669 0.212915
vt 0.196277 0.185523
vt 0.182581 0.199219
vt 0.209973 0.185523
vt 0.223669 0.199219
vt 0.196277 0.212915
vt 0.209973 0.212915
vt 0.196277 0.199219
vt 0.209973 0.199219
vt 0.196277 0.171827
vt 0.196277 0.226610
vt 0.182581 0.212915
vt 0.209973 0.171827
vt 0.209973 0.226610
vt 0.223669 0.212915
vt 0.196277 0.185523
vt 0.182581 0.199219
vt 0.209973 0.185523
vt 0.223669 0.199219
vt 0.196277 0.212915
vt 0.209973 0.212915
vt 0.196277 0.199219
vt 0.209973 0.199219
s 1
f 25/73/1 32/94/1 28/82/1 63/186/1
f 1/1/2 2/4/2 83/227/2 84/228/2
f 21/61/3 22/64/3 40/118/3 35/104/3
f 1/3/4 6/18/4 7/20/4 2/6/4
f 39/115/5 48/141/5 49/144/5 27/79/5
f 7/19/2 6/16/2 12/36/2 64/189/2
f 15/44/6 76/214/6 77/217/6 10/28/6
f 6/17/2 19/56/2 11/31/2 12/34/2
f 15/46/5 65/191/5 14/41/5 16/48/5
f 9/25/5 15/45/5 10/29/5 18/54/5
f 10/30/1 77/216/1 78/219/1 18/55/1
f 12/35/1 76/215/1 75/212/1 17/51/1
f 21/63/1 1/2/1 84/229/1
f 24/72/1 23/69/1 30/89/1 43/128/1
f 54/159/5 51/150/5 34/101/5 44/129/5
f 39/116/7 27/80/7 46/135/7 36/107/7
f 46/136/1 27/81/1 49/145/1 50/147/1
f 36/108/8 47/138/8 48/142/8 39/117/8
f 74/210/9 75/213/9 16/49/9 14/42/9
f 47/139/2 36/109/2 46/137/2 50/148/2
f 35/105/1 40/119/1 41/121/1 37/110/1
f 4/10/1 38/114/1 45/134/1 42/124/1
f 5/13/5 4/11/5 42/125/5 80/222/5
f 32/95/7 25/74/7 45/132/7 43/126/7
f 22/65/10 23/67/10 41/122/10 40/120/10
f 74/211/8 73/209/8 64/190/8 13/38/8
f 45/134/1 33/97/1 3/7/1 42/124/1
f 35/106/11 37/111/11 24/70/11 21/62/11
f 23/68/12 24/71/12 37/112/12 41/123/12
f 83/226/8 2/5/8 71/205/8 82/225/8
f 31/92/1 1/2/1 21/63/1 24/72/1
f 43/127/5 30/88/5 28/83/5 32/96/5
f 22/66/1 20/60/1 30/89/1 23/69/1
f 63/187/2 33/98/2 45/133/2 25/75/2
f 34/102/9 29/85/9 48/143/9 47/140/9
f 48/143/9 29/85/9 26/76/9 49/146/9
f 47/140/9 50/149/9 44/130/9 34/102/9
f 26/76/9 44/130/9 50/149/9 49/146/9
f 51/151/9 54/160/9 53/156/9 52/153/9
f 52/154/1 29/86/1 34/103/1 51/152/1
f 54/161/8 44/131/8 26/77/8 53/157/8
f 26/78/2 29/87/2 52/155/2 53/158/2
f 56/165/13 58/171/13 57/168/13 55/162/13
f 61/180/14 57/169/14 58/172/14 62/183/14
f 62/184/15 60/177/15 59/174/15 61/181/15
f 56/166/16 55/163/16 59/175/16 60/178/16
f 59/176/17 55/164/17 57/170/17 61/182/17
f 62/185/18 58/173/18 56/167/18 60/179/18
f 33/99/9 63/188/9 28/84/9 30/90/9
f 8/22/8 72/207/8 73/209/8 65/192/8
f 12/36/2 17/52/2 13/39/2 64/189/2
f 15/46/5 9/26/5 8/23/5 65/191/5
f 30/91/7 20/58/7 66/193/7 70/203/7
f 3/8/7 33/100/7 69/201/7 67/196/7
f 30/91/7 70/203/7 69/201/7 33/100/7
f 43/128/1 31/92/1 24/72/1
f 9/27/19 79/221/20 31/93/21 38/113/22
f 5/14/23 8/24/23 9/27/23 4/12/23
f 7/20/24 72/208/24 71/206/24 2/6/24
f 38/113/22 4/12/25 9/27/19
f 8/24/24 5/14/24 68/200/24
f 5/15/8 80/223/8 81/224/8 68/199/8
f 12/37/6 11/32/6 77/217/6 76/214/6
f 11/33/1 19/57/1 78/220/1 77/218/1
f 15/47/1 16/50/1 75/212/1 76/215/1
f 13/40/9 17/53/9 75/213/9 74/210/9
f 14/43/8 65/192/8 73/209/8 74/211/8
f 68/199/8 81/224/8 82/225/8 71/205/8
f 7/21/8 64/190/8 73/209/8 72/207/8
f 8/24/24 68/200/24 71/206/24 72/208/24
f 45/134/1 38/114/1 31/92/1 43/128/1
f 6/18/26 1/3/26 31/93/21 79/221/20
f 42/125/5 3/9/5 67/197/5 80/222/5
f 67/198/8 69/202/8 81/224/8 80/223/8
f 81/224/8 69/202/8 70/204/8 82/225/8
f 82/225/8 70/204/8 66/194/8 83/226/8
f 66/195/2 20/59/2 84/228/2 83/227/2
f 20/60/1 22/66/1 21/63/1 84/229/1
f 87/236/2 85/230/2 86/233/2 88/239/2
f 88/240/8 92/251/8 91/248/8 87/237/8
f 90/245/5 89/242/5 91/249/5 92/252/5
f 90/246/1 86/234/1 85/231/1 89/243/1
f 91/250/7 89/244/7 85/232/7 87/238/7
f 88/241/9 86/235/9 90/247/9 92/253/9
s 0
f 93/254/2 94/257/2 96/262/2 95/260/2
f 95/260/8 96/262/8 100/267/8 99/266/8
f 99/266/5 100/267/5 98/265/5 97/264/5
f 97/264/1 98/265/1 94/258/1 93/255/1
f 95/261/7 99/266/7 97/264/7 93/256/7
f 100/267/9 96/263/9 94/259/9 98/265/9
f 101/268/8 102/271/8 104/276/8 103/274/8
f 103/274/9 104/276/9 108/281/9 107/280/9
f 107/280/1 108/281/1 106/279/1 105/278/1
f 105/278/7 106/279/7 102/272/7 101/269/7
f 103/275/5 107/280/5 105/278/5 101/270/5
f 108/281/2 104/277/2 102/273/2 106/279/2
f 109/282/5 110/285/5 112/290/5 111/288/5
f 111/288/8 112/290/8 116/295/8 115/294/8
f 115/294/2 116/295/2 114/293/2 113/292/2
f 113/292/1 114/293/1 110/286/1 109/283/1
f 111/289/9 115/294/9 113/292/9 109/284/9
f 116/295/7 112/291/7 110/287/7 114/293/7
