# Blender 3.5.1
# www.blender.org
o budynek7
v 2.067169 2.607662 -2.050220
v 2.067169 2.607662 2.024267
v -2.292531 -0.000010 -2.050220
v -2.292531 2.607662 -2.050220
v -2.292531 2.607662 2.024267
v 1.786084 2.744012 -1.263433
v 1.786084 2.744012 1.784496
v -1.475203 2.744012 1.784496
v -1.475203 2.744012 -1.263433
v -1.475203 3.538050 -1.540064
v 1.786084 3.537582 -1.540064
v 1.786084 3.537582 -1.263433
v 1.786084 4.633574 1.784496
v -1.475203 4.633574 1.784496
v -1.475203 3.538050 -1.263433
v -1.475203 4.633574 -1.263433
v 1.786084 4.633574 -1.263433
v -1.475203 2.744012 -1.540064
v 1.786084 2.744012 -1.540064
v 2.067169 -0.000010 -2.050220
v 1.499762 1.999811 -2.050220
v 1.514232 0.773260 -2.050220
v -0.278000 0.774782 -2.050220
v -0.275748 1.988107 -2.050220
v -1.954678 1.888417 -1.736460
v -1.336034 5.011881 -1.336869
v -1.678995 4.488039 -1.657397
v -0.981940 -0.000010 -1.736460
v -1.336034 5.011881 1.706698
v -0.981940 -0.000010 -2.050220
v -0.694199 2.607662 -2.050220
v -0.981940 1.888417 -1.736460
v -1.954683 -0.000010 -2.050220
v 1.700336 5.011881 1.706698
v 1.499762 1.999811 -1.736460
v 2.043297 4.488039 2.027224
v -0.275748 1.988107 -1.736460
v -1.954678 2.607662 -2.050220
v -1.678995 4.488039 2.027224
v 1.514232 0.773260 -1.736460
v -0.278000 0.774782 -1.736460
v -2.292531 1.888417 -2.050220
v -0.981940 1.888417 -2.050220
v 1.700336 5.011881 -1.336869
v -1.954678 1.888417 -2.050220
v 2.043297 4.488039 -1.657397
v 2.043297 5.011881 2.027224
v -1.678995 5.011881 2.027224
v -1.678995 5.011881 -1.657397
v 2.043297 5.011881 -1.657397
v 1.700336 4.736938 1.706698
v -1.336034 4.736938 1.706698
v -1.336034 4.736938 -1.336869
v 1.700336 4.736938 -1.336869
v 1.299069 4.448379 -1.040497
v 1.299069 4.991298 -1.040497
v 1.299069 4.448379 -0.287430
v 1.299069 4.991298 -0.287430
v 0.116057 4.663493 -1.040497
v 0.116057 5.206410 -1.040497
v 0.116057 4.663493 -0.287430
v 0.116057 5.206410 -0.287430
v -1.954678 -0.000010 -1.736460
v 1.786084 3.556243 1.784496
v -1.475203 3.556243 1.784496
v 2.067169 -0.000011 2.024267
v -2.292531 -0.000011 2.024267
v -1.590331 2.607662 2.024267
v -1.954683 -0.000011 2.024267
v -0.981940 -0.000011 2.024267
v -0.729771 2.607661 2.024267
v -0.707867 2.744012 1.784496
v -0.707867 3.556243 1.784496
v -0.707867 4.633574 1.784496
v -0.707867 4.633574 -1.263433
v -0.707867 3.537940 -1.263433
v -0.707867 3.537940 -1.540064
v -0.707867 2.744012 -1.540064
v -0.707867 2.744012 -1.263433
v -2.292531 2.011720 2.024267
v -1.681957 1.951910 2.024267
v -0.801521 1.865666 2.024267
v 2.067169 1.989273 2.024267
v 2.067169 2.009885 -2.050220
v 2.217233 2.368227 -2.228987
v 2.217233 2.864794 -2.228987
v 2.217233 2.368226 2.264157
v 2.217233 2.864794 2.264157
v -2.454630 2.368227 -2.228987
v -2.454630 2.864794 -2.228987
v -2.454630 2.368226 2.264157
v -2.454630 2.864794 2.264157
vn -0.0000 -0.0000 -1.0000
vn 1.0000 -0.0000 -0.0000
vn -0.9999 -0.0118 -0.0000
vn 0.4364 0.8997 -0.0000
vn -1.0000 -0.0000 -0.0000
vn 0.0001 1.0000 -0.0000
vn -0.0000 -1.0000 -0.0000
vn -0.0000 -0.0000 1.0000
vn -0.0000 1.0000 -0.0000
vn 0.0008 1.0000 -0.0000
vn 0.0066 -1.0000 -0.0000
vn 1.0000 -0.0019 -0.0000
vn -0.1789 -0.9839 -0.0000
vn 0.1789 0.9839 -0.0000
vn -0.0000 0.9853 -0.1708
vn -0.1646 0.9864 -0.0000
vn -0.0000 0.8693 0.4943
vt 0.929656 0.931792
vt 0.951450 0.923270
vt 0.944183 0.900951
vt 0.929656 0.924524
vt 0.953134 0.852997
vt 0.936924 0.900958
vt 0.956102 0.931046
vt 0.908211 0.917393
vt 0.915586 0.931924
vt 0.951450 0.931046
vt 0.920238 0.931924
vt 0.944183 0.908726
vt 0.920238 0.924656
vt 0.936924 0.908733
vt 0.953134 0.845220
vt 0.938420 0.873313
vt 0.936917 0.154286
vt 0.942793 0.901459
vt 0.938420 0.867876
vt 0.937362 0.901465
vt 0.875242 0.927266
vt 0.875242 0.933084
vt 0.875242 0.933197
vt 0.937362 0.907281
vt 0.873738 0.208733
vt 0.875242 0.927760
vt 0.942793 0.907275
vt 0.964960 0.221451
vt 0.872321 0.208240
vt 0.959777 0.198440
vt 0.935501 0.154780
vt 0.964960 0.215635
vt 0.946243 0.193853
vt 0.935501 0.154286
vt 0.960404 0.853083
vt 0.937005 0.873313
vt 0.964467 0.215636
vt 0.878612 0.927266
vt 0.935050 0.867876
vt 0.892980 0.926052
vt 0.871871 0.933197
vt 0.892980 0.931868
vt 0.878612 0.933084
vt 0.964467 0.221452
vt 0.872321 0.208733
vt 0.873825 0.927760
vt 0.960404 0.858901
vt 0.871871 0.927760
vt 0.898410 0.931863
vt 0.958449 0.858901
vt 0.958449 0.853083
vt 0.935050 0.873313
vt 0.898410 0.926047
vt 0.873738 0.208240
vt 0.961193 0.198440
vt 0.936917 0.154780
vt 0.947659 0.193853
vt 0.908211 0.909618
vt 0.934307 0.931792
vt 0.956102 0.923270
vt 0.955478 0.933234
vt 0.966823 0.851586
vt 0.952534 0.924282
vt 0.955478 0.931046
vt 0.938840 0.936666
vt 0.954722 0.924256
vt 0.938840 0.939862
vt 0.882331 0.938688
vt 0.954720 0.927453
vt 0.966823 0.854752
vt 0.882331 0.940852
vt 0.952555 0.927449
vt 0.448702 0.557779
vt 0.912514 0.940748
vt 0.965954 0.865825
vt 0.774423 0.345074
vt 0.965513 0.349717
vt 0.964392 0.308600
vt 0.838756 0.298616
vt 0.761856 0.345685
vt 0.802431 0.356971
vt 0.446967 0.554410
vt 0.949824 0.936645
vt 0.949913 0.939026
vt 0.769000 0.345080
vt 0.965516 0.293346
vt 0.964392 0.303171
vt 0.949264 0.936645
vt 0.956102 0.928708
vt 0.950472 0.939026
vt 0.908211 0.915056
vt 0.951450 0.928195
vt 0.944183 0.905875
vt 0.446967 0.557779
vt 0.912514 0.939013
vt 0.949824 0.940014
vt 0.956102 0.930444
vt 0.966514 0.862456
vt 0.950472 0.940760
vt 0.908211 0.916791
vt 0.893163 0.356233
vt 0.769000 0.339665
vt 0.965516 0.287930
vt 0.956038 0.933234
vt 0.024289 0.220682
vt 0.967383 0.851586
vt 0.768429 0.339047
vt 0.775929 0.345686
vt 0.838756 0.292044
vt 0.024312 0.223849
vt 0.967383 0.854752
vt 0.881771 0.940852
vt 0.944183 0.908123
vt 0.951450 0.930444
vt 0.838756 0.292044
vt 0.768429 0.345685
vt 0.775929 0.339047
vt 0.956038 0.931046
vt 0.026476 0.220654
vt 0.938281 0.936667
vt 0.026476 0.223851
vt 0.938281 0.939863
vt 0.881771 0.938688
vt 0.952733 0.931046
vt 0.918955 0.931924
vt 0.911954 0.939013
vt 0.949264 0.940014
vt 0.952733 0.928708
vt 0.893163 0.350804
vt 0.774423 0.339659
vt 0.965513 0.355134
vt 0.911954 0.940748
vt 0.966514 0.865825
vt 0.952733 0.930444
vt 0.761856 0.339047
vt 0.802431 0.350331
vt 0.838756 0.285471
vt 0.774994 0.345686
vt 0.839691 0.292044
vt 0.768429 0.339054
vt 0.839691 0.292044
vt 0.774994 0.339047
vt 0.768429 0.345692
vt 0.839691 0.298616
vt 0.801497 0.356971
vt 0.774994 0.345685
vt 0.801497 0.350331
vt 0.839691 0.285471
vt 0.774994 0.339047
vt 0.893654 0.356233
vt 0.208715 0.217835
vt 0.966006 0.287930
vt 0.214130 0.217840
vt 0.966006 0.293346
vt 0.964883 0.303171
vt 0.214130 0.212417
vt 0.966003 0.349717
vt 0.964883 0.308600
vt 0.893654 0.350804
vt 0.208715 0.212412
vt 0.966003 0.355134
vt 0.957517 0.164965
vt 0.958501 0.150589
vt 0.963989 0.853604
vt 0.956549 0.164965
vt 0.959453 0.150416
vt 0.940123 0.221417
vt 0.957517 0.163622
vt 0.958659 0.221751
vt 0.965332 0.853604
vt 0.956549 0.163622
vt 0.959612 0.221924
vt 0.938781 0.221407
vt 0.869756 0.223379
vt 0.958501 0.148444
vt 0.963989 0.855722
vt 0.868787 0.223379
vt 0.959453 0.148271
vt 0.940123 0.223535
vt 0.958659 0.223896
vt 0.869756 0.224723
vt 0.965332 0.855722
vt 0.959612 0.224069
vt 0.868787 0.224723
vt 0.938781 0.223525
vt 0.448702 0.554410
vt 0.965954 0.862456
vt 0.949913 0.940761
vt 0.936972 0.867876
vt 0.876691 0.927266
vt 0.873793 0.933197
vt 0.876691 0.933084
vt 0.915479 0.909618
vt 0.957785 0.852997
vt 0.934307 0.924524
vt 0.915479 0.917393
vt 0.915586 0.924656
vt 0.957785 0.845220
vt 0.953134 0.846473
vt 0.936924 0.907481
vt 0.915479 0.916791
vt 0.957785 0.845823
vt 0.915479 0.915056
vt 0.957785 0.847558
vt 0.953134 0.848008
vt 0.936924 0.905946
vt 0.875242 0.931715
vt 0.937362 0.905912
vt 0.876691 0.931715
vt 0.892980 0.930500
vt 0.878612 0.931715
vt 0.958449 0.857532
vt 0.898410 0.930494
vt 0.964467 0.220084
vt 0.960404 0.857532
vt 0.959777 0.197071
vt 0.964960 0.220083
vt 0.946243 0.198302
vt 0.961193 0.197071
vt 0.947659 0.198302
vt 0.942793 0.905907
vt 0.919175 0.924656
vt 0.954197 0.845220
vt 0.954303 0.846309
vt 0.954457 0.847880
vt 0.954237 0.852997
vt 0.930759 0.924524
vt 0.930722 0.931792
vt 0.952517 0.923270
vt 0.852942 0.303128
vt 0.852314 0.330604
vt 0.804708 0.303856
vt 0.852056 0.303128
vt 0.851428 0.330604
vt 0.826782 0.286465
vt 0.852942 0.295113
vt 0.846323 0.303018
vt 0.812722 0.303856
vt 0.852056 0.295113
vt 0.845437 0.303018
vt 0.818777 0.286474
vt 0.853107 0.308029
vt 0.852314 0.338938
vt 0.804708 0.312187
vt 0.852221 0.308029
vt 0.851428 0.338938
vt 0.826782 0.294797
vt 0.846323 0.294684
vt 0.853107 0.316044
vt 0.812722 0.312187
vt 0.845437 0.294684
vt 0.852221 0.316044
vt 0.818777 0.294805
s 1
f 25/73/1 32/94/1 28/82/1 63/186/1
f 1/1/2 2/4/2 83/227/2 84/228/2
f 21/61/3 22/64/3 40/118/3 35/104/3
f 1/3/4 6/18/4 7/20/4 2/6/4
f 39/115/5 48/141/5 49/144/5 27/79/5
f 7/19/2 6/16/2 12/36/2 64/189/2
f 15/44/6 76/214/6 77/217/6 10/28/6
f 6/17/2 19/56/2 11/31/2 12/34/2
f 15/46/5 65/191/5 14/41/5 16/48/5
f 9/25/5 15/45/5 10/29/5 18/54/5
f 10/30/1 77/216/1 78/219/1 18/55/1
f 12/35/1 76/215/1 75/212/1 17/51/1
f 21/63/1 1/2/1 84/229/1
f 24/72/1 23/69/1 30/89/1 43/128/1
f 54/159/5 51/150/5 34/101/5 44/129/5
f 39/116/7 27/80/7 46/135/7 36/107/7
f 46/136/1 27/81/1 49/145/1 50/147/1
f 36/108/8 47/138/8 48/142/8 39/117/8
f 74/210/9 75/213/9 16/49/9 14/42/9
f 47/139/2 36/109/2 46/137/2 50/148/2
f 35/105/1 40/119/1 41/121/1 37/110/1
f 4/10/1 38/114/1 45/134/1 42/124/1
f 5/13/5 4/11/5 42/125/5 80/222/5
f 32/95/7 25/74/7 45/132/7 43/126/7
f 22/65/10 23/67/10 41/122/10 40/120/10
f 74/211/8 73/209/8 64/190/8 13/38/8
f 45/134/1 33/97/1 3/7/1 42/124/1
f 35/106/11 37/111/11 24/70/11 21/62/11
f 23/68/12 24/71/12 37/112/12 41/123/12
f 83/226/8 2/5/8 71/205/8 82/225/8
f 31/92/1 1/2/1 21/63/1 24/72/1
f 43/127/5 30/88/5 28/83/5 32/96/5
f 22/66/1 20/60/1 30/89/1 23/69/1
f 63/187/2 33/98/2 45/133/2 25/75/2
f 34/102/9 29/85/9 48/143/9 47/140/9
f 48/143/9 29/85/9 26/76/9 49/146/9
f 47/140/9 50/149/9 44/130/9 34/102/9
f 26/76/9 44/130/9 50/149/9 49/146/9
f 51/151/9 54/160/9 53/156/9 52/153/9
f 52/154/1 29/86/1 34/103/1 51/152/1
f 54/161/8 44/131/8 26/77/8 53/157/8
f 26/78/2 29/87/2 52/155/2 53/158/2
f 56/165/2 58/171/2 57/168/2 55/162/2
f 61/180/8 57/169/8 58/172/8 62/183/8
f 62/184/5 60/177/5 59/174/5 61/181/5
f 56/166/1 55/163/1 59/175/1 60/178/1
f 59/176/13 55/164/13 57/170/13 61/182/13
f 62/185/14 58/173/14 56/167/14 60/179/14
f 33/99/9 63/188/9 28/84/9 30/90/9
f 8/22/8 72/207/8 73/209/8 65/192/8
f 12/36/2 17/52/2 13/39/2 64/189/2
f 15/46/5 9/26/5 8/23/5 65/191/5
f 30/91/7 20/58/7 66/193/7 70/203/7
f 3/8/7 33/100/7 69/201/7 67/196/7
f 30/91/7 70/203/7 69/201/7 33/100/7
f 43/128/1 31/92/1 24/72/1
f 9/27/15 79/221/15 31/93/15 38/113/15
f 5/14/16 8/24/16 9/27/16 4/12/16
f 7/20/17 72/208/17 71/206/17 2/6/17
f 38/113/15 4/12/15 9/27/15
f 8/24/17 5/14/17 68/200/17
f 5/15/8 80/223/8 81/224/8 68/199/8
f 12/37/6 11/32/6 77/217/6 76/214/6
f 11/33/1 19/57/1 78/220/1 77/218/1
f 15/47/1 16/50/1 75/212/1 76/215/1
f 13/40/9 17/53/9 75/213/9 74/210/9
f 14/43/8 65/192/8 73/209/8 74/211/8
f 68/199/8 81/224/8 82/225/8 71/205/8
f 7/21/8 64/190/8 73/209/8 72/207/8
f 8/24/17 68/200/17 71/206/17 72/208/17
f 45/134/1 38/114/1 31/92/1 43/128/1
f 6/18/15 1/3/15 31/93/15 79/221/15
f 42/125/5 3/9/5 67/197/5 80/222/5
f 67/198/8 69/202/8 81/224/8 80/223/8
f 81/224/8 69/202/8 70/204/8 82/225/8
f 82/225/8 70/204/8 66/194/8 83/226/8
f 66/195/2 20/59/2 84/228/2 83/227/2
f 20/60/1 22/66/1 21/63/1 84/229/1
f 87/236/2 85/230/2 86/233/2 88/239/2
f 88/240/8 92/251/8 91/248/8 87/237/8
f 90/245/5 89/242/5 91/249/5 92/252/5
f 90/246/1 86/234/1 85/231/1 89/243/1
f 91/250/7 89/244/7 85/232/7 87/238/7
f 88/241/9 86/235/9 90/247/9 92/253/9
