# Blender 3.5.1
# www.blender.org
o budynek4
v 2.015986 4.536875 -1.981804
v 2.015986 -0.000024 2.092683
v 2.015986 4.536875 2.092684
v -2.058502 -0.000024 -1.981804
v -2.058502 4.536875 -1.981804
v -2.058502 -0.000024 2.092684
v -2.058502 4.536875 2.092684
v 1.649006 4.536875 1.780635
v -1.756152 4.536875 1.780635
v -1.756152 4.536875 -1.269668
v 1.624557 4.536875 -1.269668
v 1.649006 4.232804 1.780635
v -1.756152 4.232804 1.780635
v -1.756152 4.232804 -1.269668
v 1.624557 4.232804 -1.269668
v 2.003248 2.154433 -2.285873
v 2.003248 2.645842 -2.285873
v -2.021852 2.645842 -2.285873
v -2.021852 2.154433 -2.285873
v 1.860632 4.232605 -2.077915
v 1.860632 5.035126 -2.077915
v 1.860632 4.232605 -1.915852
v 1.860632 5.035126 -1.915852
v -1.914057 4.232605 -2.077915
v -1.914057 5.035126 -2.077915
v -1.914057 4.232605 -1.915852
v -1.914057 5.035126 -1.915852
v 2.015986 3.032403 -1.981804
v 2.015986 3.994033 -1.981804
v -2.058502 3.994033 -1.981804
v -2.058502 3.032403 -1.981804
v 0.849281 1.404647 -1.981804
v 1.724642 1.404647 -1.981804
v 0.849286 -0.000024 -1.981804
v 1.724642 -0.000024 -1.981804
v -0.149809 3.032403 -1.981804
v -0.149809 3.994033 -1.981804
v 0.104411 3.994033 -1.981804
v 0.104411 3.032403 -1.981804
v 1.774589 3.032403 -1.981804
v 1.774589 3.994033 -1.981804
v -1.836396 3.032403 -1.981804
v -1.836396 3.994033 -1.981804
v 0.596401 -0.000024 -1.981804
v -1.815700 -0.000024 -1.981804
v 0.596399 1.842327 -1.981804
v -1.815700 1.842327 -1.981804
v 0.849281 1.404647 -1.695506
v 0.849302 -0.000024 -1.695484
v 1.724642 1.404647 -1.695506
v -1.815670 -0.000024 -1.724770
v 0.596399 1.842327 -1.725600
v -1.815700 1.842327 -1.725600
v 1.774589 3.994033 -1.765101
v 0.104411 3.994033 -1.765101
v 1.774589 3.032403 -1.765101
v 0.104411 3.032403 -1.765101
v -0.149809 3.994033 -1.700055
v -0.149809 3.032403 -1.700055
v -1.836396 3.032403 -1.700055
v -1.836396 3.994033 -1.700055
v -2.021852 2.672683 -1.981804
v 2.003248 2.672683 -1.981804
v -2.021852 2.181273 -1.981804
v 2.003248 2.181273 -1.981804
v 2.015986 1.374680 -1.981804
v 2.015986 1.551659 2.092683
v -2.058502 1.601644 2.092683
v -2.058502 1.823127 -1.981804
v -1.814727 -0.000024 2.092684
v -1.813757 1.598642 2.092683
v -1.813757 4.536875 2.092684
v -1.551612 4.536875 1.780635
v -1.551612 4.232804 1.780635
v -1.553079 4.232804 -1.269668
v -1.553079 4.536875 -1.269668
v -1.813757 4.536875 -1.981804
v 0.601290 -0.000024 2.092683
v 0.606179 1.568954 2.092683
v 0.606179 4.536875 2.092684
v 0.470793 4.536875 1.780635
v 0.470793 4.232804 1.780635
v 0.454803 4.232804 -1.269668
v 0.454803 4.536875 -1.269668
v 0.606179 4.536875 -1.981804
v 0.849789 -0.000024 2.092683
v 0.850293 1.565960 2.092683
v 0.850293 4.536875 2.092684
v 0.674809 4.536875 1.780635
v 0.674809 4.232804 1.780635
v 0.657352 4.232804 -1.269668
v 0.657352 4.536875 -1.269668
v 0.850293 4.536875 -1.981804
v 1.725370 -0.000024 2.092683
v 1.726100 1.555216 2.092683
v 1.726100 4.536875 2.092684
v 1.406741 4.536875 1.780635
v 1.406741 4.232804 1.780635
v 1.384032 4.232804 -1.269668
v 1.384032 4.536875 -1.269668
v 1.726100 4.536875 -1.981804
v -2.058502 3.967852 2.092684
v -1.813759 3.967270 2.092684
v 0.606179 3.961515 2.092684
v 0.850293 3.960934 2.092684
v 1.726100 3.958852 2.092684
v 2.015983 3.958162 2.092684
v -2.058502 2.999923 2.092684
v -1.813759 2.998350 2.092684
v 0.606179 2.982806 2.092684
v 0.850293 2.981237 2.092684
v 1.726100 2.975612 2.092684
v 2.015983 2.973749 2.092684
v 0.596401 -0.000024 -1.725600
v 1.724667 -0.000024 -1.697171
v 2.015986 -0.000024 -1.981804
vn 1.0000 -0.0000 -0.0000
vn -0.0000 -0.0000 1.0000
vn -1.0000 -0.0000 -0.0000
vn -0.0000 1.0000 -0.0000
vn -0.0000 -0.0000 -1.0000
vn -1.0000 -0.0000 0.0080
vn -0.0000 0.9961 -0.0879
vn -0.0000 -1.0000 -0.0000
vn -0.0000 -0.9961 0.0879
vn -0.0002 -0.0002 -1.0000
vn 1.0000 -0.0000 -0.0001
vt 0.923595 0.349278
vt 0.843871 0.416779
vt 0.831143 0.402606
vt 0.925247 0.299599
vt 0.818415 0.417824
vt 0.936323 0.349278
vt 0.925247 0.313772
vt 0.831143 0.416779
vt 0.919609 0.425750
vt 0.856599 0.402606
vt 0.805688 0.430552
vt 0.923595 0.336550
vt 0.856599 0.416779
vt 0.919609 0.411578
vt 0.912519 0.299599
vt 0.906881 0.425750
vt 0.818415 0.430552
vt 0.936323 0.336550
vt 0.912519 0.313772
vt 0.906881 0.411578
vt 0.935348 0.348132
vt 0.971445 0.383352
vt 0.972182 0.380155
vt 0.919335 0.467118
vt 0.935348 0.337495
vt 0.971445 0.393989
vt 0.971496 0.335682
vt 0.925819 0.337495
vt 0.919335 0.457590
vt 0.972182 0.370626
vt 0.971496 0.346243
vt 0.925819 0.348055
vt 0.814876 0.186051
vt 0.972395 0.383352
vt 0.973132 0.380155
vt 0.918386 0.467118
vt 0.814876 0.175414
vt 0.972395 0.393989
vt 0.972446 0.335682
vt 0.918386 0.457590
vt 0.805347 0.175414
vt 0.805347 0.185975
vt 0.973132 0.370626
vt 0.972446 0.346243
vt 0.697394 0.918644
vt 0.970414 0.359404
vt 0.726913 0.966990
vt 0.729310 0.917410
vt 0.697394 0.917109
vt 0.725378 0.966990
vt 0.729310 0.904836
vt 0.691329 0.885789
vt 0.725378 0.979563
vt 0.691329 0.884254
vt 0.970414 0.346830
vt 0.726913 0.979563
vt 0.704654 0.894493
vt 0.696497 0.785927
vt 0.704654 0.897000
vt 0.693990 0.785927
vt 0.624862 0.936829
vt 0.704147 0.894493
vt 0.965536 0.439297
vt 0.704147 0.897000
vt 0.963029 0.439297
vt 0.625369 0.936829
vt 0.544969 0.951825
vt 0.696497 0.797719
vt 0.544969 0.954331
vt 0.693990 0.797719
vt 0.624862 0.925037
vt 0.965536 0.427505
vt 0.545475 0.951825
vt 0.963029 0.427505
vt 0.545475 0.954331
vt 0.625369 0.925037
vt 0.843871 0.412079
vt 0.843871 0.415083
vt 0.856599 0.415083
vt 0.919609 0.413274
vt 0.856599 0.412079
vt 0.919609 0.416277
vt 0.808517 0.465113
vt 0.965862 0.467443
vt 0.847516 0.406994
vt 0.808517 0.467847
vt 0.938986 0.467450
vt 0.844782 0.406994
vt 0.965862 0.463055
vt 0.805688 0.421469
vt 0.847516 0.402606
vt 0.938986 0.463062
vt 0.805688 0.418734
vt 0.844782 0.402606
vt 0.973150 0.366402
vt 0.972186 0.445505
vt 0.850637 0.412079
vt 0.973326 0.346318
vt 0.973150 0.369406
vt 0.850637 0.415083
vt 0.908453 0.467764
vt 0.947736 0.462398
vt 0.849843 0.415083
vt 0.908453 0.464760
vt 0.851449 0.462229
vt 0.849843 0.412079
vt 0.961877 0.464745
vt 0.851449 0.467447
vt 0.844626 0.412079
vt 0.947736 0.467615
vt 0.961877 0.467749
vt 0.844626 0.415083
vt 0.915907 0.464941
vt 0.972186 0.440237
vt 0.855906 0.412079
vt 0.973326 0.341049
vt 0.915907 0.467945
vt 0.855906 0.415083
vt 0.954618 0.459408
vt 0.805688 0.422259
vt 0.848306 0.402606
vt 0.964047 0.439504
vt 0.805688 0.429794
vt 0.855841 0.402606
vt 0.954618 0.465164
vt 0.971231 0.424655
vt 0.848306 0.408361
vt 0.964047 0.445259
vt 0.971231 0.417120
vt 0.855841 0.408361
vt 0.807622 0.465113
vt 0.449680 0.536654
vt 0.964968 0.467443
vt 0.449680 0.532266
vt 0.964968 0.463055
vt 0.806582 0.421469
vt 0.807622 0.467847
vt 0.446945 0.536654
vt 0.939880 0.467450
vt 0.962256 0.197203
vt 0.963244 0.439504
vt 0.806490 0.429793
vt 0.968011 0.204737
vt 0.955418 0.465164
vt 0.970431 0.424655
vt 0.968011 0.197203
vt 0.963247 0.445259
vt 0.970431 0.417120
vt 0.169139 0.668804
vt 0.947059 0.467615
vt 0.962554 0.467749
vt 0.907776 0.467764
vt 0.169139 0.674021
vt 0.947059 0.462398
vt 0.172143 0.668804
vt 0.962554 0.464745
vt 0.852126 0.467447
vt 0.907776 0.464760
vt 0.172143 0.674021
vt 0.852126 0.462229
vt 0.972446 0.346318
vt 0.205445 0.583644
vt 0.974030 0.369406
vt 0.208449 0.583644
vt 0.974030 0.366402
vt 0.973066 0.445505
vt 0.208449 0.588912
vt 0.915027 0.464941
vt 0.973066 0.440237
vt 0.972446 0.341049
vt 0.205445 0.588912
vt 0.915027 0.467945
vt 0.730261 0.904836
vt 0.692279 0.885873
vt 0.730261 0.917410
vt 0.698343 0.917025
vt 0.692279 0.884338
vt 0.969464 0.346830
vt 0.698343 0.918561
vt 0.969464 0.359404
vt 0.843871 0.406901
vt 0.831143 0.407453
vt 0.925247 0.304446
vt 0.906881 0.420747
vt 0.912519 0.304602
vt 0.919609 0.420055
vt 0.856599 0.408301
vt 0.913281 0.299599
vt 0.818415 0.429790
vt 0.913284 0.304593
vt 0.936323 0.337315
vt 0.913284 0.313772
vt 0.935348 0.338134
vt 0.971445 0.393350
vt 0.814876 0.176053
vt 0.972395 0.393350
vt 0.972446 0.336317
vt 0.805347 0.176048
vt 0.971496 0.336317
vt 0.925819 0.338129
vt 0.923595 0.337315
vt 0.855835 0.416779
vt 0.920828 0.299599
vt 0.818415 0.422243
vt 0.920843 0.304500
vt 0.936323 0.344874
vt 0.920843 0.313772
vt 0.935348 0.344451
vt 0.971445 0.387033
vt 0.814876 0.182371
vt 0.972395 0.387033
vt 0.972446 0.342589
vt 0.805347 0.182321
vt 0.971496 0.342589
vt 0.925819 0.344401
vt 0.923595 0.344874
vt 0.848275 0.416779
vt 0.921604 0.299599
vt 0.818415 0.421467
vt 0.921606 0.304491
vt 0.936323 0.345637
vt 0.921606 0.313772
vt 0.935348 0.345089
vt 0.971445 0.386395
vt 0.814876 0.183008
vt 0.972395 0.386395
vt 0.972446 0.343222
vt 0.805347 0.182953
vt 0.971496 0.343222
vt 0.925819 0.345034
vt 0.923595 0.345637
vt 0.847513 0.416779
vt 0.924339 0.299599
vt 0.818415 0.418732
vt 0.924342 0.304457
vt 0.936323 0.348373
vt 0.924342 0.313772
vt 0.935348 0.347375
vt 0.971445 0.384109
vt 0.814876 0.185294
vt 0.972395 0.384109
vt 0.805347 0.185223
vt 0.972446 0.345492
vt 0.971496 0.345492
vt 0.925819 0.347304
vt 0.923595 0.348373
vt 0.844777 0.416779
vt 0.912519 0.311994
vt 0.906881 0.413355
vt 0.913284 0.311992
vt 0.920843 0.311974
vt 0.921606 0.311972
vt 0.924342 0.311966
vt 0.925247 0.311964
vt 0.831143 0.414971
vt 0.912519 0.308970
vt 0.906881 0.416379
vt 0.913284 0.308965
vt 0.920843 0.308917
vt 0.921606 0.308912
vt 0.924342 0.308894
vt 0.925247 0.308889
vt 0.831143 0.411896
vt 0.962256 0.204738
vt 0.955418 0.459408
vt 0.806488 0.422259
vt 0.446946 0.532266
vt 0.939875 0.463062
vt 0.806577 0.418734
vt 0.843871 0.402606
vt 0.805688 0.417824
s 1
f 2/3/1 116/270/1 66/181/1 67/182/1
f 6/15/2 70/188/2 71/190/2 68/185/2
f 68/184/3 69/186/3 4/9/3 6/16/3
f 9/25/4 10/28/4 5/12/4 7/18/4
f 8/21/4 97/238/4 96/236/4 3/6/4
f 14/39/2 75/197/2 76/199/2 10/27/2
f 10/28/4 76/200/4 77/201/4 5/12/4
f 11/32/4 8/21/4 3/6/4 1/1/4
f 99/242/4 98/240/4 12/33/4 15/42/4
f 12/34/5 98/241/5 97/239/5 8/22/5
f 11/30/6 15/43/6 12/35/6 8/23/6
f 9/24/1 13/36/1 14/40/1 10/29/1
f 63/175/7 17/48/7 18/51/7 62/173/7
f 17/49/1 63/176/1 65/179/1 16/45/1
f 21/59/1 23/64/1 22/62/1 20/57/1
f 23/65/2 27/74/2 26/72/2 22/63/2
f 27/75/3 25/69/3 24/67/3 26/73/3
f 25/70/5 21/60/5 20/58/5 24/68/5
f 23/66/4 21/61/4 25/71/4 27/76/4
f 41/112/5 29/78/5 28/77/5 40/109/5
f 5/13/5 77/202/5 43/118/5 30/79/5
f 36/97/5 37/100/5 38/103/5 39/106/5
f 19/54/3 64/177/3 62/174/3 18/52/3
f 61/170/8 43/116/8 37/98/8 58/161/8
f 55/152/1 57/158/1 39/104/1 38/101/1
f 30/79/5 43/118/5 42/115/5 31/81/5
f 50/137/8 48/131/8 32/83/8 33/86/8
f 65/180/9 64/178/9 19/55/9 16/46/9
f 48/132/5 50/138/5 115/267/5 49/134/5
f 50/139/3 33/87/3 35/92/3 115/268/3
f 49/135/1 34/89/1 32/84/1 48/133/1
f 53/146/10 52/143/10 114/264/10 51/140/10
f 53/147/11 51/141/11 45/122/11 47/128/11
f 44/119/3 114/265/3 52/144/3 46/125/3
f 53/148/8 47/129/8 46/126/8 52/145/8
f 56/155/5 57/159/5 55/153/5 54/149/5
f 54/150/8 55/154/8 38/102/8 41/110/8
f 40/107/3 56/156/3 54/151/3 41/111/3
f 56/157/4 40/108/4 39/105/4 57/160/4
f 59/164/5 60/167/5 61/171/5 58/162/5
f 58/163/3 37/99/3 36/95/3 59/165/3
f 43/117/1 61/172/1 60/168/1 42/113/1
f 36/96/4 42/114/4 60/169/4 59/166/4
f 35/93/8 116/271/8 115/269/8
f 49/136/8 115/269/8 94/234/8 86/219/8
f 34/90/8 49/136/8 114/266/8 44/120/8
f 51/142/8 114/266/8 78/204/8 70/189/8
f 4/11/8 45/123/8 51/142/8
f 35/94/5 33/88/5 66/181/5 116/270/5
f 32/85/5 39/106/5 40/109/5 33/88/5
f 47/130/5 45/124/5 4/10/5 69/187/5
f 46/127/5 47/130/5 42/115/5 36/97/5
f 46/127/5 36/97/5 39/106/5 32/85/5
f 32/85/5 34/91/5 44/121/5 46/127/5
f 33/88/5 40/109/5 28/77/5 66/181/5
f 66/181/1 28/77/1 113/263/1 67/182/1
f 113/262/2 112/261/2 95/235/2 67/183/2
f 68/184/3 108/257/3 31/82/3 69/186/3
f 31/81/5 42/115/5 47/130/5 69/187/5
f 18/53/5 17/50/5 16/47/5 19/56/5
f 70/188/2 78/203/2 79/205/2 71/190/2
f 9/25/4 7/18/4 72/191/4 73/193/4
f 83/212/2 84/214/2 76/199/2 75/197/2
f 76/200/4 84/215/4 85/216/4 77/201/4
f 14/41/4 13/37/4 74/195/4 75/198/4
f 13/38/5 9/26/5 73/194/5 74/196/5
f 7/19/2 102/248/2 103/250/2 72/192/2
f 73/193/4 72/191/4 80/206/4 81/208/4
f 75/198/4 74/195/4 82/210/4 83/213/4
f 74/196/5 73/194/5 81/209/5 82/211/5
f 72/192/2 103/250/2 104/251/2 80/207/2
f 86/218/2 87/220/2 79/205/2 78/203/2
f 91/227/2 92/229/2 84/214/2 83/212/2
f 92/230/4 93/231/4 85/216/4 84/215/4
f 89/223/4 81/208/4 80/206/4 88/221/4
f 83/213/4 82/210/4 90/225/4 91/228/4
f 82/211/5 81/209/5 89/224/5 90/226/5
f 80/207/2 104/251/2 105/252/2 88/222/2
f 86/218/2 94/233/2 95/235/2 87/220/2
f 99/243/2 100/244/2 92/229/2 91/227/2
f 100/245/4 101/246/4 93/231/4 92/230/4
f 97/238/4 89/223/4 88/221/4 96/236/4
f 91/228/4 90/225/4 98/240/4 99/242/4
f 90/226/5 89/224/5 97/239/5 98/241/5
f 88/222/2 105/252/2 106/253/2 96/237/2
f 2/4/2 67/183/2 95/235/2 94/233/2
f 15/44/2 11/31/2 100/244/2 99/243/2
f 11/32/4 1/1/4 101/246/4 100/245/4
f 3/7/2 96/237/2 106/253/2 107/254/2
f 108/256/2 109/258/2 103/250/2 102/248/2
f 109/258/2 110/259/2 104/251/2 103/250/2
f 110/259/2 111/260/2 105/252/2 104/251/2
f 111/260/2 112/261/2 106/253/2 105/252/2
f 107/254/2 106/253/2 112/261/2 113/262/2
f 68/185/2 71/190/2 109/258/2 108/256/2
f 71/190/2 79/205/2 110/259/2 109/258/2
f 79/205/2 87/220/2 111/260/2 110/259/2
f 87/220/2 95/235/2 112/261/2 111/260/2
f 7/20/3 5/14/3 30/80/3 102/249/3
f 102/249/3 30/80/3 31/82/3 108/257/3
f 1/2/1 3/8/1 107/255/1 29/78/1
f 28/77/1 29/78/1 107/255/1 113/263/1
f 86/219/8 78/204/8 114/266/8 49/136/8
f 2/5/8 94/234/8 115/269/8 116/271/8
f 70/189/8 6/17/8 4/11/8 51/142/8
f 1/2/5 29/78/5 41/112/5 101/247/5
f 93/232/5 101/247/5 41/112/5 38/103/5
f 85/217/5 93/232/5 38/103/5 37/100/5
f 77/202/5 85/217/5 37/100/5 43/118/5
