# Blender 3.5.1
# www.blender.org
o droga_chodnik.014
v 0.199691 0.000000 0.197244
v 0.199691 -0.000000 -1.997933
v 0.199691 0.000000 -0.202067
v -0.222620 0.000000 0.197244
v -0.202620 -0.000000 -1.997933
v -0.202620 0.000000 -0.202067
v -1.998486 0.000000 -0.202067
v -1.998486 0.000000 0.197244
v -0.202620 2.426717 0.197244
v 0.199691 2.426717 0.197244
v 0.199691 2.426717 -1.997933
v 0.199691 2.426717 -0.202067
v -1.998486 2.426717 -0.202067
v -0.202620 2.426717 -0.202067
v -1.998486 2.426717 0.197244
v -0.202620 2.426717 -1.997933
v -0.202620 3.021188 0.197244
v 0.199691 3.021188 0.197244
v 0.199691 3.021188 -0.202067
v -0.202620 3.021188 -0.202067
vn 1.0000 -0.0000 -0.0000
vn -1.0000 -0.0000 -0.0000
vn -0.0000 1.0000 -0.0000
vn -0.0000 -0.0000 -1.0000
vn -0.0000 -0.0000 1.0000
vt 0.201638 0.156830
vt 0.199745 0.189302
vt 0.201638 0.185243
vt 0.201638 0.160889
vt 0.199745 0.185243
vt 0.171331 0.160889
vt 0.171331 0.185243
vt 0.195686 0.185243
vt 0.199745 0.160889
vt 0.171331 0.189302
vt 0.199745 0.185243
vt 0.199745 0.189302
vt 0.201638 0.156830
vt 0.167272 0.160889
vt 0.201638 0.185243
vt 0.167272 0.185243
vt 0.201638 0.160889
vt 0.195686 0.185243
vt 0.171331 0.185243
vt 0.195686 0.189302
vt 0.199745 0.160889
vt 0.171331 0.160889
vt 0.171331 0.189302
vt 0.199745 0.185243
vt 0.167272 0.189302
vt 0.199745 0.189302
vt 0.201638 0.156830
vt 0.167272 0.185243
vt 0.201638 0.160889
vt 0.171331 0.185243
s 0
f 1/1/1 3/4/1 12/17/1 10/13/1
f 5/6/2 6/7/2 14/19/2 16/22/2
f 14/19/2 9/10/2 17/23/2 20/30/2
f 15/20/3 9/10/3 14/19/3 13/18/3
f 14/19/3 12/16/3 11/14/3 16/22/3
f 6/7/4 7/8/4 13/18/4 14/19/4
f 15/21/2 13/18/2 7/8/2 8/9/2
f 8/9/5 4/5/5 9/11/5 15/21/5
f 3/4/1 2/3/1 11/15/1 12/17/1
f 4/5/5 1/2/5 10/12/5 9/11/5
f 11/15/4 2/3/4 5/6/4 16/22/4
f 17/23/3 18/25/3 19/28/3 20/30/3
f 9/11/5 10/12/5 18/26/5 17/24/5
f 12/16/4 14/19/4 20/30/4 19/28/4
f 10/13/1 12/17/1 19/29/1 18/27/1
f 13/18/5 7/8/5 6/7/5 3/4/5 12/17/5 14/19/5
