# Blender 3.5.1
# www.blender.org
o budynek_bok2.001
v 2.017218 0.000004 -1.972008
v -2.057268 0.000004 -1.972008
v 2.017218 2.264258 -1.972008
v 2.017218 2.264258 2.102480
v -2.057268 2.264258 2.102480
v -2.057268 2.264258 -1.972008
v 2.017218 1.663400 2.102480
v -1.799464 1.663400 -1.677365
v -2.057268 1.663400 -1.972008
v 2.017218 1.663400 -1.972008
v 2.017218 0.418874 2.102480
v -0.585544 1.663400 -1.677365
v -0.590698 0.418874 -1.677365
v 2.017218 0.418874 -1.972008
v -0.585544 1.663400 -1.972008
v -0.590698 0.418874 -1.972008
v -0.591911 0.000004 -1.972008
v -0.591911 0.000004 -1.677365
v -1.799464 1.663400 -1.972008
v -1.797423 0.000004 -1.972008
v 0.109987 1.663400 -1.972008
v 0.119934 0.418874 -1.972008
v 1.787627 1.663400 -1.972008
v 1.795166 0.418874 -1.972008
v 2.017218 1.663400 1.865763
v 2.017218 0.418874 1.877558
v 2.017218 0.418874 -1.765922
v 2.017218 1.663400 -1.795152
v 2.017218 0.418874 0.220505
v 2.017218 1.663400 0.204989
v 2.017218 1.663400 -0.049839
v 2.017218 0.418874 -0.026107
v -1.797423 0.000004 -1.677365
v 0.119934 0.418874 -1.767570
v 0.109987 1.663400 -1.767570
v 1.787627 1.663400 -1.767570
v 1.795166 0.418874 -1.767570
v 1.794104 1.663400 0.204989
v 1.794104 1.663400 1.865763
v 1.794104 0.418874 0.220505
v 1.794104 0.418874 1.877558
v 1.794104 0.418874 -1.765922
v 1.794104 1.663400 -1.795152
v 1.794104 1.663400 -0.049839
v 1.794104 0.418874 -0.026107
v 0.260401 2.128416 -1.130480
v 0.260401 2.617176 -1.130480
v 1.103554 2.128416 -1.142805
v 1.103554 2.426474 -1.142805
v 0.276701 2.128416 -0.015439
v 0.276701 2.617176 -0.015439
v 1.119854 2.128416 -0.027764
v 1.119854 2.426474 -0.027764
v -2.057268 1.702563 2.102480
v -2.057268 0.570034 2.102480
v -2.057268 0.560214 -1.972008
v -1.797936 0.560214 -1.972008
v -1.797936 0.560213 -1.677365
v 2.017218 0.000004 2.102480
v -2.057268 0.000004 2.102480
v -1.797423 0.000004 2.102480
v -1.759039 0.558970 2.102480
v -1.759039 1.699696 2.102480
v -1.759039 2.264258 2.102480
v -0.591911 0.000004 2.102480
v -0.591811 0.515667 2.102480
v -0.591811 1.688477 2.102480
v -0.591811 2.264258 2.102480
v 1.545547 2.716579 -1.500333
v 1.545547 2.716579 1.630806
v -1.585590 2.716579 -1.500333
v -1.585590 2.716579 1.630806
v 2.109604 2.094349 -2.050523
v 2.109604 2.235569 -2.050523
v 2.109604 2.235568 2.212901
v -2.126624 2.235568 2.212901
v -2.126624 2.235569 -2.050523
v 2.109604 2.094349 2.212901
v -2.126624 2.094349 2.212901
v -2.126624 2.094349 -2.050523
v 2.017218 2.264258 -1.972008
v 2.017218 2.264258 2.102480
v -2.057268 2.264258 2.102480
v -2.057268 2.264258 -1.972008
v 1.775434 2.716579 -1.730220
v 1.775434 2.716579 1.860693
v -1.815477 2.716579 1.860693
v -1.815477 2.716579 -1.730220
v 1.361060 2.207494 -1.315842
v 1.361060 2.207494 1.446315
v -1.401096 2.207494 1.446315
v -1.401096 2.207494 -1.315842
v 0.427016 1.979654 -0.956373
v 0.427016 2.556401 -0.956373
v 0.427016 1.979654 -0.787769
v 0.427016 2.556401 -0.787769
v -1.680752 1.979654 -0.956373
v -1.680752 2.556401 -0.956373
v -1.680752 1.979654 -0.787769
v -1.680752 2.556401 -0.787769
v -0.704117 1.964362 0.786612
v -0.704117 2.657634 0.786612
v -0.704117 1.964362 1.255368
v -0.704117 2.657634 1.255368
v -1.202469 1.964362 0.786612
v -1.202469 2.657634 0.786612
v -1.202469 1.964362 1.255368
v -1.202469 2.657634 1.255368
vn -0.0000 -0.0000 -1.0000
vn -1.0000 -0.0000 -0.0000
vn 1.0000 -0.0000 -0.0000
vn -1.0000 -0.0061 -0.0000
vn -0.0000 0.0125 0.9999
vn -0.0000 1.0000 -0.0000
vn -1.0000 0.0029 -0.0000
vn -0.0000 -0.0000 1.0000
vn 1.0000 0.0009 -0.0000
vn -1.0000 0.0041 -0.0000
vn -0.0000 -1.0000 -0.0000
vn 1.0000 0.0080 -0.0000
vn -0.0000 -0.0095 -1.0000
vn -0.0000 -0.0191 -0.9998
vn -0.0000 0.0235 0.9997
vn -0.0146 -0.0000 -0.9999
vn 0.9999 -0.0000 -0.0146
vn 0.0146 -0.0000 0.9999
vn -0.9999 -0.0000 0.0146
vn 0.2206 0.9754 -0.0032
vn 1.0000 0.0014 -0.0000
vn 0.8213 0.5706 -0.0000
vn 0.9258 -0.3779 -0.0000
vn -0.8396 0.5431 -0.0000
vn -0.8785 -0.4777 -0.0000
vn -0.0000 0.3407 -0.9402
vn -0.0000 0.5543 -0.8323
vn -0.0000 -0.5449 -0.8385
vn -0.0000 -0.4195 0.9078
vn -0.0000 0.5908 0.8068
vn 0.9402 0.3407 -0.0000
vn -0.0000 0.3407 0.9402
vn -0.9402 0.3407 -0.0000
vt 0.450771 0.401326
vt 0.361757 0.431754
vt 0.450383 0.415362
vt 0.450383 0.427051
vt 0.451109 0.427051
vt 0.373447 0.431754
vt 0.442642 0.401326
vt 0.442253 0.415362
vt 0.442642 0.389637
vt 0.442978 0.414535
vt 0.442987 0.438740
vt 0.442978 0.402846
vt 0.442987 0.427051
vt 0.442253 0.427051
vt 0.444365 0.389637
vt 0.444701 0.414535
vt 0.052415 0.724495
vt 0.332669 0.467020
vt 0.369317 0.458544
vt 0.444708 0.427051
vt 0.443976 0.427051
vt 0.444365 0.401326
vt 0.443976 0.415362
vt 0.449570 0.389637
vt 0.449905 0.414535
vt 0.048933 0.724495
vt 0.466934 0.329855
vt 0.332669 0.463537
vt 0.466934 0.324654
vt 0.048948 0.719289
vt 0.449182 0.415362
vt 0.449570 0.401326
vt 0.466089 0.329855
vt 0.331824 0.463537
vt 0.443976 0.422829
vt 0.466089 0.324654
vt 0.449182 0.422844
vt 0.466089 0.323454
vt 0.464239 0.430681
vt 0.369243 0.431754
vt 0.450383 0.422847
vt 0.466934 0.323454
vt 0.465084 0.430681
vt 0.048951 0.718088
vt 0.331824 0.467020
vt 0.370162 0.458544
vt 0.443976 0.426312
vt 0.450383 0.426306
vt 0.370162 0.452137
vt 0.464239 0.427223
vt 0.372701 0.431754
vt 0.468719 0.323337
vt 0.469304 0.447212
vt 0.443976 0.420834
vt 0.468811 0.455963
vt 0.469304 0.442006
vt 0.449182 0.420805
vt 0.468778 0.383645
vt 0.468719 0.318524
vt 0.443976 0.416021
vt 0.468778 0.378445
vt 0.449182 0.415999
vt 0.468811 0.460769
vt 0.444365 0.390316
vt 0.316959 0.465219
vt 0.457241 0.343785
vt 0.316959 0.460015
vt 0.382118 0.462436
vt 0.449570 0.390282
vt 0.373439 0.462184
vt 0.463282 0.458759
vt 0.449570 0.400735
vt 0.399141 0.466428
vt 0.463282 0.463966
vt 0.444365 0.400819
vt 0.360392 0.459971
vt 0.382118 0.467187
vt 0.449570 0.395036
vt 0.360392 0.465176
vt 0.457241 0.348550
vt 0.444365 0.395081
vt 0.454574 0.465668
vt 0.399141 0.461421
vt 0.444365 0.395812
vt 0.373439 0.457196
vt 0.454574 0.460465
vt 0.449570 0.395744
vt 0.369317 0.452137
vt 0.465084 0.427223
vt 0.052410 0.718088
vt 0.676110 0.858542
vt 0.469397 0.455963
vt 0.468718 0.442006
vt 0.676103 0.853336
vt 0.469306 0.323337
vt 0.468718 0.447212
vt 0.469364 0.383645
vt 0.680916 0.853356
vt 0.469306 0.318524
vt 0.469364 0.378445
vt 0.680916 0.858562
vt 0.469397 0.460769
vt 0.359752 0.465176
vt 0.692635 0.841618
vt 0.457881 0.348550
vt 0.697399 0.841648
vt 0.317600 0.465219
vt 0.457881 0.343785
vt 0.359752 0.459971
vt 0.692645 0.846823
vt 0.381478 0.467187
vt 0.697399 0.846854
vt 0.317600 0.460015
vt 0.381478 0.462436
vt 0.372799 0.462184
vt 0.622284 0.878073
vt 0.462642 0.458759
vt 0.622268 0.872868
vt 0.399781 0.466428
vt 0.462642 0.463966
vt 0.627275 0.872933
vt 0.455214 0.465668
vt 0.399781 0.461421
vt 0.372799 0.457196
vt 0.627275 0.878139
vt 0.455214 0.460465
vt 0.415707 0.711706
vt 0.353942 0.704296
vt 0.454528 0.425101
vt 0.413473 0.711706
vt 0.351707 0.704296
vt 0.432082 0.595159
vt 0.415707 0.707850
vt 0.469849 0.712919
vt 0.458748 0.425101
vt 0.414345 0.707850
vt 0.468487 0.712919
vt 0.435968 0.595159
vt 0.462204 0.694688
vt 0.353942 0.709396
vt 0.454528 0.430681
vt 0.464437 0.694688
vt 0.351707 0.709396
vt 0.432082 0.590059
vt 0.469849 0.707819
vt 0.462204 0.690831
vt 0.458748 0.430681
vt 0.468487 0.707819
vt 0.463566 0.690831
vt 0.435968 0.590059
vt 0.444596 0.438740
vt 0.444589 0.402846
vt 0.449476 0.438740
vt 0.449471 0.402846
vt 0.448776 0.427051
vt 0.449504 0.427051
vt 0.448776 0.426307
vt 0.370162 0.453744
vt 0.369317 0.453744
vt 0.052411 0.719695
vt 0.450771 0.389637
vt 0.361757 0.420065
vt 0.451105 0.414535
vt 0.451109 0.438740
vt 0.451105 0.402846
vt 0.373447 0.420065
vt 0.372701 0.420065
vt 0.451105 0.403591
vt 0.449503 0.403701
vt 0.444597 0.403701
vt 0.442978 0.403701
vt 0.369243 0.420065
vt 0.451105 0.407049
vt 0.449627 0.407050
vt 0.444629 0.407050
vt 0.442978 0.407050
vt 0.972127 0.284251
vt 0.136906 0.716258
vt 0.982313 0.284251
vt 0.147092 0.716258
vt 0.972127 0.274058
vt 0.136906 0.706065
vt 0.982313 0.274058
vt 0.147092 0.706065
vt 0.224534 0.620466
vt 0.218920 0.686933
vt 0.167048 0.733308
vt 0.213821 0.700932
vt 0.219381 0.686933
vt 0.167509 0.733308
vt 0.219381 0.700857
vt 0.133360 0.719470
vt 0.145370 0.717006
vt 0.133360 0.733306
vt 0.145370 0.730931
vt 0.167509 0.719472
vt 0.224534 0.606542
vt 0.218920 0.700857
vt 0.132899 0.719470
vt 0.099694 0.681196
vt 0.147847 0.673572
vt 0.132899 0.733306
vt 0.144909 0.717006
vt 0.099694 0.667360
vt 0.147847 0.659648
vt 0.144909 0.730931
vt 0.167048 0.719472
vt 0.213821 0.714768
vt 0.225738 0.619394
vt 0.215042 0.702038
vt 0.225738 0.607705
vt 0.100925 0.680090
vt 0.149079 0.672409
vt 0.100925 0.668401
vt 0.149079 0.660720
vt 0.215042 0.713727
vt 0.221509 0.688005
vt 0.169634 0.732202
vt 0.971379 0.284999
vt 0.221509 0.699694
vt 0.135499 0.720577
vt 0.983060 0.284999
vt 0.147517 0.718170
vt 0.135499 0.732266
vt 0.983060 0.273310
vt 0.147517 0.729859
vt 0.169634 0.720513
vt 0.971379 0.273310
vt 0.316917 0.328462
vt 0.136906 0.716258
vt 0.327102 0.328462
vt 0.147092 0.716258
vt 0.327102 0.318270
vt 0.147092 0.706065
vt 0.316917 0.318270
vt 0.136906 0.706065
vt 0.463693 0.688756
vt 0.463693 0.729212
vt 0.453579 0.719098
vt 0.473807 0.688756
vt 0.473807 0.729212
vt 0.483921 0.719098
vt 0.463693 0.698870
vt 0.453579 0.708984
vt 0.473807 0.698870
vt 0.483921 0.708984
vt 0.463693 0.719098
vt 0.473807 0.719098
vt 0.463693 0.708984
vt 0.473807 0.708984
vt 0.952334 0.297616
vt 0.952334 0.335197
vt 0.942938 0.325801
vt 0.961729 0.297616
vt 0.961729 0.335197
vt 0.971124 0.325801
vt 0.952334 0.307011
vt 0.942938 0.316406
vt 0.961729 0.307011
vt 0.971124 0.316406
vt 0.952334 0.325801
vt 0.961729 0.325801
vt 0.952334 0.316406
vt 0.961729 0.316406
s 0
f 6/14/1 3/8/1 21/54/1 15/35/1
f 12/26/1 13/30/1 58/160/1 8/17/1
f 5/11/2 6/13/2 9/20/2 54/151/2
f 10/22/3 28/75/3 27/72/3 14/32/3
f 24/62/1 14/31/1 1/3/1 22/57/1
f 30/81/3 4/9/3 7/15/3 25/64/3
f 29/78/3 59/161/3 1/1/3 32/87/3
f 15/35/1 21/54/1 22/57/1 16/37/1
f 23/58/4 24/61/4 37/100/4 36/97/4
f 10/23/1 14/31/1 24/62/1 23/60/1
f 7/15/3 11/24/3 26/69/3 25/64/3
f 38/103/5 40/109/5 29/76/5 30/79/5
f 27/70/6 42/115/6 45/124/6 32/85/6
f 30/81/3 29/78/3 32/87/3 31/84/3
f 18/42/7 13/29/7 16/36/7 17/38/7
f 2/4/1 56/155/1 57/157/1 20/48/1
f 54/152/8 63/170/8 64/171/8 5/12/8
f 20/49/9 57/158/9 58/159/9 33/88/9
f 17/39/6 20/50/6 33/89/6 18/43/6
f 13/29/10 12/27/10 15/33/10 16/36/10
f 19/45/11 15/34/11 12/28/11 8/18/11
f 37/101/1 34/91/1 35/94/1 36/98/1
f 21/52/11 23/59/11 36/99/11 35/95/11
f 37/102/6 24/63/6 22/55/6 34/92/6
f 35/96/12 34/93/12 22/56/12 21/53/12
f 44/121/3 45/125/3 42/116/3 43/118/3
f 38/104/3 39/106/3 41/112/3 40/110/3
f 39/107/13 25/65/13 26/67/13 41/113/13
f 45/126/14 44/122/14 31/82/14 32/86/14
f 39/108/11 38/105/11 30/80/11 25/66/11
f 31/83/11 44/123/11 43/119/11 28/73/11
f 27/71/15 28/74/15 43/120/15 42/117/15
f 41/114/6 26/68/6 29/77/6 40/111/6
f 48/133/16 46/127/16 47/130/16 49/136/16
f 49/137/17 53/148/17 52/145/17 48/134/17
f 51/142/18 50/139/18 52/146/18 53/149/18
f 47/131/19 46/128/19 50/140/19 51/143/19
f 52/147/11 50/141/11 46/129/11 48/135/11
f 49/138/20 47/132/20 51/144/20 53/150/20
f 26/69/3 11/24/3 59/161/3 29/78/3
f 1/1/3 14/32/3 27/72/3 32/87/3
f 31/84/3 3/7/3 4/9/3 30/81/3
f 28/75/3 10/22/3 3/7/3 31/84/3
f 56/156/2 55/153/2 54/151/2 9/20/2
f 55/154/8 62/169/8 63/170/8 54/152/8
f 9/21/1 19/47/1 57/157/1 56/155/1
f 19/46/21 8/19/21 58/159/21 57/158/21
f 2/5/2 60/164/2 55/153/2 56/156/2
f 60/165/8 61/168/8 62/169/8 55/154/8
f 13/30/1 18/44/1 33/90/1 58/160/1
f 17/40/11 1/2/11 59/162/11 65/172/11
f 2/6/11 20/51/11 61/167/11 60/166/11
f 17/40/11 65/172/11 61/167/11 20/51/11
f 67/175/8 68/176/8 64/171/8 63/170/8
f 62/169/8 66/174/8 67/175/8 63/170/8
f 61/168/8 65/173/8 66/174/8 62/169/8
f 7/16/8 4/10/8 68/176/8 67/175/8
f 66/174/8 11/25/8 7/16/8 67/175/8
f 65/173/8 59/163/8 11/25/8 66/174/8
f 10/23/1 23/60/1 21/54/1 3/8/1
f 15/35/1 19/47/1 9/21/1 6/14/1
f 17/41/1 16/37/1 22/57/1 1/3/1
f 74/189/22 85/217/22 86/220/22 75/191/22
f 83/213/23 79/201/23 80/205/23 84/215/23
f 88/226/24 77/195/24 76/193/24 87/223/24
f 73/185/25 78/197/25 82/211/25 81/209/25
f 72/184/26 70/180/26 90/232/26 91/234/26
f 73/186/3 74/189/3 75/191/3 78/198/3
f 76/194/8 79/202/8 78/199/8 75/192/8
f 77/195/2 80/206/2 79/203/2 76/193/2
f 77/196/1 74/190/1 73/187/1 80/207/1
f 88/227/27 85/218/27 74/190/27 77/196/27
f 83/214/28 82/212/28 78/200/28 79/204/28
f 84/216/29 80/208/29 73/188/29 81/210/29
f 75/192/30 86/221/30 87/224/30 76/194/30
f 69/177/6 70/179/6 86/222/6 85/219/6
f 72/183/6 71/181/6 88/228/6 87/225/6
f 71/181/6 69/177/6 85/219/6 88/228/6
f 70/179/6 72/183/6 87/225/6 86/222/6
f 90/231/6 89/229/6 92/235/6 91/233/6
f 71/182/31 72/184/31 91/234/31 92/236/31
f 69/178/32 71/182/32 92/236/32 89/230/32
f 70/180/33 69/178/33 89/230/33 90/232/33
f 93/237/3 94/240/3 96/245/3 95/243/3
f 95/243/8 96/245/8 100/250/8 99/249/8
f 99/249/2 100/250/2 98/248/2 97/247/2
f 97/247/1 98/248/1 94/241/1 93/238/1
f 95/244/11 99/249/11 97/247/11 93/239/11
f 100/250/6 96/246/6 94/242/6 98/248/6
f 101/251/3 102/254/3 104/259/3 103/257/3
f 103/257/8 104/259/8 108/264/8 107/263/8
f 107/263/2 108/264/2 106/262/2 105/261/2
f 105/261/1 106/262/1 102/255/1 101/252/1
f 103/258/11 107/263/11 105/261/11 101/253/11
f 108/264/6 104/260/6 102/256/6 106/262/6
