# Blender 3.5.1
# www.blender.org
o droga_skrzyzowanie.002
v 2.038196 9.507653 -2.047788
v -2.036292 9.507653 -2.047788
v 2.038196 9.507651 2.026700
v -2.036292 9.507651 2.026700
v 2.038196 -0.000005 -2.047790
v -2.036292 -0.000005 -2.047790
v 2.038196 -0.000007 2.026698
v -2.036292 -0.000007 2.026698
v 1.732650 9.507653 -2.047788
v 1.732650 9.507651 2.026700
v 1.732650 -0.000005 -2.047790
v 1.732650 -0.000007 2.026698
v -1.739040 9.507653 -2.047788
v -1.739040 -0.000005 -2.047790
v -1.739040 9.507651 2.026700
v -1.739040 -0.000007 2.026698
v 0.829748 9.507651 2.026700
v 0.829748 -0.000007 2.026698
v 0.829748 9.507653 -2.047788
v 0.829748 -0.000005 -2.047790
v -0.750186 9.507653 -2.047788
v -0.750186 -0.000005 -2.047790
v -0.750186 9.507651 2.026700
v -0.750186 -0.000007 2.026698
v -0.442637 9.507651 2.026700
v -0.442637 -0.000007 2.026698
v -0.442637 9.507653 -2.047788
v -0.442637 -0.000005 -2.047790
v 0.521769 9.507651 2.026700
v 0.521769 -0.000007 2.026698
v 0.521769 9.507653 -2.047788
v 0.521769 -0.000005 -2.047790
v 2.038196 8.993642 -2.047789
v -2.036292 8.993642 -2.047789
v 2.038196 8.993640 2.026700
v -2.036292 8.993640 2.026700
v 1.732650 8.993640 2.026700
v 1.732650 8.993642 -2.047789
v -1.739040 8.993642 -2.047789
v -1.739040 8.993640 2.026700
v 0.829748 8.993640 2.026700
v 0.829748 8.993642 -2.047789
v -0.750186 8.993642 -2.047789
v -0.750186 8.993640 2.026700
v -0.442637 8.993640 2.026700
v -0.442637 8.993642 -2.047789
v 0.521769 8.993640 2.026700
v 0.521769 8.993642 -2.047789
v 2.038196 7.546916 -2.047789
v -2.036292 7.546916 -2.047789
v 2.038196 7.546915 2.026699
v -2.036292 7.546915 2.026699
v 1.732650 7.546915 2.026699
v 1.732650 7.546916 -2.047789
v -1.739040 7.546916 -2.047789
v -1.739040 7.546915 2.026699
v 0.829748 7.546915 2.026699
v 0.829748 7.546916 -2.047789
v -0.750186 7.546916 -2.047789
v -0.750186 7.546915 2.026699
v -0.442637 7.546915 2.026699
v -0.442637 7.546916 -2.047789
v 0.521769 7.546915 2.026699
v 0.521769 7.546916 -2.047789
v 2.038196 7.180020 -2.047789
v -2.036292 7.180020 -2.047789
v 2.038196 7.180019 2.026699
v -2.036292 7.180019 2.026699
v 1.732650 7.180019 2.026699
v 1.732650 7.180020 -2.047789
v -1.739040 7.180020 -2.047789
v -1.739040 7.180019 2.026699
v 0.829748 7.180019 2.026699
v 0.829748 7.180020 -2.047789
v -0.750186 7.180020 -2.047789
v -0.750186 7.180019 2.026699
v -0.442637 7.180019 2.026699
v -0.442637 7.180020 -2.047789
v 0.521769 7.180019 2.026699
v 0.521769 7.180020 -2.047789
v 2.038196 5.727817 -2.047789
v -2.036292 5.727817 -2.047789
v 2.038196 5.727816 2.026699
v -2.036292 5.727816 2.026699
v 1.732650 5.727816 2.026699
v 1.732650 5.727817 -2.047789
v -1.739040 5.727817 -2.047789
v -1.739040 5.727816 2.026699
v 0.829748 5.727816 2.026699
v 0.829748 5.727817 -2.047789
v -0.750186 5.727817 -2.047789
v -0.750186 5.727816 2.026699
v -0.442637 5.727816 2.026699
v -0.442637 5.727817 -2.047789
v 0.521769 5.727816 2.026699
v 0.521769 5.727817 -2.047789
v 2.038196 5.371189 -2.047789
v -2.036292 5.371189 -2.047789
v 2.038196 5.371188 2.026699
v -2.036292 5.371188 2.026699
v 1.732650 5.371188 2.026699
v 1.732650 5.371189 -2.047789
v -1.739040 5.371189 -2.047789
v -1.739040 5.371188 2.026699
v 0.829748 5.371188 2.026699
v 0.829748 5.371189 -2.047789
v -0.750186 5.371189 -2.047789
v -0.750186 5.371188 2.026699
v -0.442637 5.371188 2.026699
v -0.442637 5.371189 -2.047789
v 0.521769 5.371188 2.026699
v 0.521769 5.371189 -2.047789
v 2.038196 3.825174 -2.047790
v -2.036292 3.825174 -2.047790
v 2.038196 3.825173 2.026699
v -2.036292 3.825173 2.026699
v 1.732650 3.825173 2.026699
v 1.732650 3.825174 -2.047790
v -1.739040 3.825174 -2.047790
v -1.739040 3.825173 2.026699
v 0.829748 3.825173 2.026699
v 0.829748 3.825174 -2.047790
v -0.750186 3.825174 -2.047790
v -0.750186 3.825173 2.026699
v -0.442637 3.825173 2.026699
v -0.442637 3.825174 -2.047790
v 0.521769 3.825173 2.026699
v 0.521769 3.825174 -2.047790
v 2.038196 3.434095 -2.047790
v -2.036292 3.434095 -2.047790
v 2.038196 3.434094 2.026699
v -2.036292 3.434094 2.026699
v 1.732650 3.434094 2.026699
v 1.732650 3.434095 -2.047790
v -1.739040 3.434095 -2.047790
v -1.739040 3.434094 2.026699
v 0.829748 3.434094 2.026699
v 0.829748 3.434095 -2.047790
v -0.750186 3.434095 -2.047790
v -0.750186 3.434094 2.026699
v -0.442637 3.434094 2.026699
v -0.442637 3.434095 -2.047790
v 0.521769 3.434094 2.026699
v 0.521769 3.434095 -2.047790
v 2.038196 1.979647 -2.047790
v -2.036292 1.979647 -2.047790
v 2.038196 1.979645 2.026698
v -2.036292 1.979645 2.026698
v 1.732650 1.979645 2.026698
v 1.732650 1.979647 -2.047790
v -1.739040 1.979647 -2.047790
v -1.739040 1.979645 2.026698
v 0.829748 1.979645 2.026698
v 0.829748 1.979647 -2.047790
v -0.750186 1.979647 -2.047790
v -0.750186 1.979645 2.026698
v -0.442637 1.979645 2.026698
v -0.442637 1.979647 -2.047790
v 0.521769 1.979645 2.026698
v 0.521769 1.979647 -2.047790
v 0.521769 8.993642 -1.830156
v -0.442637 8.993642 -1.830156
v -0.750186 8.993642 -1.830156
v -1.739040 8.993642 -1.830156
v 1.732650 8.993642 -1.830156
v 0.829748 8.993642 -1.830156
v 1.732650 7.546916 -1.830157
v -1.739040 7.546916 -1.830157
v 0.829748 7.546916 -1.830157
v -0.750186 7.546916 -1.830157
v -0.442637 7.546916 -1.830157
v 0.521769 7.546916 -1.830157
v 0.521769 7.180020 -1.830157
v -0.442637 7.180020 -1.830157
v -0.750186 7.180020 -1.830157
v -1.739040 7.180020 -1.830157
v 1.732650 7.180020 -1.830157
v 0.829748 7.180020 -1.830157
v 1.732650 5.727817 -1.830157
v -1.739040 5.727817 -1.830157
v 0.829748 5.727817 -1.830157
v -0.750186 5.727817 -1.830157
v -0.442637 5.727817 -1.830157
v 0.521769 5.727817 -1.830157
v 0.521769 5.371189 -1.830157
v -0.442637 5.371189 -1.830157
v -0.750186 5.371189 -1.830157
v -1.739040 5.371189 -1.830157
v 1.732650 5.371189 -1.830157
v 0.829748 5.371189 -1.830157
v 1.732650 3.825174 -1.830158
v -1.739040 3.825174 -1.830158
v 0.829748 3.825174 -1.830158
v -0.750186 3.825174 -1.830158
v -0.442637 3.825174 -1.830158
v 0.521769 3.825174 -1.830158
v 0.521769 3.434095 -1.830158
v -0.442637 3.434095 -1.830158
v -0.750186 3.434095 -1.830158
v -1.739040 3.434095 -1.830158
v 1.732650 3.434095 -1.830158
v 0.829748 3.434095 -1.830158
v 1.732650 1.979647 -1.830158
v -1.739040 1.979647 -1.830158
v 0.829748 1.979647 -1.830158
v -0.750186 1.979647 -1.830158
v -0.442637 1.979647 -1.830158
v 0.521769 1.979647 -1.830158
v 1.873932 1.278844 -2.047790
v 1.873932 1.278844 -2.815638
v 1.873932 1.600895 -2.047790
v 1.873932 1.600895 -2.815638
v -1.812531 1.278844 -2.047790
v -1.812531 1.278844 -2.815638
v -1.812531 1.600895 -2.047790
v -1.812531 1.600895 -2.815638
v 1.732651 9.437902 -1.428667
v 1.732651 10.268653 -1.428667
v -1.711868 9.437902 -1.428668
v -1.711868 10.268653 -1.428667
v 1.732651 9.437903 -1.818368
v 1.732651 10.268654 -1.818368
v -1.711868 9.437903 -1.818368
v -1.711868 10.268654 -1.818368
v 1.590599 9.422526 1.606124
v 1.590599 9.810472 1.606124
v -1.593102 9.422526 1.606124
v -1.593102 9.810472 1.606124
v 1.590599 9.422527 -1.515927
v 1.590599 9.810472 -1.515927
v -1.593101 9.422527 -1.515927
v -1.593101 9.810472 -1.515927
v 1.391655 9.751817 1.273729
v 1.391655 10.209931 1.273729
v 0.425117 9.751817 1.273729
v 0.425117 10.209931 1.273729
v 1.391655 9.751817 0.653032
v 1.391655 10.209931 0.653032
v 0.425117 9.751817 0.653032
v 0.425117 10.209931 0.653032
vn -0.0000 1.0000 -0.0000
vn -0.0000 -1.0000 -0.0000
vn -0.0000 -0.0000 -1.0000
vn -1.0000 -0.0000 -0.0000
vn -0.0000 -0.0000 1.0000
vn 1.0000 -0.0000 -0.0000
vt 0.723957 0.965837
vt 0.702241 0.965837
vt 0.723957 0.944120
vt 0.702241 0.944120
vt 0.723957 0.965837
vt 0.702241 0.965837
vt 0.723957 0.944120
vt 0.702241 0.944120
vt 0.722545 0.965837
vt 0.722545 0.944120
vt 0.722545 0.965837
vt 0.722545 0.944120
vt 0.703825 0.965837
vt 0.703825 0.965837
vt 0.703825 0.944120
vt 0.703825 0.944120
vt 0.717516 0.944120
vt 0.717516 0.944120
vt 0.717516 0.965837
vt 0.717516 0.965837
vt 0.709244 0.965837
vt 0.709244 0.965837
vt 0.709244 0.944120
vt 0.709244 0.944120
vt 0.710956 0.944120
vt 0.710956 0.944120
vt 0.710956 0.965837
vt 0.710956 0.965837
vt 0.716090 0.944120
vt 0.716090 0.944120
vt 0.716090 0.965837
vt 0.716090 0.965837
vt 0.723957 0.965837
vt 0.702241 0.965837
vt 0.723957 0.944120
vt 0.702241 0.944120
vt 0.722545 0.944120
vt 0.722545 0.965837
vt 0.703825 0.965837
vt 0.703825 0.944120
vt 0.717516 0.944120
vt 0.717516 0.965837
vt 0.709244 0.965837
vt 0.709244 0.944120
vt 0.710956 0.944120
vt 0.710956 0.965837
vt 0.716090 0.944120
vt 0.716090 0.965837
vt 0.723957 0.965837
vt 0.702241 0.965837
vt 0.723957 0.944120
vt 0.702241 0.944120
vt 0.722545 0.944120
vt 0.722545 0.965837
vt 0.703825 0.965837
vt 0.703825 0.944120
vt 0.717516 0.944120
vt 0.717516 0.965837
vt 0.709244 0.965837
vt 0.709244 0.944120
vt 0.710956 0.944120
vt 0.710956 0.965837
vt 0.716090 0.944120
vt 0.716090 0.965837
vt 0.723957 0.965837
vt 0.702241 0.965837
vt 0.723957 0.944120
vt 0.702241 0.944120
vt 0.722545 0.944120
vt 0.722545 0.965837
vt 0.703825 0.965837
vt 0.703825 0.944120
vt 0.717516 0.944120
vt 0.717516 0.965837
vt 0.709244 0.965837
vt 0.709244 0.944120
vt 0.710956 0.944120
vt 0.710956 0.965837
vt 0.716090 0.944120
vt 0.716090 0.965837
vt 0.723957 0.965837
vt 0.702241 0.965837
vt 0.723957 0.944120
vt 0.702241 0.944120
vt 0.722545 0.944120
vt 0.722545 0.965837
vt 0.703825 0.965837
vt 0.703825 0.944120
vt 0.717516 0.944120
vt 0.717516 0.965837
vt 0.709244 0.965837
vt 0.709244 0.944120
vt 0.710956 0.944120
vt 0.710956 0.965837
vt 0.716090 0.944120
vt 0.716090 0.965837
vt 0.723957 0.965837
vt 0.702241 0.965837
vt 0.723957 0.944120
vt 0.702241 0.944120
vt 0.722545 0.944120
vt 0.722545 0.965837
vt 0.703825 0.965837
vt 0.703825 0.944120
vt 0.717516 0.944120
vt 0.717516 0.965837
vt 0.709244 0.965837
vt 0.709244 0.944120
vt 0.710956 0.944120
vt 0.710956 0.965837
vt 0.716090 0.944120
vt 0.716090 0.965837
vt 0.723957 0.965837
vt 0.702241 0.965837
vt 0.723957 0.944120
vt 0.702241 0.944120
vt 0.722545 0.944120
vt 0.722545 0.965837
vt 0.703825 0.965837
vt 0.703825 0.944120
vt 0.717516 0.944120
vt 0.717516 0.965837
vt 0.709244 0.965837
vt 0.709244 0.944120
vt 0.710956 0.944120
vt 0.710956 0.965837
vt 0.716090 0.944120
vt 0.716090 0.965837
vt 0.723957 0.965837
vt 0.702241 0.965837
vt 0.723957 0.944120
vt 0.702241 0.944120
vt 0.722545 0.944120
vt 0.722545 0.965837
vt 0.703825 0.965837
vt 0.703825 0.944120
vt 0.717516 0.944120
vt 0.717516 0.965837
vt 0.709244 0.965837
vt 0.709244 0.944120
vt 0.710956 0.944120
vt 0.710956 0.965837
vt 0.716090 0.944120
vt 0.716090 0.965837
vt 0.723957 0.965837
vt 0.702241 0.965837
vt 0.723957 0.944120
vt 0.702241 0.944120
vt 0.722545 0.944120
vt 0.722545 0.965837
vt 0.703825 0.965837
vt 0.703825 0.944120
vt 0.717516 0.944120
vt 0.717516 0.965837
vt 0.709244 0.965837
vt 0.709244 0.944120
vt 0.710956 0.944120
vt 0.710956 0.965837
vt 0.716090 0.944120
vt 0.716090 0.965837
vt 0.208277 0.721696
vt 0.716090 0.965837
vt 0.710956 0.965837
vt 0.203143 0.721696
vt 0.201432 0.721696
vt 0.709244 0.965837
vt 0.196012 0.721696
vt 0.703825 0.965837
vt 0.214733 0.721696
vt 0.722545 0.965837
vt 0.209703 0.721696
vt 0.717516 0.965837
vt 0.214733 0.721696
vt 0.722545 0.965837
vt 0.196012 0.721696
vt 0.703825 0.965837
vt 0.209703 0.721696
vt 0.717516 0.965837
vt 0.201432 0.721696
vt 0.709244 0.965837
vt 0.203143 0.721696
vt 0.710956 0.965837
vt 0.208277 0.721696
vt 0.716090 0.965837
vt 0.208277 0.721696
vt 0.716090 0.965837
vt 0.203143 0.721696
vt 0.710956 0.965837
vt 0.201432 0.721696
vt 0.709244 0.965837
vt 0.196012 0.721696
vt 0.703825 0.965837
vt 0.214733 0.721696
vt 0.722545 0.965837
vt 0.209703 0.721696
vt 0.717516 0.965837
vt 0.214733 0.721696
vt 0.722545 0.965837
vt 0.196012 0.721696
vt 0.703825 0.965837
vt 0.209703 0.721696
vt 0.717516 0.965837
vt 0.201432 0.721696
vt 0.709244 0.965837
vt 0.203143 0.721696
vt 0.710956 0.965837
vt 0.716090 0.965837
vt 0.208277 0.721696
vt 0.208277 0.721696
vt 0.716090 0.965837
vt 0.203143 0.721696
vt 0.710956 0.965837
vt 0.201432 0.721696
vt 0.709244 0.965837
vt 0.196012 0.721696
vt 0.703825 0.965837
vt 0.214733 0.721696
vt 0.722545 0.965837
vt 0.209703 0.721696
vt 0.717516 0.965837
vt 0.214733 0.721696
vt 0.722545 0.965837
vt 0.196012 0.721696
vt 0.703825 0.965837
vt 0.209703 0.721696
vt 0.717516 0.965837
vt 0.201432 0.721696
vt 0.709244 0.965837
vt 0.203143 0.721696
vt 0.710956 0.965837
vt 0.208277 0.721696
vt 0.716090 0.965837
vt 0.208277 0.721696
vt 0.716090 0.965837
vt 0.203143 0.721696
vt 0.710956 0.965837
vt 0.201432 0.721696
vt 0.709244 0.965837
vt 0.196012 0.721696
vt 0.703825 0.965837
vt 0.214733 0.721696
vt 0.722545 0.965837
vt 0.717516 0.965837
vt 0.209703 0.721696
vt 0.214733 0.721696
vt 0.722545 0.965837
vt 0.196012 0.721696
vt 0.703825 0.965837
vt 0.209703 0.721696
vt 0.717516 0.965837
vt 0.709244 0.965837
vt 0.201432 0.721696
vt 0.203143 0.721696
vt 0.710956 0.965837
vt 0.208277 0.721696
vt 0.716090 0.965837
vt 0.955115 0.779445
vt 0.955115 0.810399
vt 0.947377 0.802660
vt 0.962853 0.779445
vt 0.962853 0.810399
vt 0.970592 0.802660
vt 0.955115 0.787184
vt 0.947377 0.794922
vt 0.962853 0.787184
vt 0.970592 0.794922
vt 0.955115 0.802660
vt 0.962853 0.802660
vt 0.955115 0.794922
vt 0.962853 0.794922
vt 0.959194 0.188338
vt 0.959194 0.217913
vt 0.951800 0.210519
vt 0.966587 0.188338
vt 0.966587 0.217913
vt 0.973981 0.210519
vt 0.959194 0.195731
vt 0.951800 0.203125
vt 0.966587 0.195731
vt 0.973981 0.203125
vt 0.959194 0.210519
vt 0.966587 0.210519
vt 0.959194 0.203125
vt 0.966587 0.203125
vt 0.780496 0.780187
vt 0.780496 0.801844
vt 0.775082 0.796430
vt 0.785910 0.780187
vt 0.785910 0.801844
vt 0.791325 0.796430
vt 0.780496 0.785601
vt 0.775082 0.791016
vt 0.785910 0.785601
vt 0.791325 0.791016
vt 0.780496 0.796430
vt 0.785910 0.796430
vt 0.780496 0.791016
vt 0.785910 0.791016
vt 0.709433 0.777187
vt 0.709433 0.789219
vt 0.706425 0.786211
vt 0.712441 0.777187
vt 0.712441 0.789219
vt 0.715450 0.786211
vt 0.709433 0.780195
vt 0.706425 0.783203
vt 0.712441 0.780195
vt 0.715450 0.783203
vt 0.709433 0.786211
vt 0.712441 0.786211
vt 0.709433 0.783203
vt 0.712441 0.783203
s 0
f 13/13/1 2/2/1 4/4/1 15/15/1
f 14/14/2 16/16/2 8/8/2 6/6/2
f 150/150/3 145/145/3 5/5/3 11/11/3
f 148/148/4 146/146/4 6/6/4 8/8/4
f 152/152/5 148/148/5 8/8/5 16/16/5
f 145/145/6 147/147/6 7/7/6 5/5/6
f 147/147/5 149/149/5 12/12/5 7/7/5
f 154/154/3 150/150/3 11/11/3 20/20/3
f 5/5/2 7/7/2 12/12/2 11/11/2
f 1/1/1 9/9/1 10/10/1 3/3/1
f 146/146/3 151/151/3 14/14/3 6/6/3
f 156/156/5 152/152/5 16/16/5 24/24/5
f 22/22/2 24/24/2 16/16/2 14/14/2
f 21/21/1 13/13/1 15/15/1 23/23/1
f 9/9/1 19/19/1 17/17/1 10/10/1
f 11/11/2 12/12/2 18/18/2 20/20/2
f 149/149/5 153/153/5 18/18/5 12/12/5
f 160/160/3 154/154/3 20/20/3 32/32/3
f 151/151/3 155/155/3 22/22/3 14/14/3
f 27/27/1 21/21/1 23/23/1 25/25/1
f 28/28/2 26/26/2 24/24/2 22/22/2
f 157/157/5 156/156/5 24/24/5 26/26/5
f 159/159/5 157/157/5 26/26/5 30/30/5
f 32/32/2 30/30/2 26/26/2 28/28/2
f 31/31/1 27/27/1 25/25/1 29/29/1
f 155/155/3 158/158/3 28/28/3 22/22/3
f 19/19/1 31/31/1 29/29/1 17/17/1
f 20/20/2 18/18/2 30/30/2 32/32/2
f 153/153/5 159/159/5 30/30/5 18/18/5
f 158/158/3 160/160/3 32/32/3 28/28/3
f 27/27/3 31/31/3 48/48/3 46/46/3
f 17/17/5 29/29/5 47/47/5 41/41/5
f 21/21/3 27/27/3 46/46/3 43/43/3
f 29/29/5 25/25/5 45/45/5 47/47/5
f 25/25/5 23/23/5 44/44/5 45/45/5
f 13/13/3 21/21/3 43/43/3 39/39/3
f 31/31/3 19/19/3 42/42/3 48/48/3
f 10/10/5 17/17/5 41/41/5 37/37/5
f 23/23/5 15/15/5 40/40/5 44/44/5
f 2/2/3 13/13/3 39/39/3 34/34/3
f 19/19/3 9/9/3 38/38/3 42/42/3
f 3/3/5 10/10/5 37/37/5 35/35/5
f 1/1/6 3/3/6 35/35/6 33/33/6
f 15/15/5 4/4/5 36/36/5 40/40/5
f 4/4/4 2/2/4 34/34/4 36/36/4
f 9/9/3 1/1/3 33/33/3 38/38/3
f 139/139/4 155/155/4 206/251/4 199/238/4
f 41/41/5 47/47/5 63/63/5 57/57/5
f 43/43/3 46/46/3 62/62/3 59/59/3
f 47/47/5 45/45/5 61/61/5 63/63/5
f 45/45/5 44/44/5 60/60/5 61/61/5
f 119/119/6 103/103/6 188/216/6 192/224/6
f 48/48/3 42/42/3 58/58/3 64/64/3
f 37/37/5 41/41/5 57/57/5 53/53/5
f 44/44/5 40/40/5 56/56/5 60/60/5
f 34/34/3 39/39/3 55/55/3 50/50/3
f 154/154/6 138/138/6 202/243/6 205/250/6
f 35/35/5 37/37/5 53/53/5 51/51/5
f 33/33/6 35/35/6 51/51/6 49/49/6
f 40/40/5 36/36/5 52/52/5 56/56/5
f 36/36/4 34/34/4 50/50/4 52/52/4
f 38/38/3 33/33/3 49/49/3 54/54/3
f 62/62/3 64/64/3 80/80/3 78/78/3
f 57/57/5 63/63/5 79/79/5 73/73/5
f 59/59/3 62/62/3 78/78/3 75/75/3
f 63/63/5 61/61/5 77/77/5 79/79/5
f 61/61/5 60/60/5 76/76/5 77/77/5
f 55/55/3 59/59/3 75/75/3 71/71/3
f 64/64/3 58/58/3 74/74/3 80/80/3
f 53/53/5 57/57/5 73/73/5 69/69/5
f 60/60/5 56/56/5 72/72/5 76/76/5
f 50/50/3 55/55/3 71/71/3 66/66/3
f 58/58/3 54/54/3 70/70/3 74/74/3
f 51/51/5 53/53/5 69/69/5 67/67/5
f 49/49/6 51/51/6 67/67/6 65/65/6
f 56/56/5 52/52/5 68/68/5 72/72/5
f 52/52/4 50/50/4 66/66/4 68/68/4
f 54/54/3 49/49/3 65/65/3 70/70/3
f 62/62/6 46/46/6 162/163/6 171/182/6
f 73/73/5 79/79/5 95/95/5 89/89/5
f 75/75/3 78/78/3 94/94/3 91/91/3
f 79/79/5 77/77/5 93/93/5 95/95/5
f 77/77/5 76/76/5 92/92/5 93/93/5
f 96/96/1 94/94/1 183/206/1 184/207/1
f 80/80/3 74/74/3 90/90/3 96/96/3
f 69/69/5 73/73/5 89/89/5 85/85/5
f 76/76/5 72/72/5 88/88/5 92/92/5
f 66/66/3 71/71/3 87/87/3 82/82/3
f 71/71/2 75/75/2 175/190/2 176/192/2
f 67/67/5 69/69/5 85/85/5 83/83/5
f 65/65/6 67/67/6 83/83/6 81/81/6
f 72/72/5 68/68/5 84/84/5 88/88/5
f 68/68/4 66/66/4 82/82/4 84/84/4
f 70/70/3 65/65/3 81/81/3 86/86/3
f 94/94/3 96/96/3 112/112/3 110/110/3
f 89/89/5 95/95/5 111/111/5 105/105/5
f 91/91/3 94/94/3 110/110/3 107/107/3
f 95/95/5 93/93/5 109/109/5 111/111/5
f 93/93/5 92/92/5 108/108/5 109/109/5
f 87/87/3 91/91/3 107/107/3 103/103/3
f 96/96/3 90/90/3 106/106/3 112/112/3
f 85/85/5 89/89/5 105/105/5 101/101/5
f 92/92/5 88/88/5 104/104/5 108/108/5
f 82/82/3 87/87/3 103/103/3 98/98/3
f 90/90/3 86/86/3 102/102/3 106/106/3
f 83/83/5 85/85/5 101/101/5 99/99/5
f 81/81/6 83/83/6 99/99/6 97/97/6
f 88/88/5 84/84/5 100/100/5 104/104/5
f 84/84/4 82/82/4 98/98/4 100/100/4
f 86/86/3 81/81/3 97/97/3 102/102/3
f 54/54/1 58/58/1 169/178/1 167/174/1
f 105/105/5 111/111/5 127/127/5 121/121/5
f 107/107/3 110/110/3 126/126/3 123/123/3
f 111/111/5 109/109/5 125/125/5 127/127/5
f 109/109/5 108/108/5 124/124/5 125/125/5
f 102/102/4 118/118/4 191/222/4 189/218/4
f 112/112/3 106/106/3 122/122/3 128/128/3
f 101/101/5 105/105/5 121/121/5 117/117/5
f 108/108/5 104/104/5 120/120/5 124/124/5
f 98/98/3 103/103/3 119/119/3 114/114/3
f 80/80/4 96/96/4 184/207/4 173/186/4
f 99/99/5 101/101/5 117/117/5 115/115/5
f 97/97/6 99/99/6 115/115/6 113/113/6
f 104/104/5 100/100/5 116/116/5 120/120/5
f 100/100/4 98/98/4 114/114/4 116/116/4
f 102/102/3 97/97/3 113/113/3 118/118/3
f 126/126/3 128/128/3 144/144/3 142/142/3
f 121/121/5 127/127/5 143/143/5 137/137/5
f 123/123/3 126/126/3 142/142/3 139/139/3
f 127/127/5 125/125/5 141/141/5 143/143/5
f 125/125/5 124/124/5 140/140/5 141/141/5
f 119/119/3 123/123/3 139/139/3 135/135/3
f 128/128/3 122/122/3 138/138/3 144/144/3
f 117/117/5 121/121/5 137/137/5 133/133/5
f 124/124/5 120/120/5 136/136/5 140/140/5
f 114/114/3 119/119/3 135/135/3 130/130/3
f 122/122/3 118/118/3 134/134/3 138/138/3
f 115/115/5 117/117/5 133/133/5 131/131/5
f 113/113/6 115/115/6 131/131/6 129/129/6
f 120/120/5 116/116/5 132/132/5 136/136/5
f 116/116/4 114/114/4 130/130/4 132/132/4
f 118/118/3 113/113/3 129/129/3 134/134/3
f 155/155/1 151/151/1 204/248/1 206/251/1
f 137/137/5 143/143/5 159/159/5 153/153/5
f 139/139/3 142/142/3 158/158/3 155/155/3
f 143/143/5 141/141/5 157/157/5 159/159/5
f 141/141/5 140/140/5 156/156/5 157/157/5
f 138/138/2 134/134/2 201/242/2 202/243/2
f 144/144/3 138/138/3 154/154/3 160/160/3
f 133/133/5 137/137/5 153/153/5 149/149/5
f 140/140/5 136/136/5 152/152/5 156/156/5
f 130/130/3 135/135/3 151/151/3 146/146/3
f 46/46/2 48/48/2 161/162/2 162/163/2
f 131/131/5 133/133/5 149/149/5 147/147/5
f 129/129/6 131/131/6 147/147/6 145/145/6
f 136/136/5 132/132/5 148/148/5 152/152/5
f 132/132/4 130/130/4 146/146/4 148/148/4
f 134/134/3 129/129/3 145/145/3 150/150/3
f 162/164/3 161/161/3 172/183/3 171/181/3
f 164/167/3 163/165/3 170/179/3 168/175/3
f 166/171/3 165/169/3 167/173/3 169/177/3
f 174/187/3 173/185/3 184/208/3 183/205/3
f 176/191/3 175/189/3 182/203/3 180/199/3
f 178/195/3 177/193/3 179/197/3 181/201/3
f 186/211/3 185/209/3 196/231/3 195/229/3
f 188/215/3 187/213/3 194/227/3 192/223/3
f 190/219/3 189/217/3 191/221/3 193/225/3
f 198/235/3 197/233/3 208/255/3 207/253/3
f 200/239/3 199/237/3 206/252/3 204/247/3
f 202/244/3 201/241/3 203/245/3 205/249/3
f 106/106/2 102/102/2 189/218/2 190/220/2
f 123/123/1 119/119/1 192/224/1 194/228/1
f 48/48/4 64/64/4 172/184/4 161/162/4
f 142/142/2 144/144/2 197/234/2 198/236/2
f 70/70/4 86/86/4 179/198/4 177/194/4
f 39/39/2 43/43/2 163/166/2 164/168/2
f 64/64/1 62/62/1 171/182/1 172/184/1
f 122/122/6 106/106/6 190/220/6 193/226/6
f 87/87/6 71/71/6 176/192/6 180/200/6
f 150/150/1 154/154/1 205/250/1 203/246/1
f 158/158/6 142/142/6 198/236/6 207/254/6
f 107/107/4 123/123/4 194/228/4 187/214/4
f 74/74/2 70/70/2 177/194/2 178/196/2
f 91/91/1 87/87/1 180/200/1 182/204/1
f 110/110/2 112/112/2 185/210/2 186/212/2
f 38/38/4 54/54/4 167/174/4 165/170/4
f 144/144/4 160/160/4 208/256/4 197/234/4
f 90/90/6 74/74/6 178/196/6 181/202/6
f 55/55/6 39/39/6 164/168/6 168/176/6
f 118/118/1 122/122/1 193/226/1 191/222/1
f 135/135/2 139/139/2 199/238/2 200/240/2
f 160/160/1 158/158/1 207/254/1 208/256/1
f 126/126/6 110/110/6 186/212/6 195/230/6
f 75/75/4 91/91/4 182/204/4 175/190/4
f 42/42/2 38/38/2 165/170/2 166/172/2
f 59/59/1 55/55/1 168/176/1 170/180/1
f 78/78/2 80/80/2 173/186/2 174/188/2
f 112/112/4 128/128/4 196/232/4 185/210/4
f 58/58/6 42/42/6 166/172/6 169/178/6
f 134/134/4 150/150/4 203/246/4 201/242/4
f 86/86/1 90/90/1 181/202/1 179/198/1
f 103/103/2 107/107/2 187/214/2 188/216/2
f 128/128/1 126/126/1 195/230/1 196/232/1
f 94/94/6 78/78/6 174/188/6 183/206/6
f 43/43/4 59/59/4 170/180/4 163/166/4
f 151/151/6 135/135/6 200/240/6 204/248/6
f 209/257/6 210/260/6 212/265/6 211/263/6
f 211/263/1 212/265/1 216/270/1 215/269/1
f 215/269/4 216/270/4 214/268/4 213/267/4
f 213/267/2 214/268/2 210/261/2 209/258/2
f 211/264/5 215/269/5 213/267/5 209/259/5
f 216/270/3 212/266/3 210/262/3 214/268/3
f 217/271/5 218/274/5 220/279/5 219/277/5
f 219/277/4 220/279/4 224/284/4 223/283/4
f 223/283/3 224/284/3 222/282/3 221/281/3
f 221/281/6 222/282/6 218/275/6 217/272/6
f 219/278/2 223/283/2 221/281/2 217/273/2
f 224/284/1 220/280/1 218/276/1 222/282/1
f 225/285/5 226/288/5 228/293/5 227/291/5
f 227/291/4 228/293/4 232/298/4 231/297/4
f 231/297/3 232/298/3 230/296/3 229/295/3
f 229/295/6 230/296/6 226/289/6 225/286/6
f 227/292/2 231/297/2 229/295/2 225/287/2
f 232/298/1 228/294/1 226/290/1 230/296/1
f 233/299/5 234/302/5 236/307/5 235/305/5
f 235/305/4 236/307/4 240/312/4 239/311/4
f 239/311/3 240/312/3 238/310/3 237/309/3
f 237/309/6 238/310/6 234/303/6 233/300/6
f 235/306/2 239/311/2 237/309/2 233/301/2
f 240/312/1 236/308/1 234/304/1 238/310/1
