# Blender 3.5.1
# www.blender.org
o budynek2.001
v 2.029418 -0.000024 -2.004171
v 2.029418 9.499281 -2.004170
v 2.029418 -0.000025 2.070317
v 2.029418 9.499281 2.070318
v -2.045071 -0.000024 -2.004171
v -2.045071 9.499281 -2.004170
v -2.045071 -0.000025 2.070317
v -2.045071 9.499281 2.070318
v 1.753633 9.499281 1.758269
v -1.742719 9.499281 1.758269
v -1.742719 9.499281 -1.701409
v 1.729182 9.499281 -1.701409
v 1.753633 9.195210 1.758269
v -1.742719 9.195210 1.758269
v -1.742719 9.195210 -1.701409
v 1.729182 9.195210 -1.701409
v 1.990087 1.517235 -2.955421
v 1.990087 1.816482 -2.955421
v -2.003185 1.816481 -2.955421
v -2.003185 1.517235 -2.955421
v 1.550061 9.045630 -1.042247
v 1.406408 9.612914 -0.898655
v 1.550061 9.045630 1.442684
v 1.406408 9.612914 1.299092
v -0.929586 9.045630 -1.042247
v -0.785933 9.612914 -0.898655
v -0.929586 9.045630 1.442684
v -0.785933 9.612914 1.299092
v 2.029418 2.011395 -2.004171
v 2.029418 8.984864 -2.004170
v -2.045071 8.984864 -2.004170
v -2.045071 2.011395 -2.004171
v 0.375436 2.011395 -2.004171
v 0.375436 8.984864 -2.004170
v -0.347016 2.011395 -2.004171
v -0.347016 8.984864 -2.004170
v -0.934324 2.011395 -2.004171
v -0.934324 8.984864 -2.004170
v 0.929295 8.984864 -2.004170
v 0.929295 2.011395 -2.004171
v 1.642127 2.011395 -2.004171
v 1.642127 8.984864 -2.004170
v -1.636546 2.011395 -2.004171
v -1.636546 8.984864 -2.004170
v 1.642127 8.984864 -1.678287
v 0.929295 8.984864 -1.678287
v 1.642127 2.011395 -1.678287
v 0.929295 2.011395 -1.678287
v 0.375436 2.011395 -1.723717
v 0.375436 8.984864 -1.723717
v -0.347016 2.011395 -1.723717
v -0.347016 8.984864 -1.723717
v -0.934324 8.984864 -1.731267
v -0.934324 2.011395 -1.731267
v -1.636546 2.011395 -1.731267
v -1.636546 8.984864 -1.731267
v -2.003185 1.775763 -2.004171
v 1.990087 1.775763 -2.004171
v -2.003185 1.476515 -2.004171
v 1.990087 1.476515 -2.004171
v 1.666846 -0.000024 -2.004171
v 1.666846 -0.000025 2.070317
v 1.666846 9.499281 2.070318
v 1.442507 9.499281 1.758269
v 1.442507 9.195210 1.758269
v 1.420231 9.195210 -1.701409
v 1.420231 9.499281 -1.701409
v 1.666846 9.499281 -2.004170
v 0.865947 9.499281 -2.004170
v 0.737780 9.499281 -1.701409
v 0.737780 9.195210 -1.701409
v 0.755250 9.195210 1.758269
v 0.755250 9.499281 1.758269
v 0.865947 9.499281 2.070318
v 0.865947 -0.000025 2.070317
v 0.865947 -0.000024 -2.004171
v 0.440751 9.499281 -2.004170
v 0.375466 9.499281 -1.701409
v 0.375466 9.195210 -1.701409
v 0.390384 9.195210 1.758269
v 0.390384 9.499281 1.758269
v 0.440751 9.499281 2.070318
v 0.440751 -0.000025 2.070317
v 0.440751 -0.000024 -2.004171
v -0.388167 9.499281 -2.004170
v -0.330860 9.499281 -1.701409
v -0.330860 9.195210 -1.701409
v -0.320916 9.195210 1.758269
v -0.320916 9.499281 1.758269
v -0.388167 9.499281 2.070318
v -0.388167 -0.000025 2.070317
v -0.388167 -0.000024 -2.004171
v -0.860885 9.499281 -2.004170
v -0.733667 9.499281 -1.701409
v -0.733667 9.195210 -1.701409
v -0.726560 9.195210 1.758269
v -0.726560 9.499281 1.758269
v -0.860885 9.499281 2.070318
v -0.860885 -0.000025 2.070317
v -0.860885 -0.000024 -2.004171
v -1.674848 9.499281 -2.004170
v -1.427251 9.499281 -1.701409
v -1.427251 9.195210 -1.701409
v -1.425029 9.195210 1.758269
v -1.425029 9.499281 1.758269
v -1.674848 9.499281 2.070318
v -1.674848 -0.000025 2.070317
v -1.674848 -0.000024 -2.004171
v -2.045072 1.915543 2.070317
v -1.674848 1.915543 2.070317
v -0.860885 1.915543 2.070317
v -0.388167 1.915543 2.070317
v 0.440751 1.915543 2.070317
v 0.865947 1.915543 2.070317
v 1.666846 1.915543 2.070317
v 2.029418 1.915543 2.070317
v -2.045072 8.961090 2.070317
v -1.674850 8.961090 2.070317
v -0.860885 8.961090 2.070317
v -0.388167 8.961090 2.070317
v 0.440751 8.961090 2.070317
v 0.865947 8.961090 2.070317
v 1.666846 8.961090 2.070317
v 2.029418 8.961090 2.070317
v 1.550061 9.596723 -1.042247
v 1.550061 9.596723 1.442684
v -0.929586 9.596723 1.442684
v -0.929586 9.596723 -1.042247
v 1.150768 9.347950 -0.649721
v 1.150768 9.347950 0.508508
v 0.346292 9.347950 0.508508
v 0.346292 9.347950 -0.649721
v 1.406408 9.416112 -0.898655
v 1.406408 9.416112 1.299092
v -0.785933 9.416112 1.299092
v -0.785933 9.416112 -0.898655
v 1.150768 9.262800 -0.649721
v 1.150768 9.262800 0.508508
v 0.346292 9.262800 0.508508
v 0.346292 9.262800 -0.649721
v -1.104252 9.036855 0.992134
v -1.000559 10.759285 0.992134
v -1.104252 9.036855 1.306336
v -1.000559 10.759285 1.306336
v -1.423512 9.052193 0.992134
v -1.319818 10.774622 0.992134
v -1.423512 9.052193 1.306336
v -1.319818 10.774622 1.306336
v -0.202273 9.168176 -0.143364
v -0.118015 10.567768 -0.143364
v -0.202273 9.168176 0.357267
v -0.118015 10.567768 0.357267
v -0.659284 9.187045 -0.143364
v -0.575026 10.586637 -0.143364
v -0.659284 9.187045 0.357267
v -0.575026 10.586637 0.357267
v 1.283420 9.341142 0.919216
v 1.283420 9.931268 0.868337
v 1.283420 9.364950 1.195362
v 1.283420 9.955076 1.144483
v 0.996691 9.341142 0.919216
v 0.996691 9.931268 0.868337
v 0.996691 9.364950 1.195362
v 0.996691 9.955076 1.144483
v -1.157047 9.095535 -0.689492
v -1.078870 10.394122 -0.689492
v -1.157047 9.095535 -0.252389
v -1.078870 10.394122 -0.252389
v -1.560012 9.117435 -0.689492
v -1.481835 10.416023 -0.689492
v -1.560012 9.117435 -0.252389
v -1.481835 10.416023 -0.252389
v -0.028427 9.363977 0.535503
v -0.028427 9.594183 0.515656
v -0.028427 9.408545 1.052423
v -0.028427 9.638750 1.032575
v -0.472244 9.363977 0.535503
v -0.472244 9.594183 0.515656
v -0.472244 9.408545 1.052423
v -0.472244 9.638750 1.032575
vn 1.0000 -0.0000 -0.0000
vn -0.0000 -0.0000 1.0000
vn -1.0000 -0.0000 -0.0000
vn -0.0000 1.0000 -0.0000
vn -0.0000 -0.0000 -1.0000
vn -1.0000 -0.0000 0.0071
vn -0.0000 0.9991 0.0428
vn -0.0000 -0.9991 -0.0428
vn -0.7071 -0.0000 0.7071
vn 0.7071 -0.0000 0.7071
vn -0.0000 -1.0000 -0.0000
vn 0.0562 0.9968 -0.0562
vn 0.0562 0.9968 0.0562
vn -0.0562 0.9968 0.0562
vn -0.0562 0.9968 -0.0562
vn 0.7071 -0.0000 -0.7071
vn -0.7071 -0.0000 -0.7071
vn -0.1303 0.9822 0.1351
vn -0.1559 0.9872 -0.0347
vn -0.0529 0.9962 -0.0688
vn -0.1332 0.9822 0.1322
vn 0.0278 0.9985 -0.0462
vn 0.0368 0.9988 -0.0334
vn 0.0230 0.9860 0.1652
vn 0.0518 0.9979 0.0377
vn 0.9982 -0.0601 -0.0000
vn -0.9982 0.0601 -0.0000
vn -0.0480 -0.9988 -0.0000
vn 0.0480 0.9988 -0.0000
vn -0.0413 -0.9991 -0.0000
vn 0.0413 0.9991 -0.0000
vn -0.0000 0.0859 0.9963
vn -0.0000 -0.0859 -0.9963
vn -0.0000 -0.9963 0.0859
vn -0.0000 0.9963 -0.0859
vn -0.0543 -0.9985 -0.0000
vn 0.0543 0.9985 -0.0000
vt 0.694028 0.788418
vt 0.886066 0.320837
vt 0.680446 0.788418
vt 0.953623 0.348033
vt 0.277091 0.532473
vt 0.940041 0.348033
vt 0.892851 0.320837
vt 0.694028 0.788418
vt 0.687237 0.788418
vt 0.953623 0.348033
vt 0.283881 0.532473
vt 0.946832 0.348033
vt 0.680446 0.788418
vt 0.886066 0.327628
vt 0.687237 0.788418
vt 0.277091 0.525682
vt 0.946832 0.348033
vt 0.940041 0.348033
vt 0.673656 0.788418
vt 0.892851 0.327628
vt 0.700818 0.788418
vt 0.960413 0.348033
vt 0.283881 0.525682
vt 0.933251 0.348033
vt 0.283361 0.532013
vt 0.872528 0.354499
vt 0.872094 0.373931
vt 0.872092 0.341315
vt 0.283361 0.526186
vt 0.872528 0.348671
vt 0.872458 0.360446
vt 0.277596 0.526186
vt 0.872092 0.335549
vt 0.872094 0.379697
vt 0.872458 0.354660
vt 0.277596 0.531972
vt 0.899634 0.306775
vt 0.872021 0.354499
vt 0.871587 0.373931
vt 0.871585 0.341315
vt 0.899634 0.300948
vt 0.872021 0.348671
vt 0.871951 0.360446
vt 0.871585 0.335549
vt 0.893869 0.300948
vt 0.893869 0.306734
vt 0.871587 0.379697
vt 0.871951 0.354660
vt 0.414171 0.679516
vt 0.407689 0.651495
vt 0.424034 0.643033
vt 0.414463 0.679516
vt 0.430219 0.650196
vt 0.424294 0.643166
vt 0.414463 0.672860
vt 0.430219 0.656851
vt 0.365353 0.652169
vt 0.414171 0.672860
vt 0.407689 0.658150
vt 0.365613 0.652035
vt 0.632494 0.591154
vt 0.641008 0.592323
vt 0.637362 0.594692
vt 0.632494 0.592479
vt 0.624803 0.600780
vt 0.637362 0.593547
vt 0.646301 0.592369
vt 0.641008 0.591001
vt 0.636220 0.594692
vt 0.624803 0.602102
vt 0.646301 0.591044
vt 0.636220 0.593547
vt 0.940041 0.358366
vt 0.953623 0.358366
vt 0.694028 0.783365
vt 0.680446 0.783365
vt 0.953623 0.348890
vt 0.940041 0.348890
vt 0.946832 0.348890
vt 0.940041 0.348890
vt 0.680446 0.783365
vt 0.946832 0.358366
vt 0.687237 0.783365
vt 0.940041 0.358366
vt 0.950866 0.358366
vt 0.870933 0.361198
vt 0.873945 0.335013
vt 0.691271 0.783365
vt 0.914332 0.290894
vt 0.873945 0.325537
vt 0.950866 0.348890
vt 0.873224 0.311457
vt 0.949662 0.358366
vt 0.870933 0.362402
vt 0.690067 0.783365
vt 0.873224 0.301981
vt 0.914332 0.289690
vt 0.949662 0.348890
vt 0.948683 0.358366
vt 0.941569 0.289709
vt 0.873657 0.322945
vt 0.689088 0.783365
vt 0.939345 0.289698
vt 0.873657 0.313470
vt 0.948683 0.348890
vt 0.906470 0.294566
vt 0.897844 0.291272
vt 0.951789 0.348890
vt 0.951789 0.358366
vt 0.907013 0.294566
vt 0.906470 0.304042
vt 0.692194 0.783365
vt 0.952977 0.358366
vt 0.886855 0.345778
vt 0.907013 0.293378
vt 0.693382 0.783365
vt 0.886855 0.336303
vt 0.897844 0.290084
vt 0.952977 0.348890
vt 0.941569 0.290880
vt 0.947513 0.358366
vt 0.873142 0.347081
vt 0.687918 0.783365
vt 0.939345 0.290868
vt 0.873142 0.337605
vt 0.947513 0.348890
vt 0.886312 0.336303
vt 0.731182 0.953007
vt 0.898386 0.290084
vt 0.729994 0.953007
vt 0.907013 0.294566
vt 0.898386 0.291272
vt 0.886312 0.345778
vt 0.731182 0.962482
vt 0.906470 0.293378
vt 0.729994 0.962482
vt 0.906470 0.294566
vt 0.907013 0.304042
vt 0.689767 0.968999
vt 0.870466 0.361198
vt 0.873477 0.335013
vt 0.689767 0.959523
vt 0.913865 0.290894
vt 0.873477 0.325537
vt 0.873692 0.311457
vt 0.688563 0.968999
vt 0.870466 0.362402
vt 0.873692 0.301981
vt 0.688563 0.959523
vt 0.913865 0.289690
vt 0.672109 0.950344
vt 0.939800 0.289698
vt 0.873202 0.313470
vt 0.941115 0.289709
vt 0.672109 0.959820
vt 0.873202 0.322945
vt 0.941115 0.290880
vt 0.670939 0.959820
vt 0.873597 0.347081
vt 0.670939 0.950344
vt 0.939800 0.290868
vt 0.873597 0.337605
vt 0.428108 0.656851
vt 0.365353 0.654524
vt 0.428108 0.650196
vt 0.424294 0.645522
vt 0.409825 0.658150
vt 0.365613 0.654390
vt 0.409825 0.651495
vt 0.424034 0.645388
vt 0.886066 0.321441
vt 0.693423 0.788418
vt 0.892851 0.321441
vt 0.694632 0.788418
vt 0.954227 0.348033
vt 0.283881 0.531868
vt 0.283361 0.531494
vt 0.872528 0.353980
vt 0.899634 0.306257
vt 0.872021 0.353980
vt 0.893869 0.306219
vt 0.871951 0.355175
vt 0.872458 0.355175
vt 0.277596 0.531457
vt 0.277091 0.531868
vt 0.953018 0.348033
vt 0.277091 0.530534
vt 0.951684 0.348033
vt 0.872458 0.356312
vt 0.277596 0.530320
vt 0.893869 0.305082
vt 0.871951 0.356312
vt 0.899634 0.305111
vt 0.872021 0.352835
vt 0.283361 0.530349
vt 0.872528 0.352835
vt 0.955562 0.348033
vt 0.283881 0.530534
vt 0.892851 0.322776
vt 0.695967 0.788418
vt 0.886066 0.322776
vt 0.692088 0.788418
vt 0.277091 0.529825
vt 0.950975 0.348033
vt 0.872458 0.356916
vt 0.277596 0.529716
vt 0.893869 0.304478
vt 0.871951 0.356916
vt 0.899634 0.304503
vt 0.872021 0.352226
vt 0.283361 0.529741
vt 0.872528 0.352226
vt 0.956270 0.348033
vt 0.283881 0.529825
vt 0.892851 0.323485
vt 0.696675 0.788418
vt 0.886066 0.323485
vt 0.691380 0.788418
vt 0.277091 0.528443
vt 0.949594 0.348033
vt 0.872458 0.358093
vt 0.277596 0.528539
vt 0.893869 0.303301
vt 0.871951 0.358093
vt 0.899634 0.303318
vt 0.872021 0.351041
vt 0.283361 0.528556
vt 0.872528 0.351041
vt 0.957652 0.348033
vt 0.283881 0.528443
vt 0.892851 0.324866
vt 0.698057 0.788418
vt 0.886066 0.324866
vt 0.689998 0.788418
vt 0.277091 0.527656
vt 0.948806 0.348033
vt 0.872458 0.358765
vt 0.277596 0.527868
vt 0.893869 0.302630
vt 0.871951 0.358765
vt 0.899634 0.302642
vt 0.872021 0.350365
vt 0.283361 0.527879
vt 0.872528 0.350365
vt 0.958440 0.348033
vt 0.283881 0.527656
vt 0.892851 0.325654
vt 0.698845 0.788418
vt 0.886066 0.325654
vt 0.689211 0.788418
vt 0.277091 0.526299
vt 0.947449 0.348033
vt 0.872458 0.359921
vt 0.277596 0.526712
vt 0.871951 0.359921
vt 0.893869 0.301474
vt 0.899634 0.301477
vt 0.872021 0.349201
vt 0.283361 0.526715
vt 0.872528 0.349201
vt 0.959796 0.348033
vt 0.283881 0.526299
vt 0.892851 0.327011
vt 0.700201 0.788418
vt 0.886066 0.327011
vt 0.687854 0.788418
vt 0.673656 0.783524
vt 0.700818 0.783524
vt 0.933251 0.358526
vt 0.960413 0.358526
vt 0.700201 0.783524
vt 0.959796 0.358526
vt 0.698845 0.783524
vt 0.958440 0.358526
vt 0.698057 0.783524
vt 0.957652 0.358526
vt 0.696675 0.783524
vt 0.956270 0.358526
vt 0.695967 0.783524
vt 0.955562 0.358526
vt 0.694632 0.783524
vt 0.954227 0.358526
vt 0.946832 0.358526
vt 0.694028 0.783524
vt 0.687237 0.783524
vt 0.953623 0.358526
vt 0.960413 0.348930
vt 0.933251 0.348930
vt 0.959796 0.348930
vt 0.958440 0.348930
vt 0.957652 0.348930
vt 0.956270 0.348930
vt 0.955562 0.348930
vt 0.954227 0.348930
vt 0.953623 0.348930
vt 0.946832 0.348930
vt 0.632758 0.591154
vt 0.641272 0.592323
vt 0.637452 0.594782
vt 0.632758 0.592479
vt 0.625068 0.600780
vt 0.637452 0.593457
vt 0.625068 0.602102
vt 0.646566 0.591044
vt 0.636130 0.593457
vt 0.646566 0.592369
vt 0.641272 0.591001
vt 0.636130 0.594782
vt 0.929424 0.683893
vt 0.725492 0.469289
vt 0.929424 0.682089
vt 0.725492 0.466824
vt 0.927627 0.682089
vt 0.723035 0.466824
vt 0.927627 0.683893
vt 0.723035 0.469289
vt 0.637362 0.594692
vt 0.929850 0.684319
vt 0.637362 0.593547
vt 0.929850 0.681664
vt 0.636220 0.593547
vt 0.927201 0.681664
vt 0.636220 0.594692
vt 0.927201 0.684319
vt 0.725492 0.469289
vt 0.725492 0.466824
vt 0.723035 0.466824
vt 0.723035 0.469289
vt 0.940314 0.678184
vt 0.940314 0.711682
vt 0.931940 0.703308
vt 0.948689 0.678184
vt 0.948689 0.711682
vt 0.957063 0.703308
vt 0.940314 0.686559
vt 0.931940 0.694933
vt 0.948689 0.686559
vt 0.957063 0.694933
vt 0.940314 0.703308
vt 0.948689 0.703308
vt 0.940314 0.694933
vt 0.948689 0.694933
vt 0.584736 0.592256
vt 0.584736 0.605054
vt 0.581537 0.601854
vt 0.587936 0.592256
vt 0.587936 0.605054
vt 0.591135 0.601854
vt 0.584736 0.595455
vt 0.581537 0.598655
vt 0.587936 0.595455
vt 0.591135 0.598655
vt 0.584736 0.601854
vt 0.587936 0.601854
vt 0.584736 0.598655
vt 0.587936 0.598655
vt 0.591169 0.590236
vt 0.591169 0.610773
vt 0.586034 0.605639
vt 0.596303 0.590236
vt 0.596303 0.610773
vt 0.601437 0.605639
vt 0.591169 0.595370
vt 0.586034 0.600505
vt 0.596303 0.595370
vt 0.601437 0.600505
vt 0.591169 0.605639
vt 0.596303 0.605639
vt 0.591169 0.600505
vt 0.596303 0.600505
vt 0.808419 0.678035
vt 0.808419 0.714690
vt 0.799256 0.705526
vt 0.817583 0.678035
vt 0.817583 0.714690
vt 0.826747 0.705526
vt 0.808419 0.687199
vt 0.799256 0.696363
vt 0.817583 0.687199
vt 0.826747 0.696363
vt 0.808419 0.705526
vt 0.817583 0.705526
vt 0.808419 0.696363
vt 0.817583 0.696363
vt 0.461112 0.701868
vt 0.461112 0.731726
vt 0.453647 0.724261
vt 0.468576 0.701868
vt 0.468576 0.731726
vt 0.476040 0.724261
vt 0.461112 0.709332
vt 0.453647 0.716797
vt 0.468576 0.709332
vt 0.476040 0.716797
vt 0.461112 0.724261
vt 0.468576 0.724261
vt 0.461112 0.716797
vt 0.468576 0.716797
s 1
f 30/78/1 124/296/1 116/283/1 29/73/1
f 63/175/2 123/294/2 124/295/2 4/10/2
f 109/267/3 32/81/3 5/13/3 7/19/3
f 10/29/4 11/32/4 6/16/4 8/23/4
f 9/25/4 64/177/4 63/176/4 4/11/4
f 15/43/2 103/255/2 102/253/2 11/31/2
f 11/32/4 102/254/4 101/251/4 6/16/4
f 12/36/4 9/25/4 4/11/4 2/5/4
f 66/181/4 65/179/4 13/37/4 16/46/4
f 13/38/5 65/180/5 64/178/5 9/26/5
f 12/34/6 16/47/6 13/39/6 9/27/6
f 10/28/1 14/40/1 15/44/1 11/33/1
f 20/58/5 19/55/5 18/52/5 17/49/5
f 58/165/7 18/53/7 19/56/7 57/163/7
f 59/167/8 20/59/8 17/50/8 60/169/8
f 57/164/3 19/57/3 20/60/3 59/168/3
f 60/170/1 17/51/1 18/54/1 58/166/1
f 125/297/1 126/300/1 23/64/1 21/61/1
f 126/301/2 127/303/2 27/70/2 23/65/2
f 127/304/3 128/306/3 25/67/3 27/71/3
f 128/307/5 125/298/5 21/62/5 25/68/5
f 22/63/9 26/69/10 136/323/10 133/317/9
f 42/119/5 30/77/5 29/74/5 41/113/5
f 30/77/5 42/119/5 68/186/5 2/4/5
f 35/92/1 36/96/1 52/148/1 51/145/1
f 35/93/5 37/99/5 38/105/5 36/98/5
f 55/157/4 54/154/4 37/100/4 43/120/4
f 34/91/5 39/108/5 40/109/5 33/85/5
f 41/114/3 47/133/3 45/127/3 42/117/3
f 31/79/5 44/126/5 43/121/5 32/82/5
f 47/134/5 48/136/5 46/130/5 45/128/5
f 47/135/4 41/115/4 40/110/4 48/137/4
f 46/131/1 48/138/1 40/111/1 39/106/1
f 45/129/11 46/132/11 39/107/11 42/118/11
f 51/146/5 52/149/5 50/142/5 49/139/5
f 49/140/4 33/86/4 35/94/4 51/147/4
f 34/89/11 50/143/11 52/150/11 36/97/11
f 50/144/3 34/90/3 33/87/3 49/141/3
f 55/158/5 56/160/5 53/151/5 54/155/5
f 53/152/11 56/161/11 44/124/11 38/103/11
f 37/101/3 54/156/3 53/153/3 38/104/3
f 44/125/1 56/162/1 55/159/1 43/122/1
f 108/265/11 107/263/11 7/20/11 5/14/11
f 61/172/5 41/116/5 29/75/5 1/1/5
f 74/197/2 122/293/2 123/294/2 63/175/2
f 64/177/4 73/195/4 74/198/4 63/176/4
f 16/48/2 12/35/2 67/183/2 66/182/2
f 12/36/4 2/5/4 68/185/4 67/184/4
f 71/191/4 72/193/4 65/179/4 66/181/4
f 72/194/5 73/196/5 64/178/5 65/180/5
f 1/2/11 3/7/11 62/173/11 61/171/11
f 66/182/2 67/183/2 70/189/2 71/192/2
f 67/184/4 68/185/4 69/187/4 70/190/4
f 61/171/11 62/173/11 75/199/11 76/201/11
f 82/213/2 121/292/2 122/293/2 74/197/2
f 73/195/4 81/211/4 82/214/4 74/198/4
f 79/207/4 80/209/4 72/193/4 71/191/4
f 80/210/5 81/212/5 73/196/5 72/194/5
f 71/192/2 70/189/2 78/205/2 79/208/2
f 70/190/4 69/187/4 77/203/4 78/206/4
f 76/201/11 75/199/11 83/215/11 84/217/11
f 90/229/2 120/291/2 121/292/2 82/213/2
f 89/227/4 90/230/4 82/214/4 81/211/4
f 87/223/4 88/225/4 80/209/4 79/207/4
f 88/226/5 89/228/5 81/212/5 80/210/5
f 79/208/2 78/205/2 86/221/2 87/224/2
f 78/206/4 77/203/4 85/219/4 86/222/4
f 84/217/11 83/215/11 91/231/11 92/233/11
f 98/245/2 119/290/2 120/291/2 90/229/2
f 97/243/4 98/246/4 90/230/4 89/227/4
f 95/239/4 96/241/4 88/225/4 87/223/4
f 96/242/5 97/244/5 89/228/5 88/226/5
f 87/224/2 86/221/2 94/237/2 95/240/2
f 94/238/4 86/222/4 85/219/4 93/235/4
f 92/233/11 91/231/11 99/247/11 100/249/11
f 106/261/2 118/289/2 119/290/2 98/245/2
f 105/259/4 106/262/4 98/246/4 97/243/4
f 103/256/4 104/257/4 96/241/4 95/239/4
f 104/258/5 105/260/5 97/244/5 96/242/5
f 95/240/2 94/237/2 102/253/2 103/255/2
f 102/254/4 94/238/4 93/235/4 101/251/4
f 100/249/11 99/247/11 107/263/11 108/265/11
f 8/22/2 117/287/2 118/289/2 106/261/2
f 10/29/4 8/23/4 106/262/4 105/259/4
f 15/45/4 14/41/4 104/257/4 103/256/4
f 14/42/5 10/30/5 105/260/5 104/258/5
f 31/79/5 6/17/5 101/252/5 44/126/5
f 38/105/5 44/126/5 101/252/5 93/236/5
f 36/98/5 38/105/5 93/236/5 85/220/5
f 34/91/5 36/98/5 85/220/5 77/204/5
f 34/91/5 77/204/5 69/188/5 39/108/5
f 39/108/5 69/188/5 68/186/5 42/119/5
f 76/202/5 40/112/5 41/116/5 61/172/5
f 84/218/5 33/88/5 40/112/5 76/202/5
f 92/234/5 35/95/5 33/88/5 84/218/5
f 100/250/5 37/102/5 35/95/5 92/234/5
f 100/250/5 108/266/5 43/123/5 37/102/5
f 108/266/5 5/15/5 32/83/5 43/123/5
f 62/174/2 3/8/2 116/284/2 115/281/2
f 75/200/2 62/174/2 115/281/2 114/279/2
f 83/216/2 75/200/2 114/279/2 113/277/2
f 91/232/2 83/216/2 113/277/2 112/275/2
f 99/248/2 91/232/2 112/275/2 111/273/2
f 107/264/2 99/248/2 111/273/2 110/271/2
f 7/21/2 107/264/2 110/271/2 109/268/2
f 117/288/3 31/80/3 32/84/3 109/269/3
f 116/285/1 3/9/1 1/3/1 29/76/1
f 115/282/2 116/286/2 124/295/2 123/294/2
f 114/280/2 115/282/2 123/294/2 122/293/2
f 113/278/2 114/280/2 122/293/2 121/292/2
f 112/276/2 113/278/2 121/292/2 120/291/2
f 111/274/2 112/276/2 120/291/2 119/290/2
f 110/272/2 111/274/2 119/290/2 118/289/2
f 109/270/2 110/272/2 118/289/2 117/287/2
f 30/78/1 2/6/1 4/12/1 124/296/1
f 8/24/3 6/18/3 31/80/3 117/288/3
f 22/63/12 24/66/13 126/302/13 125/299/12
f 24/66/13 28/72/14 127/305/14 126/302/13
f 28/72/14 26/69/15 128/308/15 127/305/14
f 26/69/15 22/63/12 125/299/12 128/308/15
f 129/310/9 132/316/10 140/328/10 137/325/9
f 28/72/16 24/66/17 134/319/17 135/321/16
f 26/69/10 28/72/16 135/321/16 136/323/10
f 24/66/17 22/63/9 133/317/9 134/319/17
f 129/309/18 130/311/19 134/320/20 133/318/21
f 130/311/19 131/313/22 135/322/23 134/320/20
f 131/313/22 132/315/24 136/324/25 135/322/23
f 132/315/24 129/309/18 133/318/21 136/324/25
f 138/326/4 137/325/4 140/328/4 139/327/4
f 131/314/16 130/312/17 138/326/17 139/327/16
f 132/316/10 131/314/16 139/327/16 140/328/10
f 130/312/17 129/310/9 137/325/9 138/326/17
s 0
f 141/329/26 142/332/26 144/337/26 143/335/26
f 143/335/2 144/337/2 148/342/2 147/341/2
f 147/341/27 148/342/27 146/340/27 145/339/27
f 145/339/5 146/340/5 142/333/5 141/330/5
f 143/336/28 147/341/28 145/339/28 141/331/28
f 148/342/29 144/338/29 142/334/29 146/340/29
f 149/343/26 150/346/26 152/351/26 151/349/26
f 151/349/2 152/351/2 156/356/2 155/355/2
f 155/355/27 156/356/27 154/354/27 153/353/27
f 153/353/5 154/354/5 150/347/5 149/344/5
f 151/350/30 155/355/30 153/353/30 149/345/30
f 156/356/31 152/352/31 150/348/31 154/354/31
f 157/357/1 158/360/1 160/365/1 159/363/1
f 159/363/32 160/365/32 164/370/32 163/369/32
f 163/369/3 164/370/3 162/368/3 161/367/3
f 161/367/33 162/368/33 158/361/33 157/358/33
f 159/364/34 163/369/34 161/367/34 157/359/34
f 164/370/35 160/366/35 158/362/35 162/368/35
f 165/371/26 166/374/26 168/379/26 167/377/26
f 167/377/2 168/379/2 172/384/2 171/383/2
f 171/383/27 172/384/27 170/382/27 169/381/27
f 169/381/5 170/382/5 166/375/5 165/372/5
f 167/378/36 171/383/36 169/381/36 165/373/36
f 172/384/37 168/380/37 166/376/37 170/382/37
f 173/385/1 174/388/1 176/393/1 175/391/1
f 175/391/32 176/393/32 180/398/32 179/397/32
f 179/397/3 180/398/3 178/396/3 177/395/3
f 177/395/33 178/396/33 174/389/33 173/386/33
f 175/392/34 179/397/34 177/395/34 173/387/34
f 180/398/35 176/394/35 174/390/35 178/396/35
