# Blender 3.5.1
# www.blender.org
mtllib droga_chodnik.mtl
o droga_chodnik
v 2.037244 0.000000 -2.037244
v -2.037244 0.000000 -2.037244
v 2.037244 -0.000000 2.037244
v -2.037244 -0.000000 2.037244
v 2.037244 0.237624 2.037244
v 2.037244 0.237624 -2.037244
v -2.037244 0.237624 -2.037244
v -2.037244 0.237624 2.037244
vn -0.0000 1.0000 -0.0000
vn 1.0000 -0.0000 -0.0000
vn -0.0000 -0.0000 -1.0000
vn -1.0000 -0.0000 -0.0000
vn -0.0000 -0.0000 1.0000
vt 0.172199 0.169036
vt 0.165364 0.129968
vt 0.165364 0.169036
vt 0.167642 0.129968
vt 0.172199 0.129968
vt 0.169921 0.169036
vt 0.167642 0.169036
vt 0.169921 0.129968
vt 0.163085 0.129968
vt 0.169921 0.129968
vt 0.167642 0.169036
vt 0.163085 0.169036
vt 0.169921 0.169036
vt 0.163085 0.129968
vt 0.124017 0.169036
vt 0.163085 0.169036
vt 0.165364 0.129968
vt 0.124017 0.129968
vt 0.165364 0.169036
vt 0.167642 0.129968
s 1
usemtl default
f 6/12/1 7/15/1 8/18/1 5/9/1
s 0
f 3/5/2 1/1/2 6/13/2 5/10/2
f 1/2/3 2/3/3 7/16/3 6/14/3
f 2/4/4 4/7/4 8/19/4 7/17/4
f 4/8/5 3/6/5 5/11/5 8/20/5
