# Blender 3.5.1
# www.blender.org
o curve
v 2.000000 0.000000 2.000000
v 2.000000 0.000000 -2.000000
v -2.000000 0.000000 2.000000
v -2.000000 0.000000 -2.000000
v 2.000000 0.237618 2.000000
v 2.000000 0.237618 -2.000000
v -2.000000 0.237618 -2.000000
v 2.000000 0.000000 0.468750
v -2.000000 0.000000 0.468750
v 2.000000 0.237618 0.468750
v -2.000000 0.237618 0.468750
v -0.455958 0.000000 2.000000
v -0.455959 0.000000 -2.000000
v -0.455958 0.237618 2.000000
v -0.455959 0.237618 -2.000000
v -1.202606 0.237618 0.468750
v -0.455958 0.237618 1.215398
v 0.290689 0.237618 0.468750
v -0.455959 0.237618 -0.277898
v -1.009360 0.237618 0.494191
v -0.829283 0.237618 0.568782
v -0.674647 0.237618 0.687438
v -0.555990 0.237618 0.842074
v -0.481400 0.237618 1.022151
v -0.455958 0.000000 1.215398
v -1.202606 0.000000 0.468750
v -0.481400 0.000000 1.022151
v -0.555990 0.000000 0.842074
v -0.674647 0.000000 0.687438
v -0.829283 0.000000 0.568782
v -1.009360 0.000000 0.494191
vn -0.0000 1.0000 -0.0000
vn 1.0000 -0.0000 -0.0000
vn -0.0000 -0.0000 -1.0000
vn -0.0000 -0.0000 1.0000
vn -1.0000 -0.0000 -0.0000
vn -0.9979 -0.0000 0.0654
vn -0.0654 -0.0000 0.9979
vn -0.2588 -0.0000 0.9659
vn -0.5000 -0.0000 0.8660
vn -0.7071 -0.0000 0.7071
vn -0.8660 -0.0000 0.5000
vn -0.9659 -0.0000 0.2588
vt 0.096014 0.119452
vt 0.126642 0.119452
vt 0.357378 0.918465
vt 0.126642 0.150080
vt 0.096014 0.119452
vt 0.126642 0.119452
vt 0.126642 0.150080
vt 0.107739 0.119452
vt 0.380903 0.918465
vt 0.107739 0.150080
vt 0.096014 0.119452
vt 0.107739 0.119452
vt 0.107739 0.150080
vt 0.096014 0.119452
vt 0.357378 0.894744
vt 0.096014 0.138257
vt 0.096014 0.119452
vt 0.126642 0.138257
vt 0.096014 0.119452
vt 0.096014 0.138257
vt 0.126642 0.138257
vt 0.107739 0.143974
vt 0.107739 0.138257
vt 0.096014 0.119452
vt 0.102022 0.138257
vt 0.096014 0.119452
vt 0.107739 0.132540
vt 0.113456 0.138257
vt 0.107739 0.138257
vt 0.107544 0.142494
vt 0.096014 0.119452
vt 0.106973 0.141115
vt 0.096014 0.119452
vt 0.106064 0.138257
vt 0.096014 0.119452
vt 0.104880 0.138257
vt 0.096014 0.119452
vt 0.103501 0.138257
vt 0.096014 0.119452
vt 0.369432 0.894744
vt 0.096014 0.119452
vt 0.380903 0.906214
vt 0.096014 0.119452
vt 0.372401 0.895135
vt 0.096014 0.119452
vt 0.375167 0.896281
vt 0.096014 0.119452
vt 0.377543 0.898103
vt 0.096014 0.119452
vt 0.379366 0.900479
vt 0.096014 0.119452
vt 0.380512 0.903246
vt 0.096014 0.119452
s 1
f 12/15/1 25/40/1 27/44/1 28/46/1 29/48/1 30/50/1 31/52/1 26/42/1 9/9/1 3/3/1
f 10/12/1 6/6/1 15/21/1 19/28/1 18/27/1
f 8/8/2 2/2/2 6/6/2 10/12/2
f 13/18/3 4/4/3 7/7/3 15/21/3
f 12/16/4 1/1/4 5/5/4 14/20/4
f 1/1/2 8/8/2 10/12/2 5/5/2
f 4/4/5 9/10/5 11/13/5 7/7/5
f 16/22/1 19/28/1 15/21/1 7/7/1 11/13/1
f 17/26/6 25/41/6 12/17/5 14/19/5
f 2/2/3 13/18/3 15/21/3 6/6/3
f 5/5/1 10/12/1 18/27/1 17/25/1 14/20/1
f 16/23/1 20/30/1 21/32/1 22/34/1 23/36/1 24/38/1 17/25/1 18/27/1 19/29/1
f 16/24/7 26/43/7 31/53/8 20/31/8
f 20/31/8 31/53/8 30/51/9 21/33/9
f 21/33/9 30/51/9 29/49/10 22/35/10
f 22/35/10 29/49/10 28/47/11 23/37/11
f 23/37/11 28/47/11 27/45/12 24/39/12
f 24/39/12 27/45/12 25/41/6 17/26/6
f 9/11/4 26/43/7 16/24/7 11/14/4
