# Blender 3.5.1
# www.blender.org
o Plane
v 8.114536 -4.636088 59.184845
v -23.950100 -6.142507 57.024284
v -55.901020 -6.741820 41.114876
v 93.511818 -4.221535 34.700874
v 75.352951 -4.128846 58.063744
v 85.207306 -4.224855 43.561455
v 48.215691 -5.420458 -77.229515
v 90.074547 -5.420462 -29.601095
v 64.762383 -5.420459 -67.501732
v -80.530441 -7.050244 -4.335925
v -69.584602 -6.871537 29.862284
v -78.609482 -7.095065 15.706720
v -87.454681 -5.092517 -22.416412
v -37.214542 -5.420459 -61.038399
v -81.404861 -5.420460 -56.695938
v 20.390652 -5.420458 -78.962517
v -0.745055 -5.420459 -68.348747
v -15.465609 -5.420458 -67.224892
v -21.424934 -0.556076 40.945347
v -1.058664 -0.556076 40.662300
v -40.542969 -0.556076 31.874100
v -53.024380 -0.556075 23.176989
v 60.620186 -0.556075 44.334019
v 66.329887 -0.556076 32.495594
v 71.360771 -0.556076 27.127855
v 67.528908 -0.556076 -26.742624
v 44.564430 -0.556076 -59.581886
v 34.134960 -0.556076 -65.713348
v -19.479248 -0.556075 -53.294998
v -29.551247 -0.556076 -49.063965
v -66.015785 -0.556076 -47.892483
v -69.814751 -0.556076 -19.713383
v -62.870586 -0.556076 -5.186265
v -61.954445 -0.556075 9.004294
v 18.023037 -0.556076 -65.620644
v -5.350607 -0.556076 -52.145058
v -23.871609 -2.289810 45.037483
v 0.494273 -0.763940 46.788269
v -48.147713 -2.789133 33.268738
v -60.977268 -2.904081 24.209177
v 63.115700 -0.257579 49.985901
v 71.155975 -0.354350 35.990433
v 77.679756 -0.351742 29.029810
v 73.816124 -1.543778 -27.277201
v 49.915466 -1.543776 -62.046795
v 36.754383 -1.543775 -69.784157
v -18.762003 -1.543776 -59.127331
v -33.923225 -1.543776 -52.909134
v -71.416733 -1.543777 -50.609840
v -75.850555 -1.215834 -20.497341
v -68.561081 -3.039130 -5.912935
v -68.173874 -3.103320 11.263759
v 17.859974 -1.543775 -69.663391
v -4.984586 -1.543776 -57.138546
v 5.911288 -2.854900 52.406792
v -23.913994 -4.370267 51.510353
v -52.334507 -4.923584 37.505653
v -65.625221 -5.046508 27.261858
v 69.723824 -2.348063 54.347931
v 78.743698 -2.444422 40.078781
v 86.229065 -2.441430 32.092186
v 82.595673 -3.637187 -28.532103
v 57.932804 -3.637184 -64.992462
v 42.943493 -3.637184 -73.804649
v -35.700539 -3.637184 -57.298943
v -16.981949 -3.637184 -63.500019
v -76.810333 -3.637185 -53.896332
v -82.116791 -3.309242 -21.533638
v -75.024521 -5.205132 -5.061345
v -73.809113 -5.258863 13.662957
v 18.618483 -3.637184 -74.504601
v -1.613320 -3.637185 -64.282364
v 94.352356 -5.420463 11.132235
v 71.542076 -0.556076 9.147913
v 86.898293 -3.637188 10.632130
v 78.147858 -1.543779 10.045052
v 100.985672 -5.420462 -8.527886
v 78.156952 -0.556076 -7.718585
v 93.517242 -3.637187 -8.120696
v 84.749985 -1.543779 -7.642690
v 72.557373 -5.420460 -48.491028
v 54.591400 -0.556076 -43.218163
v 60.325954 -1.543777 -44.601616
v 65.403152 -3.637186 -46.701897
v 51.061577 -3.849371 66.693123
v 37.196701 -0.556076 51.768673
v 45.956959 -2.068379 62.424007
v 39.964581 0.022351 57.412426
v 27.766689 -4.287395 67.198914
v 18.316607 -0.556076 50.960838
v 22.934956 -2.506293 62.641937
v 18.835482 -0.415435 56.768242
v -61.609631 -5.420459 -61.285362
v -48.232723 -0.556076 -51.054138
v -58.507183 -3.637185 -58.030533
v -54.865154 -1.543776 -54.209641
vn -0.0000 1.0000 -0.0000
vn -0.0609 0.9560 0.2871
vn -0.1680 0.9381 0.3029
vn -0.2268 0.9347 0.2736
vn -0.2237 0.8815 0.4159
vn 0.2081 0.9694 0.1300
vn 0.1774 0.9699 0.1666
vn 0.2434 0.9689 -0.0434
vn 0.1983 0.9624 -0.1857
vn 0.1532 0.9532 -0.2605
vn -0.1308 0.8945 -0.4275
vn 0.0095 0.8883 -0.4592
vn -0.3164 0.9465 -0.0632
vn -0.3118 0.9220 0.2293
vn -0.3293 0.9438 0.0290
vn -0.3009 0.9380 0.1719
vn 0.0186 0.9171 -0.3983
vn -0.2183 0.8743 -0.4334
vn -0.0268 0.9058 -0.4228
vn -0.0395 0.9823 0.1832
vn -0.1760 0.9222 0.3443
vn -0.2232 0.9234 0.3122
vn -0.0135 0.9999 0.0080
vn -0.0382 0.9990 -0.0241
vn -0.0251 0.9994 -0.0233
vn 0.0672 0.9973 -0.0310
vn 0.1436 0.9832 -0.1123
vn 0.1014 0.9798 -0.1725
vn -0.0718 0.9822 -0.1734
vn 0.0256 0.9509 -0.3086
vn -0.1351 0.9905 -0.0247
vn -0.2772 0.9409 0.1945
vn -0.3871 0.9219 0.0180
vn -0.2878 0.9435 0.1642
vn -0.0014 0.9715 -0.2370
vn -0.1207 0.9692 -0.2146
vn 0.0200 0.9839 -0.1775
vn 0.0139 0.9417 -0.3361
vn -0.2031 0.9005 -0.3845
vn 0.0057 0.9059 -0.4235
vn -0.3058 0.9381 0.1627
vn -0.3320 0.9431 0.0179
vn -0.3103 0.9163 0.2534
vn -0.3178 0.9463 -0.0595
vn 0.0216 0.8848 -0.4655
vn -0.1561 0.8912 -0.4259
vn 0.2372 0.9496 -0.2051
vn 0.2447 0.9683 -0.0503
vn 0.2129 0.9694 0.1219
vn -0.3308 0.7651 0.5524
vn -0.2181 0.9338 0.2836
vn -0.1671 0.9382 0.3032
vn -0.0696 0.9331 0.3528
vn 0.2311 0.9693 0.0839
vn 0.1438 0.9881 0.0550
vn 0.2312 0.9696 0.0798
vn 0.2197 0.9687 -0.1156
vn 0.1482 0.9855 -0.0827
vn 0.2192 0.9683 -0.1196
vn 0.2568 0.9579 -0.1285
vn 0.1452 0.9855 -0.0877
vn 0.2201 0.9713 -0.0901
vn 0.1051 0.9531 0.2838
vn -0.0163 0.9974 -0.0698
vn 0.1084 0.9539 0.2798
vn -0.0220 0.9263 0.3762
vn -0.0087 0.9981 -0.0602
vn -0.0114 0.9227 0.3853
vn -0.0922 0.9048 -0.4157
vn -0.0458 0.9714 -0.2328
vn -0.0946 0.9057 -0.4132
vt 0.087534 0.830832
vt 0.087534 0.853516
vt 0.087534 0.876199
vt 0.106977 0.788706
vt 0.087534 0.808149
vt 0.093228 0.794400
vt 0.217154 0.808149
vt 0.197711 0.788706
vt 0.211459 0.794400
vt 0.106977 0.918326
vt 0.087534 0.898883
vt 0.093228 0.912631
vt 0.197711 0.918326
vt 0.217154 0.898883
vt 0.211459 0.912631
vt 0.217154 0.830832
vt 0.217154 0.853516
vt 0.217154 0.876199
vt 0.519451 0.627410
vt 0.079481 0.152072
vt 0.520314 0.595808
vt 0.080008 0.132763
vt 0.520545 0.660769
vt 0.080150 0.172454
vt 0.528323 0.689610
vt 0.084902 0.190076
vt 0.533159 0.563593
vt 0.087857 0.113081
vt 0.535713 0.539611
vt 0.089417 0.098428
vt 0.551452 0.533025
vt 0.099033 0.094404
vt 0.692216 0.533210
vt 0.185038 0.094517
vt 0.714067 0.542302
vt 0.198389 0.100072
vt 0.722055 0.558845
vt 0.203270 0.110180
vt 0.723713 0.669347
vt 0.204283 0.177695
vt 0.723171 0.695314
vt 0.203952 0.193561
vt 0.715440 0.717220
vt 0.199228 0.206945
vt 0.686888 0.724029
vt 0.181783 0.211105
vt 0.558250 0.724221
vt 0.103187 0.211223
vt 0.532656 0.714106
vt 0.087549 0.205042
vt 0.721924 0.584674
vt 0.203190 0.125961
vt 0.699962 0.625302
vt 0.189772 0.150784
vt 0.078404 0.152233
vt 0.078571 0.130810
vt 0.078635 0.174124
vt 0.080778 0.194611
vt 0.082142 0.109409
vt 0.085662 0.095215
vt 0.097912 0.090185
vt 0.186776 0.090221
vt 0.200407 0.095883
vt 0.205815 0.108212
vt 0.206358 0.176107
vt 0.206067 0.196049
vt 0.200798 0.209761
vt 0.185412 0.214814
vt 0.099658 0.214887
vt 0.084927 0.208989
vt 0.205908 0.128238
vt 0.198841 0.151296
vt 0.087903 0.831361
vt 0.078137 0.130189
vt 0.087826 0.853464
vt 0.078061 0.152293
vt 0.087932 0.875784
vt 0.078167 0.174612
vt 0.088918 0.897457
vt 0.079153 0.196285
vt 0.079780 0.108096
vt 0.089546 0.809268
vt 0.094240 0.795314
vt 0.084474 0.094142
vt 0.107299 0.789925
vt 0.097533 0.088753
vt 0.197173 0.789942
vt 0.187407 0.088770
vt 0.201102 0.094449
vt 0.210867 0.795621
vt 0.216430 0.808717
vt 0.206665 0.107545
vt 0.216546 0.898118
vt 0.206780 0.196946
vt 0.216680 0.876696
vt 0.206914 0.175524
vt 0.201281 0.210678
vt 0.211047 0.911850
vt 0.196546 0.917249
vt 0.186780 0.216078
vt 0.108102 0.917283
vt 0.098337 0.216111
vt 0.093902 0.911495
vt 0.084136 0.210323
vt 0.216473 0.830178
vt 0.206707 0.129006
vt 0.213222 0.853034
vt 0.203457 0.151862
vt 0.153600 0.788706
vt 0.623782 0.533120
vt 0.143226 0.094462
vt 0.143714 0.088762
vt 0.153480 0.789934
vt 0.143574 0.090203
vt 0.179106 0.788706
vt 0.663353 0.533172
vt 0.167403 0.094494
vt 0.178745 0.789939
vt 0.168979 0.088767
vt 0.168555 0.090214
vt 0.204585 0.791553
vt 0.703141 0.537756
vt 0.191713 0.097294
vt 0.193592 0.093052
vt 0.194255 0.091610
vt 0.204020 0.792781
vt 0.087534 0.819875
vt 0.526519 0.580246
vt 0.083799 0.123256
vt 0.078931 0.119517
vt 0.088697 0.820689
vt 0.080296 0.120472
vt 0.087534 0.825976
vt 0.523064 0.588911
vt 0.081688 0.128549
vt 0.078489 0.125459
vt 0.088255 0.826631
vt 0.079336 0.126228
vt 0.214217 0.905972
vt 0.719185 0.706610
vt 0.201516 0.200462
vt 0.203944 0.204027
vt 0.213710 0.905199
vt 0.203350 0.203120
s 0
f 23/27/1 24/29/1 25/31/1 74/110/1 78/116/1 26/33/1 82/122/1 27/35/1 28/37/1 35/51/1 36/53/1 29/39/1 30/41/1 94/140/1 31/43/1 32/45/1 33/47/1 34/49/1 22/25/1 21/23/1 19/19/1 20/21/1 90/134/1 86/128/1
f 55/73/2 56/75/2 2/2/2 1/1/2
f 56/75/3 57/77/3 3/3/3 2/2/3
f 57/77/4 58/79/4 11/11/4 3/3/4
f 91/137/5 55/73/5 1/1/5 89/133/5
f 60/83/6 59/82/6 5/5/6 6/6/6
f 61/85/7 60/83/7 6/6/7 4/4/7
f 75/113/8 61/85/8 4/4/8 73/109/8
f 84/126/9 62/87/9 8/8/9 81/121/9
f 64/91/10 63/90/10 9/9/10 7/7/10
f 65/93/11 66/95/11 18/18/11 14/14/11
f 95/143/12 65/93/12 14/14/12 93/139/12
f 68/99/13 67/98/13 15/15/13 13/13/13
f 69/101/14 68/99/14 13/13/14 10/10/14
f 70/103/15 69/101/15 10/10/15 12/12/15
f 58/79/16 70/103/16 12/12/16 11/11/16
f 71/105/17 64/91/17 7/7/17 16/16/17
f 72/107/18 71/105/18 16/16/18 17/17/18
f 66/95/19 72/107/19 17/17/19 18/18/19
f 20/22/20 19/20/20 37/55/20 38/56/20
f 19/20/21 21/24/21 39/57/21 37/55/21
f 21/24/22 22/26/22 40/58/22 39/57/22
f 90/135/23 20/22/23 38/56/23 92/138/23
f 24/30/24 23/28/24 41/59/24 42/60/24
f 25/32/25 24/30/25 42/60/25 43/61/25
f 74/111/26 25/32/26 43/61/26 76/114/26
f 82/123/27 26/34/27 44/62/27 83/124/27
f 28/38/28 27/36/28 45/63/28 46/64/28
f 30/42/29 29/40/29 47/65/29 48/66/29
f 94/141/30 30/42/30 48/66/30 96/144/30
f 32/46/31 31/44/31 49/67/31 50/68/31
f 33/48/32 32/46/32 50/68/32 51/69/32
f 34/50/33 33/48/33 51/69/33 52/70/33
f 22/26/34 34/50/34 52/70/34 40/58/34
f 35/52/35 28/38/35 46/64/35 53/71/35
f 36/54/36 35/52/36 53/71/36 54/72/36
f 29/40/37 36/54/37 54/72/37 47/65/37
f 47/65/38 54/72/38 72/108/38 66/96/38
f 54/72/39 53/71/39 71/106/39 72/108/39
f 53/71/40 46/64/40 64/92/40 71/106/40
f 40/58/41 52/70/41 70/104/41 58/80/41
f 52/70/42 51/69/42 69/102/42 70/104/42
f 51/69/43 50/68/43 68/100/43 69/102/43
f 50/68/44 49/67/44 67/97/44 68/100/44
f 96/144/45 48/66/45 65/94/45 95/142/45
f 48/66/46 47/65/46 66/96/46 65/94/46
f 46/64/10 45/63/10 63/89/10 64/92/10
f 83/124/47 44/62/47 62/88/47 84/125/47
f 76/114/48 43/61/48 61/86/48 75/112/48
f 43/61/7 42/60/7 60/84/7 61/86/7
f 42/60/49 41/59/49 59/81/49 60/84/49
f 92/138/50 38/56/50 55/74/50 91/136/50
f 39/57/51 40/58/51 58/80/51 57/78/51
f 37/55/52 39/57/52 57/78/52 56/76/52
f 38/56/53 37/55/53 56/76/53 55/74/53
f 80/120/54 76/114/54 75/112/54 79/119/54
f 78/117/55 74/111/55 76/114/55 80/120/55
f 79/118/56 75/113/56 73/109/56 77/115/56
f 62/87/57 79/118/57 77/115/57 8/8/57
f 26/34/58 78/117/58 80/120/58 44/62/58
f 44/62/59 80/120/59 79/119/59 62/88/59
f 45/63/60 83/124/60 84/125/60 63/89/60
f 27/36/61 82/123/61 83/124/61 45/63/61
f 63/90/62 84/126/62 81/121/62 9/9/62
f 41/59/63 88/132/63 87/130/63 59/81/63
f 23/28/64 86/129/64 88/132/64 41/59/64
f 59/82/65 87/131/65 85/127/65 5/5/65
f 88/132/66 92/138/66 91/136/66 87/130/66
f 86/129/67 90/135/67 92/138/67 88/132/67
f 87/131/68 91/137/68 89/133/68 85/127/68
f 49/67/69 96/144/69 95/142/69 67/97/69
f 31/44/70 94/141/70 96/144/70 49/67/70
f 67/98/71 95/143/71 93/139/71 15/15/71
