# Blender 3.5.1
# www.blender.org
o krzak.004
v 1.195536 -0.000050 -0.657681
v 1.195536 -0.000050 0.651349
v -1.196154 -0.000050 -0.657681
v -1.196154 -0.000050 0.651349
v 1.195536 1.471151 -0.657681
v 1.195536 1.471151 0.651349
v -1.196154 1.471151 0.651349
v -1.196154 1.471151 -0.657681
vn -0.0000 -1.0000 -0.0000
vn 1.0000 -0.0000 -0.0000
vn -0.0000 1.0000 -0.0000
vn -0.0000 -0.0000 -1.0000
vn -0.0000 -0.0000 1.0000
vn -1.0000 -0.0000 -0.0000
vt 0.700682 0.622373
vt 0.698663 0.621393
vt 0.700682 0.621466
vt 0.697868 0.622328
vt 0.698663 0.622328
vt 0.699887 0.621466
vt 0.697868 0.621393
vt 0.699887 0.622373
vt 0.699887 0.622373
vt 0.639472 0.677165
vt 0.697868 0.621393
vt 0.699887 0.621466
vt 0.640379 0.677165
vt 0.697073 0.622328
vt 0.640379 0.676230
vt 0.697073 0.621393
vt 0.699092 0.622373
vt 0.639472 0.676230
vt 0.697868 0.622328
vt 0.699092 0.621466
s 0
f 1/2/1 2/4/1 4/8/1 3/5/1
f 5/9/2 6/12/2 2/3/2 1/1/2
f 6/13/3 5/10/3 8/18/3 7/15/3
f 8/19/4 5/11/4 1/2/4 3/5/4
f 6/14/5 7/16/5 4/7/5 2/4/5
f 7/17/6 8/20/6 3/6/6 4/8/6
