# Blender 3.5.1
# www.blender.org
o krzak.003
v 0.674313 -0.000034 -0.658914
v 0.674313 -0.000034 0.650116
v -0.673031 -0.000034 -0.658914
v -0.673031 -0.000034 0.650116
v 0.674313 1.471167 -0.658914
v 0.674313 1.471167 0.650116
v -0.673031 1.471167 0.650116
v -0.673031 1.471167 -0.658914
vn -0.0000 -1.0000 -0.0000
vn 1.0000 -0.0000 -0.0000
vn -0.0000 1.0000 -0.0000
vn -0.0000 -0.0000 -1.0000
vn -0.0000 -0.0000 1.0000
vn -1.0000 -0.0000 -0.0000
vt 0.977520 0.661745
vt 0.975501 0.660765
vt 0.977520 0.660838
vt 0.974706 0.661700
vt 0.975501 0.661700
vt 0.976725 0.660838
vt 0.974706 0.660765
vt 0.976725 0.661745
vt 0.976725 0.661745
vt 0.916310 0.716538
vt 0.974706 0.660765
vt 0.976725 0.660838
vt 0.917217 0.716538
vt 0.973911 0.661700
vt 0.917217 0.715603
vt 0.973911 0.660765
vt 0.975930 0.661745
vt 0.916310 0.715603
vt 0.974706 0.661700
vt 0.975930 0.660838
s 0
f 1/2/1 2/4/1 4/8/1 3/5/1
f 5/9/2 6/12/2 2/3/2 1/1/2
f 6/13/3 5/10/3 8/18/3 7/15/3
f 8/19/4 5/11/4 1/2/4 3/5/4
f 6/14/5 7/16/5 4/7/5 2/4/5
f 7/17/6 8/20/6 3/6/6 4/8/6
