# Blender 3.5.1
# www.blender.org
o krzak.002
v 0.222404 0.000006 0.227013
v 0.854614 0.653393 -0.935029
v 0.222404 0.653392 0.227013
v 0.854614 0.653392 0.781012
v 0.222404 0.000006 -0.245540
v -0.911655 0.653393 -0.935029
v 0.222404 0.653392 -0.245540
v -0.911655 0.653392 0.781012
v -0.235596 0.000006 0.227013
v -0.235596 0.653392 0.227013
v -0.235596 0.000006 -0.245540
v -0.235596 0.653392 -0.245540
v -0.028525 4.343063 -0.077008
vn -1.0000 -0.0000 -0.0000
vn 0.1336 -0.9910 0.0059
vn 0.1336 -0.9910 -0.0059
vn 0.0059 -0.9905 0.1374
vn -0.1336 -0.9910 0.0059
vn -0.0000 -1.0000 -0.0000
vn 0.9953 0.0968 -0.0000
vn 0.9953 0.0969 0.0040
vn 0.9953 0.0969 -0.0040
vn -0.0000 1.0000 -0.0000
vn -0.0000 -0.0000 -1.0000
vn 1.0000 -0.0000 -0.0000
vn -0.0000 -0.0000 1.0000
vn -0.0000 0.0943 -0.9955
vn 0.0040 0.0943 -0.9955
vn -0.0040 0.0943 -0.9955
vn -0.0000 0.0943 0.9955
vn -0.0040 0.0943 0.9955
vn 0.0040 0.0943 0.9955
vn -0.9953 0.0968 -0.0000
vn -0.9953 0.0969 -0.0040
vn -0.9953 0.0969 0.0040
vt 0.778764 0.279921
vt 0.778764 0.288373
vt 0.795668 0.296825
vt 0.655158 0.653132
vt 0.653139 0.652152
vt 0.787216 0.288373
vt 0.770312 0.288373
vt 0.787216 0.296825
vt 0.655158 0.652226
vt 0.652344 0.653087
vt 0.778764 0.288373
vt 0.787216 0.296825
vt 0.778764 0.296825
vt 0.653139 0.653087
vt 0.654363 0.652226
vt 0.787216 0.296825
vt 0.778764 0.296825
vt 0.770312 0.296825
vt 0.652344 0.652152
vt 0.654363 0.653132
vt 0.787216 0.279921
vt 0.795668 0.288373
vt 0.778764 0.279921
vt 0.778764 0.288373
vt 0.787216 0.288373
vt 0.787216 0.271469
vt 0.787216 0.288373
vt 0.787216 0.305276
vt 0.778764 0.271469
vt 0.778764 0.296825
vt 0.778764 0.305276
vt 0.654363 0.652226
vt 0.652344 0.652152
vt 0.651549 0.652152
vt 0.653568 0.652226
s 0
f 12/29/1 11/26/1 9/21/1 10/23/1
f 2/5/2 4/10/3 8/20/4 6/14/5
f 1/1/6 9/21/6 11/27/6 5/11/6
f 13/32/7 4/9/8 2/4/9
f 10/24/10 3/6/10 7/16/10 12/30/10
f 7/17/11 5/12/11 11/28/11 12/31/11
f 3/7/12 1/2/12 5/13/12 7/18/12
f 10/25/13 9/22/13 1/3/13 3/8/13
f 13/33/14 2/5/15 6/14/16
f 13/34/17 8/19/18 4/10/19
f 13/35/20 6/15/21 8/20/22
