# Blender 3.5.1
# www.blender.org
o bariera2
v 0.834073 0.361311 -0.050694
v 0.834073 0.910538 -0.050694
v 0.834073 0.361311 0.073794
v 0.834073 0.910538 0.073794
v -0.875739 0.361311 -0.050694
v -0.875739 0.910538 -0.050694
v -0.875739 0.361311 0.073794
v -0.875739 0.910538 0.073794
v 0.725848 0.440599 0.073794
v 0.725848 0.440599 -0.050694
v -0.767212 0.440599 -0.050694
v -0.767212 0.440599 0.073794
v 0.834073 0.000000 -0.050694
v 0.725848 0.000000 0.073794
v 0.834073 0.000000 0.073794
v -0.875739 0.000000 0.073794
v -0.767212 0.000000 -0.050694
v -0.875739 0.000000 -0.050694
v 0.725848 0.000000 -0.050694
v -0.767212 0.000000 0.073794
v -0.754907 0.910538 -0.050694
v -0.754907 0.910538 0.073794
v 0.720026 0.910538 -0.050694
v 0.720026 0.910538 0.073794
vn -1.0000 -0.0000 -0.0000
vn -0.0000 -0.0000 -1.0000
vn -0.0000 -1.0000 -0.0000
vn -0.0000 -0.0000 1.0000
vn 1.0000 -0.0000 -0.0000
vn -0.0000 1.0000 -0.0000
vt 0.678291 0.821006
vt 0.708595 0.776483
vt 0.678961 0.821006
vt 0.708595 0.777153
vt 0.708608 0.820448
vt 0.708443 0.776483
vt 0.716901 0.804999
vt 0.708443 0.777153
vt 0.708759 0.820448
vt 0.717570 0.804999
vt 0.664181 0.797226
vt 0.678291 0.818922
vt 0.708608 0.818364
vt 0.664181 0.797896
vt 0.678961 0.818922
vt 0.716901 0.807083
vt 0.664332 0.797226
vt 0.717570 0.807083
vt 0.708759 0.818364
vt 0.664332 0.797896
vt 0.720070 0.820405
vt 0.709986 0.772745
vt 0.716997 0.805131
vt 0.719918 0.820405
vt 0.709834 0.772745
vt 0.678388 0.820874
vt 0.719918 0.822224
vt 0.674143 0.797662
vt 0.678388 0.819055
vt 0.720070 0.822224
vt 0.673992 0.797662
vt 0.716997 0.806950
vt 0.708595 0.776043
vt 0.684050 0.795089
vt 0.677851 0.821006
vt 0.709986 0.772208
vt 0.684182 0.794937
vt 0.716460 0.805131
vt 0.708443 0.776043
vt 0.684050 0.794937
vt 0.716460 0.804999
vt 0.664332 0.796786
vt 0.674268 0.794822
vt 0.716460 0.807083
vt 0.677851 0.819055
vt 0.674143 0.797125
vt 0.674136 0.794974
vt 0.664181 0.796786
vt 0.677851 0.818922
vt 0.674268 0.794974
vt 0.709834 0.772208
vt 0.684182 0.795089
vt 0.677851 0.820874
vt 0.673992 0.797125
vt 0.674136 0.794822
vt 0.716460 0.806950
vt 0.708608 0.818512
vt 0.678961 0.819070
vt 0.708759 0.818512
vt 0.717570 0.806935
vt 0.708608 0.820309
vt 0.678961 0.820867
vt 0.708759 0.820309
vt 0.717570 0.805138
s 1
f 18/48/1 16/42/1 7/17/1 5/11/1
f 2/3/2 1/1/2 10/26/2 23/62/2
f 17/45/2 18/49/2 5/12/2 11/29/2
f 12/30/3 11/27/3 10/24/3 9/21/3
f 14/36/1 9/22/1 10/25/1 19/51/1
f 7/16/4 12/32/4 22/60/4 8/18/4
f 3/6/5 15/39/5 13/33/5 1/2/5
f 19/52/3 13/34/3 15/40/3 14/37/3
f 22/59/6 21/57/6 6/13/6 8/19/6
f 12/31/5 20/54/5 17/46/5 11/28/5
f 18/50/3 17/47/3 20/55/3 16/43/3
f 10/26/2 1/1/2 13/35/2 19/53/2
f 9/23/4 14/38/4 15/41/4 3/7/4
f 16/44/4 20/56/4 12/32/4 7/16/4
f 3/6/5 1/2/5 2/4/5 4/8/5
f 5/11/1 7/17/1 8/20/1 6/14/1
f 24/63/6 23/61/6 21/57/6 22/59/6
f 4/9/6 2/5/6 23/61/6 24/63/6
f 11/29/2 21/58/2 23/62/2 10/26/2
f 9/23/4 3/7/4 4/10/4 24/64/4
f 12/32/4 9/23/4 24/64/4 22/60/4
f 11/29/2 5/12/2 6/15/2 21/58/2
