# Blender 3.5.1
# www.blender.org
o lawka
v 0.942906 0.361315 -0.398366
v 0.942906 0.605784 -0.398366
v 0.942906 0.361315 0.395817
v 0.942906 0.605784 0.395817
v -0.924152 0.361315 -0.398366
v -0.924152 0.605784 -0.398366
v -0.924152 0.361315 0.395817
v -0.924152 0.605784 0.395817
v 0.803622 0.408593 0.395817
v 0.803622 0.408593 -0.398366
v -0.815630 0.408593 -0.398366
v -0.815630 0.408593 0.395817
v 0.942906 0.605784 0.261577
v -0.924152 0.605784 0.261577
v 0.942906 1.311139 0.469166
v 0.942906 1.311139 0.603408
v -0.924152 1.311139 0.603408
v -0.924152 1.311139 0.469166
v 0.942906 0.000004 -0.398366
v 0.803622 0.000004 0.395817
v 0.942906 0.000004 0.395817
v -0.924152 0.000004 0.395817
v -0.815630 0.000004 -0.398366
v -0.924152 0.000004 -0.398366
v 0.803622 0.000004 -0.398366
v -0.815630 0.000004 0.395817
v -0.806035 0.605784 0.395817
v -0.806035 1.311139 0.603408
v -0.806035 1.311139 0.469166
v -0.806035 0.605784 0.261577
v -0.806035 0.605784 -0.398366
v 0.826707 0.605784 0.395817
v 0.826707 1.311139 0.603408
v 0.826707 1.311139 0.469166
v 0.826707 0.605784 0.261577
v 0.826707 0.605784 -0.398366
v -0.924152 0.361315 0.274562
v -0.924152 0.000004 0.274562
v -0.815630 0.000004 0.274562
v -0.815630 0.408593 0.274562
v 0.803622 0.408593 0.274562
v 0.803622 0.000004 0.274562
v 0.942902 0.000004 0.274562
v 0.942902 0.361315 0.274562
vn -1.0000 -0.0000 -0.0000
vn -0.0000 -0.0000 -1.0000
vn -0.0000 1.0000 -0.0000
vn -0.0000 -1.0000 -0.0000
vn -0.0000 -0.0000 1.0000
vn -0.0000 -0.2823 0.9593
vn 1.0000 -0.0000 -0.0000
vn -0.0000 0.2823 -0.9593
vt 0.775825 0.147387
vt 0.887028 0.149271
vt 0.775190 0.147387
vt 0.780291 0.149977
vt 0.886928 0.148639
vt 0.889079 0.148946
vt 0.843692 0.145698
vt 0.888979 0.148314
vt 0.843056 0.145698
vt 0.775825 0.152270
vt 0.816690 0.147325
vt 0.780291 0.145094
vt 0.775190 0.152270
vt 0.816590 0.147956
vt 0.843692 0.140815
vt 0.818742 0.147650
vt 0.818642 0.148281
vt 0.843056 0.140815
vt 0.809141 0.145828
vt 0.843569 0.145334
vt 0.799819 0.153282
vt 0.799819 0.151205
vt 0.775702 0.147752
vt 0.807064 0.145828
vt 0.900490 0.023234
vt 0.775702 0.151987
vt 0.807064 0.150063
vt 0.809141 0.150063
vt 0.843569 0.141099
vt 0.900490 0.025311
vt 0.782017 0.149977
vt 0.886565 0.144041
vt 0.888632 0.148369
vt 0.886565 0.148924
vt 0.782017 0.145094
vt 0.818295 0.148226
vt 0.888880 0.146462
vt 0.859329 0.033809
vt 0.884673 0.144041
vt 0.889227 0.146407
vt 0.841164 0.145698
vt 0.859680 0.033809
vt 0.841164 0.140815
vt 0.859680 0.028926
vt 0.818890 0.150188
vt 0.859329 0.028926
vt 0.818543 0.150133
vt 0.884673 0.148924
vt 0.776765 0.147387
vt 0.887175 0.150204
vt 0.787495 0.153728
vt 0.787860 0.151651
vt 0.844631 0.145334
vt 0.800888 0.153282
vt 0.889227 0.149879
vt 0.787495 0.151651
vt 0.844631 0.145698
vt 0.812866 0.087528
vt 0.844631 0.140815
vt 0.818890 0.146716
vt 0.776765 0.151987
vt 0.899422 0.023234
vt 0.812582 0.089605
vt 0.816838 0.146392
vt 0.776765 0.152270
vt 0.812866 0.089605
vt 0.800888 0.151205
vt 0.776765 0.147752
vt 0.787860 0.153728
vt 0.812582 0.087528
vt 0.844631 0.141099
vt 0.899422 0.025311
vt 0.843056 0.141124
vt 0.841164 0.141124
vt 0.859680 0.029235
vt 0.859329 0.029235
vt 0.884673 0.148615
vt 0.886565 0.148615
vt 0.782017 0.145403
vt 0.780291 0.145403
vt 0.775190 0.151962
vt 0.843056 0.145394
vt 0.841164 0.145394
vt 0.859680 0.033505
vt 0.859329 0.033505
vt 0.884673 0.144345
vt 0.782017 0.149673
vt 0.886565 0.144345
vt 0.780291 0.149673
vt 0.775190 0.147691
vt 0.818429 0.147600
vt 0.818577 0.146667
vt 0.812866 0.087845
vt 0.899422 0.024994
vt 0.812582 0.087845
vt 0.808824 0.150063
vt 0.900490 0.024994
vt 0.808824 0.145828
vt 0.799819 0.152965
vt 0.800888 0.152965
vt 0.787860 0.151968
vt 0.888914 0.149929
vt 0.787495 0.151968
vt 0.888766 0.148995
s 1
f 38/92/1 37/91/1 5/11/1 24/64/1
f 2/3/2 1/1/2 10/23/2 36/90/2
f 36/89/3 35/87/3 13/31/3 2/4/3
f 5/10/2 11/26/2 23/61/2 24/65/2
f 40/96/4 41/98/4 9/19/4 12/28/4
f 42/100/1 41/99/1 10/22/1 25/67/1
f 9/20/5 32/82/5 27/73/5 12/29/5
f 27/73/6 28/74/6 17/43/6 8/18/6
f 43/102/7 44/104/7 3/6/7 21/55/7
f 42/101/4 43/103/4 21/56/4 20/52/4
f 17/44/3 28/75/3 29/76/3 18/46/3
f 16/40/7 4/8/7 13/33/7 15/37/7
f 14/36/1 8/17/1 17/45/1 18/47/1
f 40/97/7 39/94/7 23/62/7 11/25/7
f 38/93/4 39/95/4 26/70/4 22/58/4
f 10/23/2 1/1/2 19/49/2 25/68/2
f 20/53/5 21/57/5 3/7/5 9/20/5
f 12/29/5 7/15/5 22/59/5 26/71/5
f 29/77/8 30/78/8 14/34/8 18/48/8
f 14/36/1 37/91/1 7/16/1 8/17/1
f 3/6/7 44/104/7 13/33/7 4/8/7
f 6/12/3 14/35/3 30/79/3 31/80/3
f 32/82/6 33/83/6 28/74/6 27/73/6
f 33/84/3 34/85/3 29/76/3 28/75/3
f 34/86/8 35/88/8 30/78/8 29/77/8
f 31/80/3 30/79/3 35/87/3 36/89/3
f 4/9/6 16/41/6 33/83/6 32/82/6
f 16/42/3 15/38/3 34/85/3 33/84/3
f 15/39/8 13/32/8 35/88/8 34/86/8
f 10/23/2 11/26/2 31/81/2 36/90/2
f 11/26/2 5/10/2 6/13/2 31/81/2
f 8/18/5 7/15/5 12/29/5 27/73/5
f 9/20/5 3/7/5 4/9/5 32/82/5
f 22/60/1 7/16/1 37/91/1 38/92/1
f 11/27/4 10/24/4 41/98/4 40/96/4
f 20/54/1 9/21/1 41/99/1 42/100/1
f 19/50/7 1/2/7 44/104/7 43/102/7
f 25/69/4 19/51/4 43/103/4 42/101/4
f 12/30/7 26/72/7 39/94/7 40/97/7
f 24/66/4 23/63/4 39/95/4 38/93/4
f 14/36/1 6/14/1 5/11/1 37/91/1
f 1/2/7 2/5/7 13/33/7 44/104/7
