# Blender 3.5.1
# www.blender.org
o lawka2
v 0.937926 0.361302 -0.386102
v 0.937926 0.605771 -0.386102
v 0.937926 0.361302 0.408080
v 0.937926 0.605771 0.408080
v -0.929132 0.361302 -0.386102
v -0.929132 0.605771 -0.386102
v -0.929132 0.361302 0.408080
v -0.929132 0.605771 0.408080
v 0.798642 0.408580 0.408080
v 0.798642 0.408580 -0.386102
v -0.820610 0.408580 -0.386102
v -0.820610 0.408580 0.408080
v 0.937926 -0.000009 -0.386102
v 0.798642 -0.000009 0.408080
v 0.937926 -0.000009 0.408080
v -0.929132 -0.000009 0.408080
v -0.820610 -0.000009 -0.386102
v -0.929132 -0.000009 -0.386102
v 0.798642 -0.000009 -0.386102
v -0.820610 -0.000009 0.408080
v -0.790100 0.605771 -0.386102
v -0.790100 0.605771 0.408080
v 0.799475 0.605771 -0.386102
v 0.799475 0.605771 0.408080
vn -1.0000 -0.0000 -0.0000
vn -0.0000 -0.0000 -1.0000
vn -0.0000 -1.0000 -0.0000
vn -0.0000 -0.0000 1.0000
vn 1.0000 -0.0000 -0.0000
vn -0.0000 1.0000 -0.0000
vt 0.957132 0.216022
vt 0.957132 0.216022
vt 0.957132 0.216022
vt 0.957132 0.216022
vt 0.957132 0.216022
vt 0.957132 0.216022
vt 0.957132 0.216022
vt 0.957132 0.216022
vt 0.957132 0.216022
vt 0.957132 0.216022
vt 0.957132 0.216022
vt 0.957132 0.216022
vt 0.957132 0.216022
vt 0.957132 0.216022
vt 0.957132 0.216022
vt 0.957132 0.216022
vt 0.957132 0.216022
vt 0.957132 0.216022
vt 0.957132 0.216022
vt 0.957132 0.216022
vt 0.957132 0.216022
vt 0.957132 0.216022
vt 0.957132 0.216022
vt 0.957132 0.216022
s 1
f 18/18/1 16/16/1 7/7/1 5/5/1
f 2/2/2 1/1/2 10/10/2 23/23/2
f 17/17/2 18/18/2 5/5/2 11/11/2
f 12/12/3 11/11/3 10/10/3 9/9/3
f 14/14/1 9/9/1 10/10/1 19/19/1
f 7/7/4 12/12/4 22/22/4 8/8/4
f 3/3/5 15/15/5 13/13/5 1/1/5
f 19/19/3 13/13/3 15/15/3 14/14/3
f 22/22/6 21/21/6 6/6/6 8/8/6
f 12/12/5 20/20/5 17/17/5 11/11/5
f 18/18/3 17/17/3 20/20/3 16/16/3
f 10/10/2 1/1/2 13/13/2 19/19/2
f 9/9/4 14/14/4 15/15/4 3/3/4
f 16/16/4 20/20/4 12/12/4 7/7/4
f 3/3/5 1/1/5 2/2/5 4/4/5
f 5/5/1 7/7/1 8/8/1 6/6/1
f 24/24/6 23/23/6 21/21/6 22/22/6
f 4/4/6 2/2/6 23/23/6 24/24/6
f 10/10/2 11/11/2 21/21/2 23/23/2
f 9/9/4 3/3/4 4/4/4 24/24/4
f 12/12/4 9/9/4 24/24/4 22/22/4
f 11/11/2 5/5/2 6/6/2 21/21/2
