# Blender 3.5.1
# www.blender.org
mtllib bilboard2.mtl
o bilboard2
v 0.526236 0.958354 -0.092808
v 0.526236 2.452505 -0.092808
v 0.526236 0.958354 0.072090
v 0.526236 2.452505 0.072090
v -0.552402 0.958354 -0.092808
v -0.552402 2.452505 -0.092808
v -0.552402 0.958354 0.072090
v -0.552402 2.452505 0.072090
v 0.057999 1.815066 -0.046601
v 0.057999 1.815066 0.056838
v -0.068491 1.815066 -0.046601
v -0.068491 1.815066 0.056838
v 0.057999 0.525668 -0.046601
v 0.057999 0.525668 0.056838
v -0.068491 0.525668 0.056838
v -0.068491 0.525668 -0.046601
v 0.096716 -0.000013 0.103668
v 0.096716 -0.000013 -0.099183
v 0.103322 0.466791 0.096321
v -0.105670 -0.000013 0.103668
v -0.112276 0.466791 0.096321
v -0.105670 -0.000013 -0.099183
v -0.112276 0.466791 -0.091835
v 0.103322 0.466791 -0.091835
vn 1.0000 -0.0000 -0.0000
vn -0.0000 -0.0000 1.0000
vn -1.0000 -0.0000 -0.0000
vn -0.0000 -0.0000 -1.0000
vn -0.0000 -1.0000 -0.0000
vn -0.0000 1.0000 -0.0000
vn -0.8024 0.5967 -0.0000
vn 0.7924 0.6100 -0.0000
vn -0.0000 0.6092 -0.7930
vn -0.0000 0.5570 0.8305
vn -0.0000 0.0157 -0.9999
vn -0.9999 -0.0141 -0.0000
vn -0.0000 0.0157 0.9999
vn 0.9999 -0.0141 -0.0000
vt 0.693178 0.463774
vt 0.711849 0.957830
vt 0.704634 0.456414
vt 0.693178 0.463027
vt 0.711849 0.974776
vt 0.693197 0.473556
vt 0.693260 0.463774
vt 0.701306 0.456760
vt 0.704552 0.456414
vt 0.693260 0.463027
vt 0.701306 0.456012
vt 0.693114 0.473556
vt 0.695260 0.479462
vt 0.724082 0.957830
vt 0.704634 0.455875
vt 0.695260 0.478714
vt 0.724082 0.974776
vt 0.693197 0.474096
vt 0.701846 0.456760
vt 0.695178 0.479462
vt 0.704552 0.455875
vt 0.701846 0.456012
vt 0.695178 0.478714
vt 0.693114 0.474096
vt 0.693196 0.470961
vt 0.694790 0.478863
vt 0.459525 0.564533
vt 0.693247 0.470961
vt 0.709453 0.454913
vt 0.461440 0.564533
vt 0.693247 0.468470
vt 0.694727 0.478863
vt 0.459525 0.562192
vt 0.709516 0.454913
vt 0.693196 0.468470
vt 0.461440 0.562192
vt 0.693196 0.471606
vt 0.694790 0.479508
vt 0.693247 0.471606
vt 0.709453 0.455558
vt 0.693196 0.469115
vt 0.709516 0.455558
vt 0.693247 0.469115
vt 0.694727 0.479508
vt 0.712051 0.465264
vt 0.709433 0.455821
vt 0.693271 0.471869
vt 0.712051 0.465163
vt 0.694810 0.479771
vt 0.693169 0.471869
vt 0.709430 0.455587
vt 0.693267 0.471636
vt 0.711950 0.465264
vt 0.693172 0.469378
vt 0.709535 0.455821
vt 0.693176 0.469144
vt 0.709538 0.455587
vt 0.711950 0.465163
vt 0.694708 0.479771
vt 0.693274 0.469378
vt 0.694705 0.479538
vt 0.693270 0.469144
vt 0.694813 0.479538
vt 0.693173 0.471636
s 1
usemtl default
f 2/4/1 4/10/1 3/7/1 1/1/1
f 4/11/2 8/22/2 7/19/2 3/8/2
f 8/23/3 6/16/3 5/13/3 7/20/3
f 6/17/4 2/5/4 1/2/4 5/14/4
f 7/21/5 5/15/5 1/3/5 3/9/5
f 4/12/6 2/6/6 6/18/6 8/24/6
f 9/25/1 10/28/1 14/39/1 13/37/1
f 10/29/2 12/34/2 15/42/2 14/40/2
f 11/31/3 16/43/3 15/41/3 12/35/3
f 16/44/4 11/32/4 9/26/4 13/38/4
f 12/36/6 10/30/6 9/27/6 11/33/6
f 23/62/7 21/56/7 15/41/7 16/43/7
f 14/39/8 19/52/8 24/64/8 13/37/8
f 16/44/9 13/38/9 24/63/9 23/61/9
f 15/42/10 21/57/10 19/51/10 14/40/10
f 18/48/5 17/45/5 20/53/5 22/58/5
f 23/61/11 24/63/11 18/49/11 22/59/11
f 21/56/12 23/62/12 22/60/12 20/54/12
f 19/51/13 21/57/13 20/55/13 17/46/13
f 24/64/14 19/52/14 17/47/14 18/50/14
