# Blender 3.5.1
# www.blender.org
mtllib bilboard1.mtl
o Cube_015
v 1.227777 1.960134 -0.089636
v 1.227777 3.399430 -0.089636
v 1.227777 1.960134 0.075263
v 1.227777 3.399430 0.075263
v -1.321532 1.960134 -0.089636
v -1.321532 3.399430 -0.089636
v -1.321532 1.960134 0.075263
v -1.321532 3.399430 0.075263
v 0.061006 2.380598 -0.043429
v 0.061006 2.380598 0.060010
v -0.065483 2.380598 -0.043429
v -0.065483 2.380598 0.060010
v 0.061006 1.091200 -0.043429
v 0.061006 1.091200 0.060010
v -0.065483 1.091200 0.060010
v -0.065483 1.091200 -0.043429
v 0.091429 0.000001 0.098530
v 0.091429 0.000001 -0.087699
v 0.106329 1.032324 0.099493
v -0.094368 0.000001 0.098530
v -0.109268 1.032324 0.099493
v -0.094368 0.000001 -0.087699
v -0.109268 1.032324 -0.088662
v 0.106329 1.032324 -0.088662
vn 1.0000 -0.0000 -0.0000
vn -0.0000 -0.0000 1.0000
vn -1.0000 -0.0000 -0.0000
vn -0.0000 -0.0000 -1.0000
vn -0.0000 -1.0000 -0.0000
vn -0.0000 1.0000 -0.0000
vn -0.8024 0.5967 -0.0000
vn 0.7924 0.6100 -0.0000
vn -0.0000 0.6092 -0.7930
vn -0.0000 0.5570 0.8305
vn -0.0000 -0.0009 -1.0000
vn -0.9999 -0.0144 -0.0000
vn -0.0000 -0.0009 1.0000
vn 0.9999 -0.0144 -0.0000
vt 0.525396 0.471778
vt 0.525267 0.777034
vt 0.526154 0.470327
vt 0.525396 0.472251
vt 0.524795 0.777034
vt 0.524001 0.470055
vt 0.525342 0.471778
vt 0.527973 0.471201
vt 0.526208 0.470327
vt 0.525342 0.472251
vt 0.527501 0.471201
vt 0.524055 0.470055
vt 0.533612 0.460557
vt 0.525267 0.777870
vt 0.526154 0.471163
vt 0.533612 0.461029
vt 0.524795 0.777870
vt 0.524001 0.469219
vt 0.527973 0.470365
vt 0.533667 0.460557
vt 0.526208 0.471163
vt 0.527501 0.470365
vt 0.533667 0.461029
vt 0.524055 0.469219
vt 0.528548 0.471718
vt 0.522642 0.471063
vt 0.524161 0.464654
vt 0.528514 0.471718
vt 0.522683 0.470282
vt 0.524195 0.464654
vt 0.533036 0.467896
vt 0.522683 0.471063
vt 0.524161 0.464613
vt 0.522641 0.470282
vt 0.533070 0.467896
vt 0.524195 0.464613
vt 0.528548 0.471295
vt 0.522642 0.470640
vt 0.528514 0.471295
vt 0.522683 0.469859
vt 0.533070 0.467473
vt 0.522641 0.469859
vt 0.533036 0.467473
vt 0.522683 0.470640
vt 0.517270 0.466962
vt 0.522693 0.469501
vt 0.528502 0.470937
vt 0.517270 0.467023
vt 0.522632 0.470282
vt 0.528563 0.470937
vt 0.522697 0.469840
vt 0.528501 0.471275
vt 0.517331 0.466962
vt 0.533082 0.467115
vt 0.522632 0.469501
vt 0.533083 0.467454
vt 0.522627 0.469840
vt 0.517331 0.467023
vt 0.522693 0.470282
vt 0.533021 0.467115
vt 0.522697 0.470621
vt 0.533021 0.467454
vt 0.522627 0.470621
vt 0.528563 0.471275
s 1
usemtl default
f 2/4/1 4/10/1 3/7/1 1/1/1
f 4/11/2 8/22/2 7/19/2 3/8/2
f 8/23/3 6/16/3 5/13/3 7/20/3
f 6/17/4 2/5/4 1/2/4 5/14/4
f 7/21/5 5/15/5 1/3/5 3/9/5
f 4/12/6 2/6/6 6/18/6 8/24/6
f 9/25/1 10/28/1 14/39/1 13/37/1
f 10/29/2 12/34/2 15/42/2 14/40/2
f 11/31/3 16/43/3 15/41/3 12/35/3
f 16/44/4 11/32/4 9/26/4 13/38/4
f 12/36/6 10/30/6 9/27/6 11/33/6
f 23/62/7 21/56/7 15/41/7 16/43/7
f 14/39/8 19/52/8 24/64/8 13/37/8
f 16/44/9 13/38/9 24/63/9 23/61/9
f 15/42/10 21/57/10 19/51/10 14/40/10
f 18/48/5 17/45/5 20/53/5 22/58/5
f 23/61/11 24/63/11 18/49/11 22/59/11
f 21/56/12 23/62/12 22/60/12 20/54/12
f 19/51/13 21/57/13 20/55/13 17/46/13
f 24/64/14 19/52/14 17/47/14 18/50/14
