# Blender 3.5.1
# www.blender.org
o kosz
v 0.196380 -0.000007 -0.196951
v 0.133341 0.674553 -0.131150
v 0.196380 -0.000007 0.192395
v 0.133341 0.674553 0.129317
v -0.192962 -0.000007 -0.196951
v -0.135270 0.674553 -0.131150
v -0.192962 -0.000007 0.192395
v -0.135270 0.674553 0.129317
v 0.196380 0.674553 -0.196951
v 0.196380 0.674553 0.192395
v -0.192962 0.674553 0.192395
v -0.192962 0.674553 -0.196951
v 0.133341 0.083638 -0.131150
v 0.133341 0.083638 0.129317
v -0.135270 0.083638 0.129317
v -0.135270 0.083638 -0.131150
vn 1.0000 -0.0000 -0.0000
vn -0.0000 -0.0000 1.0000
vn -1.0000 -0.0000 -0.0000
vn -0.0000 -0.0000 -1.0000
vn -0.0000 -1.0000 -0.0000
vn -0.0000 1.0000 -0.0000
vt 0.222647 0.224741
vt 0.190920 0.224786
vt 0.218939 0.208503
vt 0.218799 0.205186
vt 0.218892 0.208454
vt 0.218600 0.205186
vt 0.222359 0.224741
vt 0.188360 0.224775
vt 0.218939 0.208214
vt 0.218992 0.205186
vt 0.218892 0.208261
vt 0.218600 0.205186
vt 0.225910 0.224736
vt 0.191209 0.224786
vt 0.219227 0.208503
vt 0.218693 0.208454
vt 0.218400 0.205186
vt 0.219185 0.205186
vt 0.188072 0.224775
vt 0.226199 0.224736
vt 0.219227 0.208214
vt 0.218693 0.208261
vt 0.218799 0.205186
vt 0.218992 0.205186
vt 0.222647 0.225241
vt 0.190920 0.225286
vt 0.218939 0.208503
vt 0.222359 0.225241
vt 0.188360 0.225275
vt 0.218939 0.208214
vt 0.188072 0.225275
vt 0.226199 0.225236
vt 0.218650 0.208214
vt 0.225910 0.225236
vt 0.191209 0.225286
vt 0.218650 0.208503
vt 0.218799 0.204747
vt 0.217165 0.211828
vt 0.218600 0.204747
vt 0.218992 0.204747
vt 0.217358 0.211828
vt 0.218600 0.204747
vt 0.217358 0.211628
vt 0.218799 0.204747
vt 0.218992 0.204747
vt 0.217165 0.211628
vt 0.218400 0.204747
vt 0.219185 0.204747
s 1
f 9/25/1 10/28/1 3/7/1 1/1/1
f 10/29/2 11/31/2 7/19/2 3/8/2
f 11/32/3 12/34/3 5/13/3 7/20/3
f 12/35/4 9/26/4 1/2/4 5/14/4
f 7/21/5 5/15/5 1/3/5 3/9/5
f 13/37/3 14/40/3 4/10/3 2/4/3
f 9/27/6 2/5/6 4/11/6 10/30/6
f 10/30/6 4/11/6 8/22/6 11/33/6
f 11/33/6 8/22/6 6/16/6 12/36/6
f 12/36/6 6/16/6 2/5/6 9/27/6
f 14/41/6 13/38/6 16/46/6 15/43/6
f 16/47/2 13/39/2 2/6/2 6/17/2
f 14/42/4 15/44/4 8/23/4 4/12/4
f 15/45/1 16/48/1 6/18/1 8/24/1
