# Blender 3.5.1
# www.blender.org
mtllib znak1.mtl
o znak1
v 0.451350 1.854275 -0.051210
v -0.001167 2.304725 -0.051210
v 0.451350 1.854275 0.051775
v -0.001167 2.304725 0.051775
v -0.002303 1.383215 -0.051210
v -0.447473 1.828385 -0.051210
v -0.002303 1.383215 0.051775
v -0.447473 1.828385 0.051775
v 0.043684 1.698676 -0.035698
v 0.043684 1.698676 0.039900
v -0.048752 1.698676 -0.035698
v -0.048752 1.698676 0.039900
v 0.043684 0.608370 -0.035698
v 0.043684 0.608370 0.039900
v -0.048752 0.608370 0.039900
v -0.048752 0.608370 -0.035698
v 0.071979 0.000008 0.074126
v 0.071979 0.000008 -0.074127
v 0.076813 0.565341 0.068755
v -0.075929 0.000008 0.074126
v -0.080754 0.565341 0.068755
v -0.075929 0.000008 -0.074127
v -0.080754 0.565341 -0.068757
v 0.076813 0.565339 -0.068757
vn 0.7055 0.7087 -0.0000
vn -0.0000 -0.0000 1.0000
vn -0.7071 -0.7071 -0.0000
vn -0.0000 -0.0000 -1.0000
vn 0.7203 -0.6937 -0.0000
vn -0.7297 0.6837 -0.0000
vn 1.0000 -0.0000 -0.0000
vn -1.0000 -0.0000 -0.0000
vn -0.0000 1.0000 -0.0000
vn -0.8024 0.5968 -0.0000
vn 0.7924 0.6100 -0.0000
vn -0.0000 0.6092 -0.7930
vn -0.0000 0.5570 0.8305
vn -0.0000 -1.0000 -0.0000
vn -0.0000 0.0095 -1.0000
vn -1.0000 -0.0085 -0.0000
vn -0.0000 0.0095 1.0000
vn 1.0000 -0.0086 -0.0000
vt 0.648140 0.221889
vt 0.711555 0.200839
vt 0.664278 0.221290
vt 0.648140 0.221052
vt 0.710375 0.200819
vt 0.648129 0.218117
vt 0.648330 0.221889
vt 0.709496 0.173891
vt 0.664087 0.221290
vt 0.648330 0.221052
vt 0.708316 0.173911
vt 0.648320 0.218117
vt 0.648129 0.216413
vt 0.711555 0.202047
vt 0.664278 0.220415
vt 0.710392 0.202026
vt 0.648129 0.217240
vt 0.709496 0.172682
vt 0.648320 0.216413
vt 0.664087 0.220415
vt 0.708333 0.172704
vt 0.648320 0.217240
vt 0.655144 0.440508
vt 0.655260 0.435859
vt 0.697024 0.478273
vt 0.655246 0.440508
vt 0.655137 0.433568
vt 0.696922 0.478273
vt 0.705792 0.422601
vt 0.655135 0.435859
vt 0.697024 0.478398
vt 0.655261 0.433568
vt 0.705690 0.422601
vt 0.696922 0.478398
vt 0.655144 0.441979
vt 0.655260 0.437330
vt 0.655246 0.441979
vt 0.655137 0.435039
vt 0.705690 0.424072
vt 0.655261 0.435039
vt 0.705792 0.424072
vt 0.655135 0.437330
vt 0.694213 0.446414
vt 0.655099 0.435859
vt 0.655292 0.442799
vt 0.694213 0.446214
vt 0.655298 0.438150
vt 0.655092 0.442799
vt 0.655092 0.435097
vt 0.655285 0.442037
vt 0.694014 0.446414
vt 0.705644 0.424892
vt 0.655298 0.435859
vt 0.705651 0.424129
vt 0.655305 0.435097
vt 0.694014 0.446214
vt 0.655099 0.438150
vt 0.705844 0.424892
vt 0.655092 0.437388
vt 0.705837 0.424129
vt 0.655305 0.437388
vt 0.655100 0.442037
s 1
usemtl default
f 2/4/1 4/10/1 3/7/1 1/1/1
f 4/11/2 8/21/2 7/18/2 3/8/2
f 8/22/3 6/17/3 5/13/3 7/19/3
f 6/16/4 2/5/4 1/2/4 5/14/4
f 7/20/5 5/15/5 1/3/5 3/9/5
f 4/12/6 2/6/6 6/17/6 8/22/6
f 9/23/7 10/26/7 14/37/7 13/35/7
f 10/27/2 12/32/2 15/40/2 14/38/2
f 11/29/8 16/41/8 15/39/8 12/33/8
f 16/42/4 11/30/4 9/24/4 13/36/4
f 12/34/9 10/28/9 9/25/9 11/31/9
f 23/60/10 21/54/10 15/39/10 16/41/10
f 14/37/11 19/50/11 24/62/11 13/35/11
f 16/42/12 13/36/12 24/61/12 23/59/12
f 15/40/13 21/55/13 19/49/13 14/38/13
f 18/46/14 17/43/14 20/51/14 22/56/14
f 23/59/15 24/61/15 18/47/15 22/57/15
f 21/54/16 23/60/16 22/58/16 20/52/16
f 19/49/17 21/55/17 20/53/17 17/44/17
f 24/62/18 19/50/18 17/45/18 18/48/18
