# Blender 3.5.1
# www.blender.org
mtllib lampa.mtl
o lampa
v 0.046628 2.037204 -0.036738
v 0.046628 2.037204 0.046269
v -0.044970 2.037204 -0.036738
v -0.044970 2.037204 0.046269
v 0.143995 2.090323 -0.148390
v 0.143995 2.090323 0.143466
v -0.147857 2.090323 0.143466
v -0.147857 2.090323 -0.148390
v 0.227559 2.508431 -0.231951
v 0.227559 2.508431 0.227028
v -0.231422 2.508431 0.227028
v -0.231422 2.508431 -0.231951
v 0.122603 2.549148 -0.126994
v 0.122603 2.549148 0.122071
v -0.126457 2.549148 0.122071
v -0.126457 2.549148 -0.126994
v 0.091311 2.649955 -0.095696
v 0.091311 2.649954 0.090773
v -0.095159 2.649954 0.090773
v -0.095159 2.649955 -0.095696
v -0.206977 2.472885 0.202587
v -0.206977 2.472886 -0.207512
v 0.203124 2.472886 -0.207512
v 0.203124 2.472885 0.202587
v -0.173428 2.462430 -0.173963
v 0.169575 2.462430 0.169040
v -0.173428 2.462430 0.169040
v 0.169575 2.462430 -0.173963
v 0.046628 0.891734 -0.036738
v 0.046628 0.891734 0.046269
v -0.044970 0.891734 0.046269
v -0.044970 0.891734 -0.036738
v 0.069320 0.000003 0.069302
v 0.069320 0.000003 -0.059772
v 0.075239 0.840140 0.075220
v -0.067661 0.000003 0.069302
v -0.073580 0.840140 0.075220
v -0.067661 0.000003 -0.059772
v -0.073580 0.840140 -0.065690
v 0.075239 0.840140 -0.065690
vn 1.0000 -0.0000 -0.0000
vn -0.0000 -0.0000 1.0000
vn -1.0000 -0.0000 -0.0000
vn -0.0000 -0.0000 -1.0000
vn -0.0000 -0.8775 0.4796
vn -0.8240 -0.5666 -0.0000
vn -0.4588 -0.8886 -0.0000
vn 0.4789 -0.8779 -0.0000
vn -0.0000 -0.9030 -0.4296
vn 0.3617 0.9323 -0.0000
vn 0.8241 -0.5665 -0.0000
vn -0.0000 -0.5665 -0.8240
vn -0.0000 -0.5666 0.8240
vn -0.0000 0.2965 -0.9550
vn -0.0000 0.9323 -0.3617
vn -0.0000 0.9323 0.3617
vn -0.3616 0.9323 -0.0000
vn -0.0000 1.0000 -0.0000
vn -0.0000 0.2965 0.9550
vn -0.9550 0.2965 -0.0000
vn 0.9550 0.2965 -0.0000
vn -0.0000 -0.9547 0.2975
vn -0.0000 -0.9547 -0.2975
vn 0.2975 -0.9547 -0.0000
vn -0.2975 -0.9547 -0.0000
vn -0.9976 -0.0686 -0.0000
vn 0.9976 -0.0686 -0.0000
vn -0.0000 -0.0686 -0.9976
vn -0.0000 -0.0686 0.9976
vn -0.8745 0.4850 -0.0000
vn 0.8745 0.4850 -0.0000
vn -0.0000 0.4894 -0.8721
vn -0.0000 0.4894 0.8721
vn -0.0000 -1.0000 -0.0000
vn -0.0000 -0.0070 -1.0000
vn -1.0000 -0.0070 -0.0000
vn -0.0000 -0.0070 1.0000
vn 1.0000 -0.0070 -0.0000
vt 0.614170 0.357820
vt 0.639328 0.461100
vt 0.630651 0.469190
vt 0.614393 0.357820
vt 0.714872 0.374277
vt 0.630651 0.468967
vt 0.614389 0.455436
vt 0.639081 0.461100
vt 0.630897 0.469190
vt 0.715118 0.374277
vt 0.614166 0.455436
vt 0.630897 0.468967
vt 0.630389 0.469489
vt 0.517402 0.945187
vt 0.535189 0.972818
vt 0.630389 0.468704
vt 0.518186 0.945187
vt 0.517322 0.932618
vt 0.631174 0.468704
vt 0.518244 0.932618
vt 0.518106 0.932618
vt 0.631174 0.469489
vt 0.519028 0.932618
vt 0.534405 0.972818
vt 0.691622 0.434304
vt 0.647351 0.417713
vt 0.691637 0.433070
vt 0.691637 0.431836
vt 0.646117 0.417713
vt 0.691637 0.433070
vt 0.691637 0.430602
vt 0.646117 0.418946
vt 0.691637 0.431836
vt 0.691622 0.435537
vt 0.647351 0.418946
vt 0.693209 0.419424
vt 0.647069 0.417995
vt 0.715067 0.420347
vt 0.646399 0.417995
vt 0.691872 0.421218
vt 0.715067 0.419677
vt 0.646399 0.418664
vt 0.691872 0.420548
vt 0.693209 0.420094
vt 0.647069 0.418664
vt 0.691872 0.419879
vt 0.692945 0.419508
vt 0.656882 0.458144
vt 0.714786 0.420263
vt 0.656882 0.458645
vt 0.691592 0.421134
vt 0.714786 0.419761
vt 0.657383 0.458645
vt 0.691592 0.420633
vt 0.691592 0.420464
vt 0.692945 0.420010
vt 0.657383 0.458144
vt 0.691592 0.419963
vt 0.691723 0.433004
vt 0.691722 0.430668
vt 0.646245 0.430412
vt 0.691723 0.431902
vt 0.691723 0.435472
vt 0.646245 0.431515
vt 0.691723 0.434238
vt 0.691723 0.434369
vt 0.645142 0.431515
vt 0.691723 0.433135
vt 0.691722 0.431770
vt 0.645142 0.430412
vt 0.646154 0.431425
vt 0.519097 0.931638
vt 0.534336 0.971816
vt 0.645232 0.430503
vt 0.518255 0.944207
vt 0.517253 0.931639
vt 0.646154 0.430503
vt 0.518175 0.931639
vt 0.645232 0.431425
vt 0.517333 0.944207
vt 0.535258 0.971816
vt 0.614170 0.360867
vt 0.639328 0.464171
vt 0.614393 0.360867
vt 0.714872 0.377323
vt 0.614166 0.458483
vt 0.715118 0.377323
vt 0.614389 0.458483
vt 0.639081 0.464171
vt 0.691664 0.416778
vt 0.714811 0.379704
vt 0.614455 0.363247
vt 0.692011 0.416778
vt 0.639389 0.466557
vt 0.614108 0.363247
vt 0.714795 0.377472
vt 0.614471 0.361015
vt 0.691664 0.416410
vt 0.614104 0.460864
vt 0.715179 0.379704
vt 0.614088 0.458632
vt 0.715195 0.377472
vt 0.692011 0.416410
vt 0.639020 0.466557
vt 0.614451 0.460864
vt 0.639004 0.464304
vt 0.614467 0.458632
vt 0.639404 0.464304
vt 0.614092 0.361015
s 1
usemtl default
f 29/82/1 1/1/1 2/4/1 30/84/1
f 30/85/2 2/5/2 4/10/2 31/87/2
f 31/86/3 4/11/3 3/7/3 32/88/3
f 3/8/4 1/2/4 29/83/4 32/89/4
f 4/12/5 2/6/5 6/16/5 7/19/5
f 21/59/6 11/30/6 12/33/6 22/62/6
f 7/19/7 8/22/7 3/9/7 4/12/7
f 1/3/8 5/13/8 6/16/8 2/6/8
f 3/9/9 8/22/9 5/13/9 1/3/9
f 9/26/10 13/37/10 14/39/10 10/29/10
f 10/27/11 24/68/11 23/65/11 9/25/11
f 23/66/12 22/63/12 12/34/12 9/25/12
f 24/69/13 10/28/13 11/31/13 21/60/13
f 16/44/14 20/56/14 17/47/14 13/36/14
f 12/35/15 16/45/15 13/37/15 9/26/15
f 10/29/16 14/39/16 15/42/16 11/32/16
f 11/32/17 15/42/17 16/45/17 12/35/17
f 17/48/18 20/57/18 19/53/18 18/50/18
f 15/43/19 14/40/19 18/51/19 19/54/19
f 15/43/20 19/55/20 20/58/20 16/46/20
f 17/49/21 18/52/21 14/41/21 13/38/21
f 27/77/22 26/74/22 24/70/22 21/61/22
f 23/67/23 28/79/23 25/71/23 22/64/23
f 24/70/24 26/74/24 28/79/24 23/67/24
f 25/71/25 27/77/25 21/61/25 22/64/25
f 27/78/26 25/72/26 8/23/26 7/20/26
f 6/17/27 5/14/27 28/80/27 26/75/27
f 28/81/28 5/15/28 8/24/28 25/73/28
f 6/18/29 26/76/29 27/78/29 7/21/29
f 39/107/30 37/101/30 31/86/30 32/88/30
f 35/97/31 40/109/31 29/82/31 30/84/31
f 39/106/32 32/89/32 29/83/32 40/108/32
f 37/102/33 35/96/33 30/85/33 31/87/33
f 36/98/34 38/103/34 34/93/34 33/90/34
f 34/94/35 38/104/35 39/106/35 40/108/35
f 38/105/36 36/99/36 37/101/36 39/107/36
f 35/96/37 37/102/37 36/100/37 33/91/37
f 34/95/38 40/109/38 35/97/38 33/92/38
