# Blender 3.5.1
# www.blender.org
o pacholek
v -0.000751 0.006507 0.230193
v -0.202954 0.006507 0.113451
v -0.202954 0.006507 -0.120038
v -0.000751 0.006507 -0.236780
v 0.201457 0.006507 -0.120038
v 0.201457 0.006507 0.113451
v -0.000751 0.748532 -0.003293
v 0.272946 -0.000065 -0.268671
v 0.272946 0.055413 -0.268671
v 0.272946 -0.000065 0.272291
v 0.272946 0.055413 0.272291
v -0.270396 -0.000065 -0.268671
v -0.270396 0.055413 -0.268671
v -0.270396 -0.000065 0.272291
v -0.270396 0.055413 0.272291
vn -0.4824 0.2629 0.8356
vn -0.9648 0.2629 -0.0000
vn -0.4824 0.2629 -0.8356
vn 0.4824 0.2629 -0.8356
vn 0.9648 0.2629 -0.0000
vn 0.4824 0.2629 0.8356
vn 1.0000 -0.0000 -0.0000
vn -0.0000 -0.0000 1.0000
vn -1.0000 -0.0000 -0.0000
vn -0.0000 -0.0000 -1.0000
vn -0.0000 -1.0000 -0.0000
vn -0.0000 1.0000 -0.0000
vt 0.406141 0.220806
vt 0.405775 0.220905
vt 0.473132 0.222948
vt 0.473564 0.223014
vt 0.438320 0.221940
vt 0.438685 0.222040
vt 0.439051 0.222139
vt 0.475399 0.209054
vt 0.474966 0.209120
vt 0.406506 0.220706
vt 0.473564 0.221569
vt 0.439051 0.220698
vt 0.475399 0.210499
vt 0.406506 0.222147
vt 0.415408 0.176198
vt 0.415408 0.174166
vt 0.447009 0.151235
vt 0.415305 0.176198
vt 0.415304 0.174166
vt 0.448023 0.152253
vt 0.415408 0.175184
vt 0.415408 0.174166
vt 0.448023 0.151235
vt 0.415305 0.175184
vt 0.415304 0.174166
vt 0.449037 0.152253
vt 0.415408 0.176198
vt 0.415408 0.175184
vt 0.447009 0.152253
vt 0.415305 0.176198
vt 0.415304 0.175184
vt 0.448023 0.151235
vt 0.415408 0.173148
vt 0.415408 0.177212
vt 0.448023 0.152253
vt 0.415304 0.173148
vt 0.415305 0.177212
vt 0.449037 0.151235
s 1
f 1/1/1 7/14/1 2/2/1
f 2/3/2 7/11/2 3/4/2
f 3/5/3 7/12/3 4/6/3
f 4/6/4 7/12/4 5/7/4
f 5/8/5 7/13/5 6/9/5
f 6/10/6 7/14/6 1/1/6
f 10/21/7 8/15/7 9/18/7 11/24/7
f 11/25/8 15/36/8 14/33/8 10/22/8
f 13/30/9 12/27/9 14/34/9 15/37/9
f 9/19/10 8/16/10 12/28/10 13/31/10
f 12/29/11 8/17/11 10/23/11 14/35/11
f 11/26/12 9/20/12 13/32/12 15/38/12
